<svg width="283" height="283" viewBox="0 0 283 283" fill="none" xmlns="http://www.w3.org/2000/svg">
<mask id="path-1-inside-1_179_524" fill="white">
<path fill-rule="evenodd" clip-rule="evenodd" d="M141.5 0C219.648 0 283 63.3517 283 141.5C283 219.648 219.648 283 141.5 283C63.3517 283 0 219.648 0 141.5C0 63.3517 63.3517 0 141.5 0ZM141.503 50.7651C191.617 50.7651 232.242 91.3906 232.242 141.505C232.242 191.619 191.617 232.244 141.503 232.244C91.3889 232.244 50.7634 191.619 50.7634 141.505C50.7634 91.3906 91.3889 50.7651 141.503 50.7651Z"/>
</mask>
<path fill-rule="evenodd" clip-rule="evenodd" d="M141.5 0C219.648 0 283 63.3517 283 141.5C283 219.648 219.648 283 141.5 283C63.3517 283 0 219.648 0 141.5C0 63.3517 63.3517 0 141.5 0ZM141.503 50.7651C191.617 50.7651 232.242 91.3906 232.242 141.505C232.242 191.619 191.617 232.244 141.503 232.244C91.3889 232.244 50.7634 191.619 50.7634 141.505C50.7634 91.3906 91.3889 50.7651 141.503 50.7651Z" fill="#BED4FD"/>
<path d="M284 141.5C284 62.7994 220.201 -1 141.5 -1V1C219.096 1 282 63.904 282 141.5H284ZM141.5 284C220.201 284 284 220.201 284 141.5H282C282 219.096 219.096 282 141.5 282V284ZM-1 141.5C-1 220.201 62.7994 284 141.5 284V282C63.904 282 1 219.096 1 141.5H-1ZM141.5 -1C62.7994 -1 -1 62.7994 -1 141.5H1C1 63.904 63.904 1 141.5 1V-1ZM233.242 141.505C233.242 90.8383 192.169 49.7651 141.503 49.7651V51.7651C191.065 51.7651 231.242 91.9428 231.242 141.505H233.242ZM141.503 233.244C192.169 233.244 233.242 192.171 233.242 141.505H231.242C231.242 191.066 191.065 231.244 141.503 231.244V233.244ZM49.7634 141.505C49.7634 192.171 90.8366 233.244 141.503 233.244V231.244C91.9411 231.244 51.7634 191.066 51.7634 141.505H49.7634ZM141.503 49.7651C90.8366 49.7651 49.7634 90.8383 49.7634 141.505H51.7634C51.7634 91.9428 91.9411 51.7651 141.503 51.7651V49.7651Z" fill="black" mask="url(#path-1-inside-1_179_524)"/>
</svg>
