<svg width="63" height="63" viewBox="0 0 63 63" fill="none" xmlns="http://www.w3.org/2000/svg">
<path d="M33.8564 54.8526L38.7924 40.9224C39.1449 39.9276 39.9276 39.1449 40.9224 38.7924L54.8526 33.8564C57.0726 33.0698 57.0726 29.9302 54.8526 29.1436L40.9224 24.2076C39.9276 23.8551 39.1449 23.0724 38.7924 22.0776L33.8564 8.14742C33.0698 5.92738 29.9302 5.92738 29.1436 8.14742L24.2076 22.0776C23.8551 23.0724 23.0724 23.8551 22.0776 24.2076L8.14742 29.1436C5.92738 29.9302 5.92738 33.0698 8.14742 33.8564L22.0776 38.7924C23.0724 39.1449 23.8551 39.9276 24.2076 40.9224L29.1436 54.8526C29.9302 57.0726 33.0698 57.0726 33.8564 54.8526Z" fill="#61bbee" stroke="black"/>
</svg>
