<svg xmlns="http://www.w3.org/2000/svg" viewBox="0 0 411.05 1156.99"><g data-name="Layer 2" style="isolation:isolate"><g data-name="FINISHED"><g data-name="BEYZA"><g data-name="base"><path d="M349.02 204.13c-14.11-12.91-27.99-28.28-42.57-40.29a36.967 36.967 0 0 0-4.9-3.36c-.3-.18-.61-.35-.92-.53 3.22-2.32 6.71-7.09 8.42-11.58 2.28-5.98 2.89-11.1 2.42-14.7 62.54 34.53 104.96 62.94 98.4 81.5-2.48 7.01-9.01 12.71-17.23 17.27-17.88 9.93-43.79 14.55-53.69 15.97-3.72-12.15-4.4-26.82-4.48-36.12-.02-2.13.56-4.26 1.82-5.99.26-.35.53-.67.83-.97 2.87-.31 6.32-.63 9.44-.94.85-.09 1.68-.17 2.46-.26Z" style="fill:#e7f2fe"/><path d="m392.64 232.44.15.28c-7.74 21.43-21.56 36.45-33.44 36.59-.95 0-1.88-.07-2.8-.25-9.07-1.78-14.44-10.3-17.6-20.65 9.9-1.42 35.81-6.04 53.69-15.97Z" style="fill:#aff4ff"/><path d="M356.55 269.06c.92.18 1.85.26 2.8.25-18.41 4.73-33.07 8.68-40.48 18.57-31.93 42.61-38.81 131.01-38.1 219.1-4.31-1.28-9.66.39-16.12 3.62-14.94 7.45-35.86 23.18-63.84 29.83-16.35 3.89-33.59.22-46.91-10.02-19.65-15.12-48.09-38.38-74.15-42.98-7.72-1.37-15.24-1.09-22.25 1.52 40.17-94.6 57.57-178.23 36.58-210.4-4.97-7.62-17.51-11.21-35.43-16.37.68 0 4.15-15.47 10.23-22.56 2.66-3.1 4.85-6.55 6.63-10.19 7.82-15.96 7.82-35.64 5.94-46.45-.7-3.99-1.64-6.76-2.55-7.7 24.6 13.37 44.84 24.09 71.32 32.78-5.86 1.53-11.69 3.17-17.64 4.48 2.25 2.63 16.92 5.05 24.56 12.97 4.07.22 8.98-.8 11.76-1.6-3.55 5.65-6.04 10.9-5.53 13.71 8.43 6.64 22.27 18.78 32.97 33.04 3.77-7.98 28.87-30.6 44.25-27.13 1.6.64 3.61.89 5.98 3.26.49-3.46-.91-6.83-1.35-10.26-.48-3.68 1.36-7.25 4.54-9.17 4.27-2.57 9.93-4.31 15.66-5.48-8.17-3.39-17.05-8.29-25.59-12.34l.04-.09c9.2 4.26 51.01-6.25 100.91-6.25-1.36.31-2.62 1.05-3.66 2.13-.3.3-.57.62-.83.97-1.26 1.73-1.84 3.86-1.82 5.99.08 9.3.76 23.97 4.48 36.12 3.16 10.35 8.53 18.87 17.6 20.65Zm-152.5 15.62c0-3.87-3.14-7.01-7.01-7.01s-7.02 3.14-7.02 7.01 3.14 7.02 7.02 7.02 7.01-3.14 7.01-7.02Z" style="fill:#fff"/><path d="M340.78 203.2c1.82-.42 3.82-.09 5.78 1.19-3.12.31-6.57.63-9.44.94 1.04-1.08 2.3-1.82 3.66-2.13Z" style="fill:#aff4ff"/><path d="M293.79 156.44c-4.15-1.81-8.97-3.22-14.99-3.52-16.02-.8-25.38 14.91-33.36 7.56-1.8-1.66-2.8-4.01-2.99-6.45-.51-6.65 4.43-8.33 10.85-7.75 2.21.2 7.16-3.24 6.76-6.16-.34-5.97-4.8-5.43-7.18-12.4-2.12-1.39-2.87-4.11-2-6.45.11-.31.26-.62.44-.92 3.39-5.67 6.96-9.89 10.85-13.28.53-.46 1.07-.91 1.62-1.35 1.18-.95 2.5-1.69 3.89-2.2 3.02-1.15 6.39-1.24 9.49-.11 8.11 2.94 17.02 10.87 23.18 21.38 1.1 1.87 2.55 3.51 4.25 4.83.74.6 1.54 1.12 2.38 1.58 1.51.83 3.01 1.65 4.49 2.47.47 3.6-.14 8.72-2.42 14.7-1.71 4.49-5.2 9.26-8.42 11.58-2.11-1.21-4.36-2.43-6.84-3.51Z" style="fill:#e7f2fe"/><path d="M264.65 510.6c6.46-3.23 11.81-4.9 16.12-3.62-1.13 6.51-5.4 11.02-15.23 14.47-.28-3.61-.58-7.23-.89-10.85Z" style="fill:#aff4ff"/><path d="M267.68 103.51c-1.39.52-2.71 1.26-3.89 2.21-.55.44-1.09.89-1.62 1.35-6.2 2.13-11.9 2.09-17 1.15-5.09-2.81-12.75-21.71-4.32-22.85 6.67-.9 10.97 17.4 26.83 18.14Z" style="fill:#e7f2fe"/><path d="M265.54 521.45c16.46 203.85 5.27 388.7-19.38 565.43-8.31-1.31-15.21 2.18-21.9 5.64-6.6 3.41-13 6.78-20.37 5.47-13.19-2.35-19.49-8.19-25.35-13.4-5.5-4.89-10.61-9.22-20.63-9.63 17.67-161.79 22.8-325.58 8.35-492.5-4.77-.4-9.54-.8-14.31-1.19-37.42 166.03-45.19 331.02-19.18 494.83-.09.02-.18.02-.29.03-3.65.14-17.41-8.34-34.84-12.64-9.53-2.35-20.14-3.45-30.81-1.2-2.81.58-5.62 1.4-8.41 2.5-2.25.87-4.49 1.92-6.7 3.17-3.63 2.04-7.21 4.6-10.68 7.76-28.23-188.9-18.84-377.61 32.48-566.13 2.01-7.39 4.09-14.77 6.23-22.16 26.06 4.6 54.5 27.86 74.15 42.98 13.32 10.24 30.56 13.91 46.91 10.02 27.98-6.65 48.9-22.38 63.84-29.83.31 3.62.61 7.24.89 10.85Z" style="fill:#163f94"/><path d="M265.42 221.88c-5.73 1.17-11.39 2.91-15.66 5.48-3.18 1.92-5.02 5.49-4.54 9.17.44 3.43 1.84 6.8 1.35 10.26-2.37-2.37-4.38-2.62-5.98-3.26-15.38-3.47-40.48 19.15-44.25 27.13 5.14-15.84 8.4-39.11 33.97-43.25-.35-6.51-6.55-15.91-10.84-16.95h-.01c-.58-2.61-1.14-5.34-1.69-8.17 6.5.43 14.13 3.48 22.06 7.25 8.54 4.05 17.42 8.95 25.59 12.34Z" style="fill:#aff4ff"/><path d="M245.17 108.22c5.1.94 10.8.98 17-1.15-3.89 3.39-7.46 7.61-10.85 13.28-.18.3-.33.61-.44.92l-.08-.03c-10.07 3.03-20.64-1.35-26.55-6.8-4.32-3.96-6.16-8.5-3.5-11.13 1.16-1.15 2.68-1.44 4.51-1.2 4.69.59 11.48 4.57 19.91 6.11Z" style="fill:#e7f2fe"/><path d="M224.26 1092.52c6.69-3.46 13.59-6.95 21.9-5.64-2.66 1.95-9.21 7.58-21.09 10.56-.33-1.74-.59-3.38-.81-4.92Z" style="fill:#00326c"/><path d="M232.83 1128.96c.12 1.77.08 3.52-.02 5.22-.28 4.76-2.67 9.16-6.53 11.95-5.35 3.87-13.96 8.44-25.26 9.15-14.4.9-24.34-6.01-29.59-11.52-2.89-3.03-4.48-7.08-4.51-11.27-.01-1.16.04-2.34.18-3.52h.01c2.89 2.61 14.5 14.42 31.89 14.86 18.94.48 31.18-12.48 33.82-14.87h.01Z" style="fill:#01487b"/><path d="M167.11 1128.97h-.01c.05-.4.12-.8.19-1.2 2.65-13.81 5.85-26.01 8.98-36.13.76-2.48 1.52-4.83 2.27-7.05 5.86 5.21 12.16 11.05 25.35 13.4 7.37 1.31 13.77-2.06 20.37-5.47.22 1.54.48 3.18.81 4.92 1.26 7 3.37 15.6 6.68 25.71.64 1.94.95 3.89 1.08 5.81h-.01c-2.64 2.39-14.88 15.35-33.82 14.87-17.39-.44-29-12.25-31.89-14.86Z" style="fill:#fff"/><path d="M211.92 35.12c12.12 1.02 19.96 7.19 17.95 15.1h.01c10.11 4.27 6.43 25.16.11 27.72 2.18 4.69-1.22 12.29-6.63 13.26-.12.02-.23.05-.35.06-.52-1.26-1.12-2.34-1.78-3.18-1.01-1.55-5.16-4.72-9.33-4.95.02-.26.03-.51.01-.75-1.08-21.77-11.11-34.62-24.59-40.7-1.4-5.48 3.17-7.57 5.32-8.91.42-.27.37-.93-.1-1.09-3.33-1.07-11.52 4.02-9.92 8.2-1.43-.46-2.88-.85-4.36-1.18-2.45-10.78 24.06-17.99 33.66-3.58Zm12.74 25.16c.59-5.64-2.18-9.15-5.33-7.66-.44.21-.71.67-.68 1.16.17 2.93 1.12 12.14 1.2 13.32.18 2.67 4.16-.61 4.81-6.82Z" style="fill:#01487b"/><path d="M219.47 210.46c4.29 1.04 10.49 10.44 10.84 16.95-25.57 4.14-28.83 27.41-33.97 43.25-3.59-27.87-11.5-41.39-20.42-52.41-1.38-1.69-1.3-4.16.32-5.61a7.45 7.45 0 0 1 3.52-1.74c.34-2.57.58-5.13.72-7.7.43-7.38.05-14.76-1.3-22.13 14.76-4.97 29.52-25 32.28-44.62-.61 19.33 2.32 45.13 6.31 65.84.55 2.83 1.11 5.56 1.69 8.17h.01Z" style="fill:#e7f2fe"/><path d="M211.46 136.45c-2.76 19.62-17.52 39.65-32.28 44.62-.43.15-.86.28-1.29.4-11.05 3.05-21.87.08-31.3-6.26-5.36-3.61-10.28-8.31-14.52-13.62-8.22-10.26-13.95-22.8-15.65-34.09-7.02-13.21-8.29-26.3-6.78-37.43.27 0 .55-.06.81-.15 3.99-1.39 7.14-8.65 7.04-15.2 3.99 1.67 10.05-2.23 9.34-7.06 12.66 1.47 20.79-3.06 27.55-9.38 7.85 6.49 14.76 8.76 20.63 6.33 2.56 11.51 8.91 20.07 17.59 20.72v.04c.86 1.67 5.35 10.02 9.95 9.95 1.14-9.82 5.25-12.43 9.35-12.19 4.17.23 8.32 3.4 9.33 4.95.66.84 1.26 1.92 1.78 3.18 1.2 2.89 2 6.74 2.25 10.85-1.83-.24-3.35.05-4.51 1.2-2.66 2.63-.82 7.17 3.5 11.13-.68 2.75-1.69 5.29-3.09 7.37h-.01c-.65.97-1.38 1.84-2.2 2.59-.39-8.67-6.86-5.67-6.99-1.75-.05 1.55-.12 3.22-.12 4.9 0 .94.02 1.87.08 2.79-.01 2.02-.17 4.07-.46 6.11Zm-38.67-31.18c0-3.85-3.13-6.98-6.98-6.98s-6.98 3.13-6.98 6.98 3.12 6.98 6.98 6.98 6.98-3.12 6.98-6.98Zm-15.82-10.72c2.66-1.57 5.37-4.89 4.48-6.86-.97-2.14-6.13-2.46-9.58-.44-2.99 1.75-5.35 5.64-4.22 7.56 1.19 2.04 6.11 1.63 9.32-.26Zm-23.81 28.75a6.98 6.98 0 1 0-13.96 0 6.98 6.98 0 0 0 13.96 0Zm-10.84-11.39c3.87-1.4 7.89-4.77 6.93-7.28-.9-2.38-6.04-2.54-9.64-.9-3.81 1.74-5.91 4.93-4.75 7.6.83 1.43 4.87 1.52 7.46.58Z" style="fill:#e7f2fe"/><path d="M221.16 121.81c7.24 1.4 7.89 18.93-1.27 18.89-6.01-.03-7.63-4.88-7.97-10.36 0-.93-.02-1.86-.08-2.78 0-1.69.07-3.36.12-4.91.13-3.92 6.6-6.92 6.99 1.75.82-.75 1.55-1.62 2.2-2.59h.01Z" style="fill:#00dbff"/><path d="M117.49 74.72c.1 6.55-3.05 13.81-7.04 15.2-.26.09-.54.14-.81.14-1.35.06-2.62-.86-2.96-2.24-1.43-7.65.03-14.87 3.52-21.33 3.51-1.36 6.38-5.03 8.11-10.55 14.54-14.14 39.46-21.82 59.95-17.24 1.48.33 2.93.72 4.36 1.18.22.08.43.14.62.21 1.39.47 2.75 1 4.08 1.59 13.48 6.08 23.51 18.93 24.59 40.7.02.24.01.49-.01.75-4.1-.24-8.21 2.37-9.35 12.19-4.6.07-9.09-8.28-9.95-9.95v-.04c-8.68-.65-15.03-9.21-17.59-20.72-5.87 2.43-12.78.16-20.63-6.33-6.76 6.32-14.89 10.85-27.55 9.38.71 4.83-5.35 8.73-9.34 7.06Z" style="fill:#01487b"/><path d="M197.04 277.67c3.87 0 7.01 3.14 7.01 7.01s-3.14 7.02-7.01 7.02-7.02-3.14-7.02-7.02 3.14-7.01 7.02-7.01ZM175.92 218.25c8.92 11.02 16.83 24.54 20.42 52.41-10.7-14.26-24.54-26.4-32.97-33.04-.51-2.81 1.98-8.06 5.53-13.71-2.78.8-7.69 1.82-11.76 1.6-7.64-7.92-22.31-10.34-24.56-12.97 5.95-1.31 11.78-2.95 17.64-4.48 9.83-2.58 19.72-4.86 30.26-4.86-.14 2.57-.38 5.13-.72 7.7-1.4.28-2.61.92-3.52 1.74-1.62 1.45-1.7 3.92-.32 5.61Z" style="fill:#aff4ff"/><path d="M178.54 1084.59c-.75 2.22-1.51 4.57-2.27 7.05-11.43-6.31-16.65-14.54-18.36-16.68 10.02.41 15.13 4.74 20.63 9.63Z" style="fill:#00326c"/><circle cx="165.81" cy="105.27" r="6.98" style="fill:#0078da"/><path d="M161.45 87.69c.89 1.97-1.82 5.29-4.48 6.86-3.21 1.89-8.13 2.3-9.32.26-1.13-1.92 1.23-5.81 4.22-7.56 3.45-2.02 8.61-1.7 9.58.44Z" style="fill:#01487b"/><path d="M124.74 1108.66c7.67 1.15 14.38 5.44 18.6 12.84 2.33 4.1 2.89 8.93 2.82 13.21-3.91 7.97-22.16 14.54-35.58 13.36-1.2-.11-2.38-.14-3.56-.35l-.02-.01c-19.52-1.53-47.71-28.74-58.63-50.63.6-5.27 1.1-10.74 1.67-16.07.47-4.51 1-8.93 1.68-13.04 2.21-1.26 4.45-2.31 6.7-3.18l.78 5.36c.16 1.11 1.6 1.43 2.21.49 1.8-2.78 3.61-5.57 5.42-8.35 10.67-2.25 21.28-1.15 30.81 1.2-.85 3.46-1.69 8.88-.53 15.14.09.5.19 1 .3 1.51.18.8.52 1.55 1.02 2.2 5.77 7.51 24.4 24.93 26.31 26.32Z" style="fill:#fff"/><path d="M146.16 1134.71c-.04 3.09-.42 5.9-.68 7.95s-1.79 3.71-3.56 4.79c-7.07 4.33-22.03 12.19-41.17 7.7-21.6-5.07-41.66-21.63-53.21-46.64-.36-.78-.47-1.65-.34-2.51.44-2.86.83-5.86 1.17-8.92 10.92 21.89 39.11 49.1 58.63 50.63l.02.01c1.18.21 2.36.24 3.56.35 13.42 1.18 31.67-5.39 35.58-13.36Z" style="fill:#01487b"/><path d="M146.59 175.21c-6.13 9.01-18.19-.96-14.52-13.62 4.24 5.31 9.16 10.01 14.52 13.62Z" style="fill:#00dbff"/><path d="M70.72 34.75c2.81-3.34 6.44-6.09 10.95-8.25l-.08-.8c-6.3-6-13.72-8.82-22.2-12.66-.9-.41-1.73-.95-2.45-1.62-.43-.4-.82-.84-1.16-1.32-2.78-3.95-1.23-7.55.81-8.91 3.48-2.32 21.15-.22 51.15 29.32 12.05-26.32 30.42-12.72 24.97-3.9-4.85 5.73-9.72 4.06-12.16 12.38-.33 1.1-.43 2.26-.43 3.41.02 5.25-.63 9.81-1.81 13.54-1.73 5.52-4.6 9.19-8.11 10.55-3.16 1.24-6.83.59-10.64-2.28-1.8 6.09-7.64 10.73-14.35 10.39v.02c-1.05 1.56-2.14 3.19-3.26 4.86-1.59 2.38-3.24 4.85-4.91 7.4-3.29-1.39-7.27-3.98-11.14-7.58-2.79-2.59-5-6.6-5.95-10.17.76-.76 1.51-1.5 2.26-2.22 1.59-1.54 3.14-2.98 4.63-4.31.53-.47 1.04-.93 1.55-1.37 1.22-1.14 1.65-2.01.51-3.12C37.53 34.94 46.35 9.72 53.11 10.38c1.09.06 2 .5 2.8 1.23 4.86 4.43 5.38 19.5 14.81 23.14Z" style="fill:#e7f2fe"/><path d="M132.48 1076.13c.11-.01.2-.01.29-.03-11.03 7.94-17.76 5.28-23.34 2.93-3.28-1.38-6.92-1.7-10.38-.86-.64.16-1.28.31-1.94.46-1.16-6.26-.32-11.68.53-15.14 17.43 4.3 31.19 12.78 34.84 12.64Z" style="fill:#00326c"/><circle cx="126.18" cy="123.3" r="6.98" style="fill:#0078da"/><path d="M129.25 104.63c.96 2.51-3.06 5.88-6.93 7.28-2.59.94-6.63.85-7.46-.58-1.16-2.67.94-5.86 4.75-7.6 3.6-1.64 8.74-1.48 9.64.9Z" style="fill:#01487b"/><path d="m81.59 25.7.08.8c-4.51 2.16-8.14 4.91-10.95 8.25-9.43-3.64-9.95-18.71-14.81-23.14l1.03-.19c.72.67 1.55 1.21 2.45 1.62 8.48 3.84 15.9 6.66 22.2 12.66ZM41.85 156.51c10.5 7 21.25 14.24 31.8 21.28 2.61 1.74 5.22 3.48 7.8 5.19 1.88 10.81 1.88 30.49-5.94 46.45-4.39-2.99-9.45-6.41-14.85-10.18-21.41-14.99-48.06-35.72-58.62-58.93-.01-.04-.03-.08-.04-.11-2.3-5.12-1.9-11.05.77-15.98 12.17-22.45 34.61-51.71 53.39-71.24-.32 3.57.22 7.95 1.6 11.53 3.31 8.59 7.85 13.73 11.17 14.88-14.83 23.3-29.1 48.46-27.08 57.11Z" style="fill:#e7f2fe"/><path d="M78.9 175.28c.91.94 1.85 3.71 2.55 7.7-2.58-1.71-5.19-3.45-7.8-5.19l.08-.12c2.35-2.68 3.65-2.73 4.5-2.75h.01c.22.13.44.25.66.36Z" style="fill:#aff4ff"/><path d="M77.04 86.88c-1.27 1.93-2.56 3.9-3.86 5.9a582.29 582.29 0 0 0-4.25 6.62c-3.32-1.15-7.86-6.29-11.17-14.88-1.38-3.58-1.92-7.96-1.6-11.53 1.28-1.34 2.54-2.63 3.79-3.86.95 3.57 3.16 7.58 5.95 10.17 3.87 3.6 7.85 6.19 11.14 7.58Z" style="fill:#e7f2fe"/><path d="M79.75 487.43c-2.14 7.39-4.22 14.77-6.23 22.16-8.97-4.64-13.56-11.4-16.02-20.64 7.01-2.61 14.53-2.89 22.25-1.52ZM75.51 229.43c-1.78 3.64-3.97 7.09-6.63 10.19-6.08 7.09-9.55 22.56-10.23 22.56h-.01c-4.76-1.39-3.54-23.32 2-42.9l.02-.03c5.4 3.77 10.46 7.19 14.85 10.18Z" style="fill:#aff4ff"/><path d="M66.83 1062.29c-1.81 2.78-3.62 5.57-5.42 8.35-.61.94-2.05.62-2.21-.49l-.78-5.36c2.79-1.1 5.6-1.92 8.41-2.5Z" style="fill:#e7f2fe"/><path d="M51.72 1067.97c-.68 4.11-1.21 8.53-1.68 13.04-4.89-1.04-8.23-2.76-9-5.29 3.47-3.16 7.05-5.72 10.68-7.75Z" style="fill:#00326c"/><path d="M48.37 1097.08c-.34 3.06-.73 6.06-1.17 8.92-.13.86-.02 1.73.34 2.51 11.55 25.01 31.61 41.57 53.21 46.64 19.14 4.49 34.1-3.37 41.17-7.7 1.77-1.08 3.3-2.74 3.56-4.79s.64-4.86.68-7.95" style="fill:none;stroke:#000;strokeLinecap:round;stroke-linejoin:round"/><path d="M95.49 1118.08c9.41-7.68 20.03-10.81 29.25-9.42M167.11 1128.97c3.64-18.77 15.06-29.63 37.87-24.73M167.11 1128.97c2.89 2.61 14.5 14.42 31.89 14.86 18.94.48 31.18-12.48 33.82-14.87M97.64 1063.49c17.43 4.3 31.19 12.78 34.84 12.64.11-.01.2-.01.29-.03-26.01-163.81-18.24-328.8 19.18-494.83 4.77.39 9.54.79 14.31 1.19 14.45 166.92 9.32 330.71-8.35 492.5 10.02.41 15.13 4.74 20.63 9.63M224.26 1092.52c6.69-3.46 13.59-6.95 21.9-5.64C270.81 910.15 282 725.3 265.54 521.45c-.28-3.61-.58-7.23-.89-10.85M66.83 1062.29c-2.81.58-5.62 1.4-8.41 2.5M51.72 1067.97c-3.63 2.03-7.21 4.59-10.68 7.75-28.23-188.9-18.84-377.61 32.48-566.13 2.01-7.39 4.09-14.77 6.23-22.16" style="fill:none;stroke:#000;strokeLinecap:round;stroke-linejoin:round"/><path d="M146.16 1134.71c-3.91 7.97-22.16 14.54-35.58 13.36-1.2-.11-2.38-.14-3.56-.35l-.02-.01c-19.52-1.53-47.71-28.74-58.63-50.63.6-5.27 1.1-10.74 1.67-16.07.47-4.51 1-8.93 1.68-13.04h0c2.21-1.26 4.45-2.31 6.7-3.18l.78 5.36c.16 1.11 1.6 1.43 2.21.49 1.8-2.78 3.61-5.57 5.42-8.35 10.67-2.25 21.28-1.15 30.81 1.2-.85 3.46-1.69 8.88-.53 15.14.09.5.19 1 .3 1.51.18.8.52 1.55 1.02 2.2 5.77 7.51 24.4 24.93 26.31 26.32 7.67 1.15 14.38 5.44 18.6 12.84 2.33 4.1 2.89 8.93 2.82 13.21Z" style="fill:none;stroke:#000;strokeLinecap:round;stroke-linejoin:round"/><path d="M97.11 1078.63c.66-.15 1.3-.3 1.94-.46 3.46-.84 7.1-.52 10.38.86 5.58 2.35 12.31 5.01 23.34-2.93M50.04 1081.01c-4.89-1.04-8.23-2.76-9-5.29M232.83 1128.96c.12 1.77.08 3.52-.02 5.22-.28 4.76-2.67 9.16-6.53 11.95-5.35 3.87-13.96 8.44-25.26 9.15-14.4.9-24.34-6.01-29.59-11.52-2.89-3.03-4.48-7.08-4.51-11.27-.01-1.16.04-2.34.18-3.52.05-.4.12-.8.19-1.2 2.65-13.81 5.85-26.01 8.98-36.13.76-2.48 1.52-4.83 2.27-7.05 5.86 5.21 12.16 11.05 25.35 13.4 7.37 1.31 13.77-2.06 20.37-5.47.22 1.54.48 3.18.81 4.92 1.26 7 3.37 15.6 6.68 25.71.64 1.94.95 3.89 1.08 5.81Z" style="fill:none;stroke:#000;strokeLinecap:round;stroke-linejoin:round"/><path d="M246.16 1086.88c-2.66 1.95-9.21 7.58-21.09 10.56M157.91 1074.96c1.71 2.14 6.93 10.37 18.36 16.68M58.64 262.18c-4.76-1.39-3.54-23.32 2-42.9M78.24 174.92c.21 0 .44.12.66.36.91.94 1.85 3.71 2.55 7.7 1.88 10.81 1.88 30.49-5.94 46.45-1.78 3.64-3.97 7.09-6.63 10.19-6.08 7.09-9.55 22.56-10.23 22.56M73.73 177.67c2.35-2.68 3.65-2.73 4.5-2.75" style="fill:none;stroke:#000;strokeLinecap:round;stroke-linejoin:round"/><path d="M78.23 174.92h.01c.22.13.44.25.66.36 24.6 13.37 44.84 24.09 71.32 32.78M58.64 262.18h.01c17.92 5.16 30.46 8.75 35.43 16.37 20.99 32.17 3.59 115.8-36.58 210.4 7.01-2.61 14.53-2.89 22.25-1.52 26.06 4.6 54.5 27.86 74.15 42.98 13.32 10.24 30.56 13.91 46.91 10.02 27.98-6.65 48.9-22.38 63.84-29.83 6.46-3.23 11.81-4.9 16.12-3.62-.71-88.09 6.17-176.49 38.1-219.1 7.41-9.89 22.07-13.84 40.48-18.57" style="fill:none;stroke:#000;strokeLinecap:round;stroke-linejoin:round"/><path d="M57.5 488.95c2.46 9.24 7.05 16 16.02 20.64M280.77 506.98c-1.13 6.51-5.4 11.02-15.23 14.47M345.27 204.54s1.31-.12 1.31-.14c-.01 0-.01-.01-.02-.01-1.96-1.28-3.96-1.61-5.78-1.19-1.36.31-2.62 1.05-3.66 2.13-.3.3-.57.62-.83.97-1.26 1.73-1.84 3.86-1.82 5.99.08 9.3.76 23.97 4.48 36.12 3.16 10.35 8.53 18.87 17.6 20.65.92.18 1.85.26 2.8.25 11.88-.14 25.7-15.16 33.44-36.59" style="fill:none;stroke:#000;strokeLinecap:round;stroke-linejoin:round"/><path d="M340.78 203.2c-49.9 0-91.71 10.51-100.91 6.25M180.48 203.2c-10.54 0-20.43 2.28-30.26 4.86-5.86 1.53-11.69 3.17-17.64 4.48 2.25 2.63 16.92 5.05 24.56 12.97 4.07.22 8.98-.8 11.76-1.6-3.55 5.65-6.04 10.9-5.53 13.71 8.43 6.64 22.27 18.78 32.97 33.04 3.77-7.98 28.87-30.6 44.25-27.13 1.6.64 3.61.89 5.98 3.26.49-3.46-.91-6.83-1.35-10.26-.48-3.68 1.36-7.25 4.54-9.17 4.27-2.57 9.93-4.31 15.66-5.48-8.17-3.39-17.05-8.29-25.59-12.34-7.93-3.77-15.56-6.82-22.06-7.25" style="fill:none;stroke:#000;strokeLinecap:round;stroke-linejoin:round"/><path d="M179.76 210.9c-1.4.28-2.61.92-3.52 1.74-1.62 1.45-1.7 3.92-.32 5.61 8.92 11.02 16.83 24.54 20.42 52.41 5.14-15.84 8.4-39.11 33.97-43.25-.35-6.51-6.55-15.91-10.84-16.95M204.05 284.68a7.014 7.014 0 1 1-14.03 0c0-3.88 3.14-7.01 7.02-7.01s7.01 3.14 7.01 7.01ZM211.84 127.55c0-.06-.01-.13-.01-.19M109.64 90.07c-1.51 11.13-.24 24.22 6.78 37.43 1.7 11.29 7.43 23.83 15.65 34.09 4.24 5.31 9.16 10.01 14.52 13.62 9.43 6.34 20.25 9.31 31.3 6.26.43-.12.86-.25 1.29-.4 14.76-4.97 29.52-25 32.28-44.62.29-2.04.45-4.09.46-6.11 0-.93-.02-1.86-.08-2.78M221.16 121.81c1.4-2.08 2.41-4.62 3.09-7.37M218.95 124.4c.82-.75 1.55-1.62 2.2-2.59M223.01 91.26c1.2 2.89 2 6.74 2.25 10.85" style="fill:none;stroke:#000;strokeLinecap:round;stroke-linejoin:round"/><path d="M179.18 181.07c1.35 7.37 1.73 14.75 1.3 22.13-.14 2.57-.38 5.13-.72 7.7-.11.91-.24 1.82-.38 2.73M211.46 136.4v.05c-.61 19.33 2.32 45.13 6.31 65.84.55 2.83 1.11 5.56 1.69 8.17h.01a201.4 201.4 0 0 0 2.07 8.62M82.89 74.29c.78.18 1.55.28 2.32.31 6.71.34 12.55-4.3 14.35-10.39 1.06-3.59.71-7.7-1.71-11.58M107.74 30.51C77.74.97 60.07-1.13 56.59 1.19c-2.04 1.36-3.59 4.96-.81 8.91.34.48.73.92 1.16 1.32.72.67 1.55 1.21 2.45 1.62 8.48 3.84 15.9 6.66 22.2 12.66M118.31 55.94c1.18-3.73 1.83-8.29 1.81-13.54 0-1.15.1-2.31.43-3.41 2.44-8.32 7.31-6.65 12.16-12.38M99.56 64.21c3.81 2.87 7.48 3.52 10.64 2.28" style="fill:none;stroke:#000;strokeLinecap:round;stroke-linejoin:round"/><path d="M132.71 26.61c5.45-8.82-12.92-22.42-24.97 3.9M88.24 23.97c-2.37.73-4.56 1.57-6.57 2.53-4.51 2.16-8.14 4.91-10.95 8.25-.95 1.13-1.81 2.33-2.57 3.59" style="fill:none;stroke:#000;strokeLinecap:round;stroke-linejoin:round"/><path d="M70.72 34.75c-9.43-3.64-9.95-18.71-14.81-23.14-.8-.73-1.71-1.17-2.8-1.23-6.76-.66-15.58 24.56 15.79 47.73M81.45 182.98c-2.58-1.71-5.19-3.45-7.8-5.19-10.55-7.04-21.3-14.28-31.8-21.28-1.63-1.09-3.25-2.17-4.87-3.24" style="fill:none;stroke:#000;strokeLinecap:round;stroke-linejoin:round"/><path d="M41.85 156.51c-2.02-8.65 12.25-33.81 27.08-57.11 1.41-2.23 2.83-4.44 4.25-6.62 1.3-2 2.59-3.97 3.86-5.9 1.67-2.55 3.32-5.02 4.91-7.4 1.12-1.67 2.21-3.3 3.26-4.86" style="fill:none;stroke:#000;strokeLinecap:round;stroke-linejoin:round"/><path d="M75.51 229.43c-4.39-2.99-9.45-6.41-14.85-10.18-21.41-14.99-48.06-35.72-58.62-58.93-.01-.04-.03-.08-.04-.11-2.3-5.12-1.9-11.05.77-15.98 12.17-22.45 34.61-51.71 53.39-71.24 1.28-1.34 2.54-2.63 3.79-3.86.76-.76 1.51-1.5 2.26-2.22 1.59-1.54 3.14-2.98 4.63-4.31.53-.47 1.04-.93 1.55-1.37M68.9 58.11c1.14 1.11.71 1.98-.51 3.12M337.12 205.33c2.87-.31 6.32-.63 9.44-.94.85-.09 1.68-.17 2.46-.26h.02" style="fill:none;stroke:#000;strokeLinecap:round;stroke-linejoin:round"/><path d="M270.22 114.81a32.6 32.6 0 0 1-.66 3.57c-2.91 11.9-11.13 12.62-16.47 9.47-.07-.04-.14-.09-.21-.13-2.12-1.39-2.87-4.11-2-6.45.11-.31.26-.62.44-.92 3.39-5.67 6.96-9.89 10.85-13.28.53-.46 1.07-.91 1.62-1.35 1.18-.95 2.5-1.69 3.89-2.2 3.02-1.15 6.39-1.24 9.49-.11 8.11 2.94 17.02 10.87 23.18 21.38 1.1 1.87 2.55 3.51 4.25 4.83.74.6 1.54 1.12 2.38 1.58 1.51.83 3.01 1.65 4.49 2.47 62.54 34.53 104.96 62.94 98.4 81.5-2.48 7.01-9.01 12.71-17.23 17.27-17.88 9.93-43.79 14.55-53.69 15.97" style="fill:none;stroke:#000;strokeLinecap:round;stroke-linejoin:round"/><path d="M269.56 118.38c1.61 4.75 4.69 8.32 9.24 9.66M267.68 103.51c-15.86-.74-20.16-19.04-26.83-18.14-8.43 1.14-.77 20.04 4.32 22.85.01 0 .02 0 .03.02M224.25 114.44c-4.32-3.96-6.16-8.5-3.5-11.13 1.16-1.15 2.68-1.44 4.51-1.2M224.25 114.44c5.91 5.45 16.48 9.83 26.55 6.8" style="fill:none;stroke:#000;strokeLinecap:round;stroke-linejoin:round"/><path d="M225.26 102.11c4.69.59 11.48 4.57 19.91 6.11 5.1.94 10.8.98 17-1.15M252.88 127.72c2.38 6.97 6.84 6.43 7.18 12.4.4 2.92-4.55 6.36-6.76 6.16-6.42-.58-11.36 1.1-10.85 7.75.19 2.44 1.19 4.79 2.99 6.45 7.98 7.35 17.34-8.36 33.36-7.56 6.02.3 10.84 1.71 14.99 3.52 2.48 1.08 4.73 2.3 6.84 3.51.31.18.62.35.92.53 1.71.99 3.36 2.1 4.9 3.36 14.58 12.01 28.46 27.38 42.57 40.29 9.25 8.47 18.61 15.88 28.32 20.59" style="fill:none;stroke:#000;strokeLinecap:round;stroke-linejoin:round"/><circle cx="165.81" cy="105.27" r="6.98" style="fill:none;stroke:#000;strokeLinecap:round;stroke-linejoin:round"/><circle cx="126.18" cy="123.3" r="6.98" style="fill:none;stroke:#000;strokeLinecap:round;stroke-linejoin:round"/><path d="M156.97 94.55c-3.21 1.89-8.13 2.3-9.32.26-1.13-1.92 1.23-5.81 4.22-7.56 3.45-2.02 8.61-1.7 9.58.44.89 1.97-1.82 5.29-4.48 6.86ZM122.32 111.91c-2.59.94-6.63.85-7.46-.58-1.16-2.67.94-5.86 4.75-7.6 3.6-1.64 8.74-1.48 9.64.9.96 2.51-3.06 5.88-6.93 7.28ZM140.46 137.8c.47-6.58 4.36-9.2 14.09-8.19M142.7 156.69c3.94.83 3.31 1.54 16.8-4.73M159.5 151.96c8.84-3.92 14.76-7.98 17.03-13.01M210.63 94.54h0c2.43.38 3.88 2.49 4.22 4.4M110.2 66.49c3.51-1.36 6.38-5.03 8.11-10.55M183.24 40.09c1.39.47 2.75 1 4.08 1.59 13.48 6.08 23.51 18.93 24.59 40.7.02.24.01.49-.01.75M118.31 55.94c14.54-14.14 39.46-21.82 59.95-17.24 1.48.33 2.93.72 4.36 1.18M192.6 85.37c.86 1.67 5.35 10.02 9.95 9.95M110.2 66.49c-3.49 6.46-4.95 13.68-3.52 21.33.34 1.38 1.61 2.3 2.96 2.24.27 0 .55-.05.81-.14 3.99-1.39 7.14-8.65 7.04-15.2" style="fill:none;stroke:#000;strokeLinecap:round;stroke-linejoin:round"/><path d="M114.34 70.29c.46 2.41 1.66 3.8 3.15 4.42h0c3.99 1.68 10.05-2.22 9.34-7.05M126.83 67.66c12.66 1.47 20.79-3.06 27.55-9.38 1.31-1.23 2.58-2.52 3.81-3.85M154.38 58.28c7.85 6.49 14.76 8.76 20.63 6.33 1.19-.49 2.34-1.18 3.44-2.06" style="fill:none;stroke:#000;strokeLinecap:round;stroke-linejoin:round"/><path d="M175.01 64.61c2.56 11.51 8.91 20.07 17.59 20.72 2.96.23 6.18-.46 9.62-2.27M178.26 38.7c-2.45-10.78 24.06-17.99 33.66-3.58" style="fill:none;stroke:#000;strokeLinecap:round;stroke-linejoin:round"/><path d="M201.9 35.4c3.56-.47 6.93-.54 10.02-.28 12.12 1.02 19.96 7.19 17.95 15.1-.3 1.21-.84 2.47-1.64 3.76" style="fill:none;stroke:#000;strokeLinecap:round;stroke-linejoin:round"/><path d="M222.31 46.75c3.08 1.96 5.01 4.45 5.92 7.23h0c1.42 4.36.36 9.43-2.63 14.32" style="fill:none;stroke:#000;strokeLinecap:round;stroke-linejoin:round"/><path d="M224.66 60.28c.59-5.64-2.18-9.15-5.33-7.66-.44.21-.71.67-.68 1.16.17 2.93 1.12 12.14 1.2 13.32.18 2.67 4.16-.61 4.81-6.82ZM187.32 41.68c-1.4-5.48 3.17-7.57 5.32-8.91.42-.27.37-.93-.1-1.09-3.33-1.07-11.52 4.02-9.92 8.2.22.08.43.14.62.21 1.37.44 2.29.66 4.08 1.59ZM207.14 102.63c.17-3.14 1.18-5.9 3.5-8.09 1.4-1.33 3.29-2.45 5.76-3.31M202.55 95.32c1.14-9.82 5.25-12.43 9.35-12.19M211.9 83.13c4.17.23 8.32 3.4 9.33 4.95.66.84 1.26 1.92 1.78 3.18M229.88 50.22c10.11 4.27 6.43 25.16.11 27.72 2.18 4.69-1.22 12.29-6.63 13.26-.12.02-.23.05-.35.06M218.95 124.4c-.39-8.67-6.86-5.67-6.99-1.75-.05 1.55-.12 3.22-.12 4.9h0c0 .94.02 1.87.08 2.79.34 5.48 1.96 10.33 7.97 10.36 9.16.04 8.51-17.49 1.27-18.89h-.01M132.07 161.59c-3.67 12.66 8.39 22.63 14.52 13.62" style="fill:none;stroke:#000;strokeLinecap:round;stroke-linejoin:round"/><path d="M66.53 62.25c-5.46-2.49-7.38.1-7.08 4.13.07.86.24 1.79.5 2.75.95 3.57 3.16 7.58 5.95 10.17 3.87 3.6 7.85 6.19 11.14 7.58 6.56 2.78 10.42.85 5.34-7.12" style="fill:none;stroke:#000;strokeLinecap:round;stroke-linejoin:round;strokeWidth:2px"/><path d="M62.21 66.91c-1.06-.61-1.98-.76-2.76-.53-1.89.54-2.98 3.21-3.29 6.61-.32 3.57.22 7.95 1.6 11.53 3.31 8.59 7.85 13.73 11.17 14.88 2.93 1.02 4.91-1.06 4.25-6.62M304.6 129.62c3.34-3.1 6.2-1.09 6.87 4.05.47 3.6-.14 8.72-2.42 14.7-1.71 4.49-5.2 9.26-8.42 11.58-3.28 2.35-6.29 2.15-6.84-3.51-.01-.17-.03-.34-.04-.51" style="fill:none;stroke:#000;strokeLinecap:round;stroke-linejoin:round;strokeWidth:2px"/><circle cx="127.75" cy="119.38" r="2.24" style="fill:#fff"/><circle cx="167.17" cy="101.22" r="2.24" style="fill:#fff"/></g><g style="mix-blend-mode:multiply;opacity:.7" data-name="shadows"><path d="M311.48 133.67c62.54 34.53 104.96 62.94 98.4 81.5-2.48 7.01-9.01 12.71-17.23 17.27-.57.31-1.14.62-1.72.92-17.78 9.3-42.38 13.67-51.97 15.05-3.72-12.15-4.4-26.82-4.48-36.12-.02-2.13.56-4.26 1.82-5.99.26-.35.53-.67.83-.97 1.71-.19 3.63-.37 5.57-.56-4.34 4.37-5.22 11.54-4.82 17.89.09 1.4.24 2.86.99 4.05.87 1.37 2.41 2.16 3.92 2.78 10.96 4.54 23.88 3.38 34.4-2.1.34-.18.67-.36 1.01-.55 5.03-2.84 9.66-7.17 10.37-12.84.49-3.86-.96-7.76-3.18-10.95s-5.18-5.78-8.11-8.34c-18.87-16.47-37.73-32.94-56.6-49.41-2.96-2.58-5.94-5.18-9.12-7.46.11-1.55.08-2.95-.08-4.17Z" style="fill:#e7f2fe"/><path d="m390.93 233.36.22.42c-4.23 5.22-9.95 8.98-15.58 12.66-9.72 6.35-20.31 12.94-31.8 12.98-2-3.19-3.57-6.96-4.81-11.01 9.59-1.38 34.19-5.75 51.97-15.05Z" style="fill:#aff4ff"/><path d="M194.97 268.85c.46.6.92 1.2 1.38 1.81.11-.24.24-.49.39-.75 4.87-8.55 28.94-29.75 43.86-26.38 1.6.64 3.61.89 5.98 3.26.49-3.46-.91-6.83-1.35-10.26-.48-3.68 1.36-7.25 4.54-9.17 4.27-2.57 9.93-4.31 15.66-5.48-8.17-3.39-17.05-8.29-25.59-12.34l.04-.09c9.2 4.26 51.01-6.25 100.91-6.25-1.36.31-2.62 1.05-3.66 2.13-.3.3-.57.62-.83.97-1.26 1.73-1.84 3.86-1.82 5.99.08 9.3.76 23.97 4.48 36.12 1.24 4.05 2.81 7.82 4.81 11.01 3.12 4.97 7.27 8.56 12.79 9.64.92.18 1.85.26 2.8.25-18.41 4.73-33.07 8.68-40.48 18.57-31.93 42.61-38.81 131.01-38.1 219.1-4.31-1.28-9.66.39-16.12 3.62-14.94 7.45-35.86 23.18-63.84 29.83-16.35 3.89-33.59.22-46.91-10.02-4.26-3.28-8.95-6.95-13.93-10.72 9.94-6.63 23.88-5.8 36.06-8.11 26.57-5.02 47.28-26.96 58.81-51.42 11.52-24.46 15.55-51.64 21.01-78.12 6.69-32.49 15.75-64.98 14.89-98.14-.23-8.85-1.58-18.54-8.11-24.51-4.52-4.11-10.81-5.72-16.91-6.09a51.48 51.48 0 0 0-20.22 2.84c-12.06 4.28-22.01 12.84-32.21 20.56-.99.75-2.12 1.53-3.35 1.4-.92-.09-1.71-.69-2.42-1.29-10.65-9.04-14.87-25-27.41-31.14-1.14-.56-2.36-1.05-3.17-2.02-1.14-1.36-1.17-3.29-1.45-5.04-1.54-9.46-10.97-14.8-20.16-18.44-1.86-.74-2.87-2.75-2.31-4.68.21-.71.41-1.43.62-2.14 4.11 2.37 16.64 5.05 23.5 12.16 4.07.22 8.98-.8 11.76-1.6-3.55 5.65-6.04 10.9-5.53 13.71 8.07 6.36 21.1 17.76 31.59 31.23Z" style="fill:#b7d9ff"/><path d="M344.38 203.35c.73.22 1.46.57 2.19 1.04-1.26.12-2.57.25-3.87.38.51-.52 1.07-.99 1.68-1.42Z" style="fill:#aff4ff"/><path d="M344.38 203.35c-.61.43-1.17.9-1.68 1.42-1.94.19-3.86.37-5.57.56 1.04-1.08 2.3-1.82 3.66-2.13 1.14-.26 2.36-.23 3.59.15Z" style="fill:#aff4ff"/><path d="M269.57 118.38c-2.17 8.88-7.3 11.54-11.98 11 2.07-.58 3.79-2.26 4.73-4.23 1.05-2.2 1.25-4.71 1.1-7.14-.1-1.54-.37-3.16-1.42-4.29-1.05-1.12-5.92-3.1-9.95 6.83-.62 1.53-1.26 3.19-1.1 4.8a5.627 5.627 0 0 1-.06-4.08c.11-.31.26-.62.44-.92 1.4-2.33 2.83-4.43 4.3-6.31 2.09-2.7 4.26-4.98 6.55-6.97.53-.46 1.07-.91 1.62-1.35 1.18-.95 2.5-1.69 3.89-2.2 3.02-1.15 6.39-1.24 9.49-.11 8.11 2.94 17.02 10.87 23.18 21.38 1.1 1.87 2.55 3.51 4.25 4.83.74.6 1.54 1.12 2.38 1.58 1.51.83 3.01 1.65 4.49 2.47.16 1.22.19 2.62.08 4.17-1.76-1.26-3.59-2.43-5.51-3.44-8.31-4.38-17.86-5.65-27.25-6.2v-.16c-4.54-1.34-7.62-4.91-9.23-9.66Z" style="fill:#e7f2fe"/><path d="M280.78 506.98c-.07.4-.15.79-.24 1.18-5.32 2.05-10.44 5.03-15.32 7.95h-.09c-.16-1.83-.31-3.67-.47-5.51 6.46-3.23 11.81-4.9 16.12-3.62Z" style="fill:#aff4ff"/><path d="M269.08 571.74c10.8 181.13.06 347.52-21.81 507.17-15.4 4.36-30.04 17.95-44.12 11-7.1-3.5-11.02-11.55-11.84-19.42-.82-7.88.93-15.77 2.41-23.54 10.16-53.26 8.21-107.96 9.17-162.16 1.15-64.67 6.51-129.27 16.02-193.24 4.7-31.6 10.46-63.24 21.4-93.26 3.25-8.89 7.34-18.13 15.2-23.4 3.89-2.61 8.94-3.72 13.57-3.15Z" style="fill:#163f94"/><path d="M267.69 103.51c-1.39.52-2.71 1.26-3.89 2.21-.55.44-1.09.89-1.62 1.35-1.9.66-3.75 1.1-5.56 1.38-2.67-.67-5.06-2.79-6.66-5.15-2.92-4.3-4.18-9.66-3.6-14.81 4.6 5.06 10.04 14.49 21.33 15.02Z" style="fill:#e7f2fe"/><path d="M139.98 519.69c4.98 3.77 9.67 7.44 13.93 10.72 13.32 10.24 30.56 13.91 46.91 10.02 27.98-6.65 48.9-22.38 63.84-29.83.16 1.84.31 3.68.47 5.52l.42 5.33c.35 4.28.68 8.55 1 12.81-3.9 2.28-7.65 4.81-11.19 7.43-16.65 12.34-32.25 27.5-52.28 32.81-19.78 5.24-41.8-.5-57.47-13.67-11.14-9.37-19.28-22.14-31.39-30.21-9.76-6.51-21.38-9.47-32.16-14.09-3.11-1.33-6.21-2.87-9.15-4.66.21-.76.41-1.52.62-2.28 1.2-4.43 2.43-8.85 3.69-13.28.83-2.96 1.68-5.92 2.54-8.88 20.4 3.6 42.26 18.64 60.22 32.26Z" style="fill:#163f94"/><path d="M265.43 221.88c-5.73 1.17-11.39 2.91-15.66 5.48-3.18 1.92-5.02 5.49-4.54 9.17.44 3.43 1.84 6.8 1.35 10.26-2.37-2.37-4.38-2.62-5.98-3.26-14.92-3.37-38.99 17.83-43.86 26.38l-.05-.03c3.49-8.61 7.18-17.51 13.99-23.82 5.74-5.32 13.18-8.32 20.41-11.31 2-.83 4.16-1.81 5.15-3.74.57-1.12.66-2.43.6-3.68-.39-8.15-7.55-15.32-15.61-16.07-.61-.39-1.19-.67-1.75-.8h-.01c-.58-2.61-1.14-5.34-1.69-8.17 6.5.43 14.13 3.48 22.06 7.25 8.54 4.05 17.42 8.95 25.59 12.34Z" style="fill:#aff4ff"/><path d="M256.62 108.45c1.81-.28 3.66-.72 5.56-1.38-2.29 1.99-4.46 4.27-6.55 6.97l-.06-.05c-5.02 1.21-10.41.18-14.98-2.21-3.8-1.99-7.06-4.87-9.85-8.13 4.01 1.47 8.87 3.55 14.44 4.57 3.54.65 7.36.87 11.44.23ZM257.59 129.38c-.25.07-.5.12-.75.16-1.19.18-2.46-.08-3.51-.67-.15-.36-.3-.74-.44-1.15.07.04.14.09.21.13 1.36.8 2.9 1.35 4.49 1.53Z" style="fill:#e7f2fe"/><path d="M224.27 1092.52c6.69-3.46 13.59-6.95 21.9-5.64-2.66 1.95-9.21 7.58-21.09 10.56-.33-1.74-.59-3.38-.81-4.92Z" style="fill:#00326c"/><path d="M232.84 1128.96c.12 1.77.08 3.52-.02 5.22-.28 4.76-2.67 9.16-6.53 11.95-5.02 3.63-12.91 7.88-23.2 8.97.62-.42 1.22-.86 1.81-1.32 4.34-3.41 7.77-7.86 10.14-12.84 9.76-3.84 16-10.35 17.79-11.98Z" style="fill:#01487b"/><path d="M178.09 1085.96c.16-.46.31-.92.46-1.37 5.86 5.21 12.16 11.05 25.35 13.4 7.37 1.31 13.77-2.06 20.37-5.47.22 1.54.48 3.18.81 4.92 1.26 7 3.37 15.6 6.68 25.71.64 1.94.95 3.89 1.08 5.81-1.79 1.63-8.03 8.14-17.79 11.98 2.17-4.55 3.44-9.55 3.7-14.58.3-5.91-.89-12.21-4.9-16.56-3.23-3.5-7.95-5.35-12.67-5.98-4.73-.63-9.52-.16-14.26.3l-.02-.1c-11.07 2.85-17.26 12.02-19.77 24.95h-.01c.05-.4.12-.8.19-1.2 2.65-13.81 5.85-26.01 8.98-36.13.61-1.98 1.21-3.87 1.81-5.68Z" style="fill:#b7d9ff"/><path d="M228.24 53.98c.19-.31.37-.62.53-.92.34-.01.69-.09.98-.29.48-.34.73-.91 1.02-1.42.09-.17.19-.34.3-.5 8.62 5.34 4.99 24.64-1.07 27.09 2.18 4.69-1.22 12.29-6.63 13.26-.12.02-.23.05-.35.06-.52-1.26-1.12-2.34-1.78-3.18-1.01-1.55-5.16-4.72-9.33-4.95.02-.26.03-.51.01-.75-.44-8.83-2.35-16.19-5.37-22.23 1.57-4.09 3.47-8.21 6.79-11.05 2.49-2.13 6.65-3.59 9.33-1.71 1.89 1.33 4.17 2.34 5.16 5.51.16.36.29.72.41 1.08Zm-3.57 6.3c.59-5.64-2.18-9.15-5.33-7.66-.44.21-.71.67-.68 1.16.17 2.93 1.12 12.14 1.2 13.32.18 2.67 4.16-.61 4.81-6.82Z" style="fill:#01487b"/><path d="M231.07 50.85c-.11.16-.21.33-.3.5-.29.51-.54 1.08-1.02 1.42-.29.2-.64.28-.98.29.51-.97.88-1.92 1.11-2.84h.01c.42.18.81.38 1.18.63Z" style="fill:#01487b"/><path d="M228 52.96c.25.07.51.11.77.1-.16.3-.34.61-.53.92-.12-.36-.25-.72-.41-1.08.05.03.11.04.17.06Z" style="fill:#01487b"/><path d="M187.87 176.46c11.46-8.28 21.39-24.28 23.6-40.01-.61 19.33 2.32 45.13 6.31 65.84.55 2.83 1.11 5.56 1.69 8.17h.01c.05.24.11.49.16.73.53 0 1.07.02 1.59.07 4.05 2.62 8.79 10.48 9.09 16.15-25.57 4.14-28.83 27.41-33.97 43.25-1.11-8.61-2.63-15.85-4.46-22.06l.12-.04c7.75-13.7 8.39-30.15 8.78-45.89.07-2.6.12-5.25-.67-7.73-.79-2.47-2.59-4.78-5.1-5.46-2.44-.66-4.98.3-7.46.77s-5.53.19-6.81-1.99l-.55.06c-.23-2.42-.57-4.84-1.01-7.25 2.93-.99 5.85-2.56 8.68-4.61Z" style="fill:#e7f2fe"/><path d="M221.23 211.26c-.52-.05-1.06-.07-1.59-.07-.05-.24-.11-.49-.16-.73.56.13 1.14.41 1.75.8ZM208.05 98.32c.77-1.36 1.72-2.62 2.83-3.73.69-.69 1.44-1.32 2.25-1.88.92-.54 1.97-1.01 3.15-1.43 2.4 1.32 3.46 3.34 3.69 5.36.24 2.08-.29 4.18-.96 6.17-.84 2.48-1.91 4.88-3.18 7.16-.88 1.55-2 3.17-3.72 3.63-1.73.46-3.61-.45-4.68-1.87-1.07-1.43-1.45-3.26-1.5-5.04-.09-2.92.69-5.83 2.12-8.37Z" style="fill:#e7f2fe"/><path d="M216.02 91.13c.09.05.18.09.26.15-1.18.42-2.23.89-3.15 1.43.9-.63 1.87-1.16 2.89-1.58Z" style="fill:#e7f2fe"/><path d="M155.91 57.25c4.04-4.09 8.84-8.32 14.53-7.93 2.49.18 4.83 1.25 7.28 1.75 4 .81 8.32-.01 11.75-2.24 1.08-.7 2.1-1.54 3.32-1.94.97-.32 1.99-.32 2.98-.11 4.34 3.42 8.02 7.84 10.78 13.37 3.02 6.04 4.93 13.4 5.37 22.23.02.24 0 .49-.01.75-4.1-.24-8.21 2.37-9.35 12.19-4.6.07-9.09-8.28-9.95-9.95v-.04c-8.68-.65-15.03-9.21-17.59-20.72-5.87 2.43-12.78.16-20.63-6.33.44-.41.87-.83 1.3-1.25l.22.22Z" style="fill:#01487b"/><path d="M211.47 136.45c-2.21 15.73-12.14 31.73-23.6 40.01-1.23-.05-2.41-.61-2.94-1.69-.71-1.44-.03-3.16.77-4.55 1.99-3.43 4.78-6.33 6.8-9.74 5.98-10.1 4.44-23.09 9.26-33.79.99-2.19 2.38-4.4 4.6-5.33 2-.84 4.74-.09 5.59 1.79-.04 1.4-.1 2.9-.1 4.4 0 .94.02 1.87.08 2.79 0 2.02-.17 4.07-.46 6.11Z" style="fill:#e7f2fe"/><path d="M211.19 34.1c.26.33.5.67.74 1.02-2.61-.22-5.42-.2-8.38.09.44-.07.88-.13 1.3-.19 2.11-.31 4.23-.61 6.34-.92Z" style="fill:#01487b"/><path d="M210.65 94.54c.7-.66 1.52-1.28 2.48-1.83-.81.56-1.56 1.19-2.25 1.88-.08-.02-.15-.04-.23-.05ZM210.65 94.54c.08.01.15.03.23.05a17.396 17.396 0 0 0-2.83 3.73c.57-1.39 1.41-2.66 2.6-3.78Z" style="fill:#e7f2fe"/><path d="M196.35 270.66c-.46-.61-.92-1.21-1.38-1.81.64-11.43-3.69-23.06-11.66-31.29-3.15-3.25-6.83-5.98-9.67-9.51-1.13-1.41-2.13-3.01-2.84-4.7-1.06-2.51-1.49-5.23-.82-7.85 1.13-4.41 5.61-7.68 10.14-7.56-.1.99-.22 1.97-.35 2.96-1.4.28-2.61.92-3.52 1.74-1.62 1.45-1.7 3.92-.32 5.61 6.17 7.62 11.85 16.43 15.95 30.35h.01c1.83 6.21 3.35 13.45 4.46 22.06Z" style="fill:#aff4ff"/><path d="m182.63 39.88-.78-.24c.18-.38.38-.76.6-1.12-.05.46.01.91.18 1.36Z" style="fill:#01487b"/><path d="M178.55 1084.59c-.15.45-.3.91-.46 1.37a42.02 42.02 0 0 0-16.68-6.52c-1.74-2.06-2.86-3.69-3.49-4.48 10.02.41 15.13 4.74 20.63 9.63Z" style="fill:#00326c"/><path d="M172.3 87.44c1.38 1.26.59 3.56-.44 5.13-1.41 2.14-3.09 4.06-4.94 5.82-.36-.07-.72-.1-1.1-.1-3.63 0-6.61 2.77-6.94 6.31-.94.62-1.9 1.22-2.86 1.81-1.39.86-2.83 1.71-4.44 1.97s-3.44-.21-4.37-1.54-.76-3.13-.35-4.7c.58-2.19 1.58-4.26 2.91-6.1 2.05.4 5.03-.2 7.21-1.49 2.44-1.44 4.91-4.34 4.63-6.33 2.77-.97 5.45-1.73 8.26-1.55.86.05 1.79.19 2.43.77Z" style="fill:#e7f2fe"/><circle cx="167.17" cy="101.22" r="2.24" style="fill:#fff"/><path d="M165.82 98.29c.38 0 .74.03 1.1.1-2.44 2.31-5.2 4.34-8.04 6.21a6.967 6.967 0 0 1 6.94-6.31Z" style="fill:#0078da"/><path d="M144.94 130.4c-.03-.31-.07-.62-.11-.93-.69-5.01-3-9.63-4.73-14.39-1.72-4.76-2.86-10.07-1.15-14.83 2.25-.67 4.61.94 5.9 2.9 1.29 1.97 1.89 4.31 3.1 6.33 3.6 6.05 12.02 8.55 14.26 15.22.73 2.16.68 4.48.59 6.76-.09 2.05-.24 4.19-1.24 5.99-2.27 4.12-7.78 4.85-13.45 4-2.84-2.71-2.74-7.08-3.17-11.05Z" style="fill:#e7f2fe"/><path d="M161.61 88.22c.28 1.99-2.19 4.89-4.63 6.33-2.18 1.29-5.16 1.89-7.21 1.49 2.18-3.03 5.25-5.42 8.77-6.7 1.04-.38 2.06-.76 3.07-1.12Z" style="fill:#01487b"/><path d="M144.62 580.28c2.4.69 5.29 1.89 7.34.99-36.7 162.84-44.88 324.69-20.64 485.4-.79.02-1.57-.01-2.35-.1-6.52-.75-12.28-4.51-17.43-8.58-28.38-22.41-45.67-56.65-53.33-91.99-7.66-35.33-6.46-71.98-3.26-107.99 6.51-73.21 21.17-145.68 43.54-215.69 5.27-16.5 11.06-33.06 20.63-47.49 5.8-8.75 15.41-17.42 25.5-14.55Z" style="fill:#163f94"/><path d="M143.57 1146.18c-.5.49-1.06.91-1.64 1.27-7.07 4.33-22.03 12.19-41.17 7.7-21.6-5.07-41.66-21.63-53.21-46.64-.36-.78-.47-1.65-.34-2.51.44-2.86.83-5.86 1.17-8.92 4.15 8.31 10.78 17.39 18.48 25.54 2.14 5.04 5.49 9.61 9.53 13.32 6.75 6.2 15.29 10.19 24.07 12.82 9.52 2.86 19.84 4.21 29.37 1.37 4.59-1.37 8.99-3.69 13.74-3.95Z" style="fill:#01487b"/><path d="M133.98 108.9c.72 1.61-.11 3.48-1.1 4.94-.87 1.28-1.86 2.47-2.97 3.55a6.918 6.918 0 0 0-3.72-1.07c-3.81 0-6.91 3.06-6.97 6.86-.59.08-1.19.1-1.75.04-1.21-1.88-2.46-3.74-3.34-5.76.44-1.89 1.36-3.63 2.61-5.1 1.62.34 3.91.16 5.59-.45 2.85-1.03 5.78-3.13 6.74-5.16.62-.13 1.24-.17 1.87-.02 1.25.3 2.5 1 3.04 2.17ZM85.22 74.6v.02c-1.05 1.56-2.14 3.19-3.26 4.86-1.59 2.38-3.24 4.85-4.91 7.4-1.76-.75-3.73-1.84-5.76-3.24 4.32-5.35 8.79-10.57 13.41-15.66 2.38-2.62 4.87-5.32 5.89-8.7.68-2.21.68-4.59 1.44-6.78.76-2.18 2.68-4.26 4.98-4.07 3.86.32 5.71 6.48 9.54 5.87 1.61-.26 2.74-1.71 3.63-3.08 3-4.62 5.36-9.65 6.99-14.9 1.5-4.83 2.47-10 5.57-13.98 2.03-2.61 5.4-4.45 8.58-4.51 2.38 2.35 3.22 5.83 1.4 8.78-4.85 5.73-9.72 4.06-12.16 12.38-.33 1.1-.43 2.26-.43 3.41.02 5.25-.63 9.81-1.81 13.54-1.73 5.52-4.6 9.19-8.11 10.55-3.16 1.24-6.83.59-10.64-2.28-1.8 6.09-7.64 10.73-14.35 10.39Z" style="fill:#e7f2fe"/><path d="M132.49 1076.13c.11-.01.2-.01.29-.03-2.07 1.49-3.98 2.6-5.76 3.41-2.54-1.3-5.19-2.41-7.88-3.36-7.31-2.59-14.94-4.08-22.55-5.5.14-2.84.6-5.29 1.06-7.16 17.43 4.3 31.19 12.78 34.84 12.64Z" style="fill:#00326c"/><path d="M129.91 117.39c-.17.16-.34.32-.51.47-.41-.44-1-.72-1.64-.72a2.243 2.243 0 0 0-1.92 3.4c-1.44.89-2.98 1.61-4.59 2.16-.64.22-1.33.39-2.03.48.06-3.8 3.16-6.86 6.97-6.86 1.37 0 2.65.39 3.72 1.07Z" style="fill:#0078da"/><path d="M129.4 117.86c.37.39.6.93.6 1.52a2.243 2.243 0 0 1-4.16 1.16c1.27-.77 2.46-1.67 3.56-2.68Z" style="fill:#fff"/><path d="M127.76 117.14c.64 0 1.23.28 1.64.72-1.1 1.01-2.29 1.91-3.56 2.68a2.243 2.243 0 0 1 1.92-3.4Z" style="fill:#fff"/><path d="M124.4 108.09c1.84-.25 3.29-1.04 4.67-1.34-.96 2.03-3.89 4.13-6.74 5.16-1.68.61-3.97.79-5.59.45 1.94-2.27 4.69-3.87 7.66-4.27Z" style="fill:#01487b"/><path d="M114.13 117.46c.88 2.02 2.13 3.88 3.34 5.76-1.11-.11-2.11-.53-2.78-1.42-.21-.27-.37-.57-.49-.89-.4-1.06-.33-2.31-.07-3.44Z" style="fill:#e7f2fe"/><path d="m114.2 120.91-.7.28c-4.42-11.03-5.12-21.77-3.85-31.12.27-.01.55-.06.81-.15.16-.05.31-.12.47-.19l.05.09c4.96 7.39-.16 17.68 2.58 26.15.16.51.36 1.01.57 1.49-.26 1.14-.33 2.39.07 3.45Z" style="fill:#e7f2fe"/><path d="M96.59 1070.65c-.11 2.41 0 5.11.53 7.98.09.5.19 1 .3 1.51.18.8.52 1.55 1.02 2.2 3.63 4.72 12.33 13.35 18.77 19.45-1.99.9-4.42 1.11-6.56.62-4.05-.92-7.43-3.61-10.94-5.83-8.62-5.47-20.68-8.14-28.59-1.68-4.92 4.01-7 10.73-6.72 17.07.16 3.68 1.04 7.27 2.46 10.65-7.7-8.15-14.33-17.23-18.48-25.54.6-5.27 1.1-10.74 1.67-16.07.24-2.27.49-4.51.77-6.71.27-2.17.57-4.29.91-6.33 2.21-1.26 4.45-2.31 6.7-3.18l.78 5.36c.16 1.11 1.6 1.43 2.21.49 1.8-2.78 3.61-5.57 5.42-8.35 10.67-2.25 21.28-1.15 30.81 1.2-.46 1.87-.92 4.32-1.06 7.16ZM109.53 274.81c2.86 23.48 3.87 47.48-.88 70.65-2.83 13.76-7.83 27.26-15.2 39.18 11.98-48.24 13.35-86.61.64-106.09-4.97-7.62-17.51-11.21-35.43-16.37.68 0 4.15-15.47 10.23-22.56.75-.88 1.47-1.79 2.14-2.72-1.01 7.19 4.2 14.82 11.34 16.34 5.35 1.13 11.15-.77 16.26 1.14 7.62 2.86 9.92 12.35 10.9 20.43Z" style="fill:#b7d9ff"/><path d="M105.7 28.52c-.06.35-.15.71-.24 1.06-.16.58-.35 1.18-.78 1.6-1.24 1.22-3.31.21-4.66-.9-2.81-2.3-5.37-4.91-8.22-7.17-.63-.5-1.28-.99-1.93-1.46-4.58-3.3-9.66-5.88-14.45-8.87C70.33 9.61 65.42 5.79 62.3.7c7.74 1.16 22.43 7.66 43.4 27.82ZM82.14 26.29c.1.13.19.26.27.4a33.432 33.432 0 0 0-7.77 4.22c2.05-1.67 4.39-3.14 7.04-4.41.15-.07.31-.14.46-.21Z" style="fill:#e7f2fe"/><path d="m81.6 25.7.08.8c-2.65 1.27-4.99 2.74-7.04 4.41a33.25 33.25 0 0 0-4.25 3.7c-9.1-3.86-9.67-18.62-14.47-23l1.03-.19c.72.67 1.55 1.21 2.45 1.62 8.48 3.84 15.9 6.66 22.2 12.66ZM41.86 156.51c10.5 7 21.25 14.24 31.8 21.28 2.61 1.74 5.22 3.48 7.8 5.19 1.88 10.81 1.88 30.49-5.94 46.45-2.29-1.56-4.76-3.23-7.36-5.01 2.34-10.41 2.19-21.91-3.74-30.7-7.16-10.64-21.26-15.25-27.66-26.36-4.05-7.02-4.34-15.74-2.39-23.61 1.96-7.87 5.97-15.07 10.18-22a349.72 349.72 0 0 1 18.47-27.43c2.07 2.75 4.17 4.47 5.92 5.08-14.83 23.3-29.1 48.46-27.08 57.11Z" style="fill:#e7f2fe"/><path d="M78.91 175.28c.91.94 1.85 3.71 2.55 7.7-2.58-1.71-5.19-3.45-7.8-5.19l.08-.12c2.35-2.68 3.65-2.73 4.5-2.75.22.13.44.25.66.36ZM79.76 487.43c-.86 2.96-1.71 5.92-2.54 8.88-5.53-3.89-11.91-6.53-18.55-7.77 6.68-2.23 13.79-2.4 21.09-1.11Z" style="fill:#aff4ff"/><path d="M77.05 86.88c-1.27 1.93-2.56 3.9-3.86 5.9a582.29 582.29 0 0 0-4.25 6.62c-1.75-.61-3.85-2.33-5.92-5.08 2.69-3.62 5.45-7.18 8.27-10.68 2.03 1.4 4 2.49 5.76 3.24ZM70.39 34.61a33.25 33.25 0 0 1 4.25-3.7 29.006 29.006 0 0 0-3.91 3.84c-.11-.04-.23-.09-.34-.14Z" style="fill:#e7f2fe"/><path d="M71.03 236.9c-.67.93-1.39 1.84-2.14 2.72-6.08 7.09-9.55 22.56-10.23 22.56-.76-.22-1.38-.98-1.84-2.17.2-.91.42-1.8.65-2.69 2.82-10.7 7.73-20.78 10.38-31.53.11-.45.22-.91.32-1.37 2.6 1.78 5.07 3.45 7.36 5.01a48.036 48.036 0 0 1-4.49 7.47Z" style="fill:#aff4ff"/><path d="M70.39 34.61c-.81.83-1.58 1.71-2.3 2.63-.7.91-1.76 1.96-2.8 1.48-.39-.18-.66-.55-.9-.92-1.71-2.55-3.04-5.34-4.31-8.14-2.05-4.51-3.96-9.09-5.73-13.73-.34-.88-.67-1.79-.63-2.74.04-.91.52-1.87 1.36-2.2.29.17.57.38.84.62 4.8 4.38 5.37 19.14 14.47 23ZM66.84 1062.29c-1.81 2.78-3.62 5.57-5.42 8.35-.61.94-2.05.62-2.21-.49l-.78-5.36c2.79-1.1 5.6-1.92 8.41-2.5ZM61.37 8.39c.02.55.05 1.13-.18 1.64-.68 1.5-2.92 1.33-4.32.48C55.2 9.5 54 7.88 54.59 4.01c.01-.07.02-.14.04-.21.41-1.15 1.15-2.06 1.97-2.61.46-.31 1.18-.54 2.15-.64.14.11.27.23.39.35 1.87 1.9 2.1 4.83 2.23 7.49Z" style="fill:#e7f2fe"/><path d="M57.75 488.38c.31.04.61.1.92.16-.39.13-.78.27-1.16.41l.24-.57Z" style="fill:#fff"/><path d="M56.6 40.9c.81 1.95 1.84 3.91 1.83 6.02 0 .56-.08 1.11-.23 1.65C47.47 36.82 45.57 25.52 47.01 18.3c.5-.62 1.18-1.16 1.97-1.12.52.02.99.3 1.41.62 1.96 1.52 2.98 4 3.41 6.45s.34 4.96.55 7.44c.28 3.16 1.04 6.28 2.25 9.21Z" style="fill:#e7f2fe"/><path d="M51.73 1067.97c-.34 2.04-.64 4.16-.91 6.33a81.07 81.07 0 0 0-7.96 3.86c-.91-.71-1.53-1.52-1.81-2.44 3.47-3.16 7.05-5.72 10.68-7.75Z" style="fill:#00326c"/><path d="M48.38 1097.08c-.34 3.06-.73 6.06-1.17 8.92-.13.86-.02 1.73.34 2.51 11.55 25.01 31.61 41.57 53.21 46.64 19.14 4.49 34.1-3.37 41.17-7.7.58-.36 1.14-.78 1.64-1.27 1-.95 1.75-2.15 1.92-3.52.26-2.05.64-4.86.68-7.95" style="fill:none;stroke:#000;strokeLinecap:round;stroke-linejoin:round"/><path d="M95.5 1118.08c9.41-7.68 20.03-10.81 29.25-9.42M167.12 1128.97c2.51-12.93 8.7-22.1 19.77-24.95 5-1.3 11-1.31 18.1.22M167.12 1128.97c2.89 2.61 14.5 14.42 31.89 14.86 6.06.15 11.44-1.07 16.03-2.89 9.76-3.84 16-10.35 17.79-11.98M97.65 1063.49c17.43 4.3 31.19 12.78 34.84 12.64.11-.01.2-.01.29-.03-.5-3.14-.99-6.29-1.46-9.43-24.24-160.71-16.06-322.56 20.64-485.4 4.77.39 9.54.79 14.31 1.19.58 6.73 1.13 13.46 1.65 20.18 12.02 155.49 7.24 308.3-8.61 459.34-.45 4.33-.92 8.65-1.39 12.98 10.02.41 15.13 4.74 20.63 9.63M224.27 1092.52c6.69-3.46 13.59-6.95 21.9-5.64.37-2.65.74-5.31 1.1-7.97 21.87-159.65 32.61-326.04 21.81-507.17-.74-12.42-1.58-24.92-2.53-37.48-.32-4.26-.65-8.53-1-12.81l-.42-5.33c-.16-1.84-.31-3.68-.47-5.52M66.84 1062.29c-2.81.58-5.62 1.4-8.41 2.5M51.73 1067.97c-3.63 2.03-7.21 4.59-10.68 7.75-1.46-9.76-2.82-19.53-4.07-29.29-22.33-173.34-12.79-346.51 31.96-519.52 1.29-5.01 2.62-10.03 3.97-15.04.21-.76.41-1.52.62-2.28 1.2-4.43 2.43-8.85 3.69-13.28.83-2.96 1.68-5.92 2.54-8.88" style="fill:none;stroke:#000;strokeLinecap:round;stroke-linejoin:round"/><path d="M146.17 1134.71c-3.91 7.97-22.16 14.54-35.58 13.36-1.2-.11-2.38-.14-3.56-.35l-.02-.01c-12.11-.95-27.55-11.78-40.15-25.09-7.7-8.15-14.33-17.23-18.48-25.54.6-5.27 1.1-10.74 1.67-16.07.24-2.27.49-4.51.77-6.71.27-2.17.57-4.29.91-6.33h0c2.21-1.26 4.45-2.31 6.7-3.18l.78 5.36c.16 1.11 1.6 1.43 2.21.49 1.8-2.78 3.61-5.57 5.42-8.35 10.67-2.25 21.28-1.15 30.81 1.2-.46 1.87-.92 4.32-1.06 7.16-.11 2.41 0 5.11.53 7.98.09.5.19 1 .3 1.51.18.8.52 1.55 1.02 2.2 3.63 4.72 12.33 13.35 18.77 19.45 3.81 3.62 6.83 6.35 7.54 6.87 7.67 1.15 14.38 5.44 18.6 12.84 2.33 4.1 2.89 8.93 2.82 13.21Z" style="fill:none;stroke:#000;strokeLinecap:round;stroke-linejoin:round"/><path d="M97.12 1078.63c.66-.15 1.3-.3 1.94-.46 3.46-.84 7.1-.52 10.38.86 4.54 1.91 9.83 4.02 17.58.48 1.78-.81 3.69-1.92 5.76-3.41M50.05 1081.01c-3.11-.66-5.6-1.6-7.19-2.85-.91-.71-1.53-1.52-1.81-2.44M232.84 1128.96c.12 1.77.08 3.52-.02 5.22-.28 4.76-2.67 9.16-6.53 11.95-5.02 3.63-12.91 7.88-23.2 8.97-.68.08-1.36.14-2.06.18-14.4.9-24.34-6.01-29.59-11.52-2.89-3.03-4.48-7.08-4.51-11.27 0-1.16.04-2.34.18-3.52.05-.4.12-.8.19-1.2 2.65-13.81 5.85-26.01 8.98-36.13.61-1.98 1.21-3.87 1.81-5.68.16-.46.31-.92.46-1.37 5.86 5.21 12.16 11.05 25.35 13.4 7.37 1.31 13.77-2.06 20.37-5.47.22 1.54.48 3.18.81 4.92 1.26 7 3.37 15.6 6.68 25.71.64 1.94.95 3.89 1.08 5.81Z" style="fill:none;stroke:#000;strokeLinecap:round;stroke-linejoin:round"/><path d="M246.17 1086.88c-2.66 1.95-9.21 7.58-21.09 10.56M157.92 1074.96c.63.79 1.75 2.42 3.49 4.48 2.94 3.5 7.68 8.23 14.87 12.2M58.65 262.18c-.76-.22-1.38-.98-1.84-2.17-2.42-6.21-.81-24.3 3.84-40.73M78.25 174.92c.21 0 .44.12.66.36.91.94 1.85 3.71 2.55 7.7 1.88 10.81 1.88 30.49-5.94 46.45a48.036 48.036 0 0 1-4.49 7.47c-.67.93-1.39 1.84-2.14 2.72-6.08 7.09-9.55 22.56-10.23 22.56M73.74 177.67c2.35-2.68 3.65-2.73 4.5-2.75" style="fill:none;stroke:#000;strokeLinecap:round;stroke-linejoin:round"/><path d="M78.24 174.92h0c.22.13.44.25.66.36 3.7 2.01 7.3 3.96 10.84 5.85 16.05 8.59 30.81 15.99 47.65 22.39 4.14 1.57 8.4 3.09 12.83 4.54M58.65 262.18h0c17.92 5.16 30.46 8.75 35.43 16.37 12.71 19.48 11.34 57.85-.64 106.09-7.76 31.25-19.97 66.64-35.7 103.74l-.24.57c.38-.14.77-.28 1.16-.41 6.68-2.23 13.79-2.4 21.09-1.11 20.4 3.6 42.26 18.64 60.22 32.26 4.98 3.77 9.67 7.44 13.93 10.72 13.32 10.24 30.56 13.91 46.91 10.02 27.98-6.65 48.9-22.38 63.84-29.83 6.46-3.23 11.81-4.9 16.12-3.62-.71-88.09 6.17-176.49 38.1-219.1 7.41-9.89 22.07-13.84 40.48-18.57" style="fill:none;stroke:#000;strokeLinecap:round;stroke-linejoin:round"/><path d="M57.51 488.95c2.46 9.24 7.05 16 16.02 20.64M280.78 506.98c-.07.4-.15.79-.24 1.18-1.44 5.88-5.76 10.05-14.99 13.29M345.28 204.54s1.31-.12 1.31-.14c0 0 0-.01-.02-.01-.73-.47-1.46-.82-2.19-1.04a6.885 6.885 0 0 0-3.59-.15c-1.36.31-2.62 1.05-3.66 2.13-.3.3-.57.62-.83.97-1.26 1.73-1.84 3.86-1.82 5.99.08 9.3.76 23.97 4.48 36.12 1.24 4.05 2.81 7.82 4.81 11.01 3.12 4.97 7.27 8.56 12.79 9.64.92.18 1.85.26 2.8.25 11.88-.14 25.7-15.16 33.44-36.59M340.79 203.2c-49.9 0-91.71 10.51-100.91 6.25M180.49 203.2c-10.54 0-20.43 2.28-30.26 4.86-5.86 1.53-11.69 3.17-17.64 4.48.23.27.59.54 1.06.81 4.11 2.37 16.64 5.05 23.5 12.16 4.07.22 8.98-.8 11.76-1.6-3.55 5.65-6.04 10.9-5.53 13.71 8.07 6.36 21.1 17.76 31.59 31.23.46.6.92 1.2 1.38 1.81.11-.24.24-.49.39-.75 4.87-8.55 28.94-29.75 43.86-26.38 1.6.64 3.61.89 5.98 3.26.49-3.46-.91-6.83-1.35-10.26-.48-3.68 1.36-7.25 4.54-9.17 4.27-2.57 9.93-4.31 15.66-5.48-8.17-3.39-17.05-8.29-25.59-12.34-7.93-3.77-15.56-6.82-22.06-7.25" style="fill:none;stroke:#000;strokeLinecap:round;stroke-linejoin:round"/><path d="M179.77 210.9c-1.4.28-2.61.92-3.52 1.74-1.62 1.45-1.7 3.92-.32 5.61 6.17 7.62 11.85 16.43 15.95 30.35h.01c1.83 6.21 3.35 13.45 4.46 22.06 5.14-15.84 8.4-39.11 33.97-43.25-.3-5.67-5.04-13.53-9.09-16.15-.61-.39-1.19-.67-1.75-.8M204.06 284.68a7.014 7.014 0 1 1-14.03 0c0-3.88 3.14-7.01 7.02-7.01s7.01 3.14 7.01 7.01ZM211.85 127.55c0-.06-.01-.13-.01-.19M109.65 90.07c-1.27 9.35-.57 20.09 3.85 31.12.84 2.1 1.81 4.2 2.93 6.31 1.7 11.29 7.43 23.83 15.65 34.09 4.24 5.31 9.16 10.01 14.52 13.62 7.1 4.78 15 7.64 23.19 7.46a33.3 33.3 0 0 0 8.11-1.2c.43-.12.86-.25 1.29-.4 2.93-.99 5.85-2.56 8.68-4.61 11.46-8.28 21.39-24.28 23.6-40.01.29-2.04.45-4.09.46-6.11 0-.93-.02-1.86-.08-2.78M221.17 121.81c1.4-2.08 2.41-4.62 3.09-7.37M218.96 124.4c.82-.75 1.55-1.62 2.2-2.59M223.02 91.26c1.2 2.89 2 6.74 2.25 10.85" style="fill:none;stroke:#000;strokeLinecap:round;stroke-linejoin:round"/><path d="M179.19 181.07c.44 2.41.78 4.83 1.01 7.25.24 2.29.38 4.58.43 6.88.07 2.67.02 5.33-.14 8-.09 1.58-.21 3.16-.37 4.74-.1.99-.22 1.97-.35 2.96-.11.91-.24 1.82-.38 2.73M211.47 136.4v.05c-.61 19.33 2.32 45.13 6.31 65.84.55 2.83 1.11 5.56 1.69 8.17h.01c.05.24.11.49.16.73.62 2.79 1.26 5.43 1.91 7.89M82.9 74.29c.78.18 1.55.28 2.32.31 6.71.34 12.55-4.3 14.35-10.39 1.06-3.59.71-7.7-1.71-11.58M107.75 30.51c-.69-.68-1.38-1.35-2.05-1.99C84.73 8.36 70.04 1.86 62.3.7 60.88.49 59.7.46 58.75.55c-.97.1-1.69.33-2.15.64-.82.55-1.56 1.46-1.97 2.61-.62 1.7-.5 3.94 1.16 6.3.34.48.73.92 1.16 1.32.72.67 1.55 1.21 2.45 1.62 8.48 3.84 15.9 6.66 22.2 12.66M118.32 55.94c1.18-3.73 1.83-8.29 1.81-13.54 0-1.15.1-2.31.43-3.41 2.44-8.32 7.31-6.65 12.16-12.38" style="fill:none;stroke:#000;strokeLinecap:round;stroke-linejoin:round"/><path d="M99.57 64.21c3.81 2.87 7.48 3.52 10.64 2.28M132.72 26.61c1.82-2.95.98-6.43-1.4-8.78-4.73-4.67-15.55-4.84-23.57 12.68M88.25 23.97c-2.19.67-4.23 1.44-6.11 2.32-.15.07-.31.14-.46.21-2.65 1.27-4.99 2.74-7.04 4.41a29.006 29.006 0 0 0-3.91 3.84c-.95 1.13-1.81 2.33-2.57 3.59" style="fill:none;stroke:#000;strokeLinecap:round;stroke-linejoin:round"/><path d="M70.73 34.75c-.11-.04-.23-.09-.34-.14-9.1-3.86-9.67-18.62-14.47-23-.27-.24-.55-.45-.84-.62a4.11 4.11 0 0 0-1.96-.61c-2.41-.24-5.09 2.83-6.11 7.92-1.44 7.22.46 18.52 11.19 30.27 2.89 3.17 6.42 6.38 10.71 9.54M81.46 182.98c-2.58-1.71-5.19-3.45-7.8-5.19-10.55-7.04-21.3-14.28-31.8-21.28-1.63-1.09-3.25-2.17-4.87-3.24" style="fill:none;stroke:#000;strokeLinecap:round;stroke-linejoin:round"/><path d="M41.86 156.51c-2.02-8.65 12.25-33.81 27.08-57.11 1.41-2.23 2.83-4.44 4.25-6.62 1.3-2 2.59-3.97 3.86-5.9 1.67-2.55 3.32-5.02 4.91-7.4 1.12-1.67 2.21-3.3 3.26-4.86" style="fill:none;stroke:#000;strokeLinecap:round;stroke-linejoin:round"/><path d="M75.52 229.43c-2.29-1.56-4.76-3.23-7.36-5.01-2.39-1.64-4.9-3.36-7.49-5.17-6.4-4.48-13.28-9.49-20.06-14.92-11.89-9.52-23.47-20.36-31.63-32.05-2.73-3.9-5.08-7.89-6.93-11.96-.01-.04-.03-.08-.04-.11-2.3-5.12-1.9-11.05.77-15.98 3.9-7.19 8.85-15.08 14.41-23.13 9.53-13.83 20.83-28.12 31.56-40.1 2.52-2.81 5-5.49 7.42-8.01 1.28-1.34 2.54-2.63 3.79-3.86.76-.76 1.51-1.5 2.26-2.22 1.59-1.54 3.14-2.98 4.63-4.31.53-.47 1.04-.93 1.55-1.37M68.91 58.11c1.14 1.11.71 1.98-.51 3.12M337.13 205.33c1.71-.19 3.63-.37 5.57-.56 1.3-.13 2.61-.26 3.87-.38.85-.09 1.68-.17 2.46-.26h.02" style="fill:none;stroke:#000;strokeLinecap:round;stroke-linejoin:round"/><path d="M270.23 114.81a32.6 32.6 0 0 1-.66 3.57c-2.17 8.88-7.3 11.54-11.98 11-1.59-.18-3.13-.73-4.49-1.53-.07-.04-.14-.09-.21-.13-.9-.59-1.56-1.43-1.94-2.37a5.627 5.627 0 0 1-.06-4.08c.11-.31.26-.62.44-.92 1.4-2.33 2.83-4.43 4.3-6.31 2.09-2.7 4.26-4.98 6.55-6.97.53-.46 1.07-.91 1.62-1.35 1.18-.95 2.5-1.69 3.89-2.2 3.02-1.15 6.39-1.24 9.49-.11 8.11 2.94 17.02 10.87 23.18 21.38 1.1 1.87 2.55 3.51 4.25 4.83.74.6 1.54 1.12 2.38 1.58 1.51.83 3.01 1.65 4.49 2.47 62.54 34.53 104.96 62.94 98.4 81.5-2.48 7.01-9.01 12.71-17.23 17.27-.57.31-1.14.62-1.72.92-17.78 9.3-42.38 13.67-51.97 15.05" style="fill:none;stroke:#000;strokeLinecap:round;stroke-linejoin:round"/><path d="M269.57 118.38c1.61 4.75 4.69 8.32 9.24 9.66M267.69 103.51c-11.29-.53-16.73-9.96-21.33-15.02-1.86-2.05-3.58-3.38-5.5-3.12-1.29.18-2.2.76-2.8 1.65-2.36 3.44-.01 11.36 3.1 16.58 1.3 2.2 2.74 3.92 4.02 4.62.01.01.02.01.03.02M224.26 114.44c-2.07-1.9-3.57-3.93-4.28-5.82-.77-2.05-.6-3.94.78-5.31 1.16-1.15 2.68-1.44 4.51-1.2M224.26 114.44c2.31 2.14 5.34 4.11 8.78 5.53 5.33 2.21 11.64 3.11 17.77 1.27" style="fill:none;stroke:#000;strokeLinecap:round;stroke-linejoin:round"/><path d="M225.27 102.11c1.59.2 3.42.79 5.47 1.54 4.01 1.47 8.87 3.55 14.44 4.57 3.54.65 7.36.87 11.44.23 1.81-.28 3.66-.72 5.56-1.38M252.89 127.72c.14.41.29.79.44 1.15 2.45 5.78 6.42 5.63 6.74 11.25.4 2.92-4.55 6.36-6.76 6.16-.42-.04-.83-.07-1.23-.08-5.81-.26-10.1 1.61-9.62 7.83.06.8.21 1.6.46 2.36.48 1.55 1.32 2.98 2.53 4.09 7.98 7.35 17.34-8.36 33.36-7.56 6.02.3 10.84 1.71 14.99 3.52 2.48 1.08 4.73 2.3 6.84 3.51.31.18.62.35.92.53 1.71.99 3.36 2.1 4.9 3.36 1.65 1.36 3.3 2.77 4.94 4.22 9.08 7.98 17.93 17.04 26.77 25.73 3.62 3.54 7.23 7.02 10.86 10.34 9.25 8.47 18.61 15.88 28.32 20.59M166.92 98.39c3.33.52 5.88 3.4 5.88 6.88a6.98 6.98 0 1 1-13.96 0c0-.23.01-.45.04-.67a6.967 6.967 0 0 1 6.94-6.31c.38 0 .74.03 1.1.1ZM129.91 117.39a6.979 6.979 0 0 1 3.26 5.91c0 3.86-3.12 6.98-6.98 6.98s-6.98-3.12-6.98-6.98c0-.04 0-.08.01-.12.06-3.8 3.16-6.86 6.97-6.86 1.37 0 2.65.39 3.72 1.07ZM161.61 88.22c.28 1.99-2.19 4.89-4.63 6.33-2.18 1.29-5.16 1.89-7.21 1.49-.97-.18-1.73-.58-2.11-1.23-1.13-1.92 1.23-5.81 4.22-7.56 3.45-2.02 8.61-1.7 9.58.44.08.17.12.34.15.53ZM129.07 106.75c-.96 2.03-3.89 4.13-6.74 5.16-1.68.61-3.97.79-5.59.45-.89-.19-1.58-.53-1.87-1.03-1.16-2.67.94-5.86 4.75-7.6 3.6-1.64 8.74-1.48 9.64.9.25.66.16 1.39-.19 2.12ZM140.47 137.8c.27-3.7 1.61-6.15 4.47-7.4 2.22-.98 5.36-1.23 9.62-.79M142.71 156.69c.65.13 1.18.27 1.66.37 2.46.5 3.88.13 15.14-5.1M159.51 151.96c8.63-3.83 14.48-7.79 16.87-12.66.05-.12.11-.23.16-.35M210.64 94.54h.01c.08.01.15.03.23.05 2.29.46 3.66 2.5 3.99 4.35M110.21 66.49c3.51-1.36 6.38-5.03 8.11-10.55M183.25 40.09c1.39.47 2.75 1 4.08 1.59 3.01 1.36 5.84 3.05 8.44 5.1 4.34 3.42 8.02 7.84 10.78 13.37 3.02 6.04 4.93 13.4 5.37 22.23.02.24 0 .49-.01.75M118.32 55.94c14.28-13.88 38.56-21.54 58.83-17.48l1.12.24c1.21.27 2.41.58 3.58.94l.78.24M192.61 85.37c.86 1.67 5.35 10.02 9.95 9.95M110.21 66.49c-2.84 5.25-4.33 11-4.02 17.07.07 1.4.23 2.82.5 4.26.34 1.38 1.61 2.3 2.96 2.24.27 0 .55-.05.81-.14.16-.05.31-.12.47-.19 3.76-1.77 6.67-8.72 6.57-15.01" style="fill:none;stroke:#000;strokeLinecap:round;stroke-linejoin:round"/><path d="M114.35 70.29c.46 2.41 1.66 3.8 3.15 4.42h0c3.99 1.68 10.05-2.22 9.34-7.05M126.84 67.66c12.66 1.47 20.79-3.06 27.55-9.38.44-.41.87-.83 1.3-1.25.85-.84 1.69-1.71 2.51-2.6" style="fill:none;stroke:#000;strokeLinecap:round;stroke-linejoin:round"/><path d="M154.39 58.28c7.85 6.49 14.76 8.76 20.63 6.33 1.19-.49 2.34-1.18 3.44-2.06" style="fill:none;stroke:#000;strokeLinecap:round;stroke-linejoin:round"/><path d="M175.02 64.61c2.56 11.51 8.91 20.07 17.59 20.72 2.96.23 6.18-.46 9.62-2.27M178.27 38.7c-2.39-10.52 22.78-17.63 32.92-4.6.26.33.5.67.74 1.02" style="fill:none;stroke:#000;strokeLinecap:round;stroke-linejoin:round"/><path d="M201.91 35.4c.55-.07 1.1-.14 1.64-.19 2.96-.29 5.77-.31 8.38-.09 12.12 1.02 19.96 7.19 17.95 15.1-.23.92-.6 1.87-1.11 2.84-.16.3-.34.61-.53.92" style="fill:none;stroke:#000;strokeLinecap:round;stroke-linejoin:round"/><path d="M222.32 46.75c2.68 1.7 4.48 3.81 5.51 6.15.16.36.29.72.41 1.08h0c1.42 4.36.36 9.43-2.63 14.32" style="fill:none;stroke:#000;strokeLinecap:round;stroke-linejoin:round"/><path d="M224.67 60.28c.59-5.64-2.18-9.15-5.33-7.66-.44.21-.71.67-.68 1.16.17 2.93 1.12 12.14 1.2 13.32.18 2.67 4.16-.61 4.81-6.82ZM187.33 41.68c-1.4-5.48 3.17-7.57 5.32-8.91.4-.26.37-.87-.04-1.06l-.06-.03c-2.97-.96-9.82 3-10.1 6.84-.05.46.01.91.18 1.36.22.08.43.14.62.21 1.37.44 2.29.66 4.08 1.59ZM207.15 102.63c.08-1.54.37-2.98.9-4.31.57-1.39 1.41-2.66 2.6-3.78.7-.66 1.52-1.28 2.48-1.83.92-.54 1.97-1.01 3.15-1.43.04-.02.09-.03.13-.05M202.56 95.32c1.14-9.82 5.25-12.43 9.35-12.19M211.91 83.13c4.17.23 8.32 3.4 9.33 4.95.66.84 1.26 1.92 1.78 3.18M229.89 50.22c.42.18.81.38 1.18.63 8.62 5.34 4.99 24.64-1.07 27.09 2.18 4.69-1.22 12.29-6.63 13.26-.12.02-.23.05-.35.06M218.96 124.4c-.39-8.67-6.86-5.67-6.99-1.75-.01.16-.01.33-.02.5-.04 1.4-.1 2.9-.1 4.4h0c0 .94.02 1.87.08 2.79.34 5.48 1.96 10.33 7.97 10.36 9.16.04 8.51-17.49 1.27-18.89h-.01M132.08 161.59c-3.67 12.66 8.39 22.63 14.52 13.62" style="fill:none;stroke:#000;strokeLinecap:round;stroke-linejoin:round"/><path d="M66.54 62.25c-5.46-2.49-7.38.1-7.08 4.13.07.86.24 1.79.5 2.75.95 3.57 3.16 7.58 5.95 10.17a48.99 48.99 0 0 0 5.38 4.34c2.03 1.4 4 2.49 5.76 3.24 6.56 2.78 10.42.85 5.34-7.12" style="fill:none;stroke:#000;strokeLinecap:round;stroke-linejoin:round;strokeWidth:2px"/><path d="M62.22 66.91c-1.06-.61-1.98-.76-2.76-.53-1.89.54-2.98 3.21-3.29 6.61-.32 3.57.22 7.95 1.6 11.53 1.57 4.06 3.4 7.34 5.25 9.8 2.07 2.75 4.17 4.47 5.92 5.08 2.93 1.02 4.91-1.06 4.25-6.62M304.61 129.62c3.34-3.1 6.2-1.09 6.87 4.05.16 1.22.19 2.62.08 4.17-.22 3.01-.99 6.58-2.5 10.53-1.71 4.49-5.2 9.26-8.42 11.58-3.28 2.35-6.29 2.15-6.84-3.51-.01-.17-.03-.34-.04-.51" style="fill:none;stroke:#000;strokeLinecap:round;stroke-linejoin:round;strokeWidth:2px"/><path d="M198.83 1106.72s.09.03.14.04" style="fill:none;stroke:#000;stroke-miterlimit:10"/><circle cx="200.15" cy="286.18" r="7.13" style="fill:#b7d9ff"/><path d="M143.56 173c-1.49-.45-2.47-1.55-2.94-2.86-.66-.3-1.18-.74-1.6-1.26-.47-.34-.85-.76-1.14-1.24-1.08-.38-1.9-1.08-2.41-1.97-.59 1.87-.13 4.61 1.36 7.21 2.17 3.76 5.72 5.78 7.92 4.51.77-.45 1.25-1.25 1.48-2.25-.67-.26-1.23-.65-1.67-1.14-.38-.28-.72-.61-.99-.99Z" style="fill:#024bb2"/></g><g data-name="hightlights"><g style="mix-blend-mode:color-dodge;opacity:.75"><path d="M344.38 203.35c.73.22 1.46.57 2.19 1.04-1.26.12-2.57.25-3.87.38.51-.52 1.07-.99 1.68-1.42Z" style="fill:#aff4ff"/><path d="M344.38 203.35c-.61.43-1.17.9-1.68 1.42-1.94.19-3.86.37-5.57.56 1.04-1.08 2.3-1.82 3.66-2.13 1.14-.26 2.36-.23 3.59.15Z" style="fill:#aff4ff"/><path d="M338.07 192.67c.09.36.15.77.1 1.12-8.84-8.69-17.69-17.75-26.77-25.73-.03-.25-.06-.5-.08-.75 1.22-.32 2.49.18 3.63.71 10.57 4.88 20.19 13.38 23.12 24.65ZM263.42 118.01c.15 2.43-.05 4.94-1.1 7.14-.94 1.97-2.66 3.65-4.73 4.23-1.59-.18-3.13-.73-4.49-1.53-.07-.04-.14-.09-.21-.13-.9-.59-1.56-1.43-1.94-2.37-.16-1.61.48-3.27 1.1-4.8 4.03-9.93 8.9-7.95 9.95-6.83 1.05 1.13 1.32 2.75 1.42 4.29Z" style="fill:#e7f2fe"/><path d="M257.59 129.38c-.25.07-.5.12-.75.16-1.19.18-2.46-.08-3.51-.67-.15-.36-.3-.74-.44-1.15.07.04.14.09.21.13 1.36.8 2.9 1.35 4.49 1.53ZM252.68 147.53c.47 1.95-.22 4.02-1.32 5.71-1.08 1.66-2.64 3.11-4.56 3.63-1.29.34-2.74.18-3.88-.48-.25-.76-.4-1.56-.46-2.36-.48-6.22 3.81-8.09 9.62-7.83.29.44.5.9.6 1.33ZM243.32 97.39c.22 1.39.35 2.87-.17 4.18-.35.9-1.1 1.69-1.99 2.03-3.11-5.22-5.46-13.14-3.1-16.58h.01c.49-.03.96.2 1.36.5 1.29.96 1.97 2.54 2.48 4.08.63 1.88 1.1 3.82 1.41 5.79ZM233.96 113.52c.64 1.13 1.18 2.39 1.09 3.7-.08 1.21-.86 2.44-2.01 2.75-3.44-1.42-6.47-3.39-8.78-5.53-2.07-1.9-3.57-3.93-4.28-5.82l.77-.27c-.1-1.45 1.32-2.66 2.77-2.81 1.45-.14 2.85.52 4.08 1.3a19.28 19.28 0 0 1 6.36 6.68Z" style="fill:#e7f2fe"/><path d="M228.24 53.98c.19-.31.37-.62.53-.92.34-.01.69-.09.98-.29.48-.34.73-.91 1.02-1.42.09-.17.19-.34.3-.5 8.62 5.34 4.99 24.64-1.07 27.09 2.18 4.69-1.22 12.29-6.63 13.26-.12.02-.23.05-.35.06-.52-1.26-1.12-2.34-1.78-3.18-1.01-1.55-5.16-4.72-9.33-4.95.02-.26.03-.51.01-.75-.44-8.83-2.35-16.19-5.37-22.23 1.57-4.09 3.47-8.21 6.79-11.05 2.49-2.13 6.31-3.35 9-1.48 2.11 1.47 3.07 4.52 5.49 5.28.16.36.29.72.41 1.08Zm-3.57 6.3c.59-5.64-2.18-9.15-5.33-7.66-.44.21-.71.67-.68 1.16.17 2.93 1.12 12.14 1.2 13.32.18 2.67 4.16-.61 4.81-6.82Z" style="fill:#01487b"/><path d="M231.07 50.85c-.11.16-.21.33-.3.5-.29.51-.54 1.08-1.02 1.42-.29.2-.64.28-.98.29.51-.97.88-1.92 1.11-2.84h.01c.42.18.81.38 1.18.63Z" style="fill:#01487b"/><path d="M228 52.96c.25.07.51.11.77.1-.16.3-.34.61-.53.92-.12-.36-.25-.72-.41-1.08.05.03.11.04.17.06Z" style="fill:#01487b"/><path d="M221.23 211.26c-.52-.05-1.06-.07-1.59-.07-.05-.24-.11-.49-.16-.73.56.13 1.14.41 1.75.8Z" style="fill:#e7f2fe"/><path d="M213.84 1109.8c4.01 4.35 5.2 10.65 4.9 16.56a38.667 38.667 0 0 1-3.7 14.58c-4.59 1.82-9.97 3.04-16.03 2.89-17.39-.44-29-12.25-31.89-14.86 2.51-12.93 8.7-22.1 19.77-24.95l.02.1c4.74-.46 9.53-.93 14.26-.3 4.72.63 9.44 2.48 12.67 5.98Zm-7.59 9.59c1.46-2.11 2.53-4.73 1.9-7.22-.65-2.61-3.05-4.49-5.62-5.28-2.5-.77-5.17-.69-3.7-.17-7.26-2.02-15.67 1.43-19.4 7.97-1.03 1.81-1.74 3.89-1.4 5.94.62 3.81 4.59 6.2 8.39 6.92 7.43 1.4 15.54-1.94 19.83-8.16Z" style="fill:#fff"/><path d="M216.02 91.13c.09.05.18.09.26.15-1.18.42-2.23.89-3.15 1.43.9-.63 1.87-1.16 2.89-1.58Z" style="fill:#e7f2fe"/><path d="M215.04 1140.94c-2.37 4.98-5.8 9.43-10.14 12.84-.59.46-1.19.9-1.81 1.32-.68.08-1.36.14-2.06.18-14.4.9-24.34-6.01-29.59-11.52-2.89-3.03-4.48-7.08-4.51-11.27 0-1.16.04-2.34.18-3.52h.01c2.89 2.61 14.5 14.42 31.89 14.86 6.06.15 11.44-1.07 16.03-2.89ZM155.91 57.25c4.04-4.09 8.84-8.32 14.53-7.93 2.49.18 4.83 1.25 7.28 1.75 4 .81 8.32-.01 11.75-2.24 1.08-.7 2.1-1.54 3.32-1.94.97-.32 1.99-.32 2.98-.11 4.34 3.42 8.02 7.84 10.78 13.37 3.02 6.04 4.93 13.4 5.37 22.23.02.24 0 .49-.01.75-4.1-.24-8.21 2.37-9.35 12.19-4.6.07-9.09-8.28-9.95-9.95v-.04c-8.68-.65-15.03-9.21-17.59-20.72-5.87 2.43-12.78.16-20.63-6.33.44-.41.87-.83 1.3-1.25l.22.22ZM211.19 34.1c.26.33.5.67.74 1.02-2.61-.22-5.42-.2-8.38.09.44-.07.88-.13 1.3-.19 2.11-.31 4.23-.61 6.34-.92Z" style="fill:#01487b"/><path d="M210.65 94.54c.7-.66 1.52-1.28 2.48-1.83-.81.56-1.56 1.19-2.25 1.88-.08-.02-.15-.04-.23-.05Z" style="fill:#e7f2fe"/><path d="M211.19 34.1c-2.11.31-4.23.61-6.34.92-.42.06-.86.12-1.3.18-2.73.33-5.62.36-7.74-1.3-.7-.55-1.28-1.27-2.04-1.73a3.96 3.96 0 0 0-1.16-.46l-.06-.03c-2.97-.96-9.82 3-10.1 6.84-.22.36-.42.74-.6 1.12-1.17-.36-2.37-.67-3.58-.94-2.39-10.52 22.78-17.63 32.92-4.6Z" style="fill:#01487b"/><path d="M210.65 94.54c.08.01.15.03.23.05a17.396 17.396 0 0 0-2.83 3.73c.57-1.39 1.41-2.66 2.6-3.78Z" style="fill:#e7f2fe"/><path d="M198.83 1106.72c-1.47-.52 1.2-.6 3.7.17 2.57.79 4.97 2.67 5.62 5.28.63 2.49-.44 5.11-1.9 7.22-4.29 6.22-12.4 9.56-19.83 8.16-3.8-.72-7.77-3.11-8.39-6.92-.34-2.05.37-4.13 1.4-5.94 3.73-6.54 12.14-9.99 19.4-7.97Z" style="fill:#fff"/><path d="M180.12 207.94c.16-1.58.28-3.16.37-4.74.16-2.67.21-5.33.14-8 .07-.38.18-.75.36-1.09.39-.76 1.19-1.37 2.03-1.26.51.06.96.38 1.31.74 1.53 1.57 1.68 3.98 1.66 6.17-.06 4.08-.43 8.2-1.61 12.1-.38 1.26-.94 2.61-2.11 3.21-1.17.59-2.97-.15-2.88-1.44.14-.91.27-1.82.38-2.73.13-.99.25-1.97.35-2.96Z" style="fill:#e7f2fe"/><path d="M184.86 623.15c15.53 142.7 19.85 288.59-12.86 428.35-.94 4.03-2.29 8.54-5.98 10.4-2.1 1.06-4.51.95-6.71.08 15.85-151.04 20.63-303.85 8.61-459.34 2.97-.97 6.47-.81 9 1.02 5.86 4.24 7.16 12.3 7.94 19.49Z" style="fill:#163f94"/><path d="m182.63 39.88-.78-.24c.18-.38.38-.76.6-1.12-.05.46.01.91.18 1.36ZM177.15 38.46s0 .02.01.03c.68 1.44-.33 3.1-1.9 3.32-1.96.28-4.01.2-6.01.19-12.36-.1-24.87 2.65-35.54 8.88-7.99 4.67-14.88 11.36-19.47 19.35a46.052 46.052 0 0 0-3.82 8.47c-.51 1.51-.99 3.13-2.21 4.16-.55.46-1.3.7-2.02.7-.31-6.07 1.18-11.82 4.02-17.07 3.51-1.36 6.38-5.03 8.11-10.55 14.28-13.88 38.56-21.54 58.83-17.48Z" style="fill:#01487b"/><path d="m176.38 139.3.13.06c-2.73 7.64-10.3 12.33-17.54 16-2.28 1.15-4.61 2.28-7.11 2.83-2.5.56-5.21.5-7.5-.65v-.48c2.47.5 3.89.13 15.15-5.1 8.63-3.83 14.48-7.79 16.87-12.66Z" style="fill:#e7f2fe"/><path d="M169.79 182.67c-8.19.18-16.09-2.68-23.19-7.46-5.36-3.61-10.28-8.31-14.52-13.62-8.22-10.26-13.95-22.8-15.65-34.09a64.635 64.635 0 0 1-2.93-6.31l.7-.28c.12.32.28.62.49.89.67.89 1.67 1.31 2.78 1.42.52.81 1.04 1.62 1.51 2.45 3.23 5.66 4.61 12.17 7.24 18.12 4.16 9.42 11.55 17.38 20.63 22.23 8.17 4.36 18.43 7 22.51 15.31.2.4.35.86.43 1.34Z" style="fill:#e7f2fe"/><circle cx="167.17" cy="101.22" r="2.24" style="fill:#fff"/><path d="M154.05 148.53c1.39.19 1.76 1.93 1.11 3.04s-1.93 1.67-3.17 2.01c-.95.27-1.99.44-2.91.07s-1.6-1.47-1.2-2.38c.21-.47.66-.78 1.09-1.05 1.54-.93 3.29-1.51 5.08-1.69Z" style="fill:#e7f2fe"/><path d="M124.75 1108.66c7.67 1.15 14.38 5.44 18.6 12.84 2.33 4.1 2.89 8.93 2.82 13.21-3.91 7.97-22.16 14.54-35.58 13.36-1.2-.11-2.38-.14-3.56-.35l-.02-.01c-12.11-.95-27.55-11.78-40.15-25.09-1.42-3.38-2.3-6.97-2.46-10.65-.28-6.34 1.8-13.06 6.72-17.07 7.91-6.46 19.97-3.79 28.59 1.68 3.51 2.22 6.89 4.91 10.94 5.83 2.14.49 4.57.28 6.56-.62 3.81 3.62 6.83 6.35 7.54 6.87Zm8.63 15.65c.67-3.76-1.14-7.74-4.13-10.12-2.99-2.39-7-3.28-6.81-.43-4-2.65-9.57-2.7-13.62-.12s-6.36 7.65-5.64 12.4c.34 2.23 1.34 4.42 3.07 5.87 2.19 1.84 5.22 2.27 8.08 2.43 3.93.22 7.98.04 11.6-1.49 3.62-1.54 6.76-4.66 7.45-8.54Z" style="fill:#fff"/><path d="M146.17 1134.71c-.04 3.09-.42 5.9-.68 7.95-.17 1.37-.92 2.57-1.92 3.52-4.75.26-9.15 2.58-13.74 3.95-9.53 2.84-19.85 1.49-29.37-1.37-8.78-2.63-17.32-6.62-24.07-12.82-4.04-3.71-7.39-8.28-9.53-13.32 12.6 13.31 28.04 24.14 40.15 25.09l.02.01c1.18.21 2.36.24 3.56.35 13.42 1.18 31.67-5.39 35.58-13.36Z" style="fill:#01487b"/><path d="M146.6 175.21c-6.13 9.01-18.19-.96-14.52-13.62 4.24 5.31 9.16 10.01 14.52 13.62Z" style="fill:#00dbff"/><path d="M137.63 128.28c.41-.48 1.11-.55 1.62-.17.55.4 1.11.99.95 1.61-.3 1.13-.83 2.21-1.55 3.12-.63.8-1.74 1.52-2.6.98-.84-.54-.68-1.84-.16-2.69s.95-1.61 1.49-2.56c.09-.11.18-.21.25-.29Z" style="fill:#e7f2fe"/><path d="M137.4 203.52c1.2 1.63 1.2 2.67.8 3.46-.59 1.15-2.09 1.44-3.38 1.53-10.51.74-20.96-2.57-30.3-7.43-7.46-3.88-14.71-9.15-18.11-16.83-.4-.9-.7-2.06-.02-2.77.54-.57 1.44-.55 2.22-.47l1.14.12c16.05 8.59 30.81 15.99 47.65 22.39ZM129.25 1114.19c2.99 2.38 4.8 6.36 4.13 10.12-.69 3.88-3.83 7-7.45 8.54-3.62 1.53-7.67 1.71-11.6 1.49-2.86-.16-5.89-.59-8.08-2.43-1.73-1.45-2.73-3.64-3.07-5.87-.72-4.75 1.59-9.82 5.64-12.4s9.62-2.53 13.62.12c-.19-2.85 3.82-1.96 6.81.43ZM129.4 117.86c.37.39.6.93.6 1.52a2.243 2.243 0 0 1-4.16 1.16c1.27-.77 2.46-1.67 3.56-2.68Z" style="fill:#fff"/><path d="M127.76 117.14c.64 0 1.23.28 1.64.72-1.1 1.01-2.29 1.91-3.56 2.68a2.243 2.243 0 0 1 1.92-3.4Z" style="fill:#fff"/><path d="M114.13 117.46c.88 2.02 2.13 3.88 3.34 5.76-1.11-.11-2.11-.53-2.78-1.42-.21-.27-.37-.57-.49-.89-.4-1.06-.33-2.31-.07-3.44Z" style="fill:#e7f2fe"/><path d="m114.2 120.91-.7.28c-4.42-11.03-5.12-21.77-3.85-31.12.27-.01.55-.06.81-.15.16-.05.31-.12.47-.19l.05.09c4.96 7.39-.16 17.68 2.58 26.15.16.51.36 1.01.57 1.49-.26 1.14-.33 2.39.07 3.45ZM105.7 28.52c-.06.35-.15.71-.24 1.06-.16.58-.35 1.18-.78 1.6-1.24 1.22-3.31.21-4.66-.9-2.81-2.3-5.37-4.91-8.22-7.17-.63-.5-1.28-.99-1.93-1.46-4.58-3.3-9.66-5.88-14.45-8.87C70.33 9.61 65.42 5.79 62.3.7c7.74 1.16 22.43 7.66 43.4 27.82ZM82.14 26.29c.1.13.19.26.27.4a33.432 33.432 0 0 0-7.77 4.22c2.05-1.67 4.39-3.14 7.04-4.41.15-.07.31-.14.46-.21Z" style="fill:#e7f2fe"/><path d="M78.91 175.28c.91.94 1.85 3.71 2.55 7.7-2.58-1.71-5.19-3.45-7.8-5.19l.08-.12c2.35-2.68 3.65-2.73 4.5-2.75.22.13.44.25.66.36Z" style="fill:#aff4ff"/><path d="M73.38 530c2.01 3.06 2.02 6.97 1.9 10.62-1.31 41.56-10.36 82.42-17.63 123.35-12.42 70.05-19.69 141.25-17.18 212.35 1.66 46.75 7.54 93.41 6.01 140.17-.25 7.88-.78 16-4.32 23.04a24.519 24.519 0 0 1-5.18 6.9C14.65 873.09 24.19 699.92 68.94 526.91c1.76.44 3.44 1.57 4.44 3.09Z" style="fill:#163f94"/><path d="M70.39 34.61a33.25 33.25 0 0 1 4.25-3.7 29.006 29.006 0 0 0-3.91 3.84c-.11-.04-.23-.09-.34-.14ZM61.37 8.39c.02.55.05 1.13-.18 1.64-.68 1.5-2.92 1.33-4.32.48C55.2 9.5 54 7.88 54.59 4.01c.01-.07.02-.14.04-.21.41-1.15 1.15-2.06 1.97-2.61.46-.31 1.18-.54 2.15-.64.14.11.27.23.39.35 1.87 1.9 2.1 4.83 2.23 7.49Z" style="fill:#e7f2fe"/><path d="M57.75 488.38c.31.04.61.1.92.16-.39.13-.78.27-1.16.41l.24-.57Z" style="fill:#fff"/><path d="M56.6 40.9c.81 1.95 1.84 3.91 1.83 6.02 0 .56-.08 1.11-.23 1.65C47.47 36.82 45.57 25.52 47.01 18.3c.5-.62 1.18-1.16 1.97-1.12.52.02.99.3 1.41.62 1.96 1.52 2.98 4 3.41 6.45s.34 4.96.55 7.44c.28 3.16 1.04 6.28 2.25 9.21ZM48.75 81c6.11 2.73 4.16 6.67 2.2 9.79-11.89 19-24.81 37.35-38.67 54.96-.01.02-.03.03-.04.05-1.56 1.96-4.71.3-3.99-2.1a138.69 138.69 0 0 1 8.94-22.6c9.53-13.83 20.83-28.12 31.56-40.1ZM19.46 174.03c8.4 9.08 15.92 19.12 21.15 30.3-11.89-9.52-23.47-20.36-31.63-32.05.03-.33.13-.66.3-.99.64-1.21 2.18-1.7 3.55-1.57 2.68.26 4.8 2.33 6.63 4.31Z" style="fill:#e7f2fe"/><ellipse cx="215.59" cy="132.1" rx="3.39" ry="7.86" transform="rotate(-9.66 215.707 132.172)" style="fill:#fff"/><path d="M127.07 126.2c-1.79 1.04-3.27 2.22-4.29 3.35.64.14 1.2.4 1.67.74.43-.12.89-.2 1.4-.2.36 0 .7.04 1.03.1.7-.42 1.55-.68 2.57-.68.29 0 .57.03.83.07.37-1.08 1.08-2.02 2.14-2.59.03-1.08.35-2.16.99-3.02-1.67.1-3.99.88-6.34 2.23ZM166.61 106.84c-2.17 1.25-3.9 2.73-4.88 4.06.82.19 1.49.56 2.03 1.05.09 0 .16-.02.25-.02.84 0 1.56.17 2.18.46.52-.19 1.1-.3 1.75-.3.24 0 .46.02.68.04.53-.98 1.39-1.78 2.58-2.15.31-.8.78-1.52 1.47-2.05-.08-1.17.2-2.37.83-3.33-1.69-.07-4.28.73-6.9 2.24Z" style="fill:#0078da"/></g><circle cx="194.69" cy="282.03" r="2.47" style="fill:#f9f9f9"/><ellipse cx="215.36" cy="136.01" rx="1.59" ry="2.57" transform="rotate(-21.51 215.341 136.004)" style="fill:#f9f9f9"/><path d="M133.2 172.34c.41.55 2.56 3.56 2.83 3.85-.25-1.04-.66-2.19-1.16-3.45-.97-2.47-2.04-4.44-2.93-5.32.11 2.19.96 4.27 1.27 4.92Z" style="fill:#f9f9f9"/><path d="M133.2 172.34c.41.55.73 1.93 2.83 3.85-.25-1.04-.66-2.19-1.16-3.45" style="fill:#f9f9f9"/><path d="M133.2 172.34c.23.34.73 1.93 2.83 3.85-.25-1.04-.66-2.19-1.16-3.45" style="fill:#f9f9f9"/></g></g></g></g></svg>