<svg xmlns="http://www.w3.org/2000/svg" viewBox="0 0 489.01 1157.43"><g data-name="Layer 2" style="isolation:isolate"><g data-name="FINISHED"><g data-name="HANHHA"><g data-name="base"><path d="M267.67 178.4c-1.32-3.87-1.89-9.02-.76-17.46.37.27.74.53 1.11.79.84 6.83.26 9.8-.35 16.67ZM312.94 166.94c.37-.14.73-.28 1.09-.45l.12.33c.25 1.04 1.5 3.64 2.37 6.88.69 2.6.52 5.41-.74 7.78-2.91 5.45-9.22 5.78-12.54 4.23 1.79-6.15 4.81-12.39 9.7-18.77Z" style="fill:#081e69"/><path d="M459.57 293.97c1.81-.41 3.65-.78 5.53-1.13-1.02 1.35-2.04 2.65-3.07 3.9-.8-.9-1.62-1.83-2.46-2.77ZM428.81 323.62c-8.41 4.1-16.94 6.74-25.49 8.9 4.01-7.25 9.01-13.47 14.93-18.73 3.3 2.9 7.03 6.34 10.56 9.83Z" style="fill:#aff4ff"/><path d="M373.26 204.69v-.01Z" style="fill:#fff"/><path d="M314.75 84.16c0 4.1 3.33 7.43 7.43 7.43s7.43-3.33 7.43-7.43-3.33-7.43-7.43-7.43-7.43 3.32-7.43 7.43Zm10.8-13.79c4.54.25 8.41 1.35 11.51 2.65-.16 6 1.94 10.61 6.89 12.16-.04.27-.09.52-.14.77-2.42 11.3-11.23 18.97-18.98 19.08-8.67.13-18.9-9.2-20.11-22.55-.06-.67-.05-1.33.04-1.97.42-3.39 2.7-6.35 5.96-7.66 3.73-1.49 8.8-2.8 14.83-2.48Z" style="fill:#e7f2fe"/><path d="M316.34 499.91c7.57 2.56 14.35 5.62 20.25 8.98-4.09 11.34-12.9 15.18-21.99 15.18.53-8.03 1.1-16.09 1.74-24.16Z" style="fill:#aff4ff"/><circle cx="322.18" cy="84.16" r="7.43" style="fill:#00a2f7"/><path d="M331.85 67.31c-.18 2.21-4.33 3.01-7.37 3.01-4.68 0-10.4-.54-10.71-2.67-.31-2.03 3.14-5.27 9.2-5.2 6.15.08 9.08 2.2 8.88 4.86Z" style="fill:#163f94"/><path d="M220.41 498.7c38.07-10.15 71.2-7.18 95.93 1.21-.64 8.07-1.21 16.13-1.74 24.16-12.03 186.43 7.51 362.88 48.94 532.43-3.2 8.11-8.33 14.02-14.8 18.11-18.18 11.49-46.93 8.53-73.13-.7-5.35-1.89-10.61-4.04-15.64-6.38-51.2-184.61-61.6-374.57-39.96-568.72.14-.04.26-.07.4-.11Z" style="fill:#0078da"/><path d="M301.96 184.89c-.17 1.6-.04 3.13.34 4.52-.63 2.89-1.01 5.76-1.2 8.61 5.39 4.1-1.36 18.05-16.11 18.02-3.29 0-6.75-.99-9.89-2.68 1-3.09 1.57-6.53 1.43-10.31-.53-14.22-6.21-16.78-8.86-24.65.61-6.87 1.19-9.84.35-16.67 7.25 5 15.99 8.49 26 8.49 7.39 0 13.63-1.24 18.92-3.28-4.89 6.38-7.91 12.62-9.7 18.77-.5-.23-.94-.51-1.28-.82ZM300.45 449.84c-14.05 1.56-21.9 1.82-24.47 1.53-12.05-1.34-9.67-10.96-.28-13.45 4.27-1.13 16.94-2.65 31.17-6.2-16.32-1.16-32.07-3.13-33-3.41-10.73-1.65-16.41-12.07-.23-14.31 4.28-.6 21.1-1.09 41.55-.43.15 0 .3.01.44.01 3.32 0 4.2-3.5.45-6.01.66-3.45 1.6-6.89 2.91-10.26.23-.58 1.52-3.62 3.52-8.45 7.05 6.08 14.36 10.96 20.37 13.89 5.56 2.7 12.11 2.45 17.46-.64 20.4-11.77 51.25-41.28 81.77-62.25-1.47-3.77-7.06-10.08-13.3-16.24-3.53-3.49-7.26-6.93-10.56-9.83 10.84-9.63 24.77-16.09 41.32-19.82.84.94 1.66 1.87 2.46 2.77 14.36 16.44 21.28 28.87 24.98 37.63 3.37 7.99.89 19.37-5.53 25.19-14.9 13.48-43.63 32.61-115.93 83.09-14.51 10.14-32.84 14.81-47.15 17.77-5.98 1.23-11.26 2.16-15.26 3.06-16.24 2.88-20.43-8.72-9.89-11.96 1-.31 3.75-.94 7.2-1.68Z" style="fill:#e7f2fe"/><path d="M317.65 137.14c-15-13.37-29.56-13.93-44.82-.38-2.43-3.03-4.3-6.58-5.4-10.56 2.79-2.16 13.38-9.13 28.73-9.17 14.09-.04 23.95 8.15 26.76 10.54a29.792 29.792 0 0 1-5.27 9.57Z" style="fill:#182c4c"/><path d="M272.83 136.76c15.26-13.55 29.82-12.99 44.82.38-5.38 6.58-13.35 10.78-21.33 10.77-9.2-.01-17.86-4.17-23.49-11.15Z" style="fill:#c0edff"/><path d="M272.56 90.52c4.1 0 7.43-3.32 7.43-7.42s-3.33-7.44-7.43-7.44-7.43 3.33-7.43 7.44 3.33 7.42 7.43 7.42Zm-16.52-18.81c3.7-1.49 8.77-2.81 14.79-2.48h.03c.76.12 1.53.19 2.27.21.01 0 .03 0 .04.01 5.15.62 9.33 2.31 12.31 3.92 2.64 1.41 4.2 4.13 4.2 7.07 0 .24-.01.47-.03.7-1.1 13.27-10.95 22.63-19.51 22.76-6.28.08-13.39-4.78-17.28-12.56 4.09-3.22 3.88-11.17 1.05-18.45.64-.47 1.36-.87 2.13-1.18Z" style="fill:#e7f2fe"/><path d="M328.15 1112.5c5.34-.68 10.74-.47 16.03.55 29.58 5.7 53.07-2.95 63.25-13.42-.19 2.04-.69 4.09-1.56 6.1-2.28 5.31-5.43 8.39-9.94 11.18-2.03 1.26-4.36 1.89-6.54 2.9-16.89 7.82-37.04.13-52.88-.25-22.74-.54-41.51 5.84-54.54-5.59-1.25-1.1-2.09-3.43-2.58-5.02-.21-.69-.42-1.4-.6-2.11 12.07 5.31 28.34 8.34 49.36 5.66Z" style="fill:#163f94"/><path d="M272.56 75.66c4.1 0 7.43 3.33 7.43 7.44s-3.33 7.42-7.43 7.42-7.43-3.32-7.43-7.42 3.33-7.44 7.43-7.44Z" style="fill:#00a2f7"/><path d="M275.61 1073.91c26.2 9.23 54.95 12.19 73.13.7 4.44-.36 11.33-2.6 21.49-5.45l.12-.03c.33-.1.66-.19 1-.28 16.6-4.15 37.75 13.31 36.08 30.78-10.18 10.47-33.67 19.12-63.25 13.42-5.29-1.02-10.69-1.23-16.03-.55-21.02 2.68-37.29-.35-49.36-5.66-2.55-9.47-3.26-20.97-3.18-32.93Z" style="fill:#fff"/><path d="M274.29 60.92c4.86.19 10.29 2.82 10.08 5.46-.23 2.66-5.88 3.05-10.49 3.07h-.71s-.03-.01-.04-.01c-.73-.09-1.49-.17-2.27-.21h-.03c-3.43-.51-6.66-1.89-6.61-3.89.04-2.64 5.43-4.59 10.07-4.42Z" style="fill:#163f94"/><path d="M289.68 80.44c0-2.94-1.56-5.66-4.2-7.07-2.98-1.61-7.16-3.3-12.31-3.92h.71c4.61-.02 10.26-.41 10.49-3.07.21-2.64-5.22-5.27-10.08-5.46-4.64-.17-10.03 1.78-10.07 4.42-.05 2 3.18 3.38 6.61 3.89-6.02-.33-11.09.99-14.79 2.48-.77.31-1.49.71-2.13 1.18-.23-.58-.47-1.15-.72-1.72-3.08-6.8 2.03-14.79 5.71-21.29 4.03-7.11 9.01-15.39 14.02-17.61 2.65-1.16 5.68-1.49 8.6-1.16 20.04 2.28 26.83 2.76 25.58-1.24 2.17 4.03 7.26 7.32 19.63 7.54 6.57.12 18.92 8.45 13.15 23.19-1.72 4.41-2.71 8.69-2.82 12.42-3.1-1.3-6.97-2.4-11.51-2.65-6.03-.32-11.1.99-14.83 2.48-3.26 1.31-5.54 4.27-5.96 7.66l-.59-.07c-3.64-2.56-10.13-2.89-13.84 0h-.65Zm34.8-10.12c3.04 0 7.19-.8 7.37-3.01.2-2.66-2.73-4.78-8.88-4.86-6.06-.07-9.51 3.17-9.2 5.2.31 2.13 6.03 2.67 10.71 2.67Z" style="fill:#e7f2fe"/><path d="M296.32 147.91c7.98 0 15.95-4.19 21.33-10.77 2.29-2.79 4.11-6.04 5.27-9.57-2.81-2.39-12.67-10.58-26.76-10.54-15.35.04-25.94 7.01-28.73 9.17 1.1 3.98 2.97 7.53 5.4 10.56 5.63 6.98 14.29 11.14 23.49 11.15Zm47.49-61.96c.61-.14 1.21-.28 1.78-.39 1.93.32 4.21.25 6.86-.29 6.78 1.12 9.52 7.52 8.16 21.67-.05 1.24-.18 2.21-.35 3.03-1.97 11.4-7.36 23.35-19.41 21.58-.19 1.42-.46 2.82-.85 4.19-2.29 8.19-8.92 23.69-25.97 30.75-.36.17-.72.31-1.09.45-5.29 2.04-11.53 3.28-18.92 3.28-10.01 0-18.75-3.49-26-8.49-.37-.26-.74-.52-1.11-.79-13.24-9.6-21.19-24.1-22.32-30.55-.08-.45-.16-.89-.22-1.34-17 1.79-20.34-11.28-22.48-22.55-3.23-18.83 9.3-29.49 16.73-23.84 3.79-.52 2.51 9.87 9.01 10.16 2.22.1 3.94-.45 5.23-1.48 3.89 7.78 11 12.64 17.28 12.56 8.56-.13 18.41-9.49 19.51-22.76.02-.23.03-.46.03-.7h.65c3.71-2.89 10.2-2.56 13.84 0l.59.07c-.09.64-.1 1.3-.04 1.97 1.21 13.35 11.44 22.68 20.11 22.55 7.75-.11 16.56-7.78 18.98-19.08Z" style="fill:#e7f2fe"/><path d="M246.48 1131.74c-6.63 11.92-49.26 24.42-73.15 4.54-2.28-1.88-4.61-3.71-7.15-5.21-5.21-3.1-10.8-5.49-16.7-7-10.79-2.76-20.53-9.84-24.32-15.86h-.18c.16-4.95.78-9.93 1.18-14.15 23.09 4.8 49.23 3.55 70.02-3 4.19 4.25 8.41 6.74 14.17 7.89h.01c17.7-3.07 38.72 5.33 36.12 32.79Z" style="fill:#fff"/><path d="M340.85 131.55c12.05 1.77 17.44-10.18 19.41-21.58.17-.82.3-1.79.35-3.03 1.36-14.15-1.38-20.55-8.16-21.67-1.95-.32-4.23-.2-6.86.29-.58-.08-1.12-.21-1.64-.38-4.95-1.55-7.05-6.16-6.89-12.16.11-3.73 1.1-8.01 2.82-12.42 5.77-14.74-6.58-23.07-13.15-23.19-12.37-.22-17.46-3.51-19.63-7.54 1.25 4-5.54 3.52-25.58 1.24-2.92-.33-5.95 0-8.6 1.16-5.01 2.22-9.99 10.5-14.02 17.61-3.68 6.5-8.79 14.49-5.71 21.29.25.57.49 1.14.72 1.72 2.83 7.28 3.04 15.23-1.05 18.45-1.29 1.03-3.01 1.58-5.23 1.48-6.5-.29-5.22-10.68-9.01-10.16-7.43-5.65-19.96 5.01-16.73 23.84 2.14 11.27 5.48 24.34 22.48 22.55.06.45.14.89.22 1.34 1.13 6.45 9.08 20.95 22.32 30.55-1.13 8.44-.56 13.59.76 17.46 2.65 7.87 8.33 10.43 8.86 24.65.14 3.78-.43 7.22-1.43 10.31-3.2 9.85-10.76 16.14-13.37 18.77.64 16.64-16.17 19.37-21.01 10.83 8.83 4.08 10.58-14.52-6.36-14.7-12.72-.14-16.73-6.55-16.91-18.61-1.04 1.9-2.46 3.87-4.3 6.04-2.14 2.51-5.4 4.17-7.78 6.46-1.95 1.87-3.6 4.14-4.23 6.37-1.04 3.66.37 7.4 8.67 7.51-6.69 8.66-15.88 5.49-20.26-2.88l-.74.4c-14.72-13.93-17.36-31.96-3.77-55.54-1.35-.79-2.54-1.73-3.58-2.81-10.07-10.33-5.7-32.56 13.68-40.89-10.08.8-20.18-8.27-13.52-22.13 0 7.9 4.91 9.86 10.18 8.99 8.44-1.38 12.54-9.56 11.72-18.24-.66-6.91-4.34-14.73-1.23-24.22 4.41-13.43 14.58-13.55 25.1-25.83 8.23-9.62 6.83-15.9 9.7-23.21.76-1.94 1.8-3.77 3.02-5.46 8.36-11.55 30.08-34.38 66.46-18 23.88-8.48 77.82 3.83 73.07 87.99.82 10.89 13.11 17.84 15.65 8.03-1.71 13.23-9.23 14.58-15.88 10.27 1.69 6.08.86 9.55-1.6 12.52-5.36 6.47-7.57 14.14-6.64 22.17.96 8.43 2.68 15.74 9.75 18.62 9.02 3.67 21.77-4.43 10.18-11.23 15.13-2.73 14.42 11.47 8.1 19.59 3.64 14.34-2.39 24.98-10.7 29.44h-.01c-4.79 2.58-10.34 3.1-15.22 1.08-.01-.01-.01 0-.01 0v-.01c.12.1 1.47 1.22 1.5 1.25 6.49 6.29 7.39 16.61 1.59 23.53-7.53 8.97-7.92 25.09 2.32 17.94-6.19 14.23-20.89 10.58-25.19-3.32l-.1-.08c-7.98 9.9-26.24 9.58-28.41 7.85-9.3 3.14-19.31.09-20.29-7.41 8.32 4.26 12.19 1.3 11.81-8.56-12.82-.69-21.56-20.44-2.97-38.26-.29.05-.58.08-.88.1-4.4.25-8.97-3.23-10.34-8.31-.38-1.39-.51-2.92-.34-4.52.34.31.78.59 1.28.82 3.32 1.55 9.63 1.22 12.54-4.23 1.26-2.37 1.43-5.18.74-7.78-.87-3.24-2.12-5.84-2.37-6.88l-.12-.33c17.05-7.06 23.68-22.56 25.97-30.75.39-1.37.66-2.77.85-4.19Z" style="fill:#163f94"/><path d="M163.16 416.07c-.08-.48-.4-.85-.84-.96l-3.5-.84c-.09-.02-.18-.03-.27-.03 16.83 1.43 29.71 3.78 33.92 4.59 8.03 1.57 13.9-4.55 5.49-10.7-1.41-1.04-2.98-1.84-4.64-2.43-6.03-2.13-22.14-8.33-42.75-14.26-.92-2.03-1.6-4.3-2.06-6.8-.86-4.6-.99-9.95-.58-15.85 2.17-31.41 19.44-78.42 21.42-112.15-14.62-3.33-42.36 9.7-69.9 25.72-.42-11.31-2.03-21.43-4.97-30.23-5.17-15.55-14.43-26.96-28.34-33.55h-.01c-1.3-.62-2.63-1.19-4.01-1.73 50.69-25.25 95.64-44.52 119.34-41.65 1.04 1.08 2.23 2.02 3.58 2.81-13.59 23.58-10.95 41.61 3.77 55.54l.74-.4c4.38 8.37 13.57 11.54 20.26 2.88-8.3-.11-9.71-3.85-8.67-7.51.63-2.23 2.28-4.5 4.23-6.37 2.38-2.29 5.64-3.95 7.78-6.46 1.84-2.17 3.26-4.14 4.3-6.04.18 12.06 4.19 18.47 16.91 18.61 16.94.18 15.19 18.78 6.36 14.7 4.84 8.54 21.65 5.81 21.01-10.83 2.61-2.63 10.17-8.92 13.37-18.77 3.14 1.69 6.6 2.68 9.89 2.68 14.75.03 21.5-13.92 16.11-18.02.19-2.85.57-5.72 1.2-8.61 1.37 5.08 5.94 8.56 10.34 8.31.3-.02.59-.05.88-.1-18.59 17.82-9.85 37.57 2.97 38.26.38 9.86-3.49 12.82-11.81 8.56.98 7.5 10.99 10.55 20.29 7.41 2.17 1.73 20.43 2.05 28.41-7.85l.1.08c4.3 13.9 19 17.55 25.19 3.32-10.24 7.15-9.85-8.97-2.32-17.94 5.8-6.92 4.9-17.24-1.59-23.53-.03-.03-1.38-1.15-1.5-1.24 0 0 0-.01.01 0 4.88 2.02 10.43 1.5 15.22-1.08h.01c27.69 13.16 54.74 67.59 76.6 89.23-1.88.35-3.72.72-5.53 1.13-16.55 3.73-30.48 10.19-41.32 19.82-5.92 5.26-10.92 11.48-14.93 18.73-8.33-21.41-43.76-44.57-47.74-59.94v-.02c-4.9 31.16-23.77 93.97-33.06 116.3-2 4.83-3.29 7.87-3.52 8.45-1.31 3.37-2.25 6.81-2.91 10.26-.39 2-.68 4-.89 6-20.45-.66-37.27-.17-41.55.43-16.18 2.24-10.5 12.66.23 14.31.93.28 16.68 2.25 33 3.41-14.23 3.55-26.9 5.07-31.17 6.2-9.39 2.49-11.77 12.11.28 13.45 2.57.29 10.42.03 24.47-1.53-3.45.74-6.2 1.37-7.2 1.68-10.54 3.24-6.35 14.84 9.89 11.96 4-.9 9.28-1.83 15.26-3.06 4.56 20.22 10.59 39.43 18.59 48.7-.14-.08-.27-.16-.4-.23-5.9-3.36-12.68-6.42-20.25-8.98-24.73-8.39-57.86-11.36-95.93-1.21-.14.04-.26.07-.4.11-2.6.68-5.23 1.27-7.86 1.77-16.29 3.05-33.11 2.43-49-2.52-16.29-5.07-30.45-13.32-43.68-25.98-6.64-6.35-13.05-13.83-19.36-22.59a97.57 97.57 0 0 0 21.49-13.61c16.9 7.83 35.42 12.11 46.22 11.15 6.23-.05 9.69-3.01 6.09-7.81-1.33-1.77-3.18-3.07-5.25-3.82 7.45 1.96 12.08 2.4 17.43 2.5 9.39.03 13.15-7.38 4.69-11.84-.85-.45-1.74-.79-2.67-1.08-5.38-1.7-14.28-5.12-24.95-8.91Z" style="fill:#fff"/><path d="M158.55 414.24c-.13 0-.27.02-.4.07-.16-.05-.3-.1-.46-.15.29.02.57.05.86.08Z" style="fill:#fff"/><path d="M157.92 432.33c-1.13-.28-2.26-.57-3.37-.85-.66-.17-1-.88-.82-1.69 1.05-4.66 2.09-9.32 3.13-13.98.15-.73.7-1.31 1.29-1.5.13-.05.27-.07.4-.07.09 0 .18.01.27.03l3.5.84c.44.11.76.48.84.96.04.23.03.48-.03.74-1.07 4.67-2.16 9.34-3.24 14.01-.23 1-1.17 1.72-1.97 1.51Z" style="fill:#00dbff"/><path d="M66.14 218.58c13.91 6.59 23.17 18 28.34 33.55l-.08.03c-5.48 2.57-10.52 5.07-15.14 7.51-14.19 7.51-24.5 14.41-31.76 20.85 20.49 35.13 41.28 69.66 64.99 101.58.82 1.12 2.42 1.24 3.3.15 4.88-6.02 18.06-10.99 32.14-13.46-.41 5.9-.28 11.25.58 15.85-2.38 1.28-4.64 3.03-5.57 4.68 2.6.7 5.15 1.41 7.63 2.12 20.61 5.93 36.72 12.13 42.75 14.26 1.66.59 3.23 1.39 4.64 2.43 8.41 6.15 2.54 12.27-5.49 10.7-4.21-.81-17.09-3.16-33.92-4.59-.29-.03-.57-.06-.86-.08.16.05.3.1.46.15-.59.19-1.14.77-1.29 1.5-1.04 4.66-2.08 9.32-3.13 13.98-.18.81.16 1.52.82 1.69 1.11.28 2.24.57 3.37.85l-.08.3c2.91.72 5.04 1.26 7.64 1.88.04.01.09.03.13.04 1.07.31 2.09.59 3.05.85 2.07.75 3.92 2.05 5.25 3.82 3.6 4.8.14 7.76-6.09 7.81-10.8.96-29.32-3.32-46.22-11.15-10.36-4.81-20.11-10.96-27.11-18.06C77.34 400.39 15 320.7 1.95 287.04c-2.52-6.53-1.78-13.92 2.09-19.75 7.7-11.64 26.22-30.04 59.08-47.16.99-.52 1.99-1.03 3.01-1.55h.01Z" style="fill:#e7f2fe"/><path d="M190.78 426.06c8.46 4.46 4.7 11.87-4.69 11.84-5.35-.1-9.98-.54-17.43-2.5-.51-.21-1.05-.37-1.59-.5-.51-.12-.99-.23-1.46-.35-.04-.01-.09-.03-.13-.04-2.6-.62-4.73-1.16-7.64-1.88l.08-.3c.8.21 1.74-.51 1.97-1.51 1.08-4.67 2.17-9.34 3.24-14.01.06-.26.07-.51.03-.74 10.67 3.79 19.57 7.21 24.95 8.91.93.29 1.82.63 2.67 1.08Z" style="fill:#e7f2fe"/><path d="M166.18 1131.07c2.54 1.5 4.87 3.33 7.15 5.21 23.89 19.88 66.52 7.38 73.15-4.54-.31 3.34-.97 6.95-2.03 10.88-2.27 9.71-33.68 18.62-57.41 12.1-15.61-4.29-12.19-10.61-32.8-19.91-15.46-6.99-26.12-6.08-28.31-14.85-.89-3.58-1.09-7.65-.95-11.76h.18c3.79 6.03 13.53 13.11 24.32 15.87 5.9 1.51 11.49 3.9 16.7 7Z" style="fill:#163f94"/><path d="M163.15 498.06c15.89 4.95 32.71 5.57 49 2.52-38.07 180.03-45.9 364.76 20.89 561.14-4.23 13.59-18.45 23.55-36.86 29.34-20.79 6.55-46.93 7.8-70.02 3-.67-.15-1.34-.29-2.01-.44-68.74-274.79-45.99-454.05-6.17-615.51.49-2.02.99-4.03 1.49-6.03 13.23 12.66 27.39 20.91 43.68 25.98Z" style="fill:#0078da"/><path d="M100.11 449.49c6.31 8.76 12.72 16.24 19.36 22.59-.5 2-1 4.01-1.49 6.03h-.01c-14.17-2.37-16.85-12.96-17.86-28.62ZM94.48 252.13c2.94 8.8 4.55 18.92 4.97 30.23-8.01-5.09-14.59-12.95-20.19-22.69 4.62-2.44 9.66-4.94 15.14-7.51l.08-.03ZM63.12 220.13c-.34-1.08-.67-2.18-1-3.28 1.38.54 2.71 1.11 4.01 1.73-1.02.52-2.02 1.03-3.01 1.55Z" style="fill:#aff4ff"/><path d="M210.35 1098.95c-9.2 1.59-17.51 6.28-21.15 13.01" style="fill:none;stroke:#000;stroke-linecap:round;stroke-linejoin:round;stroke-width:.97px"/><path d="M126.16 1094.06c-.4 4.22-1.02 9.2-1.18 14.14-.14 4.11.06 8.18.95 11.76 2.19 8.77 12.85 7.86 28.31 14.85 20.61 9.3 17.19 15.62 32.8 19.91 23.73 6.52 55.14-2.39 57.41-12.1 1.06-3.93 1.72-7.54 2.03-10.88 2.6-27.46-18.42-35.86-36.12-32.79" style="fill:none;stroke:#000;stroke-linecap:round;stroke-linejoin:round;stroke-width:.97px"/><path d="M196.18 1091.06c4.19 4.25 8.41 6.74 14.17 7.89h.01M125.16 1108.21c3.79 6.02 13.53 13.1 24.32 15.86 5.9 1.51 11.49 3.9 16.7 7 2.54 1.5 4.87 3.33 7.15 5.21 23.89 19.88 66.52 7.38 73.15-4.54.01 0 .01-.01.01-.01M370.23 1069.16c-8.23 2.56-15.14 10.69-17.31 27.12" style="fill:none;stroke:#000;stroke-linecap:round;stroke-linejoin:round;stroke-width:.97px"/><path d="M275.61 1073.91c-.08 11.96.63 23.46 3.18 32.93.18.71.39 1.42.6 2.11.49 1.59 1.33 3.92 2.58 5.02 13.03 11.43 31.8 5.05 54.54 5.59 15.84.38 35.99 8.07 52.88.25 2.18-1.01 4.51-1.64 6.54-2.9 4.51-2.79 7.66-5.87 9.94-11.18.87-2.01 1.37-4.06 1.56-6.1 1.67-17.47-19.48-34.93-36.08-30.78-.34.07-.67.17-1 .28" style="fill:none;stroke:#000;stroke-linecap:round;stroke-linejoin:round;stroke-width:.97px"/><path d="M278.79 1106.84c12.07 5.31 28.34 8.34 49.36 5.66 5.34-.68 10.74-.47 16.03.55 29.58 5.7 53.07-2.95 63.25-13.42M371.35 1068.85c-.34.09-.67.18-1 .28l-.12.03c-10.16 2.85-17.05 5.09-21.49 5.45" style="fill:none;stroke:#000;stroke-linecap:round;stroke-linejoin:round;stroke-width:.97px"/><path d="M220.01 498.81c-21.64 194.15-11.24 384.11 39.96 568.72 5.03 2.34 10.29 4.49 15.64 6.38 26.2 9.23 54.95 12.19 73.13.7 6.47-4.09 11.6-10 14.8-18.11-41.43-169.55-60.97-346-48.94-532.43.53-8.03 1.1-16.09 1.74-24.16" style="fill:none;stroke:#000;stroke-linecap:round;stroke-linejoin:round;stroke-width:.97px"/><path d="M119.47 472.08c-.5 2-1 4.01-1.49 6.03-39.82 161.46-62.57 340.72 6.17 615.51.67.15 1.34.29 2.01.44 23.09 4.8 49.23 3.55 70.02-3 18.41-5.79 32.63-15.75 36.86-29.34-66.79-196.38-58.96-381.11-20.89-561.14M99.45 282.36c-8.01-5.09-14.59-12.95-20.19-22.69M63.12 220.13c-.34-1.08-.67-2.18-1-3.28M355.92 258.75c.74 3.26.56 8.02-.34 13.83-.02.14-.05.28-.07.43M167.94 235.9c1.52 5.99 1.86 13.01 1.41 20.74M100.11 449.49c1.01 15.66 3.69 26.25 17.86 28.62M336.59 508.89c-4.09 11.34-12.9 15.18-21.99 15.18M302.3 189.41c-.38-1.39-.51-2.92-.34-4.52.34.31.78.59 1.28.82M312.94 166.94c-5.29 2.04-11.53 3.28-18.92 3.28-10.01 0-18.75-3.49-26-8.49.84 6.83.26 9.8-.35 16.67" style="fill:none;stroke:#000;stroke-linecap:round;stroke-linejoin:round;stroke-width:.97px"/><path d="M343.95 85.18c.52.17 1.06.3 1.64.38 2.63-.49 4.91-.61 6.86-.29 6.78 1.12 9.52 7.52 8.16 21.67-.05 1.24-.18 2.21-.35 3.03-1.97 11.4-7.36 23.35-19.41 21.58-.19 1.42-.46 2.82-.85 4.19-2.29 8.19-8.92 23.69-25.97 30.75-.36.17-.72.31-1.09.45-4.89 6.38-7.91 12.62-9.7 18.77M253.91 72.89c-.23-.58-.47-1.15-.72-1.72-3.08-6.8 2.03-14.79 5.71-21.29 4.03-7.11 9.01-15.39 14.02-17.61 2.65-1.16 5.68-1.49 8.6-1.16 20.04 2.28 26.83 2.76 25.58-1.24 2.17 4.03 7.26 7.32 19.63 7.54 6.57.12 18.92 8.45 13.15 23.19-1.72 4.41-2.71 8.69-2.82 12.42M302.3 189.41c-.63 2.89-1.01 5.76-1.2 8.61 5.39 4.1-1.36 18.05-16.11 18.02-3.29 0-6.75-.99-9.89-2.68 1-3.09 1.57-6.53 1.43-10.31-.53-14.22-6.21-16.78-8.86-24.65-1.32-3.87-1.89-9.02-.76-17.46-13.24-9.6-21.19-24.1-22.32-30.55-.08-.45-.16-.89-.22-1.34-17 1.79-20.34-11.28-22.48-22.55-3.23-18.83 9.3-29.49 16.73-23.84 3.79-.52 2.51 9.87 9.01 10.16 2.22.1 3.94-.45 5.23-1.48" style="fill:none;stroke:#000;stroke-linecap:round;stroke-linejoin:round;stroke-width:.97px"/><path d="M158.15 414.31c-.16-.05-.3-.1-.46-.15.29.02.57.05.86.08 16.83 1.43 29.71 3.78 33.92 4.59 8.03 1.57 13.9-4.55 5.49-10.7-1.41-1.04-2.98-1.84-4.64-2.43-6.03-2.13-22.14-8.33-42.75-14.26-.92-2.03-1.6-4.3-2.06-6.8-.86-4.6-.99-9.95-.58-15.85 2.17-31.41 19.44-78.42 21.42-112.15-14.62-3.33-42.36 9.7-69.9 25.72-.42-11.31-2.03-21.43-4.97-30.23-5.17-15.55-14.43-26.96-28.34-33.55h-.01c-1.3-.62-2.63-1.19-4.01-1.73 50.69-25.25 95.64-44.52 119.34-41.65-10.07-10.33-5.7-32.56 13.68-40.89-10.08.8-20.18-8.27-13.52-22.13 0 7.9 4.91 9.86 10.18 8.99 8.44-1.38 12.54-9.56 11.72-18.24-.66-6.91-4.34-14.73-1.23-24.22 4.41-13.43 14.58-13.55 25.1-25.83 8.23-9.62 6.83-15.9 9.7-23.21.76-1.94 1.8-3.77 3.02-5.46 8.36-11.55 30.08-34.38 66.46-18 23.88-8.48 77.82 3.83 73.07 87.99.82 10.89 13.11 17.84 15.65 8.03-1.71 13.23-9.23 14.58-15.88 10.27 1.69 6.08.86 9.55-1.6 12.52-5.36 6.47-7.57 14.14-6.64 22.17.96 8.43 2.68 15.74 9.75 18.62 9.02 3.67 21.77-4.43 10.18-11.23 15.13-2.73 14.42 11.47 8.1 19.59h0c3.64 14.34-2.39 24.98-10.7 29.44 27.69 13.16 54.74 67.59 76.6 89.23-1.88.35-3.72.72-5.53 1.13-16.55 3.73-30.48 10.19-41.32 19.82-5.92 5.26-10.92 11.48-14.93 18.73-8.33-21.41-43.76-44.57-47.74-59.94v-.02c-4.9 31.16-23.77 93.97-33.06 116.3-2 4.83-3.29 7.87-3.52 8.45-1.31 3.37-2.25 6.81-2.91 10.26-.39 2-.68 4-.89 6-20.45-.66-37.27-.17-41.55.43-16.18 2.24-10.5 12.66.23 14.31.93.28 16.68 2.25 33 3.41-14.23 3.55-26.9 5.07-31.17 6.2-9.39 2.49-11.77 12.11.28 13.45 2.57.29 10.42.03 24.47-1.53" style="fill:none;stroke:#000;stroke-linecap:round;stroke-linejoin:round;stroke-width:.97px"/><path d="M300.47 449.84h-.02c-3.45.74-6.2 1.37-7.2 1.68-10.54 3.24-6.35 14.84 9.89 11.96 4-.9 9.28-1.83 15.26-3.06 4.56 20.22 10.59 39.43 18.59 48.7-.14-.08-.27-.16-.4-.23-5.9-3.36-12.68-6.42-20.25-8.98-24.73-8.39-57.86-11.36-95.93-1.21-.14.04-.26.07-.4.11-2.6.68-5.23 1.27-7.86 1.77-16.29 3.05-33.11 2.43-49-2.52-16.29-5.07-30.45-13.32-43.68-25.98-6.64-6.35-13.05-13.83-19.36-22.59a97.57 97.57 0 0 0 21.49-13.61c16.9 7.83 35.42 12.11 46.22 11.15 6.23-.05 9.69-3.01 6.09-7.81-1.33-1.77-3.18-3.07-5.25-3.82 7.45 1.96 12.08 2.4 17.43 2.5 9.39.03 13.15-7.38 4.69-11.84-.85-.45-1.74-.79-2.67-1.08-5.38-1.7-14.28-5.12-24.95-8.91M465.1 292.84c-1.02 1.35-2.04 2.65-3.07 3.9M428.81 323.62c-8.41 4.1-16.94 6.74-25.49 8.9M301.1 198.02l-.01-.01M345.59 85.56c-.57.11-1.17.25-1.78.39-.11.02-.22.05-.33.08M268.02 161.73c-.37-.26-.74-.52-1.11-.79M242.06 87.46c-.88-2.19-2.07-3.76-3.44-4.8M301.1 198.02a63.88 63.88 0 0 0-.2 4.35M268.02 161.73v-.01" style="fill:none;stroke:#000;stroke-linecap:round;stroke-linejoin:round;stroke-width:.97px"/><path d="M165.48 434.51c-2.6-.62-4.73-1.16-7.64-1.88-2.34-.59-5.2-1.27-9.22-2.19M168.66 435.4c-.51-.21-1.05-.37-1.59-.5-.51-.12-.99-.23-1.46-.35M94.49 417.82c7 7.1 16.75 13.25 27.11 18.06M66.13 218.58c-1.02.52-2.02 1.03-3.01 1.55-32.86 17.12-51.38 35.52-59.08 47.16-3.87 5.83-4.61 13.22-2.09 19.75C15 320.7 77.34 400.39 94.49 417.82M66.15 218.57s-.01 0-.01.01M150.57 391.44c-2.48-.71-5.03-1.42-7.63-2.12.93-1.65 3.19-3.4 5.57-4.68" style="fill:none;stroke:#000;stroke-linecap:round;stroke-linejoin:round;stroke-width:.97px"/><path d="M165.48 434.51s.09.03.13.04c1.07.31 2.09.59 3.05.85M40.83 269.06c2.23 3.83 4.44 7.65 6.67 11.46 20.49 35.13 41.28 69.66 64.99 101.58.82 1.12 2.42 1.24 3.3.15 4.88-6.02 18.06-10.99 32.14-13.46" style="fill:none;stroke:#000;stroke-linecap:round;stroke-linejoin:round;stroke-width:.97px"/><path d="M47.5 280.52c7.26-6.44 17.57-13.34 31.76-20.85 4.62-2.44 9.66-4.94 15.14-7.51M442.11 339.86c-1.47-3.77-7.06-10.08-13.3-16.24-3.53-3.49-7.26-6.93-10.56-9.83M317.06 446.56s-.08.01-.12.02c-4.62.84-11.31 2.16-16.46 3.26" style="fill:none;stroke:#000;stroke-linecap:round;stroke-linejoin:round;stroke-width:.97px"/><path d="M459.57 293.97c.84.94 1.66 1.87 2.46 2.77 14.36 16.44 21.28 28.87 24.98 37.63 3.37 7.99.89 19.37-5.53 25.19-14.9 13.48-43.63 32.61-115.93 83.09-14.51 10.14-32.84 14.81-47.15 17.77M315.63 413.58c-.14 0-.29-.01-.44-.01M300.48 449.84h-.01" style="fill:none;stroke:#000;stroke-linecap:round;stroke-linejoin:round;stroke-width:.97px"/><path d="M316.07 407.56v.01c3.75 2.51 2.87 6.01-.45 6.01M463.8 326.66c-7.12 3.67-14.39 8.2-21.69 13.2-30.52 20.97-61.37 50.48-81.77 62.25a18.649 18.649 0 0 1-17.46.64c-6.01-2.93-13.32-7.81-20.37-13.89" style="fill:none;stroke:#000;stroke-linecap:round;stroke-linejoin:round;stroke-width:.97px"/><circle cx="322.18" cy="84.16" r="7.43" style="fill:none;stroke:#000;stroke-linecap:round;stroke-linejoin:round;stroke-width:.97px"/><path d="M279.99 83.1c0 4.1-3.33 7.42-7.43 7.42s-7.43-3.32-7.43-7.42 3.33-7.44 7.43-7.44 7.43 3.33 7.43 7.44ZM286.4 106.63c.45-.52 3.81-5.47 10.34-4.97 7.03.56 9.55 6.43 9.83 6.9M331.85 67.31c-.18 2.21-4.33 3.01-7.37 3.01-4.68 0-10.4-.54-10.71-2.67-.31-2.03 3.14-5.27 9.2-5.2 6.15.08 9.08 2.2 8.88 4.86ZM273.13 69.44c-.74-.02-1.51-.09-2.27-.21" style="fill:none;stroke:#000;stroke-linecap:round;stroke-linejoin:round;stroke-width:.97px"/><path d="M270.83 69.23c-3.43-.51-6.66-1.89-6.61-3.89.04-2.64 5.43-4.59 10.07-4.42 4.86.19 10.29 2.82 10.08 5.46-.23 2.66-5.88 3.05-10.49 3.07h-.71M272.83 136.76c-2.43-3.03-4.3-6.58-5.4-10.56 2.79-2.16 13.38-9.13 28.73-9.17 14.09-.04 23.95 8.15 26.76 10.54a29.792 29.792 0 0 1-5.27 9.57c-5.38 6.58-13.35 10.78-21.33 10.77-9.2-.01-17.86-4.17-23.49-11.15ZM343.48 101.46c1.2-2.22 2.8-4.35 5.15-5.5 1.48-.74 3.28-1.07 5.46-.78M227.36 95.22c2.63-3.35 5.95-4.84 9.44-3.78 1.85.56 3.76 1.84 5.63 3.96" style="fill:none;stroke:#000;stroke-linecap:round;stroke-linejoin:round;stroke-width:.97px"/><path d="M348.63 95.96c3.26 2.33 4.91 5.81 4.02 11.23M236.8 91.44c-4.09 3.18-5.26 7.58-4.5 12.38M272.83 136.76c15.26-13.55 29.82-12.99 44.82.38M379.41 112.5c-1.64-1.06-3.22-2.48-4.66-4.14M379.87 172.55c6.72 10.37 14.59 7.7 19.33 1.63M360.89 173.49c-1.51 18.21 4.56 27.95 12.36 31.19h0l.01.01c4.88 2.02 10.43 1.5 15.22-1.08h.01" style="fill:none;stroke:#000;stroke-linecap:round;stroke-linejoin:round;stroke-width:.97px"/><path d="M373.25 204.68h0c.12.1 1.47 1.22 1.5 1.25 6.49 6.29 7.39 16.61 1.59 23.53-7.53 8.97-7.92 25.09 2.32 17.94-6.19 14.23-20.89 10.58-25.19-3.32" style="fill:none;stroke:#000;stroke-linecap:round;stroke-linejoin:round;stroke-width:.97px"/><path d="M355.14 185.01c-11.11 30.53 1.61 39.74 1.93 46.77.23 5.2-1.25 9.19-3.69 12.22-7.98 9.9-26.24 9.58-28.41 7.85M322.18 186.61c-.14 5.78-4.2 10.26-8.66 11.01-.29.05-.58.08-.88.1-4.4.25-8.97-3.23-10.34-8.31M314.15 166.82c.25 1.04 1.5 3.64 2.37 6.88.69 2.6.52 5.41-.74 7.78-2.91 5.45-9.22 5.78-12.54 4.23" style="fill:none;stroke:#000;stroke-linecap:round;stroke-linejoin:round;stroke-width:.97px"/><path d="M313.52 197.62c-18.59 17.82-9.85 37.57 2.97 38.26 2.65.15 5.48-.53 8.27-2.21-9.5-4.15-10.97-13.39-3.14-18.64" style="fill:none;stroke:#000;stroke-linecap:round;stroke-linejoin:round;stroke-width:.97px"/><path d="M316.49 235.88c.38 9.86-3.49 12.82-11.81 8.56.98 7.5 10.99 10.55 20.29 7.41 7.99-2.7 15.46-9.97 16.21-22.9M345.59 85.56c1.93.32 4.21.25 6.86-.29M307.1 29.85c-1.27-2.37-1.53-4.99-1.67-7.39M307.1 29.87v-.02M209.97 119.82c-2.15 9.57-8.49 13.98-14.83 14.49M200.41 161.23c-2.47-.17-12.5 2.41-10.98 8.82 1.24 5.2 9.05 5.89 8.52 6.37-3.23 3.01-8.45 4.19-12.91 1.59-1.35-.79-2.54-1.73-3.58-2.81M185.04 178.01c-13.59 23.58-10.95 41.61 3.77 55.54M217.45 209.64c2.96-5.34 2.97-10.16 1.1-17.49" style="fill:none;stroke:#000;stroke-linecap:round;stroke-linejoin:round;stroke-width:.97px"/><path d="M195.96 201.19c-10.45 11.58-10.56 24.08-6.41 31.96 4.38 8.37 13.57 11.54 20.26 2.88-8.3-.11-9.71-3.85-8.67-7.51.63-2.23 2.28-4.5 4.23-6.37 2.38-2.29 5.64-3.95 7.78-6.46 1.84-2.17 3.26-4.14 4.3-6.04M217.45 209.64h0c.18 12.07 4.19 18.48 16.91 18.62 16.94.18 15.19 18.78 6.36 14.7 4.84 8.54 21.65 5.81 21.01-10.83-.02-.48-.05-.98-.1-1.49-.3-3.11-1.21-6.13-2.51-8.97-10.77-23.57-20.79-18.77-8.5-45.74" style="fill:none;stroke:#000;stroke-linecap:round;stroke-linejoin:round;stroke-width:.97px"/><path d="M275.1 213.36c-3.2 9.85-10.76 16.14-13.37 18.77M289.68 80.44c0 .24-.01.47-.03.7-1.1 13.27-10.95 22.63-19.51 22.76-6.28.08-13.39-4.78-17.28-12.56 4.09-3.22 3.88-11.17 1.05-18.45.64-.47 1.36-.87 2.13-1.18 3.7-1.49 8.77-2.81 14.79-2.48h.03c.78.04 1.54.12 2.27.21.01 0 .03 0 .04.01 5.15.62 9.33 2.31 12.31 3.92 2.64 1.41 4.2 4.13 4.2 7.07ZM343.95 85.18c-.04.27-.09.52-.14.77-2.42 11.3-11.23 18.97-18.98 19.08-8.67.13-18.9-9.2-20.11-22.55-.06-.67-.05-1.33.04-1.97.42-3.39 2.7-6.35 5.96-7.66 3.73-1.49 8.8-2.8 14.83-2.48 4.54.25 8.41 1.35 11.51 2.65-.16 6 1.94 10.61 6.89 12.16ZM290.33 80.44c3.71-2.89 10.2-2.56 13.84 0M163.16 416.07c.04.23.03.48-.03.74-1.07 4.67-2.16 9.34-3.24 14.01-.23 1-1.17 1.72-1.97 1.51-1.13-.28-2.26-.57-3.37-.85-.66-.17-1-.88-.82-1.69 1.05-4.66 2.09-9.32 3.13-13.98.15-.73.7-1.31 1.29-1.5.13-.05.27-.07.4-.07.09 0 .18.01.27.03l3.5.84c.44.11.76.48.84.96Z" style="fill:none;stroke:#000;stroke-linecap:round;stroke-linejoin:round;stroke-width:.97px"/></g><g style="mix-blend-mode:multiply;opacity:.7" data-name="shadows"><path d="M270.83 69.23c-2.39-.13-4.64 0-6.7.3.75-.63 1.54-1.14 2.36-1.56 1.19.6 2.74 1.02 4.34 1.26Z" style="fill:#e7f2fe"/><path d="M264.13 69.53c2.06-.3 4.31-.43 6.7-.3h.03c.76.12 1.53.19 2.27.21.01 0 .03 0 .04.01 5.15.62 9.33 2.31 12.31 3.92.12.07.25.14.36.21-.51.59-1.19 1.07-1.87 1.47-2.03 1.19-4.27 2-6.59 2.4a7.349 7.349 0 0 0-4.82-1.79c-1.59 0-3.06.5-4.27 1.36a18.88 18.88 0 0 1-3.95-1.56c-1.22-.64-2.51-1.71-2.36-3.08.08-.74.58-1.36 1.11-1.9.34-.35.69-.67 1.04-.95Z" style="fill:#e7f2fe"/><path d="M280.56 66.21c.86.21 2.11.7 3.24 1.35-1.57 1.6-6.1 1.87-9.92 1.89h-.71s-.03-.01-.04-.01c-.73-.09-1.49-.17-2.27-.21h-.03c-1.6-.24-3.15-.66-4.34-1.26 2.48-1.26 5.26-1.72 8.36-2.06 1.91-.21 3.85-.16 5.71.3Z" style="fill:#163f94"/><path d="M285.84 73.58c-.11-.07-.24-.14-.36-.21-2.98-1.61-7.16-3.3-12.31-3.92h.71c3.82-.02 8.35-.29 9.92-1.89.42.24.82.5 1.18.78.71.54 1.3 1.26 1.57 2.12.4 1.28.01 2.31-.71 3.12ZM301.1 198.02c4.69 3.56.2 14.57-10.75 17.36-2.14-2.63-2.53-6.28-2.66-9.69-.18-4.59-.05-9.22-.81-13.75s-2.51-9.06-5.86-12.2c-3.36-3.14-8.53-4.58-12.72-2.69l-.5-.05c.55-5.91 1-8.92.22-15.27 4.94 3.41 10.58 6.12 16.85 7.49 2.91.65 5.97 1 9.15 1 6.49 0 12.1-.96 16.95-2.57.67-.23 1.33-.46 1.97-.71-4.89 6.38-7.91 12.62-9.7 18.77-.5-.23-.94-.51-1.28-.82-.17 1.6-.04 3.13.34 4.52-.63 2.89-1.01 5.76-1.2 8.61ZM304.76 80.51c.09-.76.28-1.51.56-2.21.09 3.55.23 7.14.76 10.62-.69-2.01-1.15-4.17-1.36-6.44-.06-.67-.05-1.33.04-1.97Z" style="fill:#e7f2fe"/><path d="M189.89 232.82c4.38 8.37 13.57 11.54 20.26 2.88-8.3-.11-9.71-3.85-8.67-7.51.63-2.23 2.28-4.5 4.23-6.37 2.38-2.29 5.64-3.95 7.78-6.46 1.84-2.17 3.26-4.14 4.3-6.04.04 2.45.23 4.67.63 6.64.06 2.51.61 4.93 1.98 7.02.99 1.51 2.53 2.17 4.13 2.98 2.72 1.37 4.39 1.81 7.23 2.03 3.04.23 4.58.13 7.5.76.05-.06.1-.13.15-.2 11.79 3.2 9.56 17.73 1.65 14.08 4.84 8.54 21.65 5.81 21.01-10.83 2.61-2.63 10.17-8.92 13.37-18.77 3.14 1.69 6.6 2.68 9.89 2.68 1.93 0 3.72-.23 5.36-.66 10.95-2.79 15.44-13.8 10.75-17.36.19-2.85.57-5.72 1.2-8.61 1.37 5.08 5.94 8.56 10.34 8.31.3-.02.59-.05.88-.1-18.59 17.82-9.85 37.57 2.97 38.26.38 9.86-3.49 12.82-11.81 8.56.98 7.5 10.99 10.55 20.29 7.41 2.17 1.73 20.43 2.05 28.41-7.85l.1.08c4.3 13.9 19 17.55 25.19 3.32-.38.26-.74.49-1.08.69-9.12 5.29-8.49-9.99-1.24-18.63 5.8-6.92 4.9-17.24-1.59-23.53-.03-.03-1.38-1.15-1.5-1.24 0 0 0-.01.01 0 4.88 2.02 10.43 1.5 15.22-1.08h.01c6.15 2.92 12.27 7.88 18.3 14.06 2.64 7.52 2.58 16.32 1.03 24.29-2.41 12.38-7.7 24.18-8.87 36.74-.94 9.98.81 20.2 5.01 29.29 2.11 4.56 4.85 8.92 5.89 13.83.05.23.09.46.13.69a71.393 71.393 0 0 0-6.67 10.01c-8.33-21.41-43.76-44.57-47.74-59.94l-.01-.02c-4.9 31.16-23.77 93.97-33.06 116.3-2 4.83-3.29 7.87-3.52 8.45-1.31 3.37-2.25 6.81-2.91 10.26-.39 2-.68 4-.89 6-16.85-.54-31.24-.31-38.17.12-.12-.14-.23-.28-.35-.42-4.51-4.72-4.69-11.6-2.65-17.22 2.04-5.63 5.91-10.36 9.46-15.18 20.08-27.26 31.41-60.88 31.92-94.73.08-4.92-.14-10.1-2.74-14.27-4.4-7.08-14.31-9.2-18.69-16.29-2.3-3.72-2.9-8.56-6.18-11.45-3.37-2.97-8.6-2.83-12.75-1.08-4.14 1.75-7.56 4.83-11.21 7.45-5.02 3.61-10.92 6.51-17.1 6.29-6.19-.21-12.53-4.32-13.68-10.4-.67-3.57.34-7.69-1.85-10.59-2.87-3.8-9.07-2.53-12.72.52-3.64 3.05-6.14 7.42-10.2 9.91-8.66 5.31-20.2-.41-26.67-8.25-14.11-17.12-13.36-44.66 1.64-61.01.06-.01.13-.02.19-.04.5.4 1.04.75 1.6 1.08-1.97 3.41-3.59 6.71-4.89 9.89-6.24 15.29-4.94 28 2.52 38.62 1.72 2.45 3.78 4.79 6.14 7.03l.74-.4Z" style="fill:#b7d9ff"/><path d="M487.01 334.37c3.37 7.99.89 19.37-5.53 25.19-14.9 13.48-43.63 32.61-115.93 83.09-14.51 10.14-32.84 14.81-47.15 17.77-5.98 1.23-11.26 2.16-15.26 3.06-16.24 2.88-20.43-8.72-9.89-11.96.45-.14 1.24-.34 2.3-.59l.08.35s-.02.02-.02.04c-1.76 2.77.31 6.39 3.59 6.29 1.6-.05 3.28-.39 4.76-.81 11.39-3.22 22.82-6.45 33.77-10.95 19.07-7.86 36.35-19.45 53.19-31.36 13.14-9.29 26.1-18.82 38.88-28.58 9.03-6.9 18-13.94 25.91-22.09 4.6-4.73 8.87-9.91 11.51-15.95 2.63-6.05 3.47-13.09 1.16-19.26-3.67-9.84-14.85-15.48-25.35-15.06-5.65.22-11.08 1.9-16.13 4.46-1.53.78-3.38.54-4.65-.62-.16-.15-.32-.29-.48-.44a4.114 4.114 0 0 1 .27-6.3c9.67-7.48 21.48-12.77 35.15-16.12 1.47-.36 3.01.15 4.02 1.28.28.31.55.63.83.93 14.36 16.44 21.28 28.87 24.98 37.63Z" style="fill:#e7f2fe"/><path d="M268.29 77.02a7.335 7.335 0 0 1 4.27-1.36c1.84 0 3.52.67 4.82 1.79-3.01.53-6.15.4-9.09-.43Z" style="fill:#00a2f7"/><path d="m304.17 80.44.59.07c-.09.64-.1 1.3-.04 1.97.21 2.27.67 4.43 1.36 6.44.55 3.62 1.5 7.12 3.22 10.35 1.33 2.48 3.11 4.79 3.76 7.53.65 2.75-.28 6.3-2.27 6.56-2.78.37-5.69.31-8.3-.72-2.62-1.02-4.91-3.13-5.65-5.84-.46-1.67-.31-3.4-.02-5.13.19-1.14.43-2.29.61-3.42 1-6.5-.44-13.45.33-19.84 2.37.12 4.7.83 6.41 2.03Z" style="fill:#e7f2fe"/><path d="M304.17 80.44c-1.71-1.2-4.04-1.91-6.41-2.03.27-2.33.85-4.59 1.94-6.73.27-.53.6-1.07 1.1-1.41 1.17-.78 2.87-.06 3.62 1.14.75 1.19.81 2.68.84 4.1l.06 2.79c-.28.7-.47 1.45-.56 2.21l-.59-.07Z" style="fill:#e7f2fe"/><path d="M273.87 428.31c.91.27 16.1 2.18 32.09 3.34.3.03.61.05.91.07-14.23 3.55-26.9 5.07-31.17 6.2-2.27.6-4.12 1.62-5.47 2.84-4.23 3.81-3.39 9.59 5.75 10.61 2.57.29 10.42.03 24.47-1.53-1.91.41-3.6.78-4.9 1.09-1.06.25-1.85.45-2.3.59-10.54 3.24-6.35 14.84 9.89 11.96 4-.9 9.28-1.83 15.26-3.06 4.56 20.22 10.59 39.43 18.59 48.7-.14-.08-.27-.16-.4-.23-5.9-3.36-12.68-6.42-20.25-8.98-8.27-2.81-17.48-5.01-27.5-6.3-6.66-6.37-16.32-8.64-23.63-14.29-4.3-3.32-7.7-7.8-9.74-12.84-2.54-6.3-2.87-13.72.22-19.77 1.84-3.59 4.74-6.5 7.16-9.73s4.43-7.1 4.02-11.11l.14-.2c1.79 1.26 4.17 2.23 6.86 2.64Z" style="fill:#b7d9ff"/><path d="M276.53 203.05c.14 3.78-.43 7.22-1.43 10.31-3.2 9.85-10.76 16.14-13.37 18.77-.02-.48-.05-.98-.1-1.49-.3-3.11-1.21-6.13-2.51-8.97-7.05-15.42-13.76-18.69-14.13-26.67-.4-2.39-.31-4.86.3-7.21 1.04-4 3.47-7.54 4.35-11.58 1.6-7.31-2.2-14.78-7.05-20.48-4.86-5.7-10.88-10.41-15.12-16.57-4.14-6.01-6.02-14.36-2.68-20.77 2.52 3.59 2.79 5.02 6.13 7.87.42-.59 1.7 1.62 1.84 1.04 2.93 1.56 6.7 2.28 11.6 1.76.06.45.14.89.22 1.34 1.13 6.45 9.08 20.95 22.32 30.55-1.13 8.44-.56 13.59.76 17.46 2.65 7.87 8.33 10.43 8.86 24.65Z" style="fill:#163f94"/><path d="M403.32 332.52c1.98-3.59 4.21-6.92 6.67-10.01.47 2.82.24 5.89-.87 8.46-1.93.55-3.87 1.06-5.8 1.55Z" style="fill:#aff4ff"/><path d="M276.93 1097.54c14.41 9.83 32.39 13.33 49.86 15.12-20.36 2.39-36.19-.63-48-5.82-.79-2.92-1.4-6.03-1.86-9.3Z" style="fill:#b7d9ff"/><path d="M100.11 449.49c6.31 8.76 12.72 16.24 19.36 22.59-.4 1.62-.81 3.24-1.2 4.88h-.03a61.97 61.97 0 0 1-17.41-24.37l-.49.04c-.08-1.02-.16-2.07-.23-3.14ZM465.1 292.84c-1.02 1.35-2.04 2.65-3.07 3.9-.8-.9-1.62-1.83-2.46-2.77 1.81-.41 3.65-.78 5.53-1.13ZM418.25 313.79c1.94 1.71 4.03 3.6 6.14 5.58-3.41 1.96-6.62 4.29-9.6 6.81a69.455 69.455 0 0 0-4.96 4.59c-.24.06-.48.13-.71.2 1.11-2.57 1.34-5.64.87-8.46 2.51-3.16 5.27-6.06 8.26-8.72Z" style="fill:#aff4ff"/><path d="M404.36 1085.96c2.32 4.27 3.52 8.97 3.07 13.67-9.32 9.58-29.78 17.64-55.86 14.56 3.43.08 6.86.08 10.29.01 7.59-.15 15.3-.67 22.46-3.18 7.17-2.52 13.83-7.27 17.2-14.08 1.71-3.46 2.48-7.16 2.84-10.98Z" style="fill:#b7d9ff"/><path d="M407.43 1099.63c-.19 2.04-.69 4.09-1.56 6.1-2.28 5.31-5.43 8.39-9.94 11.18-2.03 1.26-4.36 1.89-6.54 2.9-16.89 7.82-37.04.13-52.88-.25-22.74-.54-41.51 5.84-54.54-5.59-1.25-1.1-2.09-3.43-2.58-5.02-.21-.69-.42-1.4-.6-2.11 11.81 5.19 27.64 8.21 48 5.82.12.02.23.03.35.04 8.12.82 16.27 1.34 24.43 1.49 26.08 3.08 46.54-4.98 55.86-14.56Z" style="fill:#163f94"/><path d="M373.26 204.68Z" style="fill:#fff"/><path d="M360.74 1071.87c-3.62 3.58-6.95 7.7-10.73 11.05a42.945 42.945 0 0 1-16.87 9.21c-15.29 4.27-31.51-.22-46.72-4.8-3.6-1.09-7.3-2.24-10.68-3.89-.12-3.12-.15-6.31-.13-9.53 26.2 9.23 54.95 12.19 73.13.7 2.89-.23 6.81-1.26 12-2.74Z" style="fill:#b7d9ff"/><path d="M288.84 493.61c10.02 1.29 19.23 3.49 27.5 6.3-.29 3.71-.57 7.42-.84 11.12-.32 4.36-.61 8.7-.9 13.04-12.03 186.43 7.51 362.88 48.94 532.43-1.05 2.66-2.3 5.07-3.74 7.26-3.65-.83-7.2-2.09-10.54-3.7-13.02-6.28-23.16-17.36-31.23-29.36-18.27-27.19-27.13-59.55-33.76-91.63a821.683 821.683 0 0 1-16.55-193.38c1.79-53.76 8.8-108.26-2.49-160.85-3.08-14.33-8.05-29.23-19.41-38.5-6.18-5.05-13.83-8.04-20.11-12.96-.03-.03-.07-.05-.1-.08-5.37-4.24-8.07-11.03-7.38-17.84.57-5.55 1.16-11.09 1.78-16.65 25.5-6.86 48.78-7.82 68.83-5.2Z" style="fill:#0078da"/><path d="M341.25 131.6c7.41.92 12.25-3.42 15.3-9.57h.03c-3.74 15.55-22.38 24.82-24.09 40.72-1.03 9.59 4.54 18.47 7.91 27.52 4.98 13.39 4.98 28.49.42 42.01a61.246 61.246 0 0 1-6.61 13.77c-2.7 2.77-5.92 4.68-9.24 5.8-9.3 3.14-19.31.09-20.29-7.41 8.32 4.26 12.19 1.3 11.81-8.56-12.82-.69-21.56-20.44-2.97-38.26-.29.05-.58.08-.88.1-4.4.25-8.97-3.23-10.34-8.31-.38-1.39-.51-2.92-.34-4.52.34.31.78.59 1.28.82 3.32 1.55 9.63 1.22 12.54-4.23 1.26-2.37 1.43-5.18.74-7.78-.87-3.24-2.12-5.84-2.37-6.88l-.12-.33c17.05-7.06 23.68-22.56 25.97-30.75.39-1.37.66-2.77.85-4.19.14.02.27.04.4.05Z" style="fill:#163f94"/><path d="M349.39 96.56c3.7-2.04 5.75-.46 6.52 1.18.82 1.77.68 3.81.44 5.74-.5 3.85-1.39 7.67-3.08 11.17-1.18 2.46-3.29 5.02-6.02 4.79-2.42-.2-4.1-2.56-4.85-4.87-2.08-6.34.6-13.91 6.19-17.54.28-.18.54-.34.8-.47ZM356.07 86.62l-.03.05c-4.24-2.22-8.72 2.75-13.47 3.46.51-1.33.93-2.72 1.24-4.18.61-.14 1.21-.28 1.78-.39 1.93.32 4.21.25 6.86-.29 1.37.23 2.58.67 3.62 1.35Z" style="fill:#e7f2fe"/><path d="M351.51 198c.21-1.99.66-3.95 1.35-5.84-.57 2.06-1.01 4-1.35 5.84Z" style="fill:#163f94"/><path d="M343.81 85.95c-.31 1.46-.73 2.85-1.24 4.18-.37.06-.75.09-1.13.09-2.93-.02-5.57-2.1-6.9-4.72-1.33-2.61-1.51-5.67-1.24-8.58 0-.04.01-.08.01-.12 1.2-.97 2.03-2.22 2.06-3.75 0-.23-.01-.46-.05-.7.6.21 1.18.44 1.74.67-.16 6 1.94 10.61 6.89 12.16-.04.27-.09.52-.14.77ZM340.52 122.94c.96 2.76 1.2 5.77.73 8.66-.13 0-.26-.03-.4-.05-.19 1.42-.46 2.82-.85 4.19-2.29 8.19-8.92 23.69-25.97 30.75-.36.17-.72.31-1.09.45-.64.25-1.3.48-1.97.71.54-4.54 1.17-9.29 3.83-13.02 1.71-2.38 4.12-4.15 6.02-6.38 2.49-2.92 4.01-6.52 5.68-9.99 1.89-3.92 4-7.73 6.34-11.41 1.37-2.16 3-4.42 5.45-5.17.44-.13.94-.21 1.36 0 .47.23.7.76.87 1.26Z" style="fill:#e7f2fe"/><path d="M326.73 37.41c6.57.12 18.92 8.45 13.15 23.19-1.72 4.41-2.71 8.69-2.82 12.42-.56-.23-1.14-.46-1.74-.67-.09-.71-.36-1.44-.81-2.12.84-3.53 1.84-7.04 2.17-10.65.54-5.87-1.29-12.65-6.57-15.27-3.3-1.65-7.2-1.31-10.89-1.28-5.57.06-11.14-.65-16.51-2.11-5.22-1.41-10.44-3.54-15.83-3.06-7.19.64-13.1 5.77-18.2 10.88-4.1 4.1-8.19 8.63-9.55 14.27-.61 2.54-.63 5.14-.47 7.76-.93.3-1.81.61-2.62.94-.77.31-1.49.71-2.13 1.18-.23-.58-.47-1.15-.72-1.72-3.08-6.8 2.03-14.79 5.71-21.29 4.03-7.11 9.01-15.39 14.02-17.61 2.65-1.16 5.68-1.49 8.6-1.16 20.04 2.28 26.83 2.76 25.58-1.24 2.17 4.03 7.26 7.32 19.63 7.54Z" style="fill:#e7f2fe"/><path d="M340.82 232.28c-.94 5.91-3.4 10.46-6.61 13.77 2.77-4.29 4.99-8.93 6.61-13.77Z" style="fill:#163f94"/><path d="M335.32 72.35c.04.24.05.47.05.7-.03 1.53-.86 2.78-2.06 3.75.16-1.64.45-3.25.81-4.85.41.12.81.25 1.2.4Z" style="fill:#e7f2fe"/><path d="M334.51 70.23c.45.68.72 1.41.81 2.12-.39-.15-.79-.28-1.2-.4.12-.57.25-1.15.39-1.72Z" style="fill:#e7f2fe"/><path d="M336.59 508.89c-.66 1.83-1.44 3.47-2.33 4.92-5.53-2.83-11.97-3.9-18.07-2.73l-.69-.05c.27-3.7.55-7.41.84-11.12 7.57 2.56 14.35 5.62 20.25 8.98Z" style="fill:#aff4ff"/><path d="M334.51 70.23c-.14.57-.27 1.15-.39 1.72-2.5-.8-5.37-1.4-8.57-1.58-.31-.01-.62-.03-.92-.04 2.78-.03 6.4-.72 7.1-2.52 1.25.61 2.18 1.47 2.78 2.42Z" style="fill:#e7f2fe"/><path d="M334.12 71.95c-.36 1.6-.65 3.21-.81 4.85-1.2.98-2.76 1.67-4.23 2.1-.44.13-.89.24-1.34.35a7.362 7.362 0 0 0-5.56-2.52 7.4 7.4 0 0 0-6.01 3.07c-.42-.06-.84-.12-1.25-.2-2.16-.4-4.65-1.41-5.05-3.58-.23-1.21.28-2.32 1.1-3.27 3.51-1.37 8.16-2.56 13.66-2.42.3.01.61.03.92.04 3.2.18 6.07.78 8.57 1.58Z" style="fill:#e7f2fe"/><path d="M331.73 67.81c-.7 1.8-4.32 2.49-7.1 2.51h-.15c-2.98 0-6.37-.22-8.53-.93a26.27 26.27 0 0 1 11.8-2.5c1.56.04 2.89.38 3.98.92Z" style="fill:#163f94"/><path d="M322.18 76.73c2.22 0 4.22.98 5.56 2.52h-.06c-.46.11-.95.22-1.82.37-1.08.17-1.24.23-2.68.36-2.34.2-4.69.14-7.01-.19a7.4 7.4 0 0 1 6.01-3.07Z" style="fill:#00a2f7"/><path d="M324.63 70.32c-5.5-.13-10.15 1.06-13.66 2.43.6-.7 1.38-1.31 2.14-1.8.91-.58 1.86-1.1 2.84-1.56 2.16.71 5.55.93 8.53.93h.15ZM317.88 442.97c1.22.22 2.77 1.45 1.9 2.33-.85.33-1.69.66-2.54.99l-.18.27s-.08.01-.12.02c-4.62.84-11.31 2.16-16.46 3.26h-.03c-14.05 1.56-21.9 1.82-24.47 1.53-9.14-1.02-9.98-6.8-5.75-10.61.34 1.66 1.37 3.19 2.92 3.89 1.4.63 2.98.64 4.51.59 13.47-.43 26.96-4.66 40.22-2.27ZM306.37 422.47c2.35.8 4.8 2.91 4.15 5.3-.52 1.89-2.65 2.74-4.52 3.34l-.04.54c-15.99-1.16-31.18-3.07-32.09-3.34-2.69-.41-5.07-1.38-6.86-2.64-4.66-3.24-5.37-8.42 2.55-10.81-.03.03-.05.05-.08.07-1.02.89-1.7 2.3-1.35 3.61.46 1.73 2.4 2.56 4.12 3.03a43.21 43.21 0 0 0 15.23 1.36c6.33-.56 12.87-2.51 18.89-.46ZM259.04 75.94c.3 4.32.22 8.9-1.98 12.63a10.23 10.23 0 0 1-3.75 3.64l-.45-.87c4.09-3.22 3.88-11.17 1.05-18.45.64-.47 1.36-.87 2.13-1.18.81-.33 1.69-.64 2.62-.94.09 1.72.26 3.45.38 5.17Z" style="fill:#e7f2fe"/><path d="M246.6 1124.48c.16 2.25.13 4.67-.12 7.26-6.63 11.92-49.26 24.42-73.15 4.54a89.656 89.656 0 0 0-3.78-2.97c9.12 2.94 18.55 5.04 27.96 6.48 7.7 1.18 15.55 1.96 23.27.87 7.71-1.09 15.34-4.2 20.69-9.86 1.87-1.97 3.43-4.21 5.13-6.32Z" style="fill:#b7d9ff"/><path d="M246.48 1131.74c-.31 3.34-.97 6.95-2.03 10.88-2.27 9.71-33.68 18.62-57.41 12.1-15.61-4.29-12.19-10.61-32.8-19.91-15.46-6.99-26.12-6.08-28.31-14.85-.89-3.58-1.09-7.65-.95-11.76h.15s.05.07.08.08c3.24 5.1 10.73 10.94 19.5 14.27 7.81 4.45 16.18 7.99 24.84 10.76 1.29.95 2.54 1.95 3.78 2.97 23.89 19.88 66.52 7.38 73.15-4.54Z" style="fill:#163f94"/><path d="M236.43 91.75c3.23.83 5.41 3.07 6.5 5.63 1.38 3.25 1.35 6.9 1.08 10.42-.18 2.33-.5 4.78-1.87 6.68-.43.59-.96 1.12-1.6 1.48-.77.44-1.67.61-2.56.63-3.94.11-7.6-2.58-9.47-6.06-1.86-3.48-2.16-7.6-1.78-11.53.16-1.6.46-3.25 1.41-4.54 1.28-1.71 3.45-2.44 5.5-3.08 1 .01 1.93.13 2.79.37Z" style="fill:#e7f2fe"/><path d="M233.04 1061.72c-2.26 7.27-7.38 13.5-14.47 18.61-10.32-1.89-20.45-10.04-27.37-18.69-26.2-32.82-35.6-75.87-39.87-117.65-12.23-119.79 11.41-240.34 9.69-360.75-.32-22.12-2.72-46.88-19.56-61.22-6.41-5.46-14.39-8.84-20.76-14.35-3.13-2.7-5.84-6.25-7.42-10.08 1.45-6.16 2.93-12.29 4.43-18.39 2.69.13 5.14-.68 7.46-1.99 11.59 9.81 24 16.5 37.98 20.85 15.89 4.95 32.71 5.57 49 2.52-38.07 180.03-45.9 364.76 20.89 561.14Z" style="fill:#0078da"/><path d="M219.19 205.47c-.13.48-.29.96-.46 1.44.03-.49.19-.99.46-1.44Z" style="fill:#163f94"/><path d="M196.18 1091.06c2.5 2.53 5 4.44 7.84 5.81-1.35.84-2.69 1.69-4.06 2.49-22.35 13.15-51.39 13.99-74.56 2.44.24-2.73.53-5.36.76-7.74 23.09 4.8 49.23 3.55 70.02-3ZM195.43 432.67c.39-2.19-.99-4.68-4.65-6.61-.85-.45-1.74-.79-2.67-1.08-5.38-1.7-14.28-5.12-24.95-8.91-.08-.48-.4-.85-.84-.96l-3.5-.84c-.09-.02-.18-.03-.27-.03 16.83 1.43 29.71 3.78 33.92 4.59 2.92.57 5.55.13 7.31-.97-.4 3.45.73 7.42 1.26 11.01 1.66 11.42-4.83 23.57-15.26 28.53-14.34 6.83-32.81.52-46.31 8.88-4.99 3.09-9.36 8.14-14.3 10.93-1.92-1.62-3.82-3.33-5.7-5.13-6.64-6.35-13.05-13.83-19.36-22.59a97.57 97.57 0 0 0 21.49-13.61c16.9 7.83 35.42 12.11 46.22 11.15 3.74-.03 6.48-1.11 7.29-3.01.55-1.26.24-2.88-1.2-4.8-1.33-1.77-3.18-3.07-5.25-3.82 7.45 1.96 12.08 2.4 17.43 2.5 5.32.02 8.84-2.36 9.34-5.23Z" style="fill:#b7d9ff"/><path d="M200.4 415.37a8.75 8.75 0 0 0-.62 2.49c-1.76 1.1-4.39 1.54-7.31.97-4.21-.81-17.09-3.16-33.92-4.59-.29-.03-.57-.06-.86-.08 4.92-11.37 18.01-9.05 33.84-5.15 2.08.51 4.2 1.08 5.96 2.3 1.4.96 2.55 2.42 2.91 4.06Z" style="fill:#e7f2fe"/><path d="M194.3 406.08c-.32-.14-.65-.26-.98-.38-6.03-2.13-22.14-8.33-42.75-14.26-.92-2.03-1.6-4.3-2.06-6.8-.86-4.6-.99-9.95-.58-15.85.41-5.99 1.37-12.55 2.68-19.48-.49 6.57-.51 13.26 2.2 19.19 4.03 8.84 13.15 14.01 21.59 18.84 8.06 4.63 16.57 10.17 19.9 18.74Z" style="fill:#b7d9ff"/><path d="M195.43 432.67c-.5 2.87-4.02 5.25-9.34 5.23-5.35-.1-9.98-.54-17.43-2.5-.51-.21-1.05-.37-1.59-.5-.51-.12-.99-.23-1.46-.35-.04-.01-.09-.03-.13-.04-2.6-.62-4.73-1.16-7.64-1.88l.08-.3c.8.21 1.74-.51 1.97-1.51.48-2.06.95-4.12 1.43-6.17 3.84-.41 7.8.07 11.65.56 7.94 1.02 16.39 2.31 22.46 7.46Z" style="fill:#e7f2fe"/><path d="M183.44 176.93c-.06.02-.13.03-.19.04.03-.04.06-.07.09-.1.03.03.06.05.1.06Z" style="fill:#fff"/><path d="M174.93 245.08c1.89 13.99-.85 28.34-6.09 41.45-2.08 5.23-4.55 10.28-7.29 15.2 3.76-15.92 7.01-31.58 7.8-45.09.45-7.73.11-14.75-1.41-20.74l2.13-1.82c.83.73 1.57 1.57 2.19 2.53 1.63 2.5 2.27 5.51 2.67 8.47Z" style="fill:#b7d9ff"/><path d="M166.86 438.96c3.21.77 6.37 2.38 8.25 5.06-.81 1.9-3.55 2.98-7.29 3.01-10.8.96-29.32-3.32-46.22-11.15-2.11-.98-4.19-2.01-6.22-3.09.61-1.68 2.25-3.16 4.07-3.55 2.9-.62 5.84.57 8.6 1.66 9.12 3.59 18.65 6.32 28.42 7.01 3.48.25 7 .24 10.39 1.05Z" style="fill:#e7f2fe"/><path d="m170.07 234.08-2.13 1.82c1.52 5.99 1.86 13.01 1.41 20.74-14.62-3.33-42.36 9.7-69.9 25.72-.42-11.31-2.03-21.43-4.97-30.23-2.75-8.26-6.65-15.35-11.78-21.17l.08-.07c8.01 9.4 22.43 10.48 34.58 7.9 12.37-2.63 24.15-8.22 36.77-8.98 5.62-.33 11.87.66 15.94 4.27Z" style="fill:#b7d9ff"/><path d="M163.16 416.07c.04.23.03.48-.03.74-.6 2.61-1.2 5.22-1.81 7.84-1.35.14-2.69.38-4 .78l-2.49-.56c.68-3.02 1.36-6.04 2.03-9.06.15-.73.7-1.31 1.29-1.5.13-.05.27-.07.4-.07.09 0 .18.01.27.03l3.5.84c.44.11.76.48.84.96Z" style="fill:#00dbff"/><path d="M158.2 424.83c5.04-2.53 2.88.93 2.53 2.43-.24 1.06-.49 2.12-.73 3.17-.23 1-1.17 1.72-1.97 1.51-1.13-.28-2.26-.57-3.37-.85-.66-.17-1-.88-.82-1.69l.66-2.93c.25-1.1.31-2.03 2.44-1.55.33.07.66.06.99-.03.1-.03.2-.03.29-.08Z" style="fill:#00dbff"/><path d="M157.69 414.16c.29.02.57.05.86.08-.13 0-.27.02-.4.07-.16-.05-.3-.1-.46-.15Z" style="fill:#fff"/><path d="M143.74 369.61c.03 2.67-.6 5.4-1.78 7.77-2.76 5.54-7.91 9.48-13.17 12.73-4.86 2.99-10.14 5.62-15.83 6.05-7.84.59-15.41-3.07-21.76-7.69-12.43-9.03-21.63-21.79-29.46-35-8-13.49-14.81-27.7-20.31-42.39-2.3-6.14-4.39-12.47-4.71-19.02-.26-5.27.75-10.74 3.43-15.21l.03.02c.96-1.26 2.02-2.44 3.13-3.55 1.39 2.4 2.79 4.8 4.19 7.2 20.49 35.13 41.28 69.66 64.99 101.58.82 1.12 2.42 1.24 3.3.15 4.39-5.42 15.51-9.99 27.95-12.64Z" style="fill:#e7f2fe"/><path d="M144.71 1122.55c-8.77-3.33-16.26-9.17-19.5-14.27 5.91 5.57 12.47 10.29 19.5 14.27Z" style="fill:#fff"/><path d="M125.21 1108.28s-.06-.04-.08-.07h.03s.03.05.05.07Z" style="fill:#163f94"/><path d="M124.99 1108.07c.04.06.09.1.14.14h-.15s0-.1.01-.14Z" style="fill:#fff"/><path d="M119.47 472.08c1.88 1.8 3.78 3.51 5.7 5.13-2.32 1.31-4.77 2.12-7.46 1.99l.27-1.09c.09-.39.19-.77.28-1.15h.01c.39-1.64.8-3.26 1.2-4.88Z" style="fill:#0078da"/><path d="M94.48 252.13c2.94 8.8 4.55 18.92 4.97 30.23-.52-.33-1.04-.67-1.54-1.03-2.31-9.09-5.2-18.02-9.33-26.39 1.88-.91 3.82-1.84 5.82-2.78l.08-.03Z" style="fill:#aff4ff"/><path d="m94.48 252.13-.08.03c-2 .94-3.94 1.87-5.82 2.78-.55-1.12-1.12-2.22-1.72-3.32-3.49-6.39-7.85-12.41-13.03-17.51-4.65-4.61-9.96-8.46-15.89-11.2 1.68-.93 3.41-1.86 5.18-2.78.99-.52 1.99-1.03 3.01-1.55h.01c6.52 3.09 12.02 7.24 16.56 12.38 5.13 5.82 9.03 12.91 11.78 21.17Z" style="fill:#e7f2fe"/><path d="M86.86 251.62c.6 1.1 1.17 2.2 1.72 3.32-3.28 1.61-6.39 3.18-9.32 4.73-14.19 7.51-24.5 14.41-31.76 20.85-1.4-2.4-2.8-4.8-4.19-7.2 4.4-4.43 9.82-7.86 14.78-11.72a97.05 97.05 0 0 0 11.66-10.72c2.12-2.31 4.18-4.79 5.2-7.76 1.01-2.96.8-6.52-1.25-8.88l.13-.13c5.18 5.1 9.54 11.12 13.03 17.51Z" style="fill:#e7f2fe"/><path d="M66.13 218.58c-1.02.52-2.02 1.03-3.01 1.55-.34-1.08-.67-2.18-1-3.28 1.38.54 2.71 1.11 4.01 1.73Z" style="fill:#aff4ff"/><path d="M210.35 1098.95c-9.2 1.59-17.51 6.28-21.15 13.01" style="fill:none;stroke:#000;stroke-linecap:round;stroke-linejoin:round;stroke-width:.97px"/><path d="M126.16 1094.06c-.23 2.38-.52 5.01-.76 7.74-.19 2.05-.34 4.16-.41 6.27-.01.04-.01.09-.01.13-.14 4.11.06 8.18.95 11.76 2.19 8.77 12.85 7.86 28.31 14.85 20.61 9.3 17.19 15.62 32.8 19.91 23.73 6.52 55.14-2.39 57.41-12.1 1.06-3.93 1.72-7.54 2.03-10.88.25-2.59.28-5.01.12-7.26-1.45-21.68-20.21-28.31-36.24-25.53" style="fill:none;stroke:#000;stroke-linecap:round;stroke-linejoin:round;stroke-width:.97px"/><path d="M196.18 1091.06c2.5 2.53 5 4.44 7.84 5.81 1.92.93 4 1.61 6.33 2.08h.01M125.16 1108.21s.03.05.05.07c3.24 5.1 10.73 10.94 19.5 14.27 1.55.59 3.15 1.11 4.77 1.52 5.9 1.51 11.49 3.9 16.7 7 1.16.69 2.28 1.44 3.37 2.24 1.29.95 2.54 1.95 3.78 2.97 23.89 19.88 66.52 7.38 73.15-4.54.01 0 .01-.01.01-.01M370.23 1069.16c-8.23 2.56-15.14 10.69-17.31 27.12" style="fill:none;stroke:#000;stroke-linecap:round;stroke-linejoin:round;stroke-width:.97px"/><path d="M275.61 1073.91c-.02 3.22.01 6.41.13 9.53.17 4.9.55 9.64 1.19 14.1.46 3.27 1.07 6.38 1.86 9.3.18.71.39 1.42.6 2.11.49 1.59 1.33 3.92 2.58 5.02 13.03 11.43 31.8 5.05 54.54 5.59 15.84.38 35.99 8.07 52.88.25 2.18-1.01 4.51-1.64 6.54-2.9 4.51-2.79 7.66-5.87 9.94-11.18.87-2.01 1.37-4.06 1.56-6.1.45-4.7-.75-9.4-3.07-13.67-6.31-11.63-20.88-20.14-33.01-17.11-.34.07-.67.17-1 .28" style="fill:none;stroke:#000;stroke-linecap:round;stroke-linejoin:round;stroke-width:.97px"/><path d="M278.79 1106.84c11.81 5.19 27.64 8.21 48 5.82.45-.05.9-.1 1.36-.16 5.34-.68 10.74-.47 16.03.55 2.51.48 4.98.86 7.39 1.14 26.08 3.08 46.54-4.98 55.86-14.56M371.35 1068.85c-.34.09-.67.18-1 .28l-.12.03c-3.55 1-6.7 1.92-9.49 2.71-5.19 1.48-9.11 2.51-12 2.74" style="fill:none;stroke:#000;stroke-linecap:round;stroke-linejoin:round;stroke-width:.97px"/><path d="M220.01 498.81c-.9 8.05-1.74 16.08-2.53 24.12-1.1 11.3-2.1 22.58-2.98 33.86-13.43 171.26-1.03 339.15 43.31 502.85.71 2.63 1.43 5.26 2.16 7.89 5.03 2.34 10.29 4.49 15.64 6.38 26.2 9.23 54.95 12.19 73.13.7 4.35-2.75 8.1-6.33 11.06-10.85 1.44-2.19 2.69-4.6 3.74-7.26-41.43-169.55-60.97-346-48.94-532.43.29-4.34.58-8.68.9-13.04.27-3.7.55-7.41.84-11.12" style="fill:none;stroke:#000;stroke-linecap:round;stroke-linejoin:round;stroke-width:.97px"/><path d="M119.47 472.08c-.4 1.62-.81 3.24-1.2 4.88h-.01c-.09.38-.19.76-.28 1.15l-.27 1.09c-1.5 6.1-2.98 12.23-4.43 18.39-1.8 7.69-3.57 15.43-5.27 23.22-33.07 150.5-46.56 321.41 15.83 571.55.1.42.2.84.31 1.26.67.15 1.34.29 2.01.44 23.09 4.8 49.23 3.55 70.02-3 8.57-2.7 16.22-6.29 22.39-10.73 7.09-5.11 12.21-11.34 14.47-18.61-66.79-196.38-58.96-381.11-20.89-561.14M97.91 281.32c-7.32-5.08-13.41-12.54-18.65-21.65M99.45 282.36c-.52-.33-1.04-.67-1.54-1.03M63.12 220.13c-.34-1.08-.67-2.18-1-3.28M355.92 258.75c.74 3.26.56 8.02-.34 13.83-.02.14-.05.28-.07.43M167.94 235.9c1.52 5.99 1.86 13.01 1.41 20.74M100.11 449.49c.07 1.07.15 2.12.23 3.14 1.2 13.93 4.43 23.27 17.63 25.48M336.59 508.89c-.66 1.83-1.44 3.47-2.33 4.92-4.61 7.56-12.04 10.26-19.66 10.26M302.3 189.41c-.38-1.39-.51-2.92-.34-4.52.34.31.78.59 1.28.82M312.94 166.94c-.64.25-1.3.48-1.97.71-4.85 1.61-10.46 2.57-16.95 2.57-3.18 0-6.24-.35-9.15-1-6.27-1.37-11.91-4.08-16.85-7.49.78 6.35.33 9.36-.22 15.27-.04.45-.09.91-.13 1.4" style="fill:none;stroke:#000;stroke-linecap:round;stroke-linejoin:round;stroke-width:.97px"/><path d="M343.95 85.18c.52.17 1.06.3 1.64.38 2.63-.49 4.91-.61 6.86-.29 1.37.23 2.58.67 3.62 1.35 4.1 2.68 5.62 9.04 4.54 20.32-.05 1.24-.18 2.21-.35 3.03-.72 4.18-1.9 8.44-3.71 12.06-3.05 6.15-7.89 10.49-15.3 9.57-.13 0-.26-.03-.4-.05-.19 1.42-.46 2.82-.85 4.19-2.29 8.19-8.92 23.69-25.97 30.75-.36.17-.72.31-1.09.45-4.89 6.38-7.91 12.62-9.7 18.77M253.91 72.89c-.23-.58-.47-1.15-.72-1.72-3.08-6.8 2.03-14.79 5.71-21.29 4.03-7.11 9.01-15.39 14.02-17.61 2.65-1.16 5.68-1.49 8.6-1.16 20.04 2.28 26.83 2.76 25.58-1.24 2.17 4.03 7.26 7.32 19.63 7.54 6.57.12 18.92 8.45 13.15 23.19-1.72 4.41-2.71 8.69-2.82 12.42M302.3 189.41c-.63 2.89-1.01 5.76-1.2 8.61 4.69 3.56.2 14.57-10.75 17.36-1.64.43-3.43.66-5.36.66-3.29 0-6.75-.99-9.89-2.68 1-3.09 1.57-6.53 1.43-10.31-.53-14.22-6.21-16.78-8.86-24.65-1.32-3.87-1.89-9.02-.76-17.46-13.24-9.6-21.19-24.1-22.32-30.55-.08-.45-.16-.89-.22-1.34-4.9.52-8.67-.2-11.6-1.76-7.23-3.84-9.36-12.77-10.88-20.79-.4-2.35-.56-4.57-.51-6.65.33-14.59 10.74-22.14 17.24-17.19 3.79-.52 2.51 9.87 9.01 10.16 2.22.1 3.94-.45 5.23-1.48" style="fill:none;stroke:#000;stroke-linecap:round;stroke-linejoin:round;stroke-width:.97px"/><path d="M158.15 414.31c-.16-.05-.3-.1-.46-.15.29.02.57.05.86.08 16.83 1.43 29.71 3.78 33.92 4.59 2.92.57 5.55.13 7.31-.97 3.1-1.91 3.53-5.81-1.82-9.73-1.13-.83-2.36-1.51-3.66-2.05-.32-.14-.65-.26-.98-.38-6.03-2.13-22.14-8.33-42.75-14.26-.92-2.03-1.6-4.3-2.06-6.8-.86-4.6-.99-9.95-.58-15.85.41-5.99 1.37-12.55 2.68-19.48 2.79-14.83 7.13-31.34 10.94-47.58 3.76-15.92 7.01-31.58 7.8-45.09-14.62-3.33-42.36 9.7-69.9 25.72-.42-11.31-2.03-21.43-4.97-30.23-2.75-8.26-6.65-15.35-11.78-21.17-4.54-5.14-10.04-9.29-16.56-12.38h-.01c-1.3-.62-2.63-1.19-4.01-1.73 50.69-25.25 95.64-44.52 119.34-41.65-10.07-10.33-5.7-32.56 13.68-40.89-10.08.8-20.18-8.27-13.52-22.13 0 .9.06 1.72.18 2.47.94 5.84 5.33 7.29 10 6.52 8.44-1.38 12.54-9.56 11.72-18.24-.66-6.91-4.34-14.73-1.23-24.22 4.41-13.43 14.58-13.55 25.1-25.83 8.23-9.62 6.83-15.9 9.7-23.21.76-1.94 1.8-3.77 3.02-5.46 8-11.06 28.25-32.45 61.87-19.88 1.5.55 3.03 1.18 4.59 1.88.53-.19 1.07-.37 1.63-.53 24.61-7.37 76.08 6.23 71.44 88.52.82 10.89 13.11 17.84 15.65 8.03-1.71 13.23-9.23 14.58-15.88 10.27 1.69 6.08.86 9.55-1.6 12.52-5.36 6.47-7.57 14.14-6.64 22.17.76 6.66 1.99 12.63 5.97 16.26 1.05.96 2.3 1.76 3.78 2.36 9.02 3.67 21.77-4.43 10.18-11.23 15.13-2.73 14.42 11.47 8.1 19.59h0c3.64 14.34-2.39 24.98-10.7 29.44 6.15 2.92 12.27 7.88 18.3 14.06 21.15 21.65 41.29 58.33 58.3 75.17-1.88.35-3.72.72-5.53 1.13-16.55 3.73-30.48 10.19-41.32 19.82a69.589 69.589 0 0 0-8.26 8.72 71.393 71.393 0 0 0-6.67 10.01c-8.33-21.41-43.76-44.57-47.74-59.94v-.02c-4.9 31.16-23.77 93.97-33.06 116.3-2 4.83-3.29 7.87-3.52 8.45-1.31 3.37-2.25 6.81-2.91 10.26-.39 2-.68 4-.89 6-16.85-.54-31.24-.31-38.17.12-1.48.1-2.63.2-3.38.31-1.56.22-2.92.51-4.08.86-7.92 2.39-7.21 7.57-2.55 10.81 1.79 1.26 4.17 2.23 6.86 2.64.91.27 16.1 2.18 32.09 3.34.3.03.61.05.91.07-14.23 3.55-26.9 5.07-31.17 6.2-2.27.6-4.12 1.62-5.47 2.84-4.23 3.81-3.39 9.59 5.75 10.61 2.57.29 10.42.03 24.47-1.53" style="fill:none;stroke:#000;stroke-linecap:round;stroke-linejoin:round;stroke-width:.97px"/><path d="M300.47 449.84h-.02c-1.91.41-3.6.78-4.9 1.09-1.06.25-1.85.45-2.3.59-10.54 3.24-6.35 14.84 9.89 11.96 4-.9 9.28-1.83 15.26-3.06 4.56 20.22 10.59 39.43 18.59 48.7-.14-.08-.27-.16-.4-.23-5.9-3.36-12.68-6.42-20.25-8.98-8.27-2.81-17.48-5.01-27.5-6.3-19.94-2.61-43.09-1.67-68.43 5.09-.14.04-.26.07-.4.11-2.6.68-5.23 1.27-7.86 1.77-16.29 3.05-33.11 2.43-49-2.52-13.98-4.35-26.39-11.04-37.98-20.85-1.92-1.62-3.82-3.33-5.7-5.13-6.64-6.35-13.05-13.83-19.36-22.59a97.57 97.57 0 0 0 21.49-13.61c16.9 7.83 35.42 12.11 46.22 11.15 3.74-.03 6.48-1.11 7.29-3.01.55-1.26.24-2.88-1.2-4.8-1.33-1.77-3.18-3.07-5.25-3.82 7.45 1.96 12.08 2.4 17.43 2.5 5.32.02 8.84-2.36 9.34-5.23.39-2.19-.99-4.68-4.65-6.61-.85-.45-1.74-.79-2.67-1.08-5.38-1.7-14.28-5.12-24.95-8.91M465.1 292.84c-1.02 1.35-2.04 2.65-3.07 3.9M428.81 323.62c-6.27 3.06-12.62 5.31-18.98 7.15-.24.06-.48.13-.71.2-1.93.55-3.87 1.06-5.8 1.55M301.1 198.02l-.01-.01M345.59 85.56c-.57.11-1.17.25-1.78.39-.11.02-.22.05-.33.08M268.02 161.73c-.37-.26-.74-.52-1.11-.79M242.06 87.46c-.88-2.19-2.07-3.76-3.44-4.8M301.1 198.02a63.88 63.88 0 0 0-.2 4.35M268.02 161.73v-.01" style="fill:none;stroke:#000;stroke-linecap:round;stroke-linejoin:round;stroke-width:.97px"/><path d="M165.48 434.51c-2.6-.62-4.73-1.16-7.64-1.88-2.34-.59-5.2-1.27-9.22-2.19M168.66 435.4c-.51-.21-1.05-.37-1.59-.5-.51-.12-.99-.23-1.46-.35M94.49 417.82a60.8 60.8 0 0 0 2.58 2.46c5.17 4.67 11.5 8.88 18.31 12.51 2.03 1.08 4.11 2.11 6.22 3.09M25.79 328.86c23.81 35.63 56.92 76.99 68.7 88.96M66.13 218.58c-1.02.52-2.02 1.03-3.01 1.55-1.77.92-3.5 1.85-5.18 2.78a230.73 230.73 0 0 0-7.33 4.19c-18.65 11.12-31.59 22.31-39.74 31.46-2.85 3.19-5.11 6.13-6.83 8.73-3.87 5.83-4.61 13.22-2.09 19.75 4.08 10.53 13 25.58 23.84 41.81M66.15 218.57s-.01 0-.01.01M150.57 391.44c-2.48-.71-5.03-1.42-7.63-2.12.93-1.65 3.19-3.4 5.57-4.68" style="fill:none;stroke:#000;stroke-linecap:round;stroke-linejoin:round;stroke-width:.97px"/><path d="M165.48 434.51s.09.03.13.04c1.07.31 2.09.59 3.05.85M40.83 269.06c.83 1.42 1.65 2.84 2.48 4.26 1.39 2.4 2.79 4.8 4.19 7.2 20.49 35.13 41.28 69.66 64.99 101.58.82 1.12 2.42 1.24 3.3.15 4.39-5.42 15.51-9.99 27.95-12.64 1.38-.3 2.78-.57 4.19-.82" style="fill:none;stroke:#000;stroke-linecap:round;stroke-linejoin:round;stroke-width:.97px"/><path d="M47.5 280.52c7.26-6.44 17.57-13.34 31.76-20.85 2.93-1.55 6.04-3.12 9.32-4.73 1.88-.91 3.82-1.84 5.82-2.78M442.11 339.86c-1.37-3.5-6.29-9.2-11.99-14.93-.43-.44-.87-.87-1.31-1.31-1.45-1.44-2.94-2.87-4.42-4.25-2.11-1.98-4.2-3.87-6.14-5.58M317.06 446.56s-.08.01-.12.02c-4.62.84-11.31 2.16-16.46 3.26" style="fill:none;stroke:#000;stroke-linecap:round;stroke-linejoin:round;stroke-width:.97px"/><path d="M459.57 293.97c.84.94 1.66 1.87 2.46 2.77 14.36 16.44 21.28 28.87 24.98 37.63 3.37 7.99.89 19.37-5.53 25.19-14.9 13.48-43.63 32.61-115.93 83.09-14.51 10.14-32.84 14.81-47.15 17.77M315.63 413.58c-.14 0-.29-.01-.44-.01M300.48 449.84h-.01" style="fill:none;stroke:#000;stroke-linecap:round;stroke-linejoin:round;stroke-width:.97px"/><path d="M316.07 407.56v.01c3.75 2.51 2.87 6.01-.45 6.01M463.8 326.66c-6.31 3.25-12.75 7.19-19.21 11.52-.83.55-1.65 1.11-2.48 1.68-30.52 20.97-61.37 50.48-81.77 62.25a18.626 18.626 0 0 1-8.34 2.47c-3.1.17-6.24-.43-9.12-1.83-6.01-2.93-13.32-7.81-20.37-13.89M327.74 79.25a7.34 7.34 0 0 1 1.87 4.91c0 4.1-3.33 7.43-7.43 7.43s-7.43-3.33-7.43-7.43c0-1.64.52-3.14 1.42-4.36a7.4 7.4 0 0 1 6.01-3.07c2.22 0 4.22.98 5.56 2.52ZM277.38 77.45a7.366 7.366 0 0 1 2.61 5.65c0 4.1-3.33 7.42-7.43 7.42s-7.43-3.32-7.43-7.42c0-2.52 1.25-4.74 3.16-6.08a7.335 7.335 0 0 1 4.27-1.36c1.84 0 3.52.67 4.82 1.79ZM286.4 106.63c.45-.52 3.81-5.47 10.34-4.97h.08c6.97.6 9.47 6.42 9.75 6.89M315.95 69.39c-1.24-.4-2.07-.96-2.18-1.74-.31-2.03 3.14-5.27 9.2-5.2 6.15.08 9.08 2.2 8.88 4.86 0 .18-.05.34-.12.5-.7 1.8-4.32 2.49-7.1 2.51h-.15c-2.98 0-6.37-.22-8.53-.93ZM273.13 69.44c-.74-.02-1.51-.09-2.27-.21" style="fill:none;stroke:#000;stroke-linecap:round;stroke-linejoin:round;stroke-width:.97px"/><path d="M270.83 69.23c-1.6-.24-3.15-.66-4.34-1.26-1.39-.67-2.3-1.56-2.27-2.63.04-2.64 5.43-4.59 10.07-4.42 4.86.19 10.29 2.82 10.08 5.46-.04.46-.24.85-.57 1.18-1.57 1.6-6.1 1.87-9.92 1.89h-.71M272.83 136.76c-2.43-3.03-4.3-6.58-5.4-10.56 2.79-2.16 13.38-9.13 28.73-9.17 14.09-.04 23.95 8.15 26.76 10.54a29.792 29.792 0 0 1-5.27 9.57c-5.38 6.58-13.35 10.78-21.33 10.77-9.2-.01-17.86-4.17-23.49-11.15ZM343.48 101.46c1.2-2.22 2.8-4.35 5.15-5.5 1.48-.74 3.28-1.07 5.46-.78M227.36 95.22c2.63-3.35 5.95-4.84 9.44-3.78 1.85.56 3.76 1.84 5.63 3.96" style="fill:none;stroke:#000;stroke-linecap:round;stroke-linejoin:round;stroke-width:.97px"/><path d="M348.63 95.96c.26.19.52.39.76.6 2.75 2.31 4.08 5.65 3.26 10.63M236.8 91.44c-.13.1-.25.2-.37.31-3.79 3.14-4.87 7.42-4.13 12.07M272.83 136.76c15.26-13.55 29.82-12.99 44.82.38M379.41 112.5c-1.3-.84-2.56-1.91-3.75-3.14-.31-.32-.61-.66-.91-1M379.87 172.55c2.61 4.02 5.39 6.09 8.1 6.75 4.26 1.03 8.33-1.41 11.23-5.12M360.89 173.49c-.07.79-.12 1.56-.15 2.32-.09 1.76-.1 3.44-.04 5.04.39 11.31 4.24 18.43 9.39 22.08 1.01.72 2.07 1.3 3.16 1.75h0l.01.01c4.88 2.02 10.43 1.5 15.22-1.08h.01" style="fill:none;stroke:#000;stroke-linecap:round;stroke-linejoin:round;stroke-width:.97px"/><path d="M373.25 204.68h0c.12.1 1.47 1.22 1.5 1.25 6.49 6.29 7.39 16.61 1.59 23.53-7.25 8.64-7.88 23.92 1.24 18.63.34-.2.7-.43 1.08-.69-6.19 14.23-20.89 10.58-25.19-3.32" style="fill:none;stroke:#000;stroke-linecap:round;stroke-linejoin:round;stroke-width:.97px"/><path d="M355.14 185.01c-.92 2.53-1.68 4.91-2.28 7.15-.57 2.06-1.01 4-1.35 5.84-3.76 20.41 5.29 27.86 5.56 33.78.23 5.2-1.25 9.19-3.69 12.22-7.98 9.9-26.24 9.58-28.41 7.85M322.18 186.61c-.14 5.78-4.2 10.26-8.66 11.01-.29.05-.58.08-.88.1-4.4.25-8.97-3.23-10.34-8.31M314.15 166.82c.25 1.04 1.5 3.64 2.37 6.88.69 2.6.52 5.41-.74 7.78-2.91 5.45-9.22 5.78-12.54 4.23" style="fill:none;stroke:#000;stroke-linecap:round;stroke-linejoin:round;stroke-width:.97px"/><path d="M313.52 197.62c-18.59 17.82-9.85 37.57 2.97 38.26 2.65.15 5.48-.53 8.27-2.21-9.5-4.15-10.97-13.39-3.14-18.64" style="fill:none;stroke:#000;stroke-linecap:round;stroke-linejoin:round;stroke-width:.97px"/><path d="M316.49 235.88c.38 9.86-3.49 12.82-11.81 8.56.98 7.5 10.99 10.55 20.29 7.41 3.32-1.12 6.54-3.03 9.24-5.8 3.21-3.31 5.67-7.86 6.61-13.77.17-1.06.29-2.17.36-3.33M345.59 85.56c1.93.32 4.21.25 6.86-.29M307.1 29.85c-1.27-2.37-1.53-4.99-1.67-7.39M307.1 29.87v-.02M209.97 119.82c-.07.31-.14.61-.21.9-2.35 8.95-8.48 13.1-14.62 13.59M200.41 161.23c-2.47-.17-12.5 2.41-10.98 8.82.04.16.08.31.13.46 1.57 4.78 8.9 5.44 8.39 5.91-3.23 3.01-8.45 4.19-12.91 1.59-.56-.33-1.1-.68-1.6-1.08a.207.207 0 0 1-.1-.06c-.68-.51-1.3-1.07-1.88-1.67M185.04 178.01c-1.97 3.41-3.59 6.71-4.89 9.89-6.24 15.29-4.94 28 2.52 38.62 1.72 2.45 3.78 4.79 6.14 7.03M217.45 209.64c.51-.92.93-1.83 1.28-2.73.17-.48.33-.96.46-1.44 1.09-3.88.74-7.92-.64-13.32" style="fill:none;stroke:#000;stroke-linecap:round;stroke-linejoin:round;stroke-width:.97px"/><path d="M195.96 201.19c-10.45 11.58-10.56 24.08-6.41 31.96 4.38 8.37 13.57 11.54 20.26 2.88-8.3-.11-9.71-3.85-8.67-7.51.63-2.23 2.28-4.5 4.23-6.37 2.38-2.29 5.64-3.95 7.78-6.46 1.84-2.17 3.26-4.14 4.3-6.04M218.08 216.3c1.54 7.76 6.15 11.85 16.28 11.96 1.77.02 3.34.24 4.71.62 11.79 3.2 9.56 17.73 1.65 14.08 4.84 8.54 21.65 5.81 21.01-10.83-.02-.48-.05-.98-.1-1.49-.3-3.11-1.21-6.13-2.51-8.97-7.05-15.42-13.76-18.69-14.13-26.67-.2-4.21 1.38-9.74 5.63-19.07M217.45 209.64h0c.04 2.46.23 4.68.63 6.65M275.1 213.36c-3.2 9.85-10.76 16.14-13.37 18.77M289.68 80.44c0 .24-.01.47-.03.7-1.1 13.27-10.95 22.63-19.51 22.76-6.04.08-12.85-4.42-16.83-11.69l-.45-.87c4.09-3.22 3.88-11.17 1.05-18.45.64-.47 1.36-.87 2.13-1.18.81-.33 1.69-.64 2.62-.94 1.64-.51 3.47-.96 5.47-1.24 2.06-.3 4.31-.43 6.7-.3h.03c.78.04 1.54.12 2.27.21.01 0 .03 0 .04.01 5.15.62 9.33 2.31 12.31 3.92.12.07.25.14.36.21 2.42 1.46 3.84 4.06 3.84 6.86ZM305.32 78.3a9.644 9.644 0 0 1 5.4-5.45c.08-.03.16-.07.25-.1 3.51-1.37 8.16-2.56 13.66-2.42.3.01.61.03.92.04 3.2.18 6.07.78 8.57 1.58.41.12.81.25 1.2.4.6.21 1.18.44 1.74.67-.16 6 1.94 10.61 6.89 12.16-.04.27-.09.52-.14.77-.31 1.46-.73 2.85-1.24 4.18-3.43 8.97-10.99 14.8-17.74 14.9-7.19.11-15.46-6.3-18.75-16.11-.69-2.01-1.15-4.17-1.36-6.44-.06-.67-.05-1.33.04-1.97M290.33 80.44c1.97-1.54 4.73-2.16 7.43-2.03 2.37.12 4.7.83 6.41 2.03M25.79 328.86v-.01M218.08 216.29v.01" style="fill:none;stroke:#000;stroke-linecap:round;stroke-linejoin:round;stroke-width:.97px"/></g><g data-name="highlights"><g style="mix-blend-mode:color-dodge;opacity:.75"><path d="M158.32 424.06c-.19.08-.39.12-.59.13-.78.03-1.56.11-2.31.33l-.15.04a.94.94 0 0 0-.32.34l-.12-.03c.68-3.02 1.36-6.04 2.03-9.06.15-.73.7-1.31 1.29-1.5.13-.05.27-.07.4-.07.09 0 .18.01.27.03l3.5.84c.44.11.76.48.84.96.04.23.03.48-.03.74-.55 2.4-1.11 4.81-1.67 7.22.15-1.47-1.74-.6-3.14.03Z" style="fill:#00dbff"/><path d="M154.95 424.9c-.33.54-.23 1.37-.42 2.04-.22.79-.45 1.44-.68 2.34.33-1.47.66-2.94.98-4.41l.12.03Z" style="fill:#00dbff"/><path d="M277.37 88.9c-.57.23-1.05.55-1.45.95-.12 0-.23.01-.35.02-.74.06-1.39.25-1.94.56h-.01c-.13.02-.26.05-.39.06h-.02c-.26-.05-.53-.07-.82-.07-.2 0-.39.01-.58.03h-.01c-.69-.47-1.55-.76-2.6-.79-.4-.38-.88-.69-1.45-.91a7.289 7.289 0 0 1-1.85-2.38c1.62-.65 3.83-1.04 6.28-1.04 2.77 0 5.25.52 6.89 1.31a.3.3 0 0 0 .08.04c-.33.31-.62.65-.84 1.03-.27.24-.51.52-.72.83-.07.11-.15.24-.22.36Z" style="fill:#00a2f7"/><path d="M215.09 122.55c1.22 2.17.82 4.86.24 7.28-1.36 5.68-3.85 11.5-8.74 14.69-3.25 2.12-7.21 2.85-10.62 4.71-7.41 4.06-10.77 13.92-8.04 21.8 0 .01.01.02.01.03.77 2.21-.32 4.64-2.54 5.38-.64.22-1.29.38-1.96.49-.01 0-.02-.01-.03-.01-.02 0-.04-.02-.05-.04l-.02-.01c-.68-.51-1.3-1.07-1.88-1.67-10.07-10.33-5.7-32.56 13.68-40.89 6.14-.49 12.27-4.64 14.62-13.59 1.7-.93 4.31.01 5.33 1.83Z" style="fill:#163f94"/><path d="M183.41 176.92s-.03-.03-.05-.04c.01.02.03.03.05.04Z" style="fill:#163f94"/><path d="M183.44 176.93c-.06.02-.13.03-.19.04.03-.04.06-.07.09-.1l.02.01s.03.03.05.04c0 0 .02.01.03.01Z" style="fill:#fff"/><path d="M265.9 86.37c.44.92 1.08 1.72 1.85 2.38-.11-.04-.24-.08-.36-.12-.16-.15-.31-.29-.49-.42-.27-.67-.69-1.27-1.24-1.75.08-.03.15-.06.23-.09 0-.01.01 0 .01 0Z" style="fill:#00a2f7"/><path d="M399.2 174.18c3.64 14.33-2.39 24.97-10.7 29.43h-.01c-4.79 2.58-10.34 3.1-15.22 1.08h-.01v-.01c-1.09-.45-2.15-1.03-3.16-1.75-5.15-3.65-9-10.77-9.39-22.08-.06-1.6-.05-3.28.04-5.04l.7.04c.57-1.17.68-2.51 1.18-3.71.51-1.2 1.67-2.32 2.94-2.08 1.28.24 1.93 1.63 2.33 2.86 1.18 3.62 1.98 7.45 4.09 10.62 2.1 3.17 6.02 5.56 9.66 4.47 3.62-1.07 5.46-4.94 6.33-8.71 4.26 1.03 8.33-1.41 11.23-5.12ZM379.41 112.5c1.69 6.08.86 9.55-1.6 12.52-5.36 6.47-7.57 14.14-6.64 22.17.76 6.66 1.99 12.63 5.97 16.26-1.51-.2-2.87-1.01-4.09-1.94-6.32-4.82-9.42-12.99-9.71-20.93-.29-7.94 1.9-15.76 4.5-23.27.63-1.82 1.31-3.67 2.52-5.18 1.21-1.5 3.06-2.62 4.98-2.47l.32-.3c1.19 1.23 2.45 2.3 3.75 3.14Z" style="fill:#163f94"/><path d="M374.76 205.93c6.49 6.29 7.39 16.61 1.59 23.53-7.25 8.64-7.88 23.92 1.24 18.63-2.37 2.55-5.83 4.21-9.3 3.93-3.62-.28-7.08-2.92-7.83-6.47-.51-2.42.19-4.91 1.07-7.22 2.16-5.74 5.36-11.05 7.5-16.8s3.16-12.27.86-17.96l.2-.64c1.01.72 2.07 1.3 3.16 1.75s0 .01.01.01c.15.12 1.46 1.21 1.49 1.24Z" style="fill:#163f94"/><path d="M373.26 204.68Z" style="fill:#fff"/><path d="M352.86 192.16c-.57 2.06-1.01 4-1.35 5.84.21-1.99.66-3.95 1.35-5.84ZM340.82 232.28c-.6 4.9-2.52 9.34-6 13.12.2-.23.4-.46.59-.69 2.69-3.24 4.64-7.32 5.41-12.43Z" style="fill:#163f94"/><path d="M340.82 232.28c-.77 5.11-2.72 9.19-5.41 12.43 2.62-3.16 4.59-7.28 5.41-12.43Z" style="fill:#163f94"/><path d="M329.18 86.63c.06.03.12.06.18.1-.6.55-1.05 1.21-1.31 1.97l-.01.02-.02.02c-.23.21-.44.43-.61.68-.23.23-.47.45-.73.65h-.01c-.87.16-1.59.51-2.17 1-.3-.05-.61-.08-.94-.08-.7 0-1.33.13-1.88.34-.55-.22-1.18-.34-1.9-.34-.15 0-.31.01-.45.02-.24-.11-.45-.2-.67-.32-.01-.01-.02-.02-.03-.02-.26-.22-.55-.4-.87-.55-.01-.01-.02-.02-.03-.02-.57-.43-1.08-.96-1.51-1.54-.2-.63-.53-1.22-.96-1.72-.06-.15-.11-.3-.15-.45 1.64-.78 4.08-1.27 6.81-1.27 3 0 5.65.59 7.27 1.51Z" style="fill:#00a2f7"/><path d="M327.41 89.42c-.14.19-.26.39-.37.6-.12.01-.24.03-.36.05.26-.2.5-.42.73-.65ZM319.32 91.01l-.29.03a4.26 4.26 0 0 0-.38-.35c.22.12.43.21.67.32ZM317.72 90.1c-.17-.08-.35-.15-.54-.21-.25-.44-.54-.83-.92-1.17-.02-.05-.03-.11-.05-.16.43.58.94 1.11 1.51 1.54ZM315.1 86.39c.04.15.09.3.15.45-.11-.12-.23-.24-.35-.35.07-.03.13-.07.2-.1Z" style="fill:#00a2f7"/><path d="M305.32 78.3c.09 3.55.23 7.14.76 10.62-.69-2.01-1.15-4.17-1.36-6.44-.06-.67-.05-1.33.04-1.97.09-.76.28-1.51.56-2.21Z" style="fill:#e7f2fe"/><path d="M301.98 4.33c-9.43-1.41-19.28-.04-27.92 3.99-10.87 5.07-19.73 14.3-24.35 25.36-3.02 7.22-4.37 15.29-9.03 21.58-8.15 11.01-25.12 14.77-29.49 27.76-1.75 5.22-1 10.9-.88 16.41.11 5.59-.45 11.19-1.69 16.63-.29 1.3-.63 2.61-1.07 3.87-.11.35-.24.7-.37 1.04-.78 2.05-1.83 3.96-3.33 5.55-4.13 4.38-11.49 5.26-16.54 1.96-4.42-2.89-6.62-8.7-5.51-13.83.94 5.84 5.33 7.29 10 6.52 8.44-1.38 12.54-9.56 11.72-18.24-.66-6.91-4.34-14.73-1.23-24.22 4.41-13.43 14.58-13.55 25.1-25.83 8.23-9.62 6.83-15.9 9.7-23.21.76-1.94 1.8-3.77 3.02-5.46 8-11.06 28.25-32.45 61.87-19.88Z" style="fill:#163f94"/><path d="M293.53 96.59c.42.85.27 1.91-.23 2.71-.45.71-1.18 1.2-1.99 1.42-1.5.42-2.67-1.35-1.77-2.63.54-.76 1.14-1.47 1.79-2.14.73-.75 1.78-.21 2.2.64ZM268.02 161.73c-.37-.26-.74-.52-1.11-.79-13.24-9.6-21.19-24.1-22.32-30.55-.08-.45-.16-.89-.22-1.34l.35-.06c-.07-.52-.11-1.04-.09-1.56.06-1.79.93-3.67 2.56-4.43 2.87-1.32 5.96 1.38 7.74 3.99 5.5 8.07 8.35 17.9 14.95 25.08 4.18 4.54 9.62 7.75 13.93 12.15.86.87 1.71 1.89 1.82 3.11.06.69-.26 1.44-.76 1.89-6.27-1.37-11.91-4.08-16.85-7.49Z" style="fill:#e7f2fe"/><path d="M273.62 90.43c-.06.03-.12.07-.17.1-.07-.02-.14-.03-.22-.04.13-.01.26-.04.39-.06Z" style="fill:#00a2f7"/><path d="M259.59 945.21c5.97 31.89 10.08 66.14 3.29 97.22-1.09 4.98-8.07 5.2-9.5.41-.04-.14-.08-.28-.11-.43-.99-3.83-1.95-7.66-2.9-11.5-.48-1.91-.95-3.83-1.41-5.75a1201.792 1201.792 0 0 1-4.08-17.29c-2-8.74-3.92-17.49-5.74-26.25-.35-1.66-.69-3.32-1.03-4.98-1.88-9.19-3.67-18.4-5.36-27.62-.64-3.53-1.28-7.06-1.89-10.59-.34-1.94-.68-3.87-1.01-5.81-.96-5.61-1.88-11.23-2.77-16.85-.2-1.24-.4-2.49-.59-3.74-.14-.89-.27-1.78-.41-2.68-.6-3.88-1.18-7.76-1.74-11.65-.28-1.94-.56-3.88-.83-5.83l-.81-5.83c-.26-1.95-.53-3.89-.78-5.84-.26-1.94-.51-3.89-.76-5.84s-.5-3.9-.74-5.84l-.69-5.71c-.24-2-.47-3.99-.7-5.99-.45-3.9-.89-7.81-1.3-11.71-.19-1.71-.37-3.42-.54-5.13-.23-2.2-.45-4.39-.67-6.59-.38-3.91-.75-7.82-1.11-11.74-.2-2.21-.39-4.42-.58-6.64-.47-5.47-.91-10.95-1.32-16.42 0-.15-.02-.3-.03-.44-.29-3.93-.57-7.85-.83-11.78-.51-7.85-.97-15.71-1.37-23.58-.39-7.86-.72-15.74-1-23.62-.06-1.97-.13-3.95-.19-5.92a1564.36 1564.36 0 0 1-.4-79.41v-.33c.17-7.89.39-15.8.66-23.71.1-2.78.2-5.55.31-8.32.33-8.07.71-16.14 1.15-24.22.73-13.47 1.63-26.96 2.69-40.47 3.37-.68 7.44.36 9.76 3.04 4.18 4.82 4.2 11.87 3.99 18.25-2.49 74.51-6.33 149.45 3.57 223.35 6.48 48.39 18.78 95.79 27.77 143.78Z" style="fill:#0078da"/><path d="M253.27 1042.41c.03.15.07.29.11.43l-.06-.21c-.02-.07-.04-.15-.05-.22ZM248.96 1025.16ZM244.88 1007.87c.44 1.93.88 3.85 1.33 5.77-.45-1.92-.89-3.85-1.33-5.77Z" style="fill:#0078da"/><path d="M240.03 222.6c.56 2.11.33 4.52-.96 6.28-1.37-.38-2.94-.6-4.71-.62-10.13-.11-14.74-4.2-16.28-11.96-.07-2.58.38-5.25 1-7.74-.28-.51-.39-1.08-.35-1.65.17-.48.33-.96.46-1.44.05-.08.1-.17.16-.25.73-.99 2.28-1.5 3.22-.7.53.45.72 1.17 1.02 1.8 1.22 2.67 4.2 3.93 6.73 5.41 2.33 1.36 4.45 3.07 6.26 5.06 1.53 1.68 2.87 3.61 3.45 5.81Z" style="fill:#163f94"/><path d="M233.24 1115.45c1.91 5.02-1.08 10.89-5.6 13.78-4.52 2.9-10.14 3.44-15.51 3.39-2.95-.03-5.98-.23-8.67-1.43-3.13-1.4-5.53-4.04-7.5-6.85-1.08-1.55-2.09-3.25-2.21-5.14-.16-2.53 1.33-4.89 3.06-6.75 5.32-5.73 13.6-8.53 21.3-7.22.98 1.98 4.47 2.26 7.7 3.48 3.22 1.22 6.21 3.52 7.43 6.74Z" style="fill:#fff"/><path d="M232.28 123.89c.48 1.02.76 2.19.49 3.4-7.23-3.84-9.36-12.77-10.88-20.79-.4-2.35-.56-4.57-.51-6.65.03 0 .06-.03.09-.04 1.13-.42 2.08.93 2.48 2.06 2.09 5.91 2.29 12.56 5.65 17.85.88 1.4 1.98 2.67 2.68 4.17Z" style="fill:#e7f2fe"/><path d="M230.86 938.43c.61 3.53 1.25 7.06 1.89 10.59-.64-3.53-1.28-7.06-1.89-10.59ZM229.85 932.62c.33 1.94.67 3.87 1.01 5.81a588.3 588.3 0 0 1-1.01-5.81ZM224.34 897.7ZM223.51 891.87c.27 1.95.55 3.89.83 5.83-.28-1.94-.56-3.88-.83-5.83ZM222.7 886.04l.81 5.83a545.1 545.1 0 0 1-.81-5.83ZM221.92 880.2c.25 1.95.52 3.89.78 5.84-.27-1.94-.53-3.89-.78-5.84ZM220.42 868.52ZM219.73 862.81l.69 5.71c-.24-1.9-.47-3.81-.69-5.71Z" style="fill:#0078da"/><path d="M219.19 205.47c-.13.48-.29.96-.46 1.44.03-.49.19-.99.46-1.44ZM218.73 206.91c-.04.57.07 1.14.35 1.65-.62 2.49-1.07 5.16-1 7.73-.4-1.97-.59-4.19-.63-6.64.51-.93.93-1.84 1.28-2.74Z" style="fill:#163f94"/><path d="M217.73 845.11c.41 3.9.85 7.81 1.3 11.71-.46-3.9-.89-7.8-1.3-11.71ZM217.19 839.98ZM215.41 821.65c.36 3.92.73 7.83 1.11 11.74-.39-3.91-.76-7.82-1.11-11.74ZM213.51 798.59c.41 5.47.85 10.95 1.32 16.42-.48-5.47-.92-10.94-1.32-16.42ZM212.65 786.37c.26 3.93.54 7.85.83 11.78-.3-3.92-.57-7.85-.83-11.78ZM211.28 762.79c.4 7.87.86 15.73 1.37 23.58-.52-7.85-.98-15.71-1.37-23.58ZM211.81 597.26c-.44 8.08-.82 16.15-1.15 24.22.32-8.06.7-16.14 1.15-24.22ZM210.28 739.17c.28 7.88.61 15.76 1 23.62-.4-7.86-.73-15.73-1-23.62ZM210.09 733.25c.06 1.97.13 3.95.19 5.92-.07-1.97-.14-3.94-.19-5.92ZM210.35 629.8c-.27 7.91-.49 15.82-.66 23.71.16-7.89.38-15.8.66-23.71ZM209.65 715.49c.11 5.93.26 11.85.44 17.76-.19-5.91-.34-11.83-.44-17.76ZM209.69 653.84c-.42 20.6-.43 41.15-.04 61.65-.4-20.5-.38-41.05.04-61.65Z" style="fill:#0078da"/><path d="M185.32 188.87c1.61 9.1-2.94 18.35-1.9 27.54.42 3.7 1.73 7.25 2.18 10.94-.66.62-1.73.13-2.44-.42-.17-.13-.33-.26-.49-.41-7.46-10.62-8.76-23.33-2.52-38.62l.26.1c1.22-.98 3.05-1.95 4.18-.87.46.44.62 1.11.73 1.74Z" style="fill:#163f94"/><path d="M157.69 414.16c.29.02.57.05.86.08-.13 0-.27.02-.4.07-.16-.05-.3-.1-.46-.15ZM144.71 1122.55c-8.77-3.33-16.26-9.17-19.5-14.27 5.91 5.57 12.47 10.29 19.5 14.27Z" style="fill:#fff"/><path d="M128.01 1051.6c.18 8.19-11.53 9.66-13.43 1.77-1-4.44-1.98-8.85-2.93-13.24-.41-1.89-.82-3.78-1.22-5.66-.47-2.22-.94-4.43-1.4-6.63-.56-2.7-1.11-5.39-1.66-8.06-1.28-6.28-2.5-12.51-3.68-18.69-.33-1.71-.65-3.42-.97-5.12-.71-3.81-1.41-7.59-2.09-11.36-.53-2.98-1.05-5.93-1.56-8.88-.72-4.14-1.41-8.26-2.08-12.36-.29-1.77-.58-3.53-.86-5.28-2.44-15.23-4.57-30.13-6.42-44.74l-.45-3.59c-.34-2.73-.66-5.45-.98-8.15-.2-1.67-.39-3.33-.58-4.99-.18-1.66-.37-3.32-.55-4.97s-.36-3.3-.53-4.94c-.16-1.53-.32-3.06-.47-4.58l-.3-2.95-.57-5.87-.39-4.29c-.2-2.24-.4-4.46-.59-6.68-.14-1.61-.27-3.21-.4-4.81-.62-7.64-1.16-15.2-1.62-22.67-.09-1.4-.17-2.8-.25-4.19-.76-13-1.28-25.76-1.58-38.28-.04-1.47-.07-2.94-.1-4.41l-.06-2.9-.09-6.03v-.16c-.02-1.43-.03-2.85-.04-4.27-.23-28.54.66-55.89 2.49-82.28.12-1.71.24-3.41.37-5.11.26-3.54.54-7.05.83-10.55.16-1.97.33-3.94.52-5.9.16-1.91.34-3.81.53-5.71a374.635 374.635 0 0 1 .62-6.34c.2-2.12.42-4.23.65-6.33l.12-1.12c.23-2.11.46-4.2.7-6.29.09-.8.18-1.6.28-2.4.19-1.69.39-3.38.6-5.06.57-4.77 1.18-9.52 1.81-14.23.2-1.48.4-2.95.61-4.42.18-1.36.37-2.72.56-4.07.08-.49.15-.99.22-1.48.31-2.15.62-4.29.94-6.43.41-2.76.83-5.51 1.27-8.25.33-2.17.68-4.33 1.03-6.49.34-2.12.69-4.23 1.04-6.34.19-1.11.37-2.21.57-3.31.23-1.37.46-2.73.7-4.09.15-.88.31-1.75.46-2.63.29-1.65.59-3.3.89-4.95.07-.39.14-.78.21-1.18.37-2.05.75-4.09 1.13-6.12.06-.36.13-.71.2-1.06a1225.398 1225.398 0 0 1 2.58-13.4c.04-.2.08-.39.12-.58.41-2.05.82-4.1 1.24-6.14.08-.42.16-.83.25-1.25.43-2.11.87-4.21 1.31-6.3.45-2.19.91-4.37 1.38-6.54.34-1.57.68-3.14 1.02-4.7a6.819 6.819 0 0 1 3.11-4.28c.03-.02.06-.03.09-.05 4.05-2.44 9.29-.13 10.21 4.51.84 4.21.54 8.89.08 13.2-8.18 77.12-28.43 153.09-28.9 230.63-.36 59.21 10.84 117.82 21.78 176.01 6.58 35.05 13.11 70.28 14.18 105.93.02.69.04 1.39.05 2.08Z" style="fill:#0078da"/><path d="M125.16 1108.21s.03.05.05.07a.178.178 0 0 1-.08-.07h.03Z" style="fill:#163f94"/><path d="M125.13 1108.21h-.15s0-.1.01-.14c.04.06.09.1.14.14Z" style="fill:#fff"/><path d="M110.43 1034.47c.4 1.88.81 3.77 1.22 5.66-.41-1.9-.82-3.78-1.22-5.66ZM107.37 1019.78c.55 2.67 1.1 5.36 1.66 8.06-.56-2.7-1.11-5.38-1.66-8.06ZM106.39 528.27ZM105.01 534.81c-.44 2.09-.88 4.19-1.31 6.3.43-2.11.86-4.21 1.31-6.3ZM102.72 995.97c.32 1.7.64 3.41.97 5.12-.33-1.71-.65-3.42-.97-5.12ZM103.45 542.36c-.42 2.04-.83 4.09-1.24 6.14.4-2.05.82-4.1 1.24-6.14ZM102.09 549.08ZM100.73 556.04c-.41 2.14-.82 4.29-1.22 6.44.4-2.15.8-4.3 1.22-6.44ZM99.07 975.73ZM99.31 563.54c-.38 2.03-.76 4.07-1.13 6.12.37-2.04.74-4.08 1.13-6.12Z" style="fill:#0078da"/><path d="M98.56 412.7c.19 2.58-.35 5.26-1.49 7.58a60.8 60.8 0 0 1-2.58-2.46c-11.78-11.97-44.89-53.33-68.7-88.96-.61-2.95.84-6.55 3.77-7.22 2.99-.68 5.7 1.81 7.65 4.17 15.77 19.1 23.66 44.27 41.75 61.19 4.04 3.78 8.54 7.08 12.32 11.13 3.78 4.04 6.88 9.05 7.28 14.57Z" style="fill:#e7f2fe"/><path d="M97.97 570.84c-.3 1.65-.6 3.3-.89 4.95.29-1.66.58-3.3.89-4.95ZM96.13 958.09c.28 1.75.57 3.51.86 5.28-.29-1.76-.58-3.53-.86-5.28ZM96.62 578.42c-.24 1.36-.47 2.72-.7 4.09.22-1.37.46-2.73.7-4.09ZM95.35 585.82c-.35 2.11-.7 4.22-1.04 6.34.34-2.12.69-4.23 1.04-6.34ZM94.31 592.16c-.35 2.16-.7 4.32-1.03 6.49.33-2.17.67-4.33 1.03-6.49ZM92.01 606.9c-.32 2.14-.63 4.28-.94 6.43.3-2.15.62-4.29.94-6.43ZM90.85 614.81ZM87.7 896.62c.19 1.66.38 3.32.58 4.99-.2-1.67-.39-3.34-.58-4.99ZM87.87 637.53ZM86.62 886.71c.17 1.64.35 3.29.53 4.94-.18-1.65-.36-3.3-.53-4.94ZM86.99 644.99ZM86.17 652.4ZM85.36 660.25ZM83.9 857.53c.13 1.6.26 3.2.4 4.81-.14-1.61-.27-3.21-.4-4.81ZM80.35 787.98ZM80.16 774.62c0 1.42.02 2.84.04 4.27-.02-1.43-.03-2.85-.04-4.27Z" style="fill:#0078da"/><path d="M51.07 227.36c2.75 1.72 3.75 6.66 1.53 8.21-8.66 6.05-16.79 13.07-22.87 21.72-6.08 8.64-10.01 19.05-9.7 29.61.05 1.84.22 3.75-.5 5.44-.71 1.69-2.68 3.03-4.38 2.33-1.21-.5-1.86-1.82-2.35-3.04-4.18-10.44-4.95-22.27-1.93-33.07 8.15-9.15 21.09-20.34 39.74-31.46.15.08.31.16.46.26Z" style="fill:#e7f2fe"/><path style="fill:none;stroke:#000;stroke-linecap:round;stroke-linejoin:round;stroke-width:.97px" d="m154.95 424.9-.12-.03M305.32 78.3c.09 3.55.23 7.14.76 10.62M327.68 79.26h.06M161.45 424.07c-.01.17-.06.36-.13.58M183.41 176.92s-.03-.03-.05-.04M268.29 77.02c2.94.83 6.08.96 9.09.43M210.35 1098.95c-9.2 1.59-17.51 6.28-21.15 13.01"/><path d="M126.16 1094.06c-.23 2.38-.52 5.01-.76 7.74-.19 2.05-.34 4.16-.41 6.27-.01.04-.01.09-.01.13-.14 4.11.06 8.18.95 11.76 2.19 8.77 12.85 7.86 28.31 14.85 20.61 9.3 17.19 15.62 32.8 19.91 23.73 6.52 55.14-2.39 57.41-12.1 1.06-3.93 1.72-7.54 2.03-10.88.25-2.59.28-5.01.12-7.26-1.45-21.68-20.21-28.31-36.24-25.53" style="fill:none;stroke:#000;stroke-linecap:round;stroke-linejoin:round;stroke-width:.97px"/><path d="M196.18 1091.06c2.5 2.53 5 4.44 7.84 5.81 1.92.93 4 1.61 6.33 2.08h.01M125.16 1108.21s.03.05.05.07c3.24 5.1 10.73 10.94 19.5 14.27 1.55.59 3.15 1.11 4.77 1.52 5.9 1.51 11.49 3.9 16.7 7 1.16.69 2.28 1.44 3.37 2.24 1.29.95 2.54 1.95 3.78 2.97 23.89 19.88 66.52 7.38 73.15-4.54.01 0 .01-.01.01-.01M370.23 1069.16c-8.23 2.56-15.14 10.69-17.31 27.12" style="fill:none;stroke:#000;stroke-linecap:round;stroke-linejoin:round;stroke-width:.97px"/><path d="M275.61 1073.91c-.02 3.22.01 6.41.13 9.53.17 4.9.55 9.64 1.19 14.1.46 3.27 1.07 6.38 1.86 9.3.18.71.39 1.42.6 2.11.49 1.59 1.33 3.92 2.58 5.02 13.03 11.43 31.8 5.05 54.54 5.59 15.84.38 35.99 8.07 52.88.25 2.18-1.01 4.51-1.64 6.54-2.9 4.51-2.79 7.66-5.87 9.94-11.18.87-2.01 1.37-4.06 1.56-6.1.45-4.7-.75-9.4-3.07-13.67-6.31-11.63-20.88-20.14-33.01-17.11-.34.07-.67.17-1 .28" style="fill:none;stroke:#000;stroke-linecap:round;stroke-linejoin:round;stroke-width:.97px"/><path d="M278.79 1106.84c11.81 5.19 27.64 8.21 48 5.82.45-.05.9-.1 1.36-.16 5.34-.68 10.74-.47 16.03.55 2.51.48 4.98.86 7.39 1.14 26.08 3.08 46.54-4.98 55.86-14.56M371.35 1068.85c-.34.09-.67.18-1 .28l-.12.03c-3.55 1-6.7 1.92-9.49 2.71-5.19 1.48-9.11 2.51-12 2.74" style="fill:none;stroke:#000;stroke-linecap:round;stroke-linejoin:round;stroke-width:.97px"/><path d="M220.01 498.81c-.9 8.05-1.74 16.08-2.53 24.12-1.1 11.3-2.1 22.58-2.98 33.86-1.06 13.51-1.96 27-2.69 40.47-.44 8.08-.82 16.15-1.15 24.22-.11 2.77-.21 5.54-.31 8.32-.27 7.91-.49 15.82-.66 23.71v.33a1564.36 1564.36 0 0 0 .4 79.41c.06 1.97.13 3.95.19 5.92.28 7.88.61 15.76 1 23.62.4 7.87.86 15.73 1.37 23.58.26 3.93.54 7.85.83 11.78l.03.44c.41 5.47.85 10.95 1.32 16.42.19 2.22.38 4.43.58 6.64.36 3.92.73 7.83 1.11 11.74.22 2.2.44 4.39.67 6.59.17 1.71.35 3.42.54 5.13.41 3.9.85 7.81 1.3 11.71.23 2 .46 3.99.7 5.99l.69 5.71c.24 1.94.49 3.89.74 5.84s.5 3.9.76 5.84c.25 1.95.52 3.89.78 5.84l.81 5.83c.27 1.95.55 3.89.83 5.83.56 3.89 1.14 7.77 1.74 11.65.14.9.27 1.79.41 2.68.2 1.25.39 2.49.59 3.74.89 5.62 1.81 11.24 2.77 16.85.33 1.94.67 3.87 1.01 5.81.61 3.53 1.25 7.06 1.89 10.59a1372.647 1372.647 0 0 0 6.39 32.6c1.82 8.76 3.74 17.51 5.74 26.25a1201.792 1201.792 0 0 0 4.08 17.29c.46 1.92.93 3.84 1.41 5.75.95 3.84 1.91 7.67 2.9 11.5.03.15.07.29.11.43 1.44 5.61 2.91 11.21 4.43 16.8.71 2.63 1.43 5.26 2.16 7.89 5.03 2.34 10.29 4.49 15.64 6.38 26.2 9.23 54.95 12.19 73.13.7 4.35-2.75 8.1-6.33 11.06-10.85 1.44-2.19 2.69-4.6 3.74-7.26-41.43-169.55-60.97-346-48.94-532.43.29-4.34.58-8.68.9-13.04.27-3.7.55-7.41.84-11.12" style="fill:none;stroke:#000;stroke-linecap:round;stroke-linejoin:round;stroke-width:.97px"/><path d="M119.47 472.08c-.4 1.62-.81 3.24-1.2 4.88h-.01c-.09.38-.19.76-.28 1.15l-.27 1.09c-1.5 6.1-2.98 12.23-4.43 18.39-1.8 7.69-3.57 15.43-5.27 23.22l-.6 2.76c-.34 1.56-.68 3.13-1.02 4.7a628.4 628.4 0 0 0-1.38 6.54c-.44 2.09-.88 4.19-1.31 6.3-.09.42-.17.83-.25 1.25-.42 2.04-.83 4.09-1.24 6.14-.04.19-.08.38-.12.58a1228.12 1228.12 0 0 0-2.58 13.4c-.07.35-.14.7-.2 1.06-.38 2.03-.76 4.07-1.13 6.12-.07.4-.14.79-.21 1.18-.3 1.65-.6 3.3-.89 4.95-.15.88-.31 1.75-.46 2.63-.24 1.36-.47 2.72-.7 4.09-.2 1.1-.38 2.2-.57 3.31-.35 2.11-.7 4.22-1.04 6.34-.35 2.16-.7 4.32-1.03 6.49-.44 2.74-.86 5.49-1.27 8.25-.32 2.14-.63 4.28-.94 6.43-.07.49-.14.99-.22 1.48-.19 1.35-.38 2.71-.56 4.07-.21 1.47-.41 2.94-.61 4.42-.63 4.71-1.24 9.46-1.81 14.23-.21 1.68-.41 3.37-.6 5.06-.1.8-.19 1.6-.28 2.4a1098.808 1098.808 0 0 0-.82 7.41c-.23 2.1-.45 4.21-.65 6.33a374.635 374.635 0 0 0-.62 6.34c-.19 1.9-.37 3.8-.53 5.71-.18 1.96-.36 3.93-.52 5.9-.29 3.5-.57 7.01-.83 10.55-.13 1.7-.25 3.4-.37 5.11-1.83 26.39-2.72 53.74-2.49 82.28 0 1.42.02 2.84.04 4.27v.16l.09 6.03.06 2.9c.03 1.47.06 2.94.1 4.41.3 12.52.82 25.28 1.58 38.28.08 1.39.16 2.79.25 4.19a1167.53 1167.53 0 0 0 2.02 27.48c.19 2.22.39 4.44.59 6.68l.39 4.29.57 5.87.3 2.95c.15 1.52.31 3.05.47 4.58.17 1.64.35 3.29.53 4.94s.37 3.31.55 4.97c.19 1.66.38 3.32.58 4.99.32 2.7.64 5.42.98 8.15l.45 3.59c1.85 14.61 3.98 29.51 6.42 44.74.28 1.75.57 3.51.86 5.28.67 4.1 1.36 8.22 2.08 12.36.51 2.95 1.03 5.9 1.56 8.88.68 3.77 1.38 7.55 2.09 11.36.32 1.7.64 3.41.97 5.12 1.18 6.18 2.4 12.41 3.68 18.69.55 2.67 1.1 5.36 1.66 8.06.46 2.2.93 4.41 1.4 6.63.4 1.88.81 3.77 1.22 5.66a1730.799 1730.799 0 0 0 12.19 52.23c.1.42.2.84.31 1.26.67.15 1.34.29 2.01.44 23.09 4.8 49.23 3.55 70.02-3 8.57-2.7 16.22-6.29 22.39-10.73 7.09-5.11 12.21-11.34 14.47-18.61-66.79-196.38-58.96-381.11-20.89-561.14M97.91 281.32c-7.32-5.08-13.41-12.54-18.65-21.65M99.45 282.36c-.52-.33-1.04-.67-1.54-1.03M63.12 220.13c-.34-1.08-.67-2.18-1-3.28M355.92 258.75c.74 3.26.56 8.02-.34 13.83-.02.14-.05.28-.07.43M167.94 235.9c1.52 5.99 1.86 13.01 1.41 20.74M100.11 449.49c.07 1.07.15 2.12.23 3.14 1.2 13.93 4.43 23.27 17.63 25.48M336.59 508.89c-.66 1.83-1.44 3.47-2.33 4.92-4.61 7.56-12.04 10.26-19.66 10.26M302.3 189.41c-.38-1.39-.51-2.92-.34-4.52.34.31.78.59 1.28.82M312.94 166.94c-.64.25-1.3.48-1.97.71-4.85 1.61-10.46 2.57-16.95 2.57-3.18 0-6.24-.35-9.15-1-6.27-1.37-11.91-4.08-16.85-7.49.78 6.35.33 9.36-.22 15.27-.04.45-.09.91-.13 1.4" style="fill:none;stroke:#000;stroke-linecap:round;stroke-linejoin:round;stroke-width:.97px"/><path d="M343.95 85.18c.52.17 1.06.3 1.64.38 2.63-.49 4.91-.61 6.86-.29 1.37.23 2.58.67 3.62 1.35 4.1 2.68 5.62 9.04 4.54 20.32-.05 1.24-.18 2.21-.35 3.03-.72 4.18-1.9 8.44-3.71 12.06-3.05 6.15-7.89 10.49-15.3 9.57-.13 0-.26-.03-.4-.05-.19 1.42-.46 2.82-.85 4.19-2.29 8.19-8.92 23.69-25.97 30.75-.18.09-.36.16-.54.24-.18.07-.36.14-.55.21-4.89 6.38-7.91 12.62-9.7 18.77M253.91 72.89c-.23-.58-.47-1.15-.72-1.72-3.08-6.8 2.03-14.79 5.71-21.29 4.03-7.11 9.01-15.39 14.02-17.61 2.65-1.16 5.68-1.49 8.6-1.16 20.04 2.28 26.83 2.76 25.58-1.24 2.17 4.03 7.26 7.32 19.63 7.54 6.57.12 18.92 8.45 13.15 23.19-.86 2.2-1.54 4.38-2.01 6.46-.48 2.09-.76 4.1-.81 5.96M302.3 189.41c-.63 2.89-1.01 5.76-1.2 8.61 4.69 3.56.2 14.57-10.75 17.36-1.64.43-3.43.66-5.36.66-3.29 0-6.75-.99-9.89-2.68 1-3.09 1.57-6.53 1.43-10.31-.53-14.22-6.21-16.78-8.86-24.65-1.32-3.87-1.89-9.02-.76-17.46-13.24-9.6-21.19-24.1-22.32-30.55-.08-.45-.16-.89-.22-1.34-4.9.52-8.67-.2-11.6-1.76-7.23-3.84-9.36-12.77-10.88-20.79-.4-2.35-.56-4.57-.51-6.65.33-14.59 10.74-22.14 17.24-17.19 3.79-.52 2.51 9.87 9.01 10.16 2.22.1 3.94-.45 5.23-1.48" style="fill:none;stroke:#000;stroke-linecap:round;stroke-linejoin:round;stroke-width:.97px"/><path d="M158.15 414.31c-.16-.05-.3-.1-.46-.15.29.02.57.05.86.08 16.83 1.43 29.71 3.78 33.92 4.59 2.92.57 5.55.13 7.31-.97 3.1-1.91 3.53-5.81-1.82-9.73-1.13-.83-2.36-1.51-3.66-2.05-.32-.14-.65-.26-.98-.38-6.03-2.13-22.14-8.33-42.75-14.26-.92-2.03-1.6-4.3-2.06-6.8-.86-4.6-.99-9.95-.58-15.85.41-5.99 1.37-12.55 2.68-19.48 2.79-14.83 7.13-31.34 10.94-47.58 3.76-15.92 7.01-31.58 7.8-45.09-14.62-3.33-42.36 9.7-69.9 25.72-.42-11.31-2.03-21.43-4.97-30.23-2.75-8.26-6.65-15.35-11.78-21.17-4.54-5.14-10.04-9.29-16.56-12.38h-.01c-1.3-.62-2.63-1.19-4.01-1.73 50.69-25.25 95.64-44.52 119.34-41.65-10.07-10.33-5.7-32.56 13.68-40.89-10.08.8-20.18-8.27-13.52-22.13 0 .9.06 1.72.18 2.47.94 5.84 5.33 7.29 10 6.52 8.44-1.38 12.54-9.56 11.72-18.24-.66-6.91-4.34-14.73-1.23-24.22 4.41-13.43 14.58-13.55 25.1-25.83 8.23-9.62 6.83-15.9 9.7-23.21.76-1.94 1.8-3.77 3.02-5.46 8-11.06 28.25-32.45 61.87-19.88 1.5.55 3.03 1.18 4.59 1.88.53-.19 1.07-.37 1.63-.53 24.61-7.37 76.08 6.23 71.44 88.52.82 10.89 13.11 17.84 15.65 8.03-1.71 13.23-9.23 14.58-15.88 10.27 1.69 6.08.86 9.55-1.6 12.52-5.36 6.47-7.57 14.14-6.64 22.17.76 6.66 1.99 12.63 5.97 16.26 1.05.96 2.3 1.76 3.78 2.36 9.02 3.67 21.77-4.43 10.18-11.23 15.13-2.73 14.42 11.47 8.1 19.59h0c3.64 14.34-2.39 24.98-10.7 29.44 6.15 2.92 12.27 7.88 18.3 14.06 21.15 21.65 41.29 58.33 58.3 75.17-1.88.35-3.72.72-5.53 1.13-16.55 3.73-30.48 10.19-41.32 19.82a69.589 69.589 0 0 0-8.26 8.72 71.393 71.393 0 0 0-6.67 10.01c-8.33-21.41-43.76-44.57-47.74-59.94v-.02c-4.9 31.16-23.77 93.97-33.06 116.3-2 4.83-3.29 7.87-3.52 8.45-1.31 3.37-2.25 6.81-2.91 10.26-.39 2-.68 4-.89 6-16.85-.54-31.24-.31-38.17.12-1.48.1-2.63.2-3.38.31-1.56.22-2.92.51-4.08.86-7.92 2.39-7.21 7.57-2.55 10.81 1.79 1.26 4.17 2.23 6.86 2.64.91.27 16.1 2.18 32.09 3.34.3.03.61.05.91.07-14.23 3.55-26.9 5.07-31.17 6.2-2.27.6-4.12 1.62-5.47 2.84-4.23 3.81-3.39 9.59 5.75 10.61 2.57.29 10.42.03 24.47-1.53" style="fill:none;stroke:#000;stroke-linecap:round;stroke-linejoin:round;stroke-width:.97px"/><path d="M300.47 449.84h-.02c-1.91.41-3.6.78-4.9 1.09-1.06.25-1.85.45-2.3.59-10.54 3.24-6.35 14.84 9.89 11.96 4-.9 9.28-1.83 15.26-3.06 4.56 20.22 10.59 39.43 18.59 48.7-.14-.08-.27-.16-.4-.23-5.9-3.36-12.68-6.42-20.25-8.98-8.27-2.81-17.48-5.01-27.5-6.3-19.94-2.61-43.09-1.67-68.43 5.09-.14.04-.26.07-.4.11-2.6.68-5.23 1.27-7.86 1.77-16.29 3.05-33.11 2.43-49-2.52-13.98-4.35-26.39-11.04-37.98-20.85-1.92-1.62-3.82-3.33-5.7-5.13-6.64-6.35-13.05-13.83-19.36-22.59a97.57 97.57 0 0 0 21.49-13.61c16.9 7.83 35.42 12.11 46.22 11.15 3.74-.03 6.48-1.11 7.29-3.01.55-1.26.24-2.88-1.2-4.8-1.33-1.77-3.18-3.07-5.25-3.82 7.45 1.96 12.08 2.4 17.43 2.5 5.32.02 8.84-2.36 9.34-5.23.39-2.19-.99-4.68-4.65-6.61-.85-.45-1.74-.79-2.67-1.08-5.38-1.7-14.28-5.12-24.95-8.91M465.1 292.84c-1.02 1.35-2.04 2.65-3.07 3.9M428.81 323.62c-6.27 3.06-12.62 5.31-18.98 7.15-.24.06-.48.13-.71.2-1.93.55-3.87 1.06-5.8 1.55M301.1 198.02l-.01-.01M345.59 85.56c-.57.11-1.17.25-1.78.39-.11.02-.22.05-.33.08M268.02 161.73c-.37-.26-.74-.52-1.11-.79M242.06 87.46c-.88-2.19-2.07-3.76-3.44-4.8M301.1 198.02a63.88 63.88 0 0 0-.2 4.35M268.02 161.73v-.01" style="fill:none;stroke:#000;stroke-linecap:round;stroke-linejoin:round;stroke-width:.97px"/><path d="M165.48 434.51c-2.6-.62-4.72-1.16-7.63-1.88h-.01c-2.34-.59-5.2-1.27-9.22-2.19M168.66 435.4c-.51-.21-1.05-.37-1.59-.5-.51-.12-.99-.23-1.46-.35M94.49 417.82a60.8 60.8 0 0 0 2.58 2.46c5.17 4.67 11.5 8.88 18.31 12.51 2.03 1.08 4.11 2.11 6.22 3.09M25.79 328.86c23.81 35.63 56.92 76.99 68.7 88.96M66.13 218.58c-1.02.52-2.02 1.03-3.01 1.55-1.77.92-3.5 1.85-5.18 2.78a230.73 230.73 0 0 0-7.33 4.19c-18.65 11.12-31.59 22.31-39.74 31.46-2.85 3.19-5.11 6.13-6.83 8.73-3.87 5.83-4.61 13.22-2.09 19.75 4.08 10.53 13 25.58 23.84 41.81M66.15 218.57s-.01 0-.01.01M150.57 391.44c-2.48-.71-5.03-1.42-7.63-2.12.93-1.65 3.19-3.4 5.57-4.68" style="fill:none;stroke:#000;stroke-linecap:round;stroke-linejoin:round;stroke-width:.97px"/><path d="M165.48 434.51s.09.03.13.04c1.07.31 2.09.59 3.05.85M40.83 269.06c.83 1.42 1.65 2.84 2.48 4.26 1.39 2.4 2.79 4.8 4.19 7.2 20.49 35.13 41.28 69.66 64.99 101.58.82 1.12 2.42 1.24 3.3.15 4.39-5.42 15.51-9.99 27.95-12.64 1.38-.3 2.78-.57 4.19-.82" style="fill:none;stroke:#000;stroke-linecap:round;stroke-linejoin:round;stroke-width:.97px"/><path d="M47.5 280.52c7.26-6.44 17.57-13.34 31.76-20.85 2.93-1.55 6.04-3.12 9.32-4.73 1.88-.91 3.82-1.84 5.82-2.78M442.11 339.86c-1.47-3.77-7.06-10.08-13.3-16.24-1.45-1.44-2.94-2.87-4.42-4.25-2.11-1.98-4.2-3.87-6.14-5.58M317.06 446.56s-.08.01-.12.02c-4.62.84-11.31 2.16-16.46 3.26" style="fill:none;stroke:#000;stroke-linecap:round;stroke-linejoin:round;stroke-width:.97px"/><path d="M459.57 293.97c.84.94 1.66 1.87 2.46 2.77 14.36 16.44 21.28 28.87 24.98 37.63 3.37 7.99.89 19.37-5.53 25.19-14.9 13.48-43.63 32.61-115.93 83.09-14.51 10.14-32.84 14.81-47.15 17.77M315.63 413.58c-.14 0-.29-.01-.44-.01M300.48 449.84h-.01" style="fill:none;stroke:#000;stroke-linecap:round;stroke-linejoin:round;stroke-width:.97px"/><path d="M316.07 407.56v.01c3.75 2.51 2.87 6.01-.45 6.01M463.8 326.66c-7.12 3.67-14.39 8.2-21.69 13.2-30.52 20.97-61.37 50.48-81.77 62.25a18.649 18.649 0 0 1-17.46.64c-6.01-2.93-13.32-7.81-20.37-13.89M315.1 86.39c-.23-.7-.35-1.45-.35-2.23 0-1.64.52-3.14 1.42-4.36a7.4 7.4 0 0 1 6.01-3.07c2.22 0 4.22.98 5.56 2.52a7.34 7.34 0 0 1 1.87 4.91c0 .87-.15 1.7-.43 2.47M268.29 77.02a7.335 7.335 0 0 1 4.27-1.36c1.84 0 3.52.67 4.82 1.79a7.366 7.366 0 0 1 2.61 5.65c0 1.29-.34 2.49-.92 3.54M286.4 106.63c.45-.52 3.81-5.47 10.34-4.97h.08c6.97.6 9.47 6.42 9.75 6.89M315.95 69.39c-1.24-.4-2.07-.96-2.18-1.74-.31-2.03 3.14-5.27 9.2-5.2 6.15.08 9.08 2.2 8.88 4.86 0 .18-.05.34-.12.5-.7 1.8-4.32 2.49-7.1 2.51h-.15c-2.98 0-6.37-.22-8.53-.93ZM273.13 69.44c-.74-.02-1.51-.09-2.27-.21" style="fill:none;stroke:#000;stroke-linecap:round;stroke-linejoin:round;stroke-width:.97px"/><path d="M270.83 69.23c-1.61-.24-3.18-.67-4.38-1.28-1.36-.67-2.26-1.55-2.23-2.61.04-2.64 5.43-4.59 10.07-4.42 4.86.19 10.29 2.82 10.08 5.46-.04.45-.24.84-.56 1.17-1.56 1.61-6.1 1.88-9.93 1.9h-.71M272.83 136.76c-2.43-3.03-4.3-6.58-5.4-10.56 2.79-2.16 13.38-9.13 28.73-9.17 14.09-.04 23.95 8.15 26.76 10.54a29.792 29.792 0 0 1-5.27 9.57c-5.38 6.58-13.35 10.78-21.33 10.77-9.2-.01-17.86-4.17-23.49-11.15ZM343.48 101.46c1.2-2.22 2.8-4.35 5.15-5.5 1.48-.74 3.28-1.07 5.46-.78M227.36 95.22c2.63-3.35 5.95-4.84 9.44-3.78 1.85.56 3.76 1.84 5.63 3.96" style="fill:none;stroke:#000;stroke-linecap:round;stroke-linejoin:round;stroke-width:.97px"/><path d="M348.63 95.96c.26.19.52.39.76.6 2.75 2.31 4.08 5.65 3.26 10.63M236.8 91.44c-.13.1-.25.2-.37.31-3.79 3.14-4.87 7.42-4.13 12.07M272.83 136.76c15.26-13.55 29.82-12.99 44.82.38M379.41 112.5c-1.3-.84-2.56-1.91-3.75-3.14-.31-.32-.61-.66-.91-1M379.87 172.55c2.61 4.02 5.39 6.09 8.1 6.75 4.26 1.03 8.33-1.41 11.23-5.12M373.27 204.69c4.88 2.02 10.43 1.5 15.22-1.08h.01M360.89 173.49c-.07.79-.12 1.56-.15 2.32-.09 1.76-.1 3.44-.04 5.04.39 11.31 4.24 18.43 9.39 22.08 1.01.72 2.07 1.3 3.16 1.75h0M373.25 204.68h0s0 .01.01.01c.15.12 1.46 1.21 1.49 1.24 6.49 6.29 7.39 16.61 1.59 23.53-7.25 8.64-7.88 23.92 1.24 18.63.34-.2.7-.43 1.08-.69-6.19 14.23-20.89 10.58-25.19-3.32" style="fill:none;stroke:#000;stroke-linecap:round;stroke-linejoin:round;stroke-width:.97px"/><path d="M355.14 185.01c-.92 2.53-1.68 4.91-2.28 7.15-.57 2.06-1.01 4-1.35 5.84-3.76 20.41 5.29 27.86 5.56 33.78.23 5.2-1.25 9.19-3.69 12.22-7.98 9.9-26.24 9.58-28.41 7.85M322.18 186.61c-.14 5.78-4.2 10.26-8.66 11.01-.29.05-.58.08-.88.1-4.4.25-8.97-3.23-10.34-8.31M314.15 166.82c.25 1.04 1.5 3.64 2.37 6.88.69 2.6.52 5.41-.74 7.78-2.91 5.45-9.22 5.78-12.54 4.23" style="fill:none;stroke:#000;stroke-linecap:round;stroke-linejoin:round;stroke-width:.97px"/><path d="M313.52 197.62c-18.59 17.82-9.85 37.57 2.97 38.26 2.65.15 5.48-.53 8.27-2.21-9.5-4.15-10.97-13.39-3.14-18.64" style="fill:none;stroke:#000;stroke-linecap:round;stroke-linejoin:round;stroke-width:.97px"/><path d="M316.49 235.88c.38 9.86-3.49 12.82-11.81 8.56.98 7.5 10.99 10.55 20.29 7.41 3.32-1.12 6.54-3.03 9.24-5.8.21-.21.41-.43.61-.65.2-.23.4-.46.59-.69 2.69-3.24 4.64-7.32 5.41-12.43.17-1.06.29-2.17.36-3.33M345.59 85.56c1.93.32 4.21.25 6.86-.29M307.1 29.85c-1.27-2.37-1.53-4.99-1.67-7.39M307.1 29.87v-.02M209.97 119.82c-.07.31-.14.61-.21.9-2.35 8.95-8.48 13.1-14.62 13.59M200.41 161.23c-2.47-.17-12.5 2.41-10.98 8.82.04.16.08.31.13.46 1.57 4.78 8.9 5.44 8.39 5.91-3.23 3.01-8.45 4.19-12.91 1.59-.56-.33-1.1-.68-1.6-1.08-.01 0-.02-.01-.03-.01-.02 0-.04-.02-.05-.04l-.02-.01c-.68-.51-1.3-1.07-1.88-1.67M185.04 178.01c-1.97 3.41-3.59 6.71-4.89 9.89-6.24 15.29-4.94 28 2.52 38.62 1.72 2.45 3.78 4.79 6.14 7.03M217.45 209.64c.51-.92.93-1.83 1.28-2.73.17-.48.33-.96.46-1.44 1.09-3.88.74-7.92-.64-13.32" style="fill:none;stroke:#000;stroke-linecap:round;stroke-linejoin:round;stroke-width:.97px"/><path d="M195.96 201.19c-10.45 11.58-10.56 24.08-6.41 31.96 4.38 8.37 13.57 11.54 20.26 2.88-8.3-.11-9.71-3.85-8.67-7.51.63-2.23 2.28-4.5 4.23-6.37 2.38-2.29 5.64-3.95 7.78-6.46 1.84-2.17 3.26-4.14 4.3-6.04M218.08 216.3c1.54 7.76 6.15 11.85 16.28 11.96 1.77.02 3.34.24 4.71.62 11.79 3.2 9.56 17.73 1.65 14.08 4.84 8.54 21.65 5.81 21.01-10.83-.02-.48-.05-.98-.1-1.49-.3-3.11-1.21-6.13-2.51-8.97-7.05-15.42-13.76-18.69-14.13-26.67-.2-4.21 1.38-9.74 5.63-19.07M217.45 209.64h0c.04 2.46.23 4.68.63 6.65M275.1 213.36c-3.2 9.85-10.76 16.14-13.37 18.77M283.96 95.95c-3.84 4.92-9.03 7.88-13.82 7.95-6.04.08-12.85-4.42-16.83-11.69l-.45-.87c4.09-3.22 3.88-11.17 1.05-18.45.64-.47 1.36-.87 2.13-1.18.81-.33 1.69-.64 2.62-.94 1.64-.51 3.47-.96 5.47-1.24 2.06-.3 4.31-.43 6.7-.3h.03c.78.04 1.54.12 2.27.21.01 0 .03 0 .04.01 5.15.62 9.33 2.31 12.31 3.92.12.07.25.14.36.21 2.42 1.46 3.84 4.06 3.84 6.86 0 .24-.01.47-.03.7-.28 3.41-1.15 6.56-2.42 9.35M306.87 90.97c-.28-.66-.55-1.35-.79-2.05-.69-2.01-1.15-4.17-1.36-6.44-.06-.67-.05-1.33.04-1.97.09-.76.28-1.51.56-2.21a9.644 9.644 0 0 1 5.4-5.45c.08-.03.16-.07.25-.1 3.51-1.37 8.16-2.56 13.66-2.42.3.01.61.03.92.04 3.2.18 6.07.78 8.57 1.58.41.12.81.25 1.2.4.6.21 1.18.44 1.74.67-.16 6 1.94 10.61 6.89 12.16-.04.27-.09.52-.14.77-.31 1.46-.73 2.85-1.24 4.18-3.43 8.97-10.99 14.8-17.74 14.9-5.05.08-10.64-3.07-14.65-8.34M290.33 80.44c1.97-1.54 4.73-2.16 7.43-2.03 2.37.12 4.7.83 6.41 2.03M161.45 424.07c-.04.19-.08.39-.13.58-.48 2.05-.95 4.11-1.43 6.17-.23 1-1.17 1.72-1.97 1.51-1.13-.28-2.26-.57-3.37-.85-.66-.17-1-.88-.82-1.69l.12-.51c.33-1.47.66-2.94.98-4.41.68-3.02 1.36-6.04 2.03-9.06.15-.73.7-1.31 1.29-1.5.13-.05.27-.07.4-.07.09 0 .18.01.27.03l3.5.84c.44.11.76.48.84.96.04.23.03.48-.03.74-.55 2.4-1.11 4.81-1.67 7.22" style="fill:none;stroke:#000;stroke-linecap:round;stroke-linejoin:round;stroke-width:.97px"/><path d="M337.01 88.55c1.27 1.02 2.81 1.66 4.43 1.67.38 0 .76-.03 1.13-.09 4.75-.71 9.23-5.68 13.47-3.46M246.03 92.7c2.3 1.19 5 .81 7.28-.49a10.23 10.23 0 0 0 3.75-3.64c2.2-3.73 2.28-8.31 1.98-12.63-.12-1.72-.29-3.45-.38-5.17-.16-2.62-.14-5.22.47-7.76 1.36-5.64 5.45-10.17 9.55-14.27 5.1-5.11 11.01-10.24 18.2-10.88 5.39-.48 10.61 1.65 15.83 3.06a60.521 60.521 0 0 0 16.51 2.11c3.69-.03 7.59-.37 10.89 1.28 5.28 2.62 7.11 9.4 6.57 15.27-.21 2.33-.7 4.61-1.25 6.89-.3 1.26-.62 2.51-.92 3.76-.14.57-.27 1.15-.39 1.72-.36 1.6-.65 3.21-.81 4.85 0 .04-.01.08-.01.12-.27 2.91-.09 5.97 1.24 8.58.11.22.24.44.37.65" style="fill:none;stroke:#000;stroke-miterlimit:10"/></g><circle cx="275.7" cy="79.41" r="2.49" style="fill:#fff"/><circle cx="325.57" cy="80.35" r="2.49" style="fill:#fff"/></g></g></g></g></svg>