<svg xmlns="http://www.w3.org/2000/svg" viewBox="0 0 473.09 1208.76"><g data-name="Layer 2" style="isolation:isolate"><g data-name="FINISHED"><g data-name="NICI"><g data-name="Base"><path d="M185.52 1129.22c.9 2.23 1.7 4.6 2.4 7.11-1.83-.2-3.62-.46-5.37-.77 1.14-2.45 1.68-3.6 2.97-6.34Z" style="fill:#02488b"/><path d="M435.73 349.27c.37-1.3.03-2.71-.9-3.69-11.76-12.48-25.14-26.47-37.64-39.64-3.64-3.84-7.21-7.61-10.64-11.25 5.13-13.96 11.33-26.18 18.65-32.92l9.68 9.95c17.08 17.56 34.73 35.69 51.54 52.98a21.737 21.737 0 0 1 5.5 20.38c-8.35 33.51-14 56.2-22.34 89.71-7.73-14.72-16.79-28.42-26.33-42.02 4.79-16.69 7.7-26.81 12.48-43.5Z" style="fill:#e7f2fe"/><path d="m414.88 271.72-9.68-9.95c4.17-3.83 8.71-5.88 13.62-5.45-1.32 6.7-2.16 11.14-3.94 15.4Z" style="fill:#52d6ff"/><path d="M376.39 1071.86c7.47-.65 26.79-1.91 26.94 2.16.19 1.14.39 2.24.58 3.27 1.31 7.13 2.63 11.86 4.49 13.38.29.25.59.41.91.48 3.1-8.09 5.28-8.62 6.49-9.73.02 12.66 0 27.99-.01 42.17h-.02c-6.2 28.37-68.44 31.81-88.26 20.3 1.14-14.01 8.06-27.68 23.33-29.54 7.17-4.73 19.29-14.83 22.91-23.54.35-.85.89-1.62.76-2.53-.44-3.17-1.36-8.46-1.39-12.39v-.54c.02-1.83 1.44-3.33 3.27-3.49Z" style="fill:#fff"/><path d="M327.51 1143.89c19.82 11.51 82.06 8.07 88.26-20.3h.02c0 5.61 0 11.04.01 16.06 0 .55-.15 1.11-.45 1.58-15.55 24.52-63.14 23.69-86.37 15.67-.61-.21-1.05-.75-1.14-1.38a51.69 51.69 0 0 1-.33-11.63Z" style="fill:#52d6ff"/><path d="M415.8 1081.42c-1.21 1.11-3.39 1.64-6.49 9.73-.32-.07-.62-.23-.91-.48-.03-3.11 0-7.73 0-11.5 3.01.44 5.49.26 7.4 2.25Z" style="fill:#fff"/><path d="M408.39 1076.26c.01.87.01 1.86.01 2.91 0 3.77-.03 8.39 0 11.5-1.86-1.52-3.18-6.25-4.49-13.38 1.5-.34 2.99-.73 4.44-1.18l.04.15Z" style="fill:#e7f2fe"/><path d="M397.19 305.94c-4.46 9.44-12.05 17.49-16.41 18.37-.69-1.58-1.34-3.16-1.98-4.74 2.24-8.39 4.83-16.92 7.75-24.88 3.43 3.64 7 7.41 10.64 11.25Z" style="fill:#52d6ff"/><path d="M273.9 83.61c3.89-1.9 7.44-3.99 11.36-5.88-.19.26-.38.54-.57.81-.36.52-.72 1.06-1.06 1.64-1.65 4.31-2.25 8.96-2.84 12.9-.78 5.28-1.51 9.24-4.67 9.24-3.75 0-2.35-9.39-2.22-18.71Z" style="fill:#00a2f7"/><path d="M263.69 241.92c-4.3-4.07-8.6-8.13-12.91-12.2 4.99-9.24 13.16-24.73 15.08-35.7 1.04-6 .23-10.64-3.95-12.19v-.02c7.33.84 11.04 3.22 13.09 5.29.2.24.42.47.65.69 0 .01.01.01.01.01.62.73 1.05 1.38 1.39 1.87 5.76 8.39-1.03 31.11-13.36 52.25Z" style="fill:#fff"/><path d="M270.37 67.67c3.13 3.28 3.62 9.59 3.53 15.94-.5.26-1 .5-1.51.73l-.54.26c-2.9-4.01-8.81-6.07-14.98-6.33.49-6.01 9.13-5.89 13.5-10.6Z" style="fill:#e7f2fe"/><path d="M265.86 194.01c-1.37-3.92-2.69-8.01-3.95-12.18 4.18 1.55 4.99 6.19 3.95 12.18Z" style="fill:#52d6ff"/><path d="M253.77 84.75a6.67 6.67 0 1 1 0 13.34c-3.69 0-6.67-2.99-6.67-6.67s2.99-6.67 6.67-6.67Z" style="fill:#007afb"/><path d="M246.13 264.78c0-3.43 2.78-6.2 6.2-6.2s6.19 2.77 6.19 6.2-2.77 6.2-6.19 6.2-6.2-2.77-6.2-6.2Z" style="fill:#52d6ff"/><path d="M247.1 91.42c0 3.68 2.99 6.67 6.67 6.67s6.68-2.99 6.68-6.67-2.99-6.67-6.68-6.67-6.67 2.98-6.67 6.67Zm3.49-12.82c1.32 2.2 3.7 3.88 7.17 4.37-.74-1.9-1-3.43-.89-4.7 6.17.26 12.08 2.32 14.98 6.33 3.97 15.05-6.52 25.77-16.13 26.2-9.1.42-19.51-8.02-18.63-21.35.07-1.16.23-2.36.49-3.59.45-.84 1.02-1.59 1.73-2.29 3.6.79 6.75-.62 9.01-4.52.75-.19 1.5-.34 2.27-.45Z" style="fill:#e7f2fe"/><path d="M208.81 138.85c12.37-12.01 25.75-13.05 40.38-.35-3.4 7.64-10.79 13.06-19.15 13.48-9.02.45-17.39-5.01-21.23-13.13Z" style="fill:#82cefa"/><path d="M206.59 128.33c14.61-7.88 29.48-7.95 44.62.18.08 3.57-.65 6.95-2.02 9.99-14.63-12.7-28.01-11.66-40.38.35a22.806 22.806 0 0 1-2.22-10.52Z" style="fill:#182c4c"/><path d="M229.23 509.9c4.76-.79 14.57-3.72 24.5-4.06-.19 6.41-.43 12.8-.68 19.15-12.56-2.41-18.31-7.83-23.82-15.09Z" style="fill:#52d6ff"/><path d="M230.45 82.27c1.5 0 3.01-.24 4.4-.66 1.53.99 3.03 1.65 4.46 1.96-.71.7-1.28 1.45-1.73 2.29a24.5 24.5 0 0 0-.49 3.59l-.56-.04c-4.85-4.66-8.67-4.06-13.52.06h-.55c-.1-1.55-.37-3.2-.81-4.87-.35-.49-.75-.95-1.19-1.38.97-.6 2.1-1.92 2.69-2.73a16.09 16.09 0 0 0 7.3 1.78Z" style="fill:#e7f2fe"/><path d="M223.45 195.78h.01c2.41 4.63 4.93 9.22 7.55 13.77-5.37.48-7.98 8.77-6.6 14.41-4.72-4.86-7.01-10.56-7.23-15.64V207.5c-.02-5.26 2.22-9.73 6.28-11.72Z" style="fill:#52d6ff"/><path d="M224.41 223.97c3.26 3.37 7.69 6.34 13.43 8.4-1.24 5.42-2.47 10.86-3.7 16.29-12.79-5.86-17.15-20.7-16.97-40.34.22 5.08 2.51 10.78 7.23 15.64Z" style="fill:#fff"/><path d="M252.33 270.98c3.42 0 6.19-2.77 6.19-6.2s-2.77-6.2-6.19-6.2-6.2 2.77-6.2 6.2 2.78 6.2 6.2 6.2Zm123.06-71.52c13.36 22.46 33.89 42.97 43.43 56.86-4.91-.43-9.45 1.62-13.62 5.45-7.32 6.74-13.52 18.96-18.65 32.92-2.92 7.96-5.51 16.49-7.75 24.88.64 1.58 1.29 3.16 1.98 4.74 4.91 11.47 10.95 22.99 18.35 34.58 8.07 11.56 16.25 22.69 24.12 33.88 9.54 13.6 18.6 27.3 26.33 42.02 2.06 3.92 4.02 7.91 5.88 11.99-2.5 5.37-5.04 10.36-7.61 14.98-31.41 56.29-68.52 59.63-91.79 64.37-27.45 5.59-64.64-11.12-89.67-18.87-3.97-1.23-8.33-1.57-12.66-1.42-9.93.34-19.74 3.27-24.5 4.06-8.08-23.27-16.05-49.67-17.7-81.41-1.99-38.49-15.25-72.55-26.32-103.76-9.29 2.12-18.57 4.24-27.84 6.37-9.85-11.51-24.72-20.91-29.82-36.19-.76-2.27-1.55-4.44-2.38-6.54-5.99-15.13-13.9-25.91-23.71-32.34h-.01a42.72 42.72 0 0 0-5.91-3.27c72.16-22.33 109.52-46.54 121.63-44.44-.18 19.64 4.18 34.48 16.97 40.34 1.23-5.43 2.46-10.87 3.7-16.29 3.53 6.64 7.27 12.5 10.8 19.15.71-7.27 1.43-14.53 2.14-21.8 4.31 4.07 8.61 8.13 12.91 12.2 12.33-21.14 19.12-43.86 13.36-52.25-.34-.49-.77-1.14-1.39-1.87 7.74 7.54 27.78 3.78 56.31-8.64 18.47-8.05 33.12 2.97 43.42 20.3Z" style="fill:#fff"/><path d="M206.25 84.75c3.68 0 6.67 2.98 6.67 6.67s-2.99 6.67-6.67 6.67-6.68-2.99-6.68-6.67 2.98-6.67 6.68-6.67Z" style="fill:#007afb"/><path d="M261.91 181.83c1.26 4.17 2.58 8.26 3.95 12.18-1.92 10.98-10.09 26.47-15.08 35.71-.71 7.27-1.43 14.53-2.14 21.8-3.53-6.65-7.27-12.51-10.8-19.15-5.74-2.06-10.17-5.03-13.43-8.4-1.38-5.65 1.23-13.94 6.6-14.42-2.62-4.55-5.14-9.14-7.55-13.77-6.46-12.32-12.17-24.88-17.21-37.66 7.22 7.12 15.7 12.29 24.59 12.29 7.76 0 16.55-1.6 25.2-11.33 1.58 7.41 3.6 15.2 5.87 22.73v.02ZM199.57 91.42c0 3.68 2.98 6.67 6.68 6.67s6.67-2.99 6.67-6.67-2.99-6.67-6.67-6.67-6.68 2.98-6.68 6.67Zm22.89-1.95c.83 12.45-8.4 20.95-16.94 21.33-9.89.45-21.33-9.56-18.15-24.94 3.2-5.93 13.4-8.54 22.16-7.34 1.84 7.03 7.32 6.94 10.93 4.7.44.43.84.89 1.19 1.38.44 1.67.71 3.32.81 4.87Z" style="fill:#e7f2fe"/><path d="M242.82.53c4.45.01 8.1 3.19 9.99 7.01.17.54.39 1.03.63 1.49v.02c4.12 7.55 18.2 4.92 25.84 4.95 9.26.04 10.11 9.46 6.56 13.56 2.9 1.34 6.15 5.98 3.97 15.2 10.61 6.84 1.41 14.97-1.53 15.87 1.48 2.33 3.06 4.94 4.07 8.49.94 3.29-3.18 5.35-7.1 10.61-3.92 1.89-7.47 3.98-11.36 5.88.09-6.35-.4-12.66-3.53-15.94-4.37 4.71-13.01 4.59-13.5 10.6-.11 1.27.15 2.8.89 4.7-3.47-.49-5.85-2.17-7.17-4.37-.44-.73-.76-1.5-.96-2.31-.39 1.03-.83 1.94-1.31 2.76-2.26 3.9-5.41 5.31-9.01 4.52-1.43-.31-2.93-.97-4.46-1.96-1.39.42-2.9.66-4.4.66a16.09 16.09 0 0 1-7.3-1.78c-.59.81-1.72 2.13-2.69 2.73-3.61 2.24-9.09 2.33-10.93-4.7-.04-.1-.07-.21-.09-.32-1.81-7.63-8.67-3.61-10.49-1.66-3.43 1.92-7.34-2.17-9.22-7.69h-.01c-.84-.23-2.23-.49-3.55.14 0 0-.71.34-1.27.96-.86 1.53-.17 8.05.42 14.85-4.18-2.34-9.01-5.34-13.34-7.84l-.22.39c-1.16-.69-2.34-1.03-3.5-1.06-1.63-.74-2.65-2.18-2.9-8.33-.14-3.44.97-5.57 2.33-7.34.14-.15.26-.3.35-.45.01-.02.02-.04.04-.05 2.68-3.9-6.73-5.71-6.55-14.21.09-4.06 3.94-7.06 8.02-10.28-1.28-12.27 4.2-17.43 12.59-17.66.2 0 .38-.02.55-.04.35-.04.69-.12 1-.23.32-.1.62-.24.9-.41.17-.1.33-.2.49-.32.32-.22.62-.49.89-.79.14-.14.27-.29.4-.45.21-.25.42-.53.62-.82.17-.24.33-.48.49-.74 1.13-1.76 2.1-3.83 3.41-5.45.81-.97 1.76-1.81 2.96-2.36 2.38-.97 4.99-1.03 7.35-.67 1.72-1.73 4.31-3.73 7.63-3.99 5.41-.42 7.24 5.3 13.86 5.41 9 .15 12.83-6.59 20.13-6.58Z" style="fill:#00a2f7"/><path d="M189.72 68.85h.01c1.88 5.52 5.79 9.61 9.22 7.69 1.82-1.95 8.68-5.97 10.49 1.66.02.11.05.22.09.32-8.76-1.2-18.96 1.41-22.16 7.34l-.53-.22c-.49-.26-.99-.54-1.52-.83-.59-6.81-1.28-13.33-.42-14.86a4.62 4.62 0 0 1 1.27-.96c1.32-.63 2.71-.37 3.55-.14Z" style="fill:#e7f2fe"/><path d="M184.64 102.05c-.16.16-.76.32-2.13.32h-.14c-1.87-.03-1.9-2.99-2.37-7.17-.35-3.13-.95-6.93-2.71-10.7-1.56-3.62-3.49-5.92-5.53-7.15l.22-.39c4.33 2.5 9.16 5.5 13.34 7.84.67 7.61 1.2 15.54-.68 17.25Z" style="fill:#00a2f7"/><path d="M171.76 77.35c2.04 1.23 3.97 3.53 5.53 7.15-.53-1.11-1.15-2.22-1.9-3.31-2.91-4.19-5.37-4.11-7.13-4.9 1.16.03 2.34.37 3.5 1.06Z" style="fill:#00a2f7"/><path d="M206.59 128.33c-.11 3.78.71 7.36 2.22 10.52 3.84 8.12 12.21 13.58 21.23 13.13 8.36-.42 15.75-5.84 19.15-13.48 1.37-3.04 2.1-6.42 2.02-9.99-15.14-8.13-30.01-8.06-44.62-.18Zm-29.3-43.83c1.76 3.77 2.36 7.57 2.71 10.7.47 4.18.5 7.14 2.37 7.17h.14c2.33.03 2.13-.32 2.13-.32 1.88-1.71 1.35-9.64.68-17.24.53.29 1.03.57 1.52.83l.53.22c-3.18 15.38 8.26 25.39 18.15 24.94 8.54-.38 17.77-8.88 16.94-21.33h.55c4.85-4.12 8.67-4.72 13.52-.06l.56.04c-.88 13.33 9.53 21.77 18.63 21.35 9.61-.43 20.1-11.15 16.13-26.2l.54-.26c.51-.23 1.01-.47 1.51-.73-.13 9.32-1.53 18.71 2.22 18.71 3.16 0 3.89-3.96 4.67-9.24.59-3.94 1.19-8.59 2.84-12.9.34-.58.7-1.12 1.06-1.64 1.19-.53 2.2-.86 3.32-1.03.51-.08 1.03-.08 1.55.03 14.95 3.3 9.2 38.55-2.01 43.81-4.24 2-9.42 1.8-13.08.24-5.75 18.68-12.05 30.3-18.43 37.49-8.65 9.73-17.44 11.33-25.2 11.33-8.89 0-17.37-5.17-24.59-12.29-12.09-11.89-20.67-29.19-21.9-36.77-14.89 3.61-25.58-14.94-26.27-29.75-.41-8.98 4.7-15.5 10.18-15.31 1.76.79 4.22.71 7.13 4.9.75 1.09 1.37 2.2 1.9 3.31ZM153.66 1100.89c14.56 4.3 25.67 13.11 31.86 28.33-1.29 2.74-1.83 3.89-2.97 6.34-.24.48-.48 1.01-.76 1.61-3.36 1.6-14.84 6.71-23.78 5.01-2.53-3.24-3.28-10.53-4.82-17.66-.27-2.25-.45-3.14-.74-5.3 2.06-4.56 3.81-9.39 5.2-12-.46-2.68-1.91-4.68-3.99-6.33Z" style="fill:#e7f2fe"/><path d="M127.55 294.91c5.1 15.28 19.97 24.68 29.82 36.19-5.38-2-12.29-5.97-18.87-8.43-14.92-5.59-25.48-14.77-32.21-27.27l-.05-.13c6.24-2.15 12.54-4.43 18.93-6.9.83 2.1 1.62 4.27 2.38 6.54Z" style="fill:#52d6ff"/><path d="M266.39 507.26c25.03 7.75 62.22 24.46 89.67 18.87 23.27-4.74 60.38-8.08 91.79-64.37 24.71 50.26-15.62 404.77-24.18 607.27-4.38 2.87-9.61 5.34-15.32 7.08-1.45.45-2.94.84-4.44 1.18-.19-1.03-.39-2.13-.58-3.27-.15-4.07-19.47-2.81-26.94-2.16-1.83.16-3.25 1.66-3.27 3.49v.54c-6.99-2.55-13.62-6.84-19.29-13.37 10.91-162.11 13.61-324.26 5.16-486.42h-13.4C316 784.78 271 973.22 187.92 1136.33c-.7-2.51-1.5-4.88-2.4-7.11-6.19-15.22-17.3-24.03-31.86-28.33h-.01c-2.39-1.91-5.65-3.37-9.25-4.88-7.05-2.94-15.04-2.51-15.9-.76.01.27-.38 1.92-.46 2.28-.69-.02-1.39-.02-2.09-.01 38.55-60.27 115.23-280.67 127.1-572.53.25-6.35.49-12.74.68-19.15 4.33-.15 8.69.19 12.66 1.42Z" style="fill:#02488b"/><path d="M104.29 81.16c5.75-6.94 10.98-4.83 9.82 4.47-1.09 8.73-4.36 20.34-11.79 35.72-3.4-4.57-8.01-7.82-13.41-9.66 6.83-14.77 12.28-26.82 15.38-30.53Z" style="fill:#e7f2fe"/><path d="M144.4 1096.01c3.6 1.51 6.86 2.97 9.25 4.87h.01c2.08 1.66 3.53 3.66 3.99 6.34-1.39 2.61-3.14 7.44-5.2 12 .29 2.16.47 3.05.74 5.3 1.54 7.13 2.29 14.42 4.82 17.66 8.94 1.7 20.42-3.41 23.78-5.01 8.45-.33 1.28 23.99-16.6 58.73-24.9 2.38-147.82-67.64-144.68-84.47 10.98-12.41 36.3-26.45 58.09 6.76 4.52 1.53 8.86 2.18 12.94 2.18.59 0 1.18-.01 1.75-.04s1.13-.07 1.68-.12c.03.01.08 0 .11-.01.48-.04.97-.1 1.44-.16.69-.09 1.38-.19 2.06-.32.46-.09.92-.18 1.38-.29.49-.11.97-.22 1.45-.35.56-.15 1.12-.31 1.67-.48.51-.16 1.02-.33 1.51-.52.35-.11.69-.24 1.02-.37.22-.07.42-.16.61-.23.43-.19.86-.36 1.27-.55.39-.17.77-.34 1.14-.52.38-.17.75-.36 1.12-.56.24-.11.48-.24.71-.37.77-.41 1.52-.83 2.24-1.28.25-.14.48-.29.72-.45.48-.3.94-.6 1.39-.92.23-.15.45-.31.67-.47.3-.21.58-.42.87-.64.37-.26.71-.53 1.06-.81l.03-.03c.35-.28.71-.57 1.04-.86.04-.03.08-.06.13-.1.29-.25.58-.5.86-.76 1.22-1.08 2.33-2.18 3.3-3.27.15-.16.3-.33.44-.49.3-.33.57-.66.83-.98.27-.32.52-.64.76-.96.13-.16.24-.32.35-.47.15-.2.3-.42.44-.61.19-.27.36-.52.51-.77.17-.25.32-.5.47-.74.29-.5.54-.95.75-1.39.36-.74.59-1.39.72-1.95.08-.36.47-2.01.46-2.28.86-1.75 8.85-2.18 15.9.76Z" style="fill:#fff"/><path d="M95.54 252.76c2.04.93 4.01 2.01 5.91 3.27-3.28.97-6.62 1.97-10 2.99-.31-2.17.57-3.94 4.09-6.26Z" style="fill:#52d6ff"/><path d="M83.04 75.28c1.92-2.7 4.92-3.69 6.89-2.5.31.18 1.82 1.03 1.98 5.37.33 9.38-5.91 25.27-8.58 31.71l-.07.45c1.96.3 3.85.76 5.65 1.38 5.4 1.84 10.01 5.09 13.41 9.66.82.93 2.82 1.4 3.24 0 5.79-14.61 12.58-24.9 15.3-28.29 6.65-8.3 13.58-5.12 11.14 4.28-2.42 9.35-5.39 15.31-12.03 27.86v.02c2.19 1.08 3.59 4.31 2.81 8.84-.67 3.91-1.63 10.06-5.58 16.37-8.84 14.1-27.82 17.2-29.74 19.23-6.21 6.52-8.33 31.18-36.11 101.4 12.89-3.83 26.8-8.05 40.1-12.04 3.38-1.02 6.72-2.02 10-2.99h.01c9.81 6.43 17.72 17.21 23.71 32.34-6.39 2.47-12.69 4.75-18.93 6.9-24.45 8.43-48.19 14.82-75.25 22.12C9.55 323.18-.45 310.92.61 294.44c1.05-16.06 28.37-68.84 59.34-135.29-4.48-7.08-6.4-13.36-7.32-17.54 0 0 2.29-26.78 30.41-66.33Z" style="fill:#e7f2fe"/><path d="M165.19 1195.9c-1.87 3.64-3.86 7.38-5.97 11.24-17.3 11.18-148.88-67.11-144.14-86.95.52-2.16 2.45-5.4 5.43-8.76-3.14 16.83 119.78 86.85 144.68 84.47Z" style="fill:#52d6ff"/><path d="M20.51 1111.43c-2.98 3.36-4.91 6.6-5.43 8.76-4.74 19.84 126.84 98.13 144.14 86.95 2.11-3.86 4.1-7.6 5.97-11.24" style="fill:none;stroke:#000;strokeLinecap:round;stroke-linejoin:round;strokeWidth:1.07px"/><path d="m350.84 1114.35-.01.01M408.4 1079.17c3.01.44 5.49.26 7.4 2.25M350.84 1114.35c6.93-.85 15.6.76 26.22 5.87M327.5 1143.89h.01c19.82 11.51 82.06 8.07 88.26-20.3" style="fill:none;stroke:#000;strokeLinecap:round;stroke-linejoin:round;strokeWidth:1.14px"/><path d="M403.91 1077.29c1.31 7.13 2.63 11.86 4.49 13.38.29.25.59.41.91.48 3.1-8.09 5.28-8.62 6.49-9.73.02 12.66 0 27.99-.01 42.17 0 5.61 0 11.04.01 16.06 0 .55-.15 1.11-.45 1.58-15.55 24.52-63.14 23.69-86.37 15.67-.61-.21-1.05-.75-1.14-1.38a51.69 51.69 0 0 1-.33-11.63c1.14-14.01 8.06-27.68 23.33-29.54 7.17-4.73 19.29-14.83 22.91-23.54.35-.85.89-1.62.76-2.53-.44-3.17-1.36-8.46-1.39-12.39" style="fill:none;stroke:#000;strokeLinecap:round;stroke-linejoin:round;strokeWidth:1.07px"/><path d="M153.66 1100.89c14.56 4.3 25.67 13.11 31.86 28.33.9 2.23 1.7 4.6 2.4 7.11C271 973.22 316 784.78 345.59 576.1h13.4c8.45 162.16 5.75 324.31-5.16 486.42 5.67 6.53 12.3 10.82 19.29 13.37v-.54c.02-1.83 1.44-3.33 3.27-3.49 7.47-.65 26.79-1.91 26.94 2.16.19 1.14.39 2.24.58 3.27 1.5-.34 2.99-.73 4.44-1.18 5.71-1.74 10.94-4.21 15.32-7.08 8.56-202.5 48.89-557.01 24.18-607.27-31.41 56.29-68.52 59.63-91.79 64.37-27.45 5.59-64.64-11.12-89.67-18.87-3.97-1.23-8.33-1.57-12.66-1.42-.19 6.41-.43 12.8-.68 19.15-11.87 291.86-88.55 512.26-127.1 572.53.7-.01 1.4-.01 2.09.01M187.92 1136.33c-1.83-.2-3.62-.46-5.37-.77" style="fill:none;stroke:#000;strokeLinecap:round;stroke-linejoin:round;strokeWidth:1.07px"/><path d="M127.32 1099.48c-.46-.64-.92-1.29-1.37-1.96M217.17 207.82v.5c.22 5.08 2.51 10.78 7.23 15.64h0c3.26 3.38 7.69 6.35 13.43 8.41-1.24 5.42-2.47 10.86-3.7 16.29M223.45 195.78c-4.06 1.99-6.3 6.46-6.28 11.72" style="fill:none;stroke:#000;strokeLinecap:round;stroke-linejoin:round;strokeWidth:1.07px"/><path d="M217.17 207.5v.32c-.01.17-.01.34 0 .5-.18 19.64 4.18 34.48 16.97 40.34M275.65 187.79c-.2-.23-.41-.47-.65-.69-2.05-2.07-5.76-4.45-13.09-5.29M237.84 232.37c3.53 6.64 7.27 12.5 10.8 19.15.71-7.27 1.43-14.53 2.14-21.8 4.31 4.07 8.61 8.13 12.91 12.2 12.33-21.14 19.12-43.86 13.36-52.25-.34-.49-.77-1.14-1.39-1.87M261.91 181.81h-.01" style="fill:none;stroke:#000;strokeLinecap:round;stroke-linejoin:round;strokeWidth:1.07px"/><path d="M265.86 194.01c1.04-5.99.23-10.63-3.95-12.18M250.78 229.72c4.99-9.24 13.16-24.73 15.08-35.7M224.41 223.96c-1.38-5.64 1.23-13.93 6.6-14.41M258.52 264.78c0 3.43-2.77 6.2-6.19 6.2s-6.2-2.77-6.2-6.2 2.78-6.2 6.2-6.2 6.19 2.77 6.19 6.2ZM275 187.1c.2.24.42.47.65.69 0 .01.01.01.01.01 7.74 7.54 27.78 3.78 56.31-8.64 18.47-8.05 33.12 2.97 43.42 20.3 13.36 22.46 33.89 42.97 43.43 56.86-4.91-.43-9.45 1.62-13.62 5.45-7.32 6.74-13.52 18.96-18.65 32.92-2.92 7.96-5.51 16.49-7.75 24.88M418.82 256.32c-1.32 6.7-2.16 11.14-3.94 15.4M229.23 509.9c5.51 7.26 11.26 12.68 23.82 15.09M101.46 256.03c9.81 6.43 17.72 17.21 23.71 32.34.83 2.1 1.62 4.27 2.38 6.54 5.1 15.28 19.97 24.68 29.82 36.19 9.27-2.13 18.55-4.25 27.84-6.37-1.47-9.08-2.93-18.16-4.38-27.24M95.54 252.76c2.04.93 4.01 2.01 5.91 3.27M217.18 208.32h0c-12.11-2.1-49.47 22.11-121.63 44.44M95.54 252.76c-3.52 2.32-4.4 4.09-4.09 6.26" style="fill:none;stroke:#000;strokeLinecap:round;stroke-linejoin:round;strokeWidth:1.07px"/><path d="M106.29 295.4c6.73 12.5 17.29 21.68 32.21 27.27 6.58 2.46 13.49 6.43 18.87 8.43M362.25 253.01c2.65 22.04 7.54 44.2 16.55 66.56.64 1.58 1.29 3.16 1.98 4.74 4.91 11.47 10.95 22.99 18.35 34.58 8.07 11.56 16.25 22.69 24.12 33.88 9.54 13.6 18.6 27.3 26.33 42.02 2.06 3.92 4.02 7.91 5.88 11.99-2.5 5.37-5.04 10.36-7.61 14.98M253.73 505.84c-9.93.34-19.74 3.27-24.5 4.06-8.08-23.27-16.05-49.67-17.7-81.41-1.99-38.49-15.25-72.55-26.32-103.76" style="fill:none;stroke:#000;strokeLinecap:round;stroke-linejoin:round;strokeWidth:1.07px"/><path d="M397.19 305.94c-4.46 9.44-12.05 17.49-16.41 18.37h-.02M177.29 84.5c-1.56-3.62-3.49-5.92-5.53-7.15-1.16-.69-2.34-1.03-3.5-1.06-5.48-.19-10.59 6.33-10.18 15.31.69 14.81 11.38 33.36 26.27 29.75 1.23 7.58 9.81 24.88 21.9 36.77 7.22 7.12 15.7 12.29 24.59 12.29 7.76 0 16.55-1.6 25.2-11.33 6.38-7.19 12.68-18.81 18.43-37.49 3.66 1.56 8.84 1.76 13.08-.24 11.21-5.26 16.96-40.51 2.01-43.81-.52-.11-1.04-.11-1.55-.03-1.12.17-2.13.5-3.32 1.03-.66.29-1.39.65-2.22 1.08" style="fill:none;stroke:#000;strokeLinecap:round;stroke-linejoin:round;strokeWidth:1.07px"/><path d="M206.25 158.12c5.04 12.78 10.75 25.34 17.21 37.66 2.41 4.63 4.93 9.22 7.55 13.77 3.64 6.32 7.49 12.56 11.55 18.74M256.04 159.08c1.58 7.41 3.6 15.2 5.87 22.73v.02c1.26 4.17 2.58 8.26 3.95 12.18h0M125.17 288.37c-6.39 2.47-12.69 4.75-18.93 6.9-24.45 8.43-48.19 14.82-75.25 22.12C9.55 323.18-.45 310.92.61 294.44c1.05-16.06 28.37-68.84 59.34-135.29-4.48-7.08-6.4-13.36-7.32-17.54 0 0 2.29-26.78 30.41-66.33 1.92-2.7 4.92-3.69 6.89-2.5.31.18 1.82 1.03 1.98 5.37.33 9.38-5.91 25.27-8.58 31.71" style="fill:none;stroke:#000;strokeLinecap:round;stroke-linejoin:round;strokeWidth:1.07px"/><path d="M74.33 110.02c3.1-.24 6.09-.14 8.93.29 1.96.3 3.85.76 5.65 1.38 5.4 1.84 10.01 5.09 13.41 9.66" style="fill:none;stroke:#000;strokeLinecap:round;stroke-linejoin:round;strokeWidth:1.07px"/><path d="M88.91 111.69c6.83-14.77 12.28-26.82 15.38-30.53 5.75-6.94 10.98-4.83 9.82 4.47-1.09 8.73-4.36 20.34-11.79 35.72M105.56 121.35c5.79-14.61 12.58-24.9 15.3-28.29 6.65-8.3 13.58-5.12 11.14 4.28-2.42 9.35-5.39 15.31-12.03 27.86M102.32 121.35c.82.93 2.82 1.4 3.24 0" style="fill:none;stroke:#000;strokeLinecap:round;stroke-linejoin:round;strokeWidth:1.07px"/><path d="M88.1 142.8c8.07-6.51 13.41-8.68 20.11-4.27 1.92-3.38 2.39-5.94 3.83-8.66 2.43-4.6 5.63-5.83 7.93-4.65 2.19 1.08 3.59 4.31 2.81 8.84-.67 3.91-1.63 10.06-5.58 16.37-8.84 14.1-27.82 17.2-29.74 19.23-6.21 6.52-8.33 31.18-36.11 101.4-2.18 5.49-4.5 11.25-7 17.31" style="fill:none;stroke:#000;strokeLinecap:round;stroke-linejoin:round;strokeWidth:1.07px"/><path d="M51.35 271.06c12.89-3.83 26.8-8.05 40.1-12.04 3.38-1.02 6.72-2.02 10-2.99h.01M386.55 294.69c3.43 3.64 7 7.41 10.64 11.25 12.5 13.17 25.88 27.16 37.64 39.64.93.98 1.27 2.39.9 3.69-4.78 16.69-7.69 26.81-12.48 43.5" style="fill:none;stroke:#000;strokeLinecap:round;stroke-linejoin:round;strokeWidth:1.07px"/><path d="m405.2 261.77 9.68 9.95c17.08 17.56 34.73 35.69 51.54 52.98a21.737 21.737 0 0 1 5.5 20.38c-8.35 33.51-14 56.2-22.34 89.71M165.19 1195.9c-24.9 2.38-147.82-67.64-144.68-84.47 10.98-12.41 36.3-26.45 58.09 6.76 4.52 1.53 8.86 2.18 12.94 2.18.59 0 1.18-.01 1.75-.04s1.13-.07 1.68-.12c.03.01.08 0 .11-.01.48-.04.97-.1 1.44-.16.69-.09 1.38-.19 2.06-.32.46-.09.92-.18 1.38-.29.49-.11.97-.22 1.45-.35.56-.15 1.12-.31 1.67-.48.51-.16 1.02-.33 1.51-.52.35-.11.69-.24 1.02-.37.22-.07.42-.16.61-.23.43-.19.86-.36 1.27-.55.39-.17.77-.34 1.14-.52.38-.17.75-.36 1.12-.56.24-.11.48-.24.71-.37.77-.41 1.52-.83 2.24-1.28.25-.14.48-.29.72-.45.48-.3.94-.6 1.39-.92.23-.15.45-.31.67-.47.3-.21.58-.42.87-.64.37-.26.71-.53 1.06-.81l.03-.03c.35-.28.71-.57 1.04-.86.04-.03.08-.06.13-.1.29-.25.58-.5.86-.76 1.22-1.08 2.33-2.18 3.3-3.27.15-.16.3-.33.44-.49.3-.33.57-.66.83-.98.27-.32.52-.64.76-.96.13-.16.24-.32.35-.47.15-.2.3-.42.44-.61.19-.27.36-.52.51-.77.17-.25.32-.5.47-.74.29-.5.54-.95.75-1.39.36-.74.59-1.39.72-1.95.08-.36.47-2.01.46-2.28.86-1.75 8.85-2.18 15.9.76 3.6 1.51 6.86 2.97 9.25 4.87h.01c2.08 1.66 3.53 3.66 3.99 6.34-1.39 2.61-3.14 7.44-5.2 12 .29 2.16.47 3.05.74 5.3 1.54 7.13 2.29 14.42 4.82 17.66 8.94 1.7 20.42-3.41 23.78-5.01 8.45-.33 1.28 23.99-16.6 58.73Z" style="fill:none;stroke:#000;strokeLinecap:round;stroke-linejoin:round;strokeWidth:1.07px"/><path d="M185.52 1129.22c-1.29 2.74-1.83 3.89-2.97 6.34-.24.48-.48 1.01-.76 1.61M408.39 1076.26c.01.87.01 1.86.01 2.91 0 3.77-.03 8.39 0 11.5M260.45 91.42c0 3.68-2.99 6.67-6.68 6.67s-6.67-2.99-6.67-6.67 2.99-6.67 6.67-6.67 6.68 2.98 6.68 6.67ZM212.92 91.42c0 3.68-2.99 6.67-6.67 6.67s-6.68-2.99-6.68-6.67 2.98-6.67 6.68-6.67 6.67 2.98 6.67 6.67ZM222 110.77c1.24-3.33 7.02-5.44 7.88-5.36.8.08 5.93 2.11 7.15 5.06M208.81 138.85a22.806 22.806 0 0 1-2.22-10.52c14.61-7.88 29.48-7.95 44.62.18.08 3.57-.65 6.95-2.02 9.99-3.4 7.64-10.79 13.06-19.15 13.48-9.02.45-17.39-5.01-21.23-13.13Z" style="fill:none;stroke:#000;strokeLinecap:round;stroke-linejoin:round;strokeWidth:1.07px"/><path d="M208.8 138.86h.01c12.37-12.02 25.75-13.06 40.38-.36M283.64 90.29c4.77-3.81 9.08-2.83 10.19 2.8M280.79 93.08c.95-1.12 1.91-2.05 2.84-2.79M180 95.2c-1.09-4.4-3.63-7.41-6.63-8.63-3.34-1.35-7.27-.47-10.4 3.21" style="fill:none;stroke:#000;strokeLinecap:round;stroke-linejoin:round;strokeWidth:1.07px"/><path d="M173.37 86.57c-3.6 1.98-4.46 5.41-4.38 9.84M283.63 90.29h.01c3.51 1.64 5.35 4.63 4.38 10.78M177.15 28.18c-1.86 2.88-4.78 5.22-7.6 7.45M184.64 102.05s.2.35-2.13.32M168.04 60.17c-.12.15-.23.3-.35.45M169.57 46.38c1.8 2.33 2.47 4.29 2.45 6.05-.04 3.61-2.12 5.43-3.94 7.69M207.07 7.43c-1.4-.64-3.51-1.4-5.87-1.74M193.85 6.36c-1.19.49-2.14 1.33-2.96 2.36M183.69 17.7c.31-.11.61-.25.9-.41M185.97 16.18c-.28.29-.58.55-.89.79M190.89 8.72c-1.37 1.65-2.33 3.7-3.41 5.45M253.45 9.05c1.32 3.63 1.04 7.52-1.56 9.7M253.44 9.03c-.18-.5-.39-1.01-.63-1.49M276.12 26.51c4.18 4.01 7.68 3.42 9.73 1.05M285.85 27.56h-.01" style="fill:none;stroke:#000;strokeLinecap:round;stroke-linejoin:round;strokeWidth:1.07px"/><path d="M209.53 78.52c-.04-.1-.07-.21-.09-.32-1.81-7.63-8.67-3.61-10.49-1.66-3.43 1.92-7.34-2.17-9.22-7.69h-.01c-.84-.23-2.23-.49-3.55.14 0 0-.71.34-1.27.96-.86 1.53-.17 8.05.42 14.85h0c.67 7.61 1.2 15.54-.68 17.25-.16.16-.76.32-2.13.32h-.14c-1.87-.03-1.9-2.99-2.37-7.17-.35-3.13-.95-6.93-2.71-10.7-.53-1.11-1.15-2.22-1.9-3.31-2.91-4.19-5.37-4.11-7.13-4.9-1.63-.74-2.65-2.18-2.9-8.33-.14-3.44.97-5.57 2.33-7.34.14-.15.26-.3.35-.45.01-.02.02-.04.04-.05 2.68-3.9-6.73-5.71-6.55-14.21.09-4.06 3.94-7.06 8.02-10.28-1.28-12.27 4.2-17.43 12.59-17.66.2 0 .38-.02.55-.04.35-.04.69-.12 1-.23.32-.1.62-.24.9-.41.17-.1.33-.2.49-.32.32-.22.62-.49.89-.79.14-.14.27-.29.4-.45.21-.25.42-.53.62-.82.17-.24.33-.48.49-.74 1.13-1.76 2.1-3.83 3.41-5.45.81-.97 1.76-1.81 2.96-2.36 2.38-.97 4.99-1.03 7.35-.67 1.72-1.73 4.31-3.73 7.63-3.99 5.41-.42 7.24 5.3 13.86 5.41 9 .15 12.83-6.59 20.13-6.58 4.45.01 8.1 3.19 9.99 7.01.17.54.39 1.03.63 1.49v.02c4.12 7.55 18.2 4.92 25.84 4.95 9.26.04 10.11 9.46 6.56 13.56 2.9 1.34 6.15 5.98 3.97 15.2 10.61 6.84 1.41 14.97-1.53 15.87 1.48 2.33 3.06 4.94 4.07 8.49.94 3.29-3.18 5.35-7.1 10.61-3.92 1.89-7.47 3.98-11.36 5.88.09-6.35-.4-12.66-3.53-15.94-4.37 4.71-13.01 4.59-13.5 10.6" style="fill:none;stroke:#000;strokeLinecap:round;stroke-linejoin:round;strokeWidth:1.07px"/><path d="M239.31 83.57c-1.43-.31-2.93-.97-4.46-1.96-1.39.42-2.9.66-4.4.66a16.09 16.09 0 0 1-7.3-1.78c-.59.81-1.72 2.13-2.69 2.73M250.59 78.6c-.44-.73-.76-1.5-.96-2.31-.39 1.03-.83 1.94-1.31 2.76M283.63 80.18c.34-.58.7-1.12 1.06-1.64.19-.27.38-.55.57-.81M288.29 58.63c-2.7-4.23-5.11-7.51-3.27-13.79M273.9 83.61c-.13 9.32-1.53 18.71 2.22 18.71 3.16 0 3.89-3.96 4.67-9.24.59-3.94 1.19-8.59 2.84-12.9M189.72 68.85c-2.01-5.93-1.71-13.52 4.04-17.1" style="fill:none;stroke:#000;strokeLinecap:round;stroke-linejoin:round;strokeWidth:1.07px"/><path d="M232.48 69.91c-3.31 6.75 7.39 5.09 3.95-.11 8.61 4.25 4.63 9.89-1.58 11.81M223.15 80.49c-8.11-4.18-12.69-15.45-1.49-31.14M249.63 76.29c-1.35-5.37 2.26-12.15 10.6-13.46M272.16 55.4c1.55 6.27.43 9.89-1.79 12.27" style="fill:none;stroke:#000;strokeLinecap:round;stroke-linejoin:round;strokeWidth:1.07px"/><path d="M222.46 89.47c.83 12.45-8.4 20.95-16.94 21.33-9.89.45-21.33-9.56-18.15-24.94 3.2-5.93 13.4-8.54 22.16-7.34 1.84 7.03 7.32 6.94 10.93 4.7.44.43.84.89 1.19 1.38.44 1.67.71 3.32.81 4.87ZM271.85 84.6c3.97 15.05-6.52 25.77-16.13 26.2-9.1.42-19.51-8.02-18.63-21.35.07-1.16.23-2.36.49-3.59.45-.84 1.02-1.59 1.73-2.29 3.6.79 6.75-.62 9.01-4.52.75-.19 1.5-.34 2.27-.45 1.32 2.2 3.7 3.88 7.17 4.37-.74-1.9-1-3.43-.89-4.7 6.17.26 12.08 2.32 14.98 6.33Z" style="fill:none;stroke:#000;strokeLinecap:round;stroke-linejoin:round;strokeWidth:1.14px"/><path d="M223.01 89.47c4.85-4.12 8.67-4.72 13.52-.06M286.22 77.28c-.33.15-.65.3-.96.45M273.9 83.61c-.5.26-1 .5-1.51.73M168.81 75.19c1.01.55 2.07 1.14 3.17 1.77 4.33 2.5 9.16 5.5 13.34 7.84M186.84 85.64c-.49-.26-.99-.54-1.52-.83" style="fill:none;stroke:#000;strokeLinecap:round;stroke-linejoin:round;strokeWidth:2.14px"/><circle cx="209.53" cy="87.81" r="2.24" style="fill:#fff"/><circle cx="256.87" cy="87.81" r="2.24" style="fill:#fff"/></g><g style="mix-blend-mode:multiply;opacity:.7" data-name="shadow"><path d="M466.42 324.7a21.737 21.737 0 0 1 5.5 20.38c-8.35 33.51-14 56.2-22.34 89.71-4.84-9.21-10.19-18.02-15.87-26.66-.94-11.74 5.31-23.05 8.6-34.53 7.93-27.62-2.83-59.62-25.84-76.83-3.28-2.45-6.88-4.67-10.91-5.39-4.03-.71-8.58.33-11.18 3.49l-.51-.26c1.7-3.3 3.58-6.51 5.7-9.57 3.84-5.55 8.59-10.63 14.01-14.65.43.44.87.88 1.3 1.33 17.08 17.56 34.73 35.69 51.54 52.98Z" style="fill:#e7f2fe"/><path d="M378.8 319.57c.64 1.58 1.29 3.16 1.98 4.74 4.91 11.47 10.95 22.99 18.35 34.58 8.07 11.56 16.25 22.69 24.12 33.88 3.57 5.09 7.07 10.2 10.46 15.36 5.68 8.64 11.03 17.45 15.87 26.66 2.06 3.92 4.02 7.91 5.88 11.99-2.5 5.37-5.04 10.36-7.61 14.98-31.41 56.29-68.52 59.63-91.79 64.37-13.02 2.65-28.23.29-43.29-3.77 20.41-.84 41.32-4.05 56.13-17.59 12.61-11.52 18.59-29.15 18.27-46.23s-6.41-33.64-14.86-48.48c-6.6-11.61-14.69-22.43-19.99-34.69-7.84-18.17-9.1-38.67-6.42-58.27 1.77-12.89 5.18-25.55 6.03-38.53a98.79 98.79 0 0 0-3.21-32.2c-3.84-14.19-12.11-28.57-25.95-33.52-15.89-5.68-34.49 3.81-42.67 18.56-2.79 5.05-4.71 10.75-8.83 14.79-2.92 2.86-7.52 4.45-11.3 3.58-2.4-.55-4.96-.25-6.92 1.25-1.19.91-2.6 1.56-4.09 1.92l-.32-1.43c.71-7.27 1.43-14.53 2.14-21.8 4.31 4.07 8.61 8.13 12.91 12.2 12.33-21.14 19.12-43.86 13.36-52.25-.34-.49-.77-1.14-1.39-1.87 7.74 7.54 27.78 3.78 56.31-8.64 18.47-8.05 33.12 2.97 43.42 20.3 13.36 22.46 33.89 42.97 43.43 56.86-4.91-.43-9.45 1.62-13.62 5.45-7.32 6.74-13.52 18.96-18.65 32.92-2.92 7.96-5.51 16.49-7.75 24.88Z" style="fill:#b7d9ff"/><path d="M312.77 522.36c15.06 4.06 30.27 6.42 43.29 3.77 23.27-4.74 60.38-8.08 91.79-64.37 24.67 50.18-15.49 403.67-24.14 606.32-6.82-6.66-12.3-14.88-16.11-23.6-8-18.33-9.65-38.74-10.14-58.73-2.85-116.94 30.42-233.35 19.69-349.83-.85-9.18-2.01-18.51-5.84-26.9-3.84-8.39-10.76-15.82-19.69-18.11-11.59-2.98-24.28 3.68-30.42 13.95l-.84.04c-.41-9.6-.87-19.2-1.37-28.8h-13.4c-27.9 196.77-69.5 375.54-143.82 532.05-7.8-7.33-13.36-17.73-15-28.33-3.27-21.08 4.56-42.14 12.34-62.01 26.54-67.75 54.21-135.23 74.21-205.19 20.01-69.96 32.27-142.89 27.23-215.48-.98-14.08-3.19-29.35-13.37-39.12-10.45-10.03-28.28-13.3-34.44-25.67.11-2.45.21-4.9.31-7.36a2298.174 2298.174 0 0 0 .68-19.15c4.33-.15 8.69.19 12.66 1.42 13.16 4.07 29.68 10.62 46.38 15.1Z" style="fill:#02488b"/><path d="M405.2 261.77c4.17-3.83 8.71-5.88 13.62-5.45-1.01 5.15-1.75 8.97-2.84 12.39a47.2 47.2 0 0 0-2.4 1.68l-8.38-8.62Z" style="fill:#52d6ff"/><path d="M415.8 1084.1c.02 12.11 0 26.3-.01 39.49h-.02c-4.25 19.46-34.89 27.19-60.1 26.4 5.49-.86 10.76-2.84 15.25-6.08 11.3-8.16 15.89-22.46 21.8-35.09 3.43-7.31 8.26-14.78 14.43-19.8.38.73.8 1.28 1.25 1.65.29.25.59.41.91.48.88-2.31 1.69-4 2.43-5.26 1.3-.72 2.66-1.32 4.06-1.79Z" style="fill:#b7d9ff"/><path d="M415.8 1081.42v2.68c-1.4.47-2.76 1.07-4.06 1.79 1.83-3.18 3.19-3.68 4.06-4.47Z" style="fill:#b7d9ff"/><path d="M415.79 1123.59c0 5.61 0 11.04.01 16.06 0 .55-.15 1.11-.45 1.58-15.55 24.52-63.14 23.69-86.37 15.67-.61-.21-1.05-.75-1.14-1.38-.46-3.2-.62-6.57-.44-9.95 5.42 2.38 11.11 4.07 16.99 4.69 3.74.4 7.56.32 11.28-.27 25.21.79 55.85-6.94 60.1-26.4h.02ZM413.58 270.39a47.2 47.2 0 0 1 2.4-1.68c-.33 1.03-.69 2.03-1.1 3.01-.43-.45-.87-.89-1.3-1.33Z" style="fill:#52d6ff"/><path d="M415.8 1081.42c-.87.79-2.23 1.29-4.06 4.47-1.16.64-2.27 1.36-3.35 2.16-.01-2.78.01-6.07.01-8.88 3.01.44 5.49.26 7.4 2.25Z" style="fill:#b7d9ff"/><path d="m405.2 261.77 8.38 8.62c-5.42 4.02-10.17 9.1-14.01 14.65-2.12 3.06-4 6.27-5.7 9.57a91.31 91.31 0 0 0-2.5 5.18c-1.64-1.73-3.24-3.43-4.82-5.1 5.13-13.96 11.33-26.18 18.65-32.92Z" style="fill:#e7f2fe"/><path d="M411.74 1085.89c-.74 1.26-1.55 2.95-2.43 5.26-.32-.07-.62-.23-.91-.48-.01-.79-.01-1.67-.01-2.62 1.08-.8 2.19-1.52 3.35-2.16Z" style="fill:#b7d9ff"/><path d="M408.39 1076.26c.01.87.01 1.86.01 2.91 0 2.81-.02 6.1-.01 8.88-.42.31-.83.63-1.24.97-1.25-2.29-2.25-6.32-3.24-11.73 1.5-.34 2.99-.73 4.44-1.18l.04.15Z" style="fill:#e7f2fe"/><path d="M408.39 1088.05c0 .95 0 1.83.01 2.62-.45-.37-.87-.92-1.25-1.65.41-.34.82-.66 1.24-.97Z" style="fill:#e7f2fe"/><path d="M391.37 299.79c-3.46 7.68-6.13 15.75-8.68 23.79-.68.37-1.33.61-1.91.73-.69-1.58-1.34-3.16-1.98-4.74 2.24-8.39 4.83-16.92 7.75-24.88 1.58 1.67 3.18 3.37 4.82 5.1Z" style="fill:#52d6ff"/><path d="M357.15 1114.25c-2.25-.18-4.35-.14-6.31.1 1.29-.85 2.74-1.88 4.28-3.04.81.88 1.49 1.88 2.03 2.94Z" style="fill:#fff"/><path d="M283.64 90.29c.36-.29.72-.55 1.07-.77a5.27 5.27 0 0 1 2.04-.37c4.02.09 6.04 1.9 6.97 3.99.66 1.51.77 3.16.64 4.41-.31 2.99-1.9 5.69-3.62 8.15-1.83 2.6-4.27 5.29-7.44 5.36-.93.02-1.9-.22-2.55-.86-.5-.49-.78-1.16-.99-1.82-.84-2.69-.85-5.55-.57-8.35.74-1.59 1.15-3.9 1.54-6.58.12-.26.25-.51.4-.76.84-.95 1.68-1.75 2.5-2.4h.01Z" style="fill:#e7f2fe"/><path d="m293.83 93.09-.11.05c-.93-2.09-2.95-3.9-6.97-3.99-.7-.02-1.39.12-2.04.37 4.33-2.87 8.09-1.64 9.12 3.57Z" style="fill:#e7f2fe"/><path d="M253.83 15.81c.65-2.02.46-4.44-.38-6.76 4.12 7.55 18.2 4.92 25.84 4.95 9.26.04 10.11 9.46 6.56 13.56 2.9 1.34 6.15 5.98 3.97 15.2 10.61 6.84 1.41 14.97-1.53 15.87 1.48 2.33 3.06 4.94 4.07 8.49.94 3.29-3.18 5.35-7.1 10.61-3.92 1.89-7.47 3.98-11.36 5.88.09-6.35-.4-12.66-3.53-15.94-4.37 4.71-13.01 4.59-13.5 10.6-.11 1.27.15 2.8.89 4.7-3.47-.49-5.85-2.17-7.17-4.37-.44-.73-.76-1.5-.96-2.31-.39 1.03-.83 1.94-1.31 2.76-2.26 3.9-5.41 5.31-9.01 4.52-1.21-.26-2.47-.78-3.76-1.52-.03-.22-.06-.43-.1-.65 1.58-.55 2.99-1.36 4.04-2.32l.26.28c2.37-2.22 4.37-4.85 5.53-7.88 1.41-3.65 1.46-7.93-.39-11.38-.95-1.77-2.34-3.25-3.54-4.85-3.72-4.99-5.37-12.41-1.49-17.28 2.77-3.48 7.75-4.91 9.88-8.81 1.72-3.16 1.36-7.49 2.49-10.72.75-.73 1.28-1.63 1.6-2.63Z" style="fill:#00a2f7"/><path d="M284.69 78.54c-.36.52-.72 1.06-1.06 1.64-1.65 4.31-2.25 8.96-2.84 12.9l-.06.37c-.82 1.7-1.17 3.6-1.41 5.48-.04.36-.09.73-.13 1.1-.67 1.44-1.61 2.29-3.07 2.29-3.75 0-2.35-9.39-2.22-18.71 3.89-1.9 7.44-3.99 11.36-5.88-.19.26-.38.54-.57.81Z" style="fill:#00a2f7"/><path d="M284.71 89.52c-.35.22-.71.48-1.07.77h-.01c-.82.65-1.66 1.45-2.5 2.4.03-.07.07-.13.11-.19.82-1.31 2.05-2.43 3.47-2.98ZM280.79 93.08c.11-.13.23-.26.34-.39-.15.25-.28.5-.4.76l.06-.37Z" style="fill:#e7f2fe"/><path d="M280.73 93.45c-.39 2.68-.8 4.99-1.54 6.58.04-.37.09-.74.13-1.1.24-1.88.59-3.78 1.41-5.48Z" style="fill:#00a2f7"/><path d="M277.05 189.67c5.76 8.39-1.03 31.11-13.36 52.25-4.3-4.07-8.6-8.13-12.91-12.2 4.99-9.24 13.16-24.73 15.08-35.7 1.04-6 .23-10.64-3.95-12.19v-.02c7.33.84 11.04 3.22 13.09 5.29.2.24.42.47.65.69 0 .01.01.01.01.01.62.73 1.05 1.38 1.39 1.87Z" style="fill:#b7d9ff"/><path d="M274.48 121.59h-.01c-5.75 18.68-12.05 30.3-18.43 37.49-2.24 2.52-4.5 4.5-6.74 6.04l-.2-.29c-1.88-8.11 3.32-15.92 6.93-23.42 4.11-8.54 6.57-18.29 13.37-24.89.79-.77 1.89-1.53 2.89-1.08.53.23.87.75 1.12 1.26.77 1.53 1.06 3.2 1.07 4.89ZM263.14 79.22c-1.98-.55-4.11-.86-6.27-.95.49-6.01 9.13-5.89 13.5-10.6 3.13 3.28 3.62 9.59 3.53 15.94-.5.26-1 .5-1.51.73l-.54.26c-1.88-2.61-5.04-4.39-8.71-5.38Z" style="fill:#e7f2fe"/><path d="M261.91 181.83c4.18 1.55 4.99 6.19 3.95 12.18-1.37-3.92-2.69-8.01-3.95-12.18Z" style="fill:#52d6ff"/><path d="M224.09 169.44c2.22.63 4.47.97 6.75.97 5.75 0 12.05-.88 18.46-5.29 2.24-1.54 4.5-3.52 6.74-6.04 1.58 7.41 3.6 15.2 5.87 22.73v.02c1.26 4.17 2.58 8.26 3.95 12.18-1.92 10.98-10.09 26.47-15.08 35.71-.71 7.27-1.43 14.53-2.14 21.8-3.53-6.65-7.27-12.51-10.8-19.15-5.74-2.06-10.17-5.03-13.43-8.4-1.38-5.65 1.23-13.94 6.6-14.42 3.64 6.32 7.49 12.56 11.55 18.74l.09.15c2.57-1.41 2.91-5.22 2.66-8.27a95.75 95.75 0 0 0-5.48-24.79c-2.17-5.94-5.33-12.08-10.99-14.9-4.09-2.04-8.94-2.03-13.12-3.88-.75-.33-1.47-.73-2.16-1.17-2.58-5.72-5.02-11.49-7.31-17.31 5.37 5.29 11.43 9.51 17.84 11.32Z" style="fill:#e7f2fe"/><path d="M261.83 265.27c.3 1.56-.21 3.12-.98 4.52-.61 1.13-1.1 1.69-2.15 2.73-.8.52-1.61 1.05-2.52 1.34-2.7.87-5.92-.9-6.74-3.6.86.46 1.84.72 2.89.72 3.42 0 6.19-2.77 6.19-6.2s-2.77-6.2-6.19-6.2v-.08c2.53-.11 5.24 0 7.1 1.65 1.43 1.28 2.04 3.24 2.4 5.12Z" style="fill:#b7d9ff"/><path d="M259.06 87.36c.12.15.23.3.33.46-.09.02-.19.05-.28.07v-.08c0-.15-.02-.31-.05-.45Z" style="fill:#007afb"/><path d="M259.11 87.81v.08c-1.42.36-2.93.46-4.4.49-.05-.18-.08-.37-.08-.57 0-1.24 1-2.24 2.24-2.24h.1c.82.44 1.54 1.05 2.09 1.79.03.14.05.3.05.45Z" style="fill:#fff"/><path d="M259.06 87.36a6.331 6.331 0 0 0-2.09-1.79c1.04.05 1.89.8 2.09 1.79ZM254.71 88.38c1.47-.03 2.98-.13 4.4-.49a2.24 2.24 0 0 1-2.24 2.16c-1.04 0-1.92-.71-2.16-1.67Z" style="fill:#fff"/><path d="M249.44 270.26a6.176 6.176 0 0 1-3.31-5.48c0-3.43 2.78-6.2 6.2-6.2s6.19 2.77 6.19 6.2-2.77 6.2-6.19 6.2c-1.05 0-2.03-.26-2.89-.72Z" style="fill:#52d6ff"/><path d="M256.97 85.57h-.1c-1.24 0-2.24 1-2.24 2.24 0 .2.03.39.08.57h-.11c-1.89.03-3.81-.04-5.58-.7-.2-.07-.39-.16-.58-.25a6.595 6.595 0 0 1 5.33-2.68c1.16 0 2.25.3 3.2.82Z" style="fill:#007afb"/><path d="M253.73 505.84c-.11 3.57-.23 7.14-.36 10.7-7.62-1.41-15.1-3.45-22.37-6.11l-.17-.84c5.15-1.05 13.98-3.44 22.9-3.75Z" style="fill:#52d6ff"/><path d="M253.83 15.81c-.32 1-.85 1.9-1.6 2.63.35-1.01.85-1.91 1.6-2.63Z" style="fill:#00a2f7"/><path d="m248.64 251.52.32 1.43c-2.17.54-4.51.49-6.59-.21-2.27-.76-4.71-.26-6.69 1.08-1.82 1.23-4.42 1.63-6.46.72-3.72-1.67-5.66-5.75-7.03-9.6a91.01 91.01 0 0 1-5.2-33.52h.19c.31 18.1 4.86 31.7 16.97 37.24 1.23-5.43 2.46-10.87 3.7-16.29 3.53 6.64 7.27 12.5 10.8 19.15Z" style="fill:#b7d9ff"/><path d="M228.14 105.87c.02-2.73.49-5.46.39-8.19-.1-2.58-.7-5.11-.84-7.69-.06-1.16-.02-2.36.2-3.5 1.99-.64 3.92-.42 5.98.83-.08.87-.23 1.75-.26 2.63-.11 3.23 1.44 6.28 3.27 8.95 1.83 2.66 3.99 5.12 5.39 8.03 1.4 2.92 1.94 6.48.42 9.33-.33.62-.8 1.23-1.48 1.43-.49.15-1.02.06-1.53-.03-3.37-.62-7.01-1.38-9.24-3.97-1.8-2.09-2.32-5-2.3-7.76v-.06ZM235.55 82.05c1.29.74 2.55 1.26 3.76 1.52-.71.7-1.28 1.45-1.73 2.29a24.5 24.5 0 0 0-.49 3.59l-.56-.04c-.92-.88-1.8-1.58-2.66-2.09.08-.73.12-1.45.01-2.17-.19-1.31-1.12-2.66-3.01-2.66v-.23c1.36-.04 2.72-.27 3.98-.65.23.15.47.3.7.44Z" style="fill:#e7f2fe"/><path d="M237.84 232.37c-1.24 5.42-2.47 10.86-3.7 16.29-12.11-5.54-16.66-19.14-16.97-37.24-.01-1.01-.01-2.05 0-3.1.22 5.08 2.51 10.78 7.23 15.64 3.26 3.38 7.69 6.35 13.43 8.41Z" style="fill:#fff"/><path d="M235.45 81.4c.04.22.07.43.1.65-.23-.14-.47-.29-.7-.44.2-.06.4-.13.6-.21Z" style="fill:#00a2f7"/><path d="M233.88 85.15c.11.72.07 1.44-.01 2.17-2.06-1.25-3.99-1.47-5.98-.84.27-1.39.79-2.71 1.69-3.81.47-.13.9-.18 1.29-.18 1.89 0 2.82 1.35 3.01 2.66Z" style="fill:#e7f2fe"/><path d="M230.87 82.26v.23c-.39 0-.82.05-1.29.18-.9 1.1-1.42 2.42-1.69 3.81-1.56.5-3.15 1.52-4.88 2.99h-.55c-.1-1.55-.37-3.2-.81-4.87-.35-.49-.75-.95-1.19-1.38.97-.6 2.1-1.92 2.69-2.73a16.09 16.09 0 0 0 7.3 1.78c.14 0 .28 0 .42-.01Z" style="fill:#e7f2fe"/><path d="M227.11 202.6c1.27 2.32 2.57 4.64 3.9 6.95-5.37.48-7.98 8.77-6.6 14.41-4.72-4.86-7.01-10.56-7.23-15.64V207.5c-.02-4.94 1.96-9.19 5.56-11.33l3.76 7.05c.25-.18.45-.39.62-.62Z" style="fill:#52d6ff"/><path d="M227.11 202.6c-.17.23-.37.44-.62.62l-3.76-7.05c.24-.14.47-.27.72-.39h.01c1.19 2.28 2.4 4.55 3.65 6.82Z" style="fill:#52d6ff"/><path d="M218.09 55.19c.54-1.3 1.25-2.52 2.09-3.65-.8 1.25-1.49 2.47-2.09 3.65Z" style="fill:#00a2f7"/><path d="M214.91 84.47c.57.6.96 1.32.84 2.13-.18 1.22-1.44 1.94-2.58 2.41-.2.08-.41.16-.62.23-.19-.57-.47-1.1-.8-1.59a2.222 2.222 0 0 0-2.22-2.08h-.08c-.95-.52-2.04-.82-3.2-.82a6.66 6.66 0 0 0-6.63 5.89c-.76-.19-1.47-.51-2.05-1.04-1.8-1.61-1.62-4.71-.05-6.55 1.57-1.83 2.39-2.36 4.87-2.76 2.4-.25 5.5-.21 7.68.44 1.3.39.43.86 1.64 1.46 1.05 1.46 1.8 2.05 3.21 2.29Z" style="fill:#e7f2fe"/><path d="M213.59 83.41c.46.3.94.65 1.32 1.06-1.41-.24-2.76-.99-3.81-2.45.86.41 1.69.88 2.49 1.39Z" style="fill:#00a2f7"/><path d="M211.75 87.65c.33.49.61 1.02.8 1.59a26.942 26.942 0 0 1-10.63 1.7c-.77-.03-1.56-.1-2.3-.3a6.66 6.66 0 0 1 6.63-5.89c1.16 0 2.25.3 3.2.82-1.2.04-2.16 1.03-2.16 2.24s1 2.24 2.24 2.24 2.23-1 2.23-2.24c0-.05 0-.11-.01-.16Z" style="fill:#007afb"/><path d="M211.75 87.65s.01.11.01.16a2.234 2.234 0 1 1-4.47 0c0-1.24.96-2.2 2.16-2.24.92.5 1.71 1.21 2.3 2.08Z" style="fill:#fff"/><path d="M211.75 87.65a6.559 6.559 0 0 0-2.3-2.08h.08c1.18 0 2.14.91 2.22 2.08Z" style="fill:#fff"/><path d="M209.44 78.2c.02.11.05.22.09.32-8.76-1.2-18.96 1.41-22.16 7.34l-.53-.22c-.49-.26-.99-.54-1.52-.83-.59-6.81-1.28-13.33-.42-14.86a4.62 4.62 0 0 1 1.27-.96c1.32-.63 2.71-.37 3.55-.14h.01c1.88 5.52 5.79 9.61 9.22 7.69 1.82-1.95 8.68-5.97 10.49 1.66Z" style="fill:#e7f2fe"/><path d="M185.21 324.73c-9.29 2.12-18.57 4.24-27.84 6.37-9.85-11.51-24.72-20.91-29.82-36.19-.76-2.27-1.55-4.44-2.38-6.54-2.98-7.53-6.44-13.98-10.36-19.35l.07-.05c6.8 4.4 10.57 12.07 15.31 18.63 4.75 6.56 12.07 12.67 20.05 11.32 7.94-1.35 13.12-9.53 20.87-11.75 6.49-1.86 13.65 1 18.44 5.75 4.8 4.76 7.6 11.14 9.78 17.53 9.11 26.67 8.94 54.75 7.42 83.12-5.3-24.63-13.94-47.41-21.54-68.84Z" style="fill:#b7d9ff"/><path d="m186.18 127.59 9.21 17.28c-4.13-6.14-7.31-12.34-9.21-17.28Z" style="fill:#e7f2fe"/><path d="M184.44 1138.46c3.57 5.44-3.89 27.6-19.25 57.44-14.89 1.42-64.81-23.03-101.89-46.53 19.39 5.96 40.42 2.88 60.25-1.55 11.11-2.48 22.25-5.38 33.46-7.31.3.64.63 1.2 1 1.67 7.3 1.39 16.29-1.76 21.17-3.83 1.91-1.05 3.13-2.55 5.26.11Z" style="fill:#b7d9ff"/><path d="M185.52 1129.22c-1.29 2.74-1.83 3.89-2.97 6.34-.24.48-.48 1.01-.76 1.61-.62.29-1.51.71-2.61 1.18-7.43.04-14.82.89-22.17 2.16-1.77-3.7-2.5-9.9-3.82-15.99-.27-2.25-.45-3.14-.74-5.3 2.06-4.56 3.81-9.39 5.2-12-.46-2.68-1.91-4.68-3.99-6.33 14.56 4.3 25.67 13.11 31.86 28.33ZM171.61 86.37c7.33 1.86 8.08 7.54 8.65 11.26.22 2.1.46 3.66 1.16 4.35.05.31.08.63.1.95.2 2.62-.28 5.56-2.31 7.22-1.97 1.61-4.94 1.53-7.21.37-2.26-1.17-3.92-3.24-5.27-5.39-2.5-3.98-4.2-8.67-3.6-13.33.1-.73.25-1.48.65-2.1 1.08-1.68 2.72-3.61 4.71-3.66.63.25 2.54.05 3.12.33Z" style="fill:#e7f2fe"/><path d="M181.42 101.98c-.7-.69-.94-2.25-1.16-4.35.6 1.4.98 2.86 1.16 4.35Z" style="fill:#00a2f7"/><path d="M180 95.2c.1.87.18 1.68.26 2.43-1.49-3.54-4.4-6.73-9.28-9.08.6-.77 1.39-1.43 2.39-1.98 3 1.22 5.54 4.23 6.63 8.63Z" style="fill:#e7f2fe"/><path d="M177.29 84.5c1.76 3.77 2.36 7.57 2.71 10.7-1.09-4.4-3.63-7.41-6.63-8.63-3.19-1.29-6.92-.54-9.98 2.74l-1.16-1c1.88-2.27 3.39-4.84 4.45-7.6.25-.63.44-1.41.01-1.93-.28-.34-.74-.45-1.17-.54-.65-.15-1.29-.29-2-.38 1.35-.99 2.85-1.54 4.39-1.57.28.11.57.17.88.21h.02c1.71.61 3.96.92 6.58 4.69.75 1.09 1.38 2.2 1.9 3.31Z" style="fill:#e7f2fe"/><path d="M177.29 84.5c-.52-1.11-1.15-2.22-1.9-3.31-2.62-3.77-4.87-4.08-6.58-4.69.29.03.59.02.9 0 .69.16 1.37.45 2.05.85 2.04 1.23 3.97 3.53 5.53 7.15Z" style="fill:#00a2f7"/><path d="m171.98 76.96-.22.39c-.68-.4-1.36-.69-2.05-.85.35-.04.71-.11 1.06-.23.4.23.8.46 1.21.69Z" style="fill:#00a2f7"/><path d="M169.71 76.5c-.31.02-.61.03-.9 0h-.02c-.18-.07-.36-.13-.53-.21.48.01.97.08 1.45.21Z" style="fill:#00a2f7"/><path d="M168.26 76.29c.17.08.35.14.53.21-.31-.04-.6-.1-.88-.21.11-.01.23 0 .35 0Z" style="fill:#e7f2fe"/><path d="M63.3 1149.37c37.08 23.5 87 47.95 101.89 46.53-1.87 3.64-3.86 7.38-5.97 11.24-17.3 11.18-148.88-67.11-144.14-86.95.52-2.16 2.45-5.4 5.43-8.76-5.8 5.7-.48 7.85 4.97 13.04 11.71 10.62 23.05 20.1 36.66 24.54.39.13.77.25 1.16.36Z" style="fill:#52d6ff"/><path d="M179.18 1138.35c-4.88 2.07-13.87 5.22-21.17 3.83-.37-.47-.7-1.03-1-1.67 7.35-1.27 14.74-2.12 22.17-2.16Z" style="fill:#e7f2fe"/><path d="M157.37 331.1c-5.38-2-12.29-5.97-18.87-8.43-2.31-.87-4.52-1.82-6.63-2.86-.2-.29-.39-.58-.58-.87-5.61-8.68-9.88-18.21-15.95-26.58l-.1-.27a470.8 470.8 0 0 0 9.93-3.72c.83 2.1 1.62 4.27 2.38 6.54 5.1 15.28 19.97 24.68 29.82 36.19Z" style="fill:#52d6ff"/><path d="M132.13 91.25c.51 1.52.52 3.59-.13 6.09-2.42 9.35-5.39 15.31-12.03 27.86v.02c-1.13-.58-2.48-.58-3.84.13-.69-6.49 1.55-12.98 4.09-19.03 1.53-3.64 3.21-7.27 5.75-10.3 1.68-2 3.79-3.72 6.16-4.77ZM46.35 283.5l.63.26c2.33-2.97 6.51-3.85 10.28-3.57s7.41 1.49 11.18 1.83c5.84.52 11.66-1.06 17.29-2.7 4.23-1.24 8.61-2.6 11.81-5.62 3.21-3.02 4.82-8.21 2.47-11.93-1.15-1.81-2.98-2.96-4.98-3.82 2.16-.66 4.3-1.29 6.42-1.92h.01c4.93 3.23 9.38 7.56 13.35 12.99 3.92 5.37 7.38 11.82 10.36 19.35a470.8 470.8 0 0 1-9.93 3.72c-3.02 1.09-6.02 2.15-9 3.18-24.17 8.33-47.65 14.68-74.34 21.87-2.13-3.14-3.36-6.94-3.8-10.74-.63-5.48.24-11.02 1.34-16.42 3.06-14.92 7.95-29.39 13.19-43.69a933.366 933.366 0 0 1 26.65-65.1c2.99-6.56 6.31-13.42 12.28-17.47 5.69-3.86 12.93-4.58 19.05-7.7 5.84-2.98 10.51-8.18 12.84-14.31 1.33-3.49 1.97-7.36 4.31-10.27 1.16-1.46 2.98-2.5 4.81-2.82.46 1.47.58 3.31.21 5.44-.67 3.91-1.63 10.06-5.58 16.37-8.84 14.1-27.82 17.2-29.74 19.23-6.21 6.52-8.33 31.18-36.11 101.4-1.59 4-3.25 8.14-5 12.44ZM113.47 79.02c.73 1.44 1.01 3.66.64 6.61-1.09 8.73-4.36 20.34-11.79 35.72a26.27 26.27 0 0 0-4.6-4.81c-.08-1.76.25-3.59.65-5.32 1.58-6.82 4.08-13.38 6.57-19.92 1.81-4.77 4.07-10.01 8.53-12.28Z" style="fill:#e7f2fe"/><path d="M95.54 252.76c2.04.93 4.01 2.01 5.91 3.27-2.12.63-4.26 1.26-6.42 1.92-1.1-.48-2.25-.86-3.36-1.22.48-1.26 1.65-2.51 3.87-3.97Z" style="fill:#52d6ff"/><path d="M21.24 1110.63c1.89 4.61 4.31 9 7.18 13.08-5.45-5.19-8.43-9.47-7.91-12.28.23-.27.48-.53.73-.8Z" style="fill:#fff"/><path d="M20.51 1111.43c-2.98 3.36-4.91 6.6-5.43 8.76-4.74 19.84 126.84 98.13 144.14 86.95 2.11-3.86 4.1-7.6 5.97-11.24" style="fill:none;stroke:#000;strokeLinecap:round;stroke-linejoin:round;strokeWidth:1.07px"/><path d="m350.84 1114.35-.01.01M408.4 1079.17c3.01.44 5.49.26 7.4 2.25M350.84 1114.35c1.96-.24 4.06-.28 6.31-.1 5.68.44 12.29 2.3 19.91 5.97M327.5 1143.89h.01c6.22 3.61 16.63 5.75 28.16 6.1 25.21.79 55.85-6.94 60.1-26.4" style="fill:none;stroke:#000;strokeLinecap:round;stroke-linejoin:round;strokeWidth:1.14px"/><path d="M403.91 1077.29c.99 5.41 1.99 9.44 3.24 11.73.38.73.8 1.28 1.25 1.65.29.25.59.41.91.48.88-2.31 1.69-4 2.43-5.26 1.83-3.18 3.19-3.68 4.06-4.47v2.68c.02 12.11 0 26.3-.01 39.49 0 5.61 0 11.04.01 16.06 0 .55-.15 1.11-.45 1.58-15.55 24.52-63.14 23.69-86.37 15.67-.61-.21-1.05-.75-1.14-1.38-.46-3.2-.62-6.57-.44-9.95.03-.56.06-1.12.11-1.68.34-4.14 1.18-8.24 2.59-12.02 3.36-9.03 9.98-16.21 20.74-17.52 1.29-.85 2.74-1.88 4.28-3.04 6.98-5.28 15.66-13.36 18.63-20.5.35-.85.89-1.62.76-2.53-.44-3.17-1.36-8.46-1.39-12.39" style="fill:none;stroke:#000;strokeLinecap:round;stroke-linejoin:round;strokeWidth:1.07px"/><path d="M153.66 1100.89c14.56 4.3 25.67 13.11 31.86 28.33.9 2.23 1.7 4.6 2.4 7.11 4.74-9.31 9.36-18.7 13.85-28.18 74.32-156.51 115.92-335.28 143.82-532.05h13.4c.5 9.6.96 19.2 1.37 28.8 6.52 147.65 3.92 295.3-5.56 442.91-.32 4.91-.64 9.81-.97 14.71 5.67 6.53 12.3 10.82 19.29 13.37v-.54c.02-1.83 1.44-3.33 3.27-3.49 7.47-.65 26.79-1.91 26.94 2.16.19 1.14.39 2.24.58 3.27 1.5-.34 2.99-.73 4.44-1.18 5.71-1.74 10.94-4.21 15.32-7.08 0-.31.03-.63.04-.95 8.65-202.65 48.81-556.14 24.14-606.32-31.41 56.29-68.52 59.63-91.79 64.37-13.02 2.65-28.23.29-43.29-3.77-16.7-4.48-33.22-11.03-46.38-15.1-3.97-1.23-8.33-1.57-12.66-1.42a2298.174 2298.174 0 0 1-.68 19.15 1713.982 1713.982 0 0 1-1.43 29.37c-13.17 234.29-67.24 418.93-106.15 505.65-7.13 15.89-13.75 28.49-19.52 37.51.7-.01 1.4-.01 2.09.01M187.92 1136.33c-1.83-.2-3.62-.46-5.37-.77M127.32 1099.48c-.46-.64-.92-1.29-1.37-1.96M217.17 207.82v.5c.22 5.08 2.51 10.78 7.23 15.64h0c3.26 3.38 7.69 6.35 13.43 8.41-1.24 5.42-2.47 10.86-3.7 16.29M223.45 195.78c-.25.12-.48.25-.72.39-3.6 2.14-5.58 6.39-5.56 11.33" style="fill:none;stroke:#000;strokeLinecap:round;stroke-linejoin:round;strokeWidth:1.07px"/><path d="M217.17 207.5v.32c-.01.17-.01.34 0 .5-.01 1.05-.01 2.09 0 3.1.31 18.1 4.86 31.7 16.97 37.24M275.65 187.79c-.2-.23-.41-.47-.65-.69-2.05-2.07-5.76-4.45-13.09-5.29M237.84 232.37c3.53 6.64 7.27 12.5 10.8 19.15.71-7.27 1.43-14.53 2.14-21.8 4.31 4.07 8.61 8.13 12.91 12.2 12.33-21.14 19.12-43.86 13.36-52.25-.34-.49-.77-1.14-1.39-1.87M261.91 181.81h-.01" style="fill:none;stroke:#000;strokeLinecap:round;stroke-linejoin:round;strokeWidth:1.07px"/><path d="M265.86 194.01c1.04-5.99.23-10.63-3.95-12.18M250.78 229.72c4.99-9.24 13.16-24.73 15.08-35.7M224.41 223.96c-1.38-5.64 1.23-13.93 6.6-14.41M252.33 258.58c3.42 0 6.19 2.77 6.19 6.2s-2.77 6.2-6.19 6.2c-1.05 0-2.03-.26-2.89-.72a6.176 6.176 0 0 1-3.31-5.48c0-3.43 2.78-6.2 6.2-6.2ZM275 187.1c.2.24.42.47.65.69 0 .01.01.01.01.01 7.74 7.54 27.78 3.78 56.31-8.64 18.47-8.05 33.12 2.97 43.42 20.3 13.36 22.46 33.89 42.97 43.43 56.86-4.91-.43-9.45 1.62-13.62 5.45-7.32 6.74-13.52 18.96-18.65 32.92-2.92 7.96-5.51 16.49-7.75 24.88M418.82 256.32c-1.01 5.15-1.75 8.97-2.84 12.39-.33 1.03-.69 2.03-1.1 3.01M229.23 509.9c5.51 7.26 11.26 12.68 23.82 15.09M101.46 256.03c4.93 3.23 9.38 7.56 13.35 12.99 3.92 5.37 7.38 11.82 10.36 19.35.83 2.1 1.62 4.27 2.38 6.54 5.1 15.28 19.97 24.68 29.82 36.19 9.27-2.13 18.55-4.25 27.84-6.37-1.47-9.08-2.93-18.16-4.38-27.24M95.54 252.76c2.04.93 4.01 2.01 5.91 3.27M217.18 208.32h0c-5.62-.98-16.69 3.72-34.16 11.27-16.45 7.11-38.58 16.75-67.19 26.55-6.43 2.21-13.19 4.42-20.28 6.62M95.54 252.76c-2.22 1.46-3.39 2.71-3.87 3.97-.29.74-.33 1.49-.22 2.29" style="fill:none;stroke:#000;strokeLinecap:round;stroke-linejoin:round;strokeWidth:1.07px"/><path d="M106.29 295.4c5.69 10.56 14.11 18.75 25.58 24.41 2.11 1.04 4.32 1.99 6.63 2.86 6.58 2.46 13.49 6.43 18.87 8.43M362.25 253.01c2.65 22.04 7.54 44.2 16.55 66.56.64 1.58 1.29 3.16 1.98 4.74 4.91 11.47 10.95 22.99 18.35 34.58 8.07 11.56 16.25 22.69 24.12 33.88 3.57 5.09 7.07 10.2 10.46 15.36 5.68 8.64 11.03 17.45 15.87 26.66 2.06 3.92 4.02 7.91 5.88 11.99-2.5 5.37-5.04 10.36-7.61 14.98M253.73 505.84c-8.92.31-17.75 2.7-22.9 3.75-.58.13-1.12.23-1.6.31-8.08-23.27-16.05-49.67-17.7-81.41-.62-12.06-2.35-23.68-4.78-34.92-5.3-24.63-13.94-47.41-21.54-68.84" style="fill:none;stroke:#000;strokeLinecap:round;stroke-linejoin:round;strokeWidth:1.07px"/><path d="M397.19 305.94c-3.86 8.18-10.07 15.31-14.5 17.64-.68.37-1.33.61-1.91.73h-.02M186.18 127.59c1.9 4.94 5.08 11.14 9.21 17.28 3.13 4.65 6.79 9.26 10.86 13.25 5.37 5.29 11.43 9.51 17.84 11.32 2.22.63 4.47.97 6.75.97 5.75 0 12.05-.88 18.46-5.29 2.24-1.54 4.5-3.52 6.74-6.04 6.38-7.19 12.68-18.81 18.43-37.49h.01c3.66 1.56 8.83 1.76 13.07-.24 11.21-5.26 16.96-40.51 2.01-43.81-.52-.11-1.04-.11-1.55-.03-1.12.17-2.13.5-3.32 1.03-.66.29-1.39.65-2.22 1.08M177.29 84.5c-1.56-3.62-3.49-5.92-5.53-7.15-.68-.4-1.36-.69-2.05-.85-.48-.13-.97-.2-1.45-.21-.12 0-.24-.01-.35 0-1.54.03-3.04.58-4.39 1.57-3.33 2.42-5.72 7.46-5.44 13.7v.04c.67 14.36 10.74 32.23 24.92 30.01.44-.06.89-.15 1.35-.26.07.42.16.87.27 1.35.13.57.3 1.18.5 1.83.29.94.64 1.95 1.05 3.03" style="fill:none;stroke:#000;strokeLinecap:round;stroke-linejoin:round;strokeWidth:1.07px"/><path d="M206.25 158.12c2.29 5.82 4.73 11.59 7.31 17.31 1.19 2.65 2.41 5.28 3.67 7.91 1.99 4.17 4.07 8.32 6.23 12.44 1.19 2.28 2.4 4.55 3.65 6.82 1.27 2.32 2.57 4.64 3.9 6.95 3.64 6.32 7.49 12.56 11.55 18.74M256.04 159.08c1.58 7.41 3.6 15.2 5.87 22.73v.02c1.26 4.17 2.58 8.26 3.95 12.18h0M125.17 288.37a470.8 470.8 0 0 1-9.93 3.72c-3.02 1.09-6.02 2.15-9 3.18-24.17 8.33-47.65 14.68-74.34 21.87-.3.09-.6.17-.91.25C9.55 323.18-.45 310.92.61 294.44c.32-4.81 2.99-12.93 7.42-23.72 8.58-20.94 23.76-51.96 41.08-88.53 2.03-4.28 4.09-8.64 6.17-13.07 1.55-3.29 3.1-6.61 4.67-9.97-4.48-7.08-6.4-13.36-7.32-17.54 0 0 1.88-21.96 23.12-55.48 1.23-1.95 2.53-3.94 3.9-5.96 1.09-1.61 2.22-3.24 3.39-4.89 1.37-1.92 3.28-2.98 4.98-3 .69-.01 1.34.16 1.91.5.31.18 1.82 1.03 1.98 5.37.33 9.38-5.91 25.27-8.58 31.71" style="fill:none;stroke:#000;strokeLinecap:round;stroke-linejoin:round;strokeWidth:1.07px"/><path d="M97.72 116.54a26.27 26.27 0 0 1 4.6 4.81M74.33 110.02c3.1-.24 6.09-.14 8.93.29 1.96.3 3.85.76 5.65 1.38 3.25 1.11 6.22 2.73 8.81 4.84" style="fill:none;stroke:#000;strokeLinecap:round;stroke-linejoin:round;strokeWidth:1.07px"/><path d="M88.91 111.69c3.69-7.97 6.97-15.15 9.7-20.65 2.33-4.69 4.25-8.17 5.68-9.88 1.18-1.42 2.34-2.46 3.42-3.14 2.53-1.59 4.67-1.18 5.76 1 .73 1.44 1.01 3.66.64 6.61-1.09 8.73-4.36 20.34-11.79 35.72M105.56 121.35c3.79-9.55 8-17.26 11.22-22.39 1.71-2.72 3.14-4.72 4.08-5.9 1.95-2.44 3.93-3.89 5.69-4.48 2.63-.88 4.77.16 5.58 2.67.51 1.52.52 3.59-.13 6.09-2.42 9.35-5.39 15.31-12.03 27.86M102.32 121.35c.82.93 2.82 1.4 3.24 0" style="fill:none;stroke:#000;strokeLinecap:round;stroke-linejoin:round;strokeWidth:1.07px"/><path d="M88.1 142.8c2.7-2.18 5.09-3.87 7.33-4.99 4.46-2.24 8.32-2.21 12.78.72 1.92-3.38 2.39-5.94 3.83-8.66 1.24-2.34 2.67-3.81 4.09-4.52 1.36-.71 2.71-.71 3.84-.13 1.16.57 2.1 1.75 2.6 3.4.46 1.47.58 3.31.21 5.44-.67 3.91-1.63 10.06-5.58 16.37-8.84 14.1-27.82 17.2-29.74 19.23-6.21 6.52-8.33 31.18-36.11 101.4-1.59 4-3.25 8.14-5 12.44-.66 1.6-1.32 3.22-2 4.87" style="fill:none;stroke:#000;strokeLinecap:round;stroke-linejoin:round;strokeWidth:1.07px"/><path d="M51.35 271.06c2.95-.88 5.96-1.78 9-2.69 9.26-2.77 18.83-5.67 28.17-8.47.98-.29 1.96-.59 2.93-.88 1.2-.36 2.39-.72 3.58-1.07 2.16-.66 4.3-1.29 6.42-1.92h.01M386.55 294.69c1.58 1.67 3.18 3.37 4.82 5.1 1.91 2.02 3.85 4.08 5.82 6.15 2.8 2.94 5.64 5.93 8.5 8.94 7.47 7.85 15.05 15.81 22.23 23.4 2.36 2.48 4.66 4.92 6.91 7.3.93.98 1.27 2.39.9 3.69-4.78 16.69-7.69 26.81-12.48 43.5" style="fill:none;stroke:#000;strokeLinecap:round;stroke-linejoin:round;strokeWidth:1.07px"/><path d="m405.2 261.77 8.38 8.62c.43.44.87.88 1.3 1.33 17.08 17.56 34.73 35.69 51.54 52.98a21.737 21.737 0 0 1 5.5 20.38c-8.35 33.51-14 56.2-22.34 89.71M165.19 1195.9c-14.89 1.42-64.81-23.03-101.89-46.53-14.59-9.25-27.19-18.35-34.88-25.66-5.45-5.19-8.43-9.47-7.91-12.28.23-.27.48-.53.73-.8 4.16-4.47 10.13-9.03 17.07-11.38 9.78-3.33 21.49-2.3 32.82 9.45 2.52 2.61 5.02 5.75 7.47 9.49 4.52 1.53 8.86 2.18 12.94 2.18.59 0 1.18-.01 1.75-.04s1.13-.07 1.68-.12c.03.01.08 0 .11-.01.48-.04.97-.1 1.44-.16.69-.09 1.38-.19 2.06-.32.46-.09.92-.18 1.38-.29.49-.11.97-.22 1.45-.35.56-.15 1.12-.31 1.67-.48.51-.16 1.02-.33 1.51-.52.35-.11.69-.24 1.02-.37.22-.07.42-.16.61-.23.43-.19.86-.36 1.27-.55.39-.17.77-.34 1.14-.52.38-.17.75-.36 1.12-.56.24-.11.48-.24.71-.37.77-.41 1.52-.83 2.24-1.28.25-.14.48-.29.72-.45.48-.3.94-.6 1.39-.92.23-.15.45-.31.67-.47.3-.21.58-.42.87-.64.37-.26.71-.53 1.06-.81l.03-.03c.35-.28.71-.57 1.04-.86.04-.03.08-.06.13-.1.29-.25.58-.5.86-.76 1.22-1.08 2.33-2.18 3.3-3.27.15-.16.3-.33.44-.49.3-.33.57-.66.83-.98.27-.32.52-.64.76-.96.13-.16.24-.32.35-.47.15-.2.3-.42.44-.61.19-.27.36-.52.51-.77.17-.25.32-.5.47-.74.29-.5.54-.95.75-1.39.36-.74.59-1.39.72-1.95.08-.36.47-2.01.46-2.28.86-1.75 8.85-2.18 15.9.76 3.6 1.51 6.86 2.97 9.25 4.87h.01c2.08 1.66 3.53 3.66 3.99 6.34-1.39 2.61-3.14 7.44-5.2 12 .29 2.16.47 3.05.74 5.3 1.32 6.09 2.05 12.29 3.82 15.99.3.64.63 1.2 1 1.67 7.3 1.39 16.29-1.76 21.17-3.83 1.1-.47 1.99-.89 2.61-1.18 1.19-.05 2.07.4 2.65 1.29 3.57 5.44-3.89 27.6-19.25 57.44Z" style="fill:none;stroke:#000;strokeLinecap:round;stroke-linejoin:round;strokeWidth:1.07px"/><path d="M185.52 1129.22c-1.29 2.74-1.83 3.89-2.97 6.34-.24.48-.48 1.01-.76 1.61M408.39 1076.26c.01.87.01 1.86.01 2.91 0 2.81-.02 6.1-.01 8.88 0 .95 0 1.83.01 2.62M259.06 87.36c.12.15.23.3.33.46a6.612 6.612 0 0 1 1.06 3.6c0 3.68-2.99 6.67-6.68 6.67s-6.67-2.99-6.67-6.67c0-1.5.5-2.88 1.34-3.99a6.595 6.595 0 0 1 5.33-2.68c1.16 0 2.25.3 3.2.82M211.75 87.65c.33.49.61 1.02.8 1.59.24.68.37 1.42.37 2.18 0 3.68-2.99 6.67-6.67 6.67s-6.68-2.99-6.68-6.67c0-.26.02-.53.05-.78a6.66 6.66 0 0 1 6.63-5.89c1.16 0 2.25.3 3.2.82M222 110.77c.89-2.37 4.07-4.12 6.14-4.9.84-.32 1.49-.48 1.74-.46.8.08 5.93 2.11 7.15 5.06M208.81 138.85a22.806 22.806 0 0 1-2.22-10.52c14.61-7.88 29.48-7.95 44.62.18.08 3.57-.65 6.95-2.02 9.99-3.4 7.64-10.79 13.06-19.15 13.48-9.02.45-17.39-5.01-21.23-13.13Z" style="fill:none;stroke:#000;strokeLinecap:round;stroke-linejoin:round;strokeWidth:1.07px"/><path d="M208.8 138.86h.01c12.37-12.02 25.75-13.06 40.38-.36M283.64 90.29c.36-.29.72-.55 1.07-.77 4.33-2.87 8.09-1.64 9.12 3.57M280.79 93.08c.11-.13.23-.26.34-.39.84-.95 1.68-1.75 2.5-2.4M180 95.2c-1.09-4.4-3.63-7.41-6.63-8.63-3.19-1.29-6.92-.54-9.98 2.74-.14.15-.28.31-.42.47" style="fill:none;stroke:#000;strokeLinecap:round;stroke-linejoin:round;strokeWidth:1.07px"/><path d="M173.37 86.57c-1 .55-1.79 1.21-2.39 1.98-1.62 1.98-2.05 4.66-1.99 7.86M283.63 90.29h.01c3.51 1.64 5.35 4.63 4.38 10.78M177.15 28.18c-1.86 2.88-4.78 5.22-7.6 7.45M184.64 102.05s.2.35-2.13.32M168.04 60.17c-.12.15-.23.3-.35.45M169.57 46.38c1.8 2.33 2.47 4.29 2.45 6.05-.04 3.61-2.12 5.43-3.94 7.69M207.07 7.43c-1.4-.64-3.51-1.4-5.87-1.74M193.85 6.36c-1.19.49-2.14 1.33-2.96 2.36M183.69 17.7c.31-.11.61-.25.9-.41M185.97 16.18c-.28.29-.58.55-.89.79M190.89 8.72c-1.37 1.65-2.33 3.7-3.41 5.45M253.45 9.05c.84 2.32 1.03 4.74.38 6.76-.32 1-.85 1.9-1.6 2.63-.11.11-.22.21-.34.31M253.44 9.03c-.18-.5-.39-1.01-.63-1.49M276.12 26.51c4.18 4.01 7.68 3.42 9.73 1.05M285.85 27.56h-.01" style="fill:none;stroke:#000;strokeLinecap:round;stroke-linejoin:round;strokeWidth:1.07px"/><path d="M168.79 76.5c-.18-.07-.36-.13-.53-.21-1.63-.74-2.65-2.18-2.9-8.33-.14-3.44.97-5.57 2.33-7.34.14-.15.26-.3.35-.45.01-.02.02-.04.04-.05 2.68-3.9-6.73-5.71-6.55-14.21.09-4.06 3.94-7.06 8.02-10.28-1.28-12.27 4.2-17.43 12.59-17.66.2 0 .38-.02.55-.04.35-.04.69-.12 1-.23.32-.1.62-.24.9-.41.17-.1.33-.2.49-.32.32-.22.62-.49.89-.79.14-.14.27-.29.4-.45.21-.25.42-.53.62-.82.17-.24.33-.48.49-.74 1.13-1.76 2.1-3.83 3.41-5.45.81-.97 1.76-1.81 2.96-2.36 2.38-.97 4.99-1.03 7.35-.67 1.72-1.73 4.31-3.73 7.63-3.99 5.41-.42 7.24 5.3 13.86 5.41 1.29.02 2.47-.1 3.58-.32 6.59-1.32 10.3-6.27 16.55-6.26 4.45.01 8.1 3.19 9.99 7.01.17.54.39 1.03.63 1.49v.02c4.12 7.55 18.2 4.92 25.84 4.95 9.26.04 10.11 9.46 6.56 13.56 2.9 1.34 6.15 5.98 3.97 15.2 10.61 6.84 1.41 14.97-1.53 15.87 1.48 2.33 3.06 4.94 4.07 8.49.94 3.29-3.18 5.35-7.1 10.61-3.92 1.89-7.47 3.98-11.36 5.88.09-6.35-.4-12.66-3.53-15.94-4.37 4.71-13.01 4.59-13.5 10.6" style="fill:none;stroke:#000;strokeLinecap:round;stroke-linejoin:round;strokeWidth:1.07px"/><path d="M209.53 78.52c-.04-.1-.07-.21-.09-.32-1.81-7.63-8.67-3.61-10.49-1.66-3.43 1.92-7.34-2.17-9.22-7.69h-.01c-.84-.23-2.23-.49-3.55.14 0 0-.71.34-1.27.96-.86 1.53-.17 8.05.42 14.85h0c.67 7.61 1.2 15.54-.68 17.25-.16.16-.76.32-2.13.32h-.14c-.39 0-.7-.14-.95-.39-.7-.69-.94-2.25-1.16-4.35-.08-.75-.16-1.56-.26-2.43-.35-3.13-.95-6.93-2.71-10.7-.52-1.11-1.15-2.22-1.9-3.31-2.62-3.77-4.87-4.08-6.58-4.69M239.31 83.57c-1.21-.26-2.47-.78-3.76-1.52-.23-.14-.47-.29-.7-.44-1.26.38-2.62.61-3.98.65-.14.01-.28.01-.42.01a16.09 16.09 0 0 1-7.3-1.78c-.59.81-1.72 2.13-2.69 2.73M250.59 78.6c-.44-.73-.76-1.5-.96-2.31-.39 1.03-.83 1.94-1.31 2.76M283.63 80.18c.34-.58.7-1.12 1.06-1.64.19-.27.38-.55.57-.81M288.29 58.63c-2.7-4.23-5.11-7.51-3.27-13.79M273.9 83.61c-.13 9.32-1.53 18.71 2.22 18.71 1.46 0 2.4-.85 3.07-2.29.74-1.59 1.15-3.9 1.54-6.58l.06-.37c.59-3.94 1.19-8.59 2.84-12.9" style="fill:none;stroke:#000;strokeLinecap:round;stroke-linejoin:round;strokeWidth:1.07px"/><path d="M189.72 68.85c-1.97-5.81-1.72-13.22 3.7-16.87.11-.08.22-.16.34-.23M232.48 69.91c-3.31 6.75 7.39 5.09 3.95-.11 6.08 3 5.88 6.69 3.06 9.28-1.05.96-2.46 1.77-4.04 2.32-.2.08-.4.15-.6.21M223.15 80.49c-7.06-3.64-11.45-12.66-5.06-25.3.6-1.18 1.29-2.4 2.09-3.65.46-.72.95-1.45 1.48-2.19M249.63 76.29c-1.35-5.37 2.26-12.15 10.6-13.46M272.16 55.4c1.55 6.27.43 9.89-1.79 12.27" style="fill:none;stroke:#000;strokeLinecap:round;stroke-linejoin:round;strokeWidth:1.07px"/><path d="M222.46 89.47c.83 12.45-8.4 20.95-16.94 21.33-9.89.45-21.33-9.56-18.15-24.94 3.2-5.93 13.4-8.54 22.16-7.34.19.72.42 1.37.68 1.95.26.59.56 1.1.89 1.55 1.05 1.46 2.4 2.21 3.81 2.45 1.89.34 3.91-.23 5.55-1.25.44.43.84.89 1.19 1.38.44 1.67.71 3.32.81 4.87ZM271.85 84.6c3.97 15.05-6.52 25.77-16.13 26.2-9.1.42-19.51-8.02-18.63-21.35.07-1.16.23-2.36.49-3.59.45-.84 1.02-1.59 1.73-2.29 3.6.79 6.75-.62 9.01-4.52.75-.19 1.5-.34 2.27-.45 1.32 2.2 3.7 3.88 7.17 4.37-.74-1.9-1-3.43-.89-4.7 2.16.09 4.29.4 6.27.95 3.67.99 6.83 2.77 8.71 5.38Z" style="fill:none;stroke:#000;strokeLinecap:round;stroke-linejoin:round;strokeWidth:1.14px"/><path d="M227.89 86.48c1.99-.63 3.92-.41 5.98.84.86.51 1.74 1.21 2.66 2.09M223.01 89.47c1.73-1.47 3.32-2.49 4.88-2.98M286.22 77.28c-.33.15-.65.3-.96.45M273.9 83.61c-.5.26-1 .5-1.51.73M168.81 75.19c.63.35 1.29.71 1.96 1.08.4.23.8.46 1.21.69 4.33 2.5 9.16 5.5 13.34 7.84M186.84 85.64c-.49-.26-.99-.54-1.52-.83" style="fill:none;stroke:#000;strokeLinecap:round;stroke-linejoin:round;strokeWidth:2.14px"/></g><g data-name="highlight"><g style="mix-blend-mode:color-dodge;opacity:.75"><path d="M427.47 335.82c.18.81.34 1.63.45 2.46-7.18-7.59-14.76-15.55-22.23-23.4-.25-2.52.21-5.09 2.29-6.32 1.7-1.01 3.94-.64 5.6.43 1.67 1.06 2.86 2.7 3.95 4.34 4.58 6.86 8.15 14.44 9.94 22.49Z" style="fill:#e7f2fe"/><path d="M413.58 270.39a47.2 47.2 0 0 1 2.4-1.68c-.33 1.03-.69 2.03-1.1 3.01-.43-.45-.87-.89-1.3-1.33Z" style="fill:#52d6ff"/><path d="M408.39 1088.05c0 .95 0 1.83.01 2.62-.45-.37-.87-.92-1.25-1.65.41-.34.82-.66 1.24-.97Z" style="fill:#e7f2fe"/><path d="M370.08 657.12c11.34 80.23 8.4 161.7 5.44 242.67-1.59 43.33-3.2 86.89-11.8 129.38-1.62 8.01-3.58 16.18-8.24 22.89-.16.23-.32.45-.48.68 9.48-147.61 12.08-295.26 5.56-442.91l.26.14c7.79 0 7.15 32.23 9.26 47.15Z" style="fill:#02488b"/><path d="M350.84 1114.35c1.96-.24 4.06-.28 6.31-.1 1.24 2.39 1.75 5.09 1.32 7.53-1.54 8.66-10.81 14.58-19.6 14.13-2.95-.16-6.03-.99-8.05-3.14-.26-.28-.5-.58-.72-.9 3.36-9.03 9.98-16.21 20.74-17.52Z" style="fill:#fff"/><path d="M357.15 1114.25c-2.25-.18-4.35-.14-6.31.1 1.29-.85 2.74-1.88 4.28-3.04.81.88 1.49 1.88 2.03 2.94Z" style="fill:#fff"/><path d="M358.97 1149.6c-3.72.59-.59.77-4.26 1.59-6.89 1.54-28.75-.74-27.3-5.62.03-.56.06-1.12.11-1.68 6.22 3.61 19.93 5.36 31.46 5.71Z" style="fill:#52d6ff"/><path d="M284.71 89.52c-.35.22-.71.48-1.07.77h-.01c-.82.65-1.66 1.45-2.5 2.4.03-.07.07-.13.11-.19.82-1.31 2.05-2.43 3.47-2.98ZM280.79 93.08c.11-.13.23-.26.34-.39-.15.25-.28.5-.4.76l.06-.37Z" style="fill:#e7f2fe"/><path d="M280.73 93.45c-.39 2.68-.8 4.99-1.54 6.58.04-.37.09-.74.13-1.1.24-1.88.59-3.78 1.41-5.48Z" style="fill:#00a2f7"/><path d="M263.33 567.77c.62 33.13-4.05 66.12-9.14 98.87a3751.276 3751.276 0 0 1-64.3 320.61c-5.86 23.79-12.68 48.81-30.28 65.85-3.42 3.33-7.5 6.4-12.25 6.87-.64.06-1.27.07-1.89.04 38.91-86.72 92.98-271.36 106.15-505.65 1.97-1.28 4.66-1.74 6.66-.44 4.29 2.8 4.95 8.73 5.05 13.85Z" style="fill:#02488b"/><path d="M259.06 87.36c.12.15.23.3.33.46-.09.02-.19.05-.28.07v-.08c0-.15-.02-.31-.05-.45Z" style="fill:#007afb"/><path d="M259.11 87.81v.08c-1.42.36-2.93.46-4.4.49-.05-.18-.08-.37-.08-.57 0-1.24 1-2.24 2.24-2.24h.1c.82.44 1.54 1.05 2.09 1.79.03.14.05.3.05.45Z" style="fill:#fff"/><path d="M259.06 87.36a6.331 6.331 0 0 0-2.09-1.79c1.04.05 1.89.8 2.09 1.79ZM254.71 88.38c1.47-.03 2.98-.13 4.4-.49a2.24 2.24 0 0 1-2.24 2.16c-1.04 0-1.92-.71-2.16-1.67Z" style="fill:#fff"/><path d="M249.44 270.26a6.176 6.176 0 0 1-3.31-5.48c0-3.43 2.78-6.2 6.2-6.2s6.19 2.77 6.19 6.2-2.77 6.2-6.19 6.2c-1.05 0-2.03-.26-2.89-.72Z" style="fill:#52d6ff"/><path d="M253.83 15.81c-.32 1-.85 1.9-1.6 2.63.35-1.01.85-1.91 1.6-2.63ZM235.45 81.4c.04.22.07.43.1.65-.23-.14-.47-.29-.7-.44.2-.06.4-.13.6-.21Z" style="fill:#00a2f7"/><path d="M218.09 55.19c.6-1.18 1.29-2.4 2.09-3.65.51-.68 1.06-1.32 1.67-1.91.79-.78 1.85-1.53 2.93-1.26.94.23 1.54 1.16 1.89 2.07 1.19 3.08.64 6.57-.34 9.73-.98 3.15-2.38 6.2-2.91 9.47-.31 1.97-.27 4.1.71 5.84.97 1.75 3.09 2.96 5.01 2.4.87-.26 1.65-.85 2.56-.93 1.19-.11 2.31.72 2.91 1.75.47.82.69 1.76.84 2.7-.2.08-.4.15-.6.21-1.26.38-2.62.61-3.98.65-.14.01-.28.01-.42.01a16.09 16.09 0 0 1-7.3-1.78c-7.06-3.64-11.45-12.66-5.06-25.3Z" style="fill:#00a2f7"/><path d="M227.44 197.99c.37 1.53.53 3.4-.33 4.61-1.25-2.27-2.46-4.54-3.65-6.82-2.16-4.12-4.24-8.27-6.23-12.44 1.01-.28 2.11-.19 3.01.37.88.55 1.5 1.41 2.06 2.28 2.37 3.67 4.12 7.75 5.14 12ZM225.45 102.67c.53 1.1 0 2.51-1 3.2-.42.29-.9.46-1.41.54-1.08.17-1.9-.99-1.39-1.95.37-.7.84-1.35 1.4-1.93.2-1.36 1.87-.95 2.4.14ZM185.12 124.53c-.2-.65-.37-1.26-.5-1.83 0-.32.05-.64.15-.94.43-1.37 1.8-2.37 3.23-2.38 1.69 0 3.12 1.23 4.26 2.49 6.43 7.14 8.74 17.09 14.25 24.97 3.94 5.62 9.36 9.99 14.61 14.42 1.3 1.11 2.63 2.27 3.34 3.82.63 1.4.6 3.22-.37 4.36-6.41-1.81-12.47-6.03-17.84-11.32-4.07-3.99-7.73-8.6-10.86-13.25l-9.21-17.28v-.03c-.42-1.08-.77-2.09-1.06-3.03Z" style="fill:#e7f2fe"/><path d="M201.2 5.69c1.72-1.73 4.31-3.73 7.63-3.99 5.41-.42 7.24 5.3 13.86 5.41 1.29.02 2.47-.1 3.58-.32-.57 1.7-1.64 3.2-3.19 4.14-5.51 3.33-13-1.56-18.93.95-4.75 2.01-6.95 8.17-11.9 9.61-2.72.79-6.35.29-7.7 2.77-.99 1.8 0 4.04-.22 6.08-.34 3.03-3.27 5.1-6.16 6.05-1.53.5-3.15.82-4.47 1.73s-2.26 2.67-1.62 4.14c.4.93 1.3 1.51 2.04 2.2 2.24 2.08 3.1 5.51 2.11 8.4-.66 1.93-2.04 3.55-2.64 5.5-.82 2.63-.11 5.47.4 8.18.51 2.72.74 5.75-.83 8.03-.56.81-1.44 1.4-2.39 1.7-.35.12-.71.19-1.06.23-.48-.13-.97-.2-1.45-.21-1.63-.74-2.65-2.18-2.9-8.33-.14-3.44.97-5.57 2.33-7.34.14-.15.26-.3.35-.45.01-.02.02-.04.04-.05 2.68-3.9-6.73-5.71-6.55-14.21.09-4.06 3.94-7.06 8.02-10.28-1.28-12.27 4.2-17.43 12.59-17.66.2 0 .38-.02.55-.04.35-.04.69-.12 1-.23.32-.1.62-.24.9-.41.17-.1.33-.2.49-.32.32-.22.62-.49.89-.79.14-.14.27-.29.4-.45.21-.25.42-.53.62-.82.17-.24.33-.48.49-.74 1.13-1.76 2.1-3.83 3.41-5.45.81-.97 1.76-1.81 2.96-2.36 2.38-.97 4.99-1.03 7.35-.67ZM218.09 55.19c.54-1.3 1.25-2.52 2.09-3.65-.8 1.25-1.49 2.47-2.09 3.65ZM213.59 83.41c.46.3.94.65 1.32 1.06-1.41-.24-2.76-.99-3.81-2.45.86.41 1.69.88 2.49 1.39Z" style="fill:#00a2f7"/><path d="M211.75 87.65a6.559 6.559 0 0 0-2.3-2.08h.08c1.18 0 2.14.91 2.22 2.08Z" style="fill:#fff"/><path d="M193.58 52.22c1.09-.85 2.63-1.27 3.88-.67 1.54.73 2.09 2.69 1.95 4.39-.18 2.38-1.33 4.58-1.7 6.94s.4 5.25 2.66 6.02c2.24.75 5.14-.84 6.86.78.45.42.72 1 .96 1.57 1.21 2.91 1.95 6.01 2.18 9.15l-.16.07c-.26-.58-.49-1.23-.68-1.95-.04-.1-.07-.21-.09-.32-1.81-7.63-8.67-3.61-10.49-1.66-3.43 1.92-7.34-2.17-9.22-7.69h-.01c-1.97-5.81-1.72-13.22 3.7-16.87l.16.24Z" style="fill:#00a2f7"/><path d="m186.18 127.59 9.21 17.28c-4.13-6.14-7.31-12.34-9.21-17.28Z" style="fill:#e7f2fe"/><path d="M183.01 219.59c1.15 1.51.59 3.79-.32 5.52-4.21 7.97-13.21 11.94-21.55 15.34-9.72 3.95-19.43 7.91-29.14 11.86-4.31 1.75-8.96 3.54-13.48 2.47-1.88-.45-3.79-1.56-4.37-3.4-.58-1.86.34-3.7 1.67-5.24 28.61-9.8 50.74-19.44 67.19-26.55Z" style="fill:#fff"/><path d="M181.42 101.98c-.7-.69-.94-2.25-1.16-4.35.6 1.4.98 2.86 1.16 4.35ZM177.29 84.5c-.52-1.11-1.15-2.22-1.9-3.31-2.62-3.77-4.87-4.08-6.58-4.69.29.03.59.02.9 0 .69.16 1.37.45 2.05.85 2.04 1.23 3.97 3.53 5.53 7.15Z" style="fill:#00a2f7"/><path d="m171.98 76.96-.22.39c-.68-.4-1.36-.69-2.05-.85.35-.04.71-.11 1.06-.23.4.23.8.46 1.21.69Z" style="fill:#00a2f7"/><path d="M169.71 76.5c-.31.02-.61.03-.9 0h-.02c-.18-.07-.36-.13-.53-.21.48.01.97.08 1.45.21Z" style="fill:#00a2f7"/><path d="M168.26 76.29c.17.08.35.14.53.21-.31-.04-.6-.1-.88-.21.11-.01.23 0 .35 0ZM166.69 78.78c.43.52.24 1.3-.01 1.93a27.246 27.246 0 0 1-4.45 7.6c-.59.72-1.22 1.41-1.89 2.07-.62.61-1.45 1.22-2.26 1.18-.28-6.24 2.11-11.28 5.44-13.7.71.09 1.35.23 2 .38.43.09.89.2 1.17.54ZM126.55 88.58c-.58 3.32-1.99 6.51-4.09 9.16-.71.91-1.56 1.8-2.66 2.16-1.08.36-2.47.06-3.02-.94 1.71-2.72 3.14-4.72 4.08-5.9 1.95-2.44 3.93-3.89 5.69-4.48ZM95.43 137.81c1.55-.48 3.15-.79 4.77-.92 3.24-.27 4.93 1.14 4.84 2.68-.08 1.54-1.28 2.78-2.51 3.71-3.69 2.77-8.37 4.19-12.98 3.92-.79-.05-1.66-.19-2.16-.81-.42-.54-.44-1.29-.3-1.96.51-2.51 2.8-4.26 5.11-5.37 1.04-.5 2.13-.92 3.23-1.25ZM104.29 81.16c1.18-1.42 2.34-2.46 3.42-3.14-1.32 4.9-3.4 9.59-6.16 13.84-.51.8-1.48 1.67-2.25 1.12-.34-.24-.46-.69-.55-1.1-.06-.28-.11-.56-.14-.84 2.33-4.69 4.25-8.17 5.68-9.88ZM90.22 261.12c.69.81 1 2.04.48 2.97-.32.6-.91.99-1.48 1.35a66.336 66.336 0 0 1-22.8 8.94c-1.34.25-2.72.47-4.06.19-1.34-.27-2.64-1.13-3.07-2.42-.46-1.36.1-2.67 1.06-3.78 9.26-2.77 18.83-5.67 28.17-8.47.64.3 1.24.69 1.7 1.22ZM88.02 72.28c-.85 3.18-2.42 6.17-4.56 8.68-.57.66-1.33 1.35-2.18 1.2-.89-.15-1.38-1.11-1.62-1.97l-.01-.02c1.09-1.61 2.22-3.24 3.39-4.89 1.37-1.92 3.28-2.98 4.98-3ZM76.97 86.41l.09.03c.74.24 1.18 1.01 1.06 1.78-1.06 7.2-3.56 14.05-6.19 20.88-2.01 5.22-4.09 10.42-5.64 15.77-1.68 5.82-2.74 12.01-1.45 17.92.57 2.63 1.6 5.17 1.88 7.85.71 6.72-3.43 13.07-8.45 17.59-.63.57-1.38 1.16-2.23 1.11-.27-.02-.53-.1-.76-.22 1.43-3.03 2.85-6.08 4.29-9.16.24-.5.2-1.1-.09-1.57-4.05-6.62-5.88-12.49-6.79-16.52-.04-.18-.05-.36-.03-.55.3-2.65 3.2-23.45 22.46-54.19.39-.62 1.15-.94 1.85-.72Z" style="fill:#e7f2fe"/><path d="M71.13 1108.7c-.46.33-.93.64-1.41.91-5.05 2.88-11.37 3.42-16.83 1.44-5.95-2.16-10.46-6.92-14.58-11.8 9.78-3.33 21.49-2.3 32.82 9.45Z" style="fill:#fff"/><path d="M49.11 182.19c1.61.01 2.07 2.69 1.66 4.47-7.69 33.42-30.64 62.5-34.32 96.6-.13 1.21-.24 2.43-.35 3.65-.52 5.83-9.22 5.38-9.11-.47v-.17c.12-5.18.44-10.36 1.03-15.55 8.58-20.94 23.76-51.96 41.08-88.53Z" style="fill:#e7f2fe"/><path d="M21.24 1110.63c1.89 4.61 4.31 9 7.18 13.08-5.45-5.19-8.43-9.47-7.91-12.28.23-.27.48-.53.73-.8Z" style="fill:#fff"/><path d="M20.51 1111.43c-2.98 3.36-4.91 6.6-5.43 8.76-4.74 19.84 126.84 98.13 144.14 86.95 2.11-3.86 4.1-7.6 5.97-11.24" style="fill:none;stroke:#000;strokeLinecap:round;stroke-linejoin:round;strokeWidth:1.07px"/><path d="m350.84 1114.35-.01.01M408.4 1079.17c3.01.44 5.49.26 7.4 2.25M350.84 1114.35c1.96-.24 4.06-.28 6.31-.1 5.68.44 12.29 2.3 19.91 5.97M327.5 1143.89h.01c6.22 3.61 16.63 5.75 28.16 6.1 25.21.79 55.85-6.94 60.1-26.4" style="fill:none;stroke:#000;strokeLinecap:round;stroke-linejoin:round;strokeWidth:1.14px"/><path d="M403.91 1077.29c.99 5.41 1.99 9.44 3.24 11.73.38.73.8 1.28 1.25 1.65.29.25.59.41.91.48.88-2.31 1.69-4 2.43-5.26 1.83-3.18 3.19-3.68 4.06-4.47v2.68c.02 12.11 0 26.3-.01 39.49 0 5.61 0 11.04.01 16.06 0 .55-.15 1.11-.45 1.58-15.55 24.52-63.14 23.69-86.37 15.67-.61-.21-1.05-.75-1.14-1.38-.46-3.2-.62-6.57-.44-9.95.03-.56.06-1.12.11-1.68.34-4.14 1.18-8.24 2.59-12.02 3.36-9.03 9.98-16.21 20.74-17.52 1.29-.85 2.74-1.88 4.28-3.04 6.98-5.28 15.66-13.36 18.63-20.5.35-.85.89-1.62.76-2.53-.44-3.17-1.36-8.46-1.39-12.39" style="fill:none;stroke:#000;strokeLinecap:round;stroke-linejoin:round;strokeWidth:1.07px"/><path d="M153.66 1100.89c14.56 4.3 25.67 13.11 31.86 28.33.9 2.23 1.7 4.6 2.4 7.11 4.74-9.31 9.36-18.7 13.85-28.18 74.32-156.51 115.92-335.28 143.82-532.05h13.4c.5 9.6.96 19.2 1.37 28.8 6.52 147.65 3.92 295.3-5.56 442.91-.32 4.91-.64 9.81-.97 14.71 5.67 6.53 12.3 10.82 19.29 13.37v-.54c.02-1.83 1.44-3.33 3.27-3.49 7.47-.65 26.79-1.91 26.94 2.16.19 1.14.39 2.24.58 3.27 1.5-.34 2.99-.73 4.44-1.18 5.71-1.74 10.94-4.21 15.32-7.08 0-.31.03-.63.04-.95 8.65-202.65 48.81-556.14 24.14-606.32-31.41 56.29-68.52 59.63-91.79 64.37-13.02 2.65-28.23.29-43.29-3.77-16.7-4.48-33.22-11.03-46.38-15.1-3.97-1.23-8.33-1.57-12.66-1.42a2298.174 2298.174 0 0 1-.68 19.15 1713.982 1713.982 0 0 1-1.43 29.37c-13.17 234.29-67.24 418.93-106.15 505.65-7.13 15.89-13.75 28.49-19.52 37.51.7-.01 1.4-.01 2.09.01M187.92 1136.33c-1.83-.2-3.62-.46-5.37-.77M127.32 1099.48c-.46-.64-.92-1.29-1.37-1.96M217.17 207.82v.5c.22 5.08 2.51 10.78 7.23 15.64h0c3.26 3.38 7.69 6.35 13.43 8.41-1.24 5.42-2.47 10.86-3.7 16.29M223.45 195.78c-.25.12-.48.25-.72.39-3.6 2.14-5.58 6.39-5.56 11.33" style="fill:none;stroke:#000;strokeLinecap:round;stroke-linejoin:round;strokeWidth:1.07px"/><path d="M217.17 207.5v.32c-.01.17-.01.34 0 .5-.01 1.05-.01 2.09 0 3.1.31 18.1 4.86 31.7 16.97 37.24M275.65 187.79c-.2-.23-.41-.47-.65-.69-2.05-2.07-5.76-4.45-13.09-5.29M237.84 232.37c3.53 6.64 7.27 12.5 10.8 19.15.71-7.27 1.43-14.53 2.14-21.8 4.31 4.07 8.61 8.13 12.91 12.2 12.33-21.14 19.12-43.86 13.36-52.25-.34-.49-.77-1.14-1.39-1.87M261.91 181.81h-.01" style="fill:none;stroke:#000;strokeLinecap:round;stroke-linejoin:round;strokeWidth:1.07px"/><path d="M265.86 194.01c1.04-5.99.23-10.63-3.95-12.18M250.78 229.72c4.99-9.24 13.16-24.73 15.08-35.7M224.41 223.96c-1.38-5.64 1.23-13.93 6.6-14.41M252.33 258.58c3.42 0 6.19 2.77 6.19 6.2s-2.77 6.2-6.19 6.2c-1.05 0-2.03-.26-2.89-.72a6.176 6.176 0 0 1-3.31-5.48c0-3.43 2.78-6.2 6.2-6.2ZM275 187.1c.2.24.42.47.65.69 0 .01.01.01.01.01 7.74 7.54 27.78 3.78 56.31-8.64 18.47-8.05 33.12 2.97 43.42 20.3 13.36 22.46 33.89 42.97 43.43 56.86-4.91-.43-9.45 1.62-13.62 5.45-7.32 6.74-13.52 18.96-18.65 32.92-2.92 7.96-5.51 16.49-7.75 24.88M418.82 256.32c-1.01 5.15-1.75 8.97-2.84 12.39-.33 1.03-.69 2.03-1.1 3.01M229.23 509.9c5.51 7.26 11.26 12.68 23.82 15.09M101.46 256.03c4.93 3.23 9.38 7.56 13.35 12.99 3.92 5.37 7.38 11.82 10.36 19.35.83 2.1 1.62 4.27 2.38 6.54 5.1 15.28 19.97 24.68 29.82 36.19 9.27-2.13 18.55-4.25 27.84-6.37-1.47-9.08-2.93-18.16-4.38-27.24M95.54 252.76c2.04.93 4.01 2.01 5.91 3.27M217.18 208.32h0c-5.62-.98-16.69 3.72-34.16 11.27-16.45 7.11-38.58 16.75-67.19 26.55-6.43 2.21-13.19 4.42-20.28 6.62M95.54 252.76c-2.22 1.46-3.39 2.71-3.87 3.97-.29.74-.33 1.49-.22 2.29" style="fill:none;stroke:#000;strokeLinecap:round;stroke-linejoin:round;strokeWidth:1.07px"/><path d="M106.29 295.4c5.69 10.56 14.11 18.75 25.58 24.41 2.11 1.04 4.32 1.99 6.63 2.86 6.58 2.46 13.49 6.43 18.87 8.43M362.25 253.01c2.65 22.04 7.54 44.2 16.55 66.56.64 1.58 1.29 3.16 1.98 4.74 4.91 11.47 10.95 22.99 18.35 34.58 8.07 11.56 16.25 22.69 24.12 33.88 3.57 5.09 7.07 10.2 10.46 15.36 5.68 8.64 11.03 17.45 15.87 26.66 2.06 3.92 4.02 7.91 5.88 11.99-2.5 5.37-5.04 10.36-7.61 14.98M253.73 505.84c-8.92.31-17.75 2.7-22.9 3.75-.58.13-1.12.23-1.6.31-8.08-23.27-16.05-49.67-17.7-81.41-.62-12.06-2.35-23.68-4.78-34.92-5.3-24.63-13.94-47.41-21.54-68.84" style="fill:none;stroke:#000;strokeLinecap:round;stroke-linejoin:round;strokeWidth:1.07px"/><path d="M397.19 305.94c-3.86 8.18-10.07 15.31-14.5 17.64-.68.37-1.33.61-1.91.73h-.02M186.18 127.59c1.9 4.94 5.08 11.14 9.21 17.28 3.13 4.65 6.79 9.26 10.86 13.25 5.37 5.29 11.43 9.51 17.84 11.32 2.22.63 4.47.97 6.75.97 5.75 0 12.05-.88 18.46-5.29 2.24-1.54 4.5-3.52 6.74-6.04 6.38-7.19 12.68-18.81 18.43-37.49h.01c3.66 1.56 8.83 1.76 13.07-.24 11.21-5.26 16.96-40.51 2.01-43.81-.52-.11-1.04-.11-1.55-.03-1.12.17-2.13.5-3.32 1.03-.66.29-1.39.65-2.22 1.08M177.29 84.5c-1.56-3.62-3.49-5.92-5.53-7.15-.68-.4-1.36-.69-2.05-.85-.48-.13-.97-.2-1.45-.21-.12 0-.24-.01-.35 0-1.54.03-3.04.58-4.39 1.57-3.33 2.42-5.72 7.46-5.44 13.7v.04c.67 14.36 10.74 32.23 24.92 30.01.44-.06.89-.15 1.35-.26.07.42.16.87.27 1.35.13.57.3 1.18.5 1.83.29.94.64 1.95 1.05 3.03" style="fill:none;stroke:#000;strokeLinecap:round;stroke-linejoin:round;strokeWidth:1.07px"/><path d="M206.25 158.12c2.29 5.82 4.73 11.59 7.31 17.31 1.19 2.65 2.41 5.28 3.67 7.91 1.99 4.17 4.07 8.32 6.23 12.44 1.19 2.28 2.4 4.55 3.65 6.82 1.27 2.32 2.57 4.64 3.9 6.95 3.64 6.32 7.49 12.56 11.55 18.74M256.04 159.08c1.58 7.41 3.6 15.2 5.87 22.73v.02c1.26 4.17 2.58 8.26 3.95 12.18h0M125.17 288.37a470.8 470.8 0 0 1-9.93 3.72c-3.02 1.09-6.02 2.15-9 3.18-24.17 8.33-47.65 14.68-74.34 21.87-.3.09-.6.17-.91.25C9.55 323.18-.45 310.92.61 294.44c.32-4.81 2.99-12.93 7.42-23.72 8.58-20.94 23.76-51.96 41.08-88.53 2.03-4.28 4.09-8.64 6.17-13.07 1.55-3.29 3.1-6.61 4.67-9.97-4.48-7.08-6.4-13.36-7.32-17.54 0 0 1.88-21.96 23.12-55.48 1.23-1.95 2.53-3.94 3.9-5.96 1.09-1.61 2.22-3.24 3.39-4.89 1.37-1.92 3.28-2.98 4.98-3 .69-.01 1.34.16 1.91.5.31.18 1.82 1.03 1.98 5.37.33 9.38-5.91 25.27-8.58 31.71" style="fill:none;stroke:#000;strokeLinecap:round;stroke-linejoin:round;strokeWidth:1.07px"/><path d="M97.72 116.54a26.27 26.27 0 0 1 4.6 4.81M74.33 110.02c3.1-.24 6.09-.14 8.93.29 1.96.3 3.85.76 5.65 1.38 3.25 1.11 6.22 2.73 8.81 4.84" style="fill:none;stroke:#000;strokeLinecap:round;stroke-linejoin:round;strokeWidth:1.07px"/><path d="M88.91 111.69c3.69-7.97 6.97-15.15 9.7-20.65 2.33-4.69 4.25-8.17 5.68-9.88 1.18-1.42 2.34-2.46 3.42-3.14 2.53-1.59 4.67-1.18 5.76 1 .73 1.44 1.01 3.66.64 6.61-1.09 8.73-4.36 20.34-11.79 35.72M105.56 121.35c3.79-9.55 8-17.26 11.22-22.39 1.71-2.72 3.14-4.72 4.08-5.9 1.95-2.44 3.93-3.89 5.69-4.48 2.63-.88 4.77.16 5.58 2.67.51 1.52.52 3.59-.13 6.09-2.42 9.35-5.39 15.31-12.03 27.86M102.32 121.35c.82.93 2.82 1.4 3.24 0" style="fill:none;stroke:#000;strokeLinecap:round;stroke-linejoin:round;strokeWidth:1.07px"/><path d="M88.1 142.8c2.7-2.18 5.09-3.87 7.33-4.99 4.46-2.24 8.32-2.21 12.78.72 1.92-3.38 2.39-5.94 3.83-8.66 1.24-2.34 2.67-3.81 4.09-4.52 1.36-.71 2.71-.71 3.84-.13 1.16.57 2.1 1.75 2.6 3.4.46 1.47.58 3.31.21 5.44-.67 3.91-1.63 10.06-5.58 16.37-8.84 14.1-27.82 17.2-29.74 19.23-6.21 6.52-8.33 31.18-36.11 101.4-1.59 4-3.25 8.14-5 12.44-.66 1.6-1.32 3.22-2 4.87" style="fill:none;stroke:#000;strokeLinecap:round;stroke-linejoin:round;strokeWidth:1.07px"/><path d="M51.35 271.06c2.95-.88 5.96-1.78 9-2.69 9.26-2.77 18.83-5.67 28.17-8.47.98-.29 1.96-.59 2.93-.88 1.2-.36 2.39-.72 3.58-1.07 2.16-.66 4.3-1.29 6.42-1.92h.01M386.55 294.69c1.58 1.67 3.18 3.37 4.82 5.1 1.91 2.02 3.85 4.08 5.82 6.15 2.8 2.94 5.64 5.93 8.5 8.94 7.47 7.85 15.05 15.81 22.23 23.4 2.36 2.48 4.66 4.92 6.91 7.3.93.98 1.27 2.39.9 3.69-4.78 16.69-7.69 26.81-12.48 43.5" style="fill:none;stroke:#000;strokeLinecap:round;stroke-linejoin:round;strokeWidth:1.07px"/><path d="m405.2 261.77 8.38 8.62c.43.44.87.88 1.3 1.33 17.08 17.56 34.73 35.69 51.54 52.98a21.737 21.737 0 0 1 5.5 20.38c-8.35 33.51-14 56.2-22.34 89.71M165.19 1195.9c-14.89 1.42-64.81-23.03-101.89-46.53-14.59-9.25-27.19-18.35-34.88-25.66-5.45-5.19-8.43-9.47-7.91-12.28.23-.27.48-.53.73-.8 4.16-4.47 10.13-9.03 17.07-11.38 9.78-3.33 21.49-2.3 32.82 9.45 2.52 2.61 5.02 5.75 7.47 9.49 4.52 1.53 8.86 2.18 12.94 2.18.59 0 1.18-.01 1.75-.04s1.13-.07 1.68-.12c.03.01.08 0 .11-.01.48-.04.97-.1 1.44-.16.69-.09 1.38-.19 2.06-.32.46-.09.92-.18 1.38-.29.49-.11.97-.22 1.45-.35.56-.15 1.12-.31 1.67-.48.51-.16 1.02-.33 1.51-.52.35-.11.69-.24 1.02-.37.22-.07.42-.16.61-.23.43-.19.86-.36 1.27-.55.39-.17.77-.34 1.14-.52.38-.17.75-.36 1.12-.56.24-.11.48-.24.71-.37.77-.41 1.52-.83 2.24-1.28.25-.14.48-.29.72-.45.48-.3.94-.6 1.39-.92.23-.15.45-.31.67-.47.3-.21.58-.42.87-.64.37-.26.71-.53 1.06-.81l.03-.03c.35-.28.71-.57 1.04-.86.04-.03.08-.06.13-.1.29-.25.58-.5.86-.76 1.22-1.08 2.33-2.18 3.3-3.27.15-.16.3-.33.44-.49.3-.33.57-.66.83-.98.27-.32.52-.64.76-.96.13-.16.24-.32.35-.47.15-.2.3-.42.44-.61.19-.27.36-.52.51-.77.17-.25.32-.5.47-.74.29-.5.54-.95.75-1.39.36-.74.59-1.39.72-1.95.08-.36.47-2.01.46-2.28.86-1.75 8.85-2.18 15.9.76 3.6 1.51 6.86 2.97 9.25 4.87h.01c2.08 1.66 3.53 3.66 3.99 6.34-1.39 2.61-3.14 7.44-5.2 12 .29 2.16.47 3.05.74 5.3 1.32 6.09 2.05 12.29 3.82 15.99.3.64.63 1.2 1 1.67 7.3 1.39 16.29-1.76 21.17-3.83 1.1-.47 1.99-.89 2.61-1.18 1.19-.05 2.07.4 2.65 1.29 3.57 5.44-3.89 27.6-19.25 57.44Z" style="fill:none;stroke:#000;strokeLinecap:round;stroke-linejoin:round;strokeWidth:1.07px"/><path d="M185.52 1129.22c-1.29 2.74-1.83 3.89-2.97 6.34-.24.48-.48 1.01-.76 1.61M408.39 1076.26c.01.87.01 1.86.01 2.91 0 2.81-.02 6.1-.01 8.88 0 .95 0 1.83.01 2.62M259.06 87.36c.12.15.23.3.33.46a6.612 6.612 0 0 1 1.06 3.6c0 3.68-2.99 6.67-6.68 6.67s-6.67-2.99-6.67-6.67c0-1.5.5-2.88 1.34-3.99a6.595 6.595 0 0 1 5.33-2.68c1.16 0 2.25.3 3.2.82M211.75 87.65c.33.49.61 1.02.8 1.59.24.68.37 1.42.37 2.18 0 3.68-2.99 6.67-6.67 6.67s-6.68-2.99-6.68-6.67c0-.26.02-.53.05-.78a6.66 6.66 0 0 1 6.63-5.89c1.16 0 2.25.3 3.2.82M222 110.77c.89-2.37 4.07-4.12 6.14-4.9.84-.32 1.49-.48 1.74-.46.8.08 5.93 2.11 7.15 5.06M208.81 138.85a22.806 22.806 0 0 1-2.22-10.52c14.61-7.88 29.48-7.95 44.62.18.08 3.57-.65 6.95-2.02 9.99-3.4 7.64-10.79 13.06-19.15 13.48-9.02.45-17.39-5.01-21.23-13.13Z" style="fill:none;stroke:#000;strokeLinecap:round;stroke-linejoin:round;strokeWidth:1.07px"/><path d="M208.8 138.86h.01c12.37-12.02 25.75-13.06 40.38-.36M283.64 90.29c.36-.29.72-.55 1.07-.77 4.33-2.87 8.09-1.64 9.12 3.57M280.79 93.08c.11-.13.23-.26.34-.39.84-.95 1.68-1.75 2.5-2.4M180 95.2c-1.09-4.4-3.63-7.41-6.63-8.63-3.19-1.29-6.92-.54-9.98 2.74-.14.15-.28.31-.42.47" style="fill:none;stroke:#000;strokeLinecap:round;stroke-linejoin:round;strokeWidth:1.07px"/><path d="M173.37 86.57c-1 .55-1.79 1.21-2.39 1.98-1.62 1.98-2.05 4.66-1.99 7.86M283.63 90.29h.01c3.51 1.64 5.35 4.63 4.38 10.78M177.15 28.18c-1.86 2.88-4.78 5.22-7.6 7.45M184.64 102.05s.2.35-2.13.32M168.04 60.17c-.12.15-.23.3-.35.45M169.57 46.38c1.8 2.33 2.47 4.29 2.45 6.05-.04 3.61-2.12 5.43-3.94 7.69M207.07 7.43c-1.4-.64-3.51-1.4-5.87-1.74M193.85 6.36c-1.19.49-2.14 1.33-2.96 2.36M183.69 17.7c.31-.11.61-.25.9-.41M185.97 16.18c-.28.29-.58.55-.89.79M190.89 8.72c-1.37 1.65-2.33 3.7-3.41 5.45M253.45 9.05c.84 2.32 1.03 4.74.38 6.76-.32 1-.85 1.9-1.6 2.63-.11.11-.22.21-.34.31M253.44 9.03c-.18-.5-.39-1.01-.63-1.49M276.12 26.51c4.18 4.01 7.68 3.42 9.73 1.05M285.85 27.56h-.01" style="fill:none;stroke:#000;strokeLinecap:round;stroke-linejoin:round;strokeWidth:1.07px"/><path d="M168.79 76.5c-.18-.07-.36-.13-.53-.21-1.63-.74-2.65-2.18-2.9-8.33-.14-3.44.97-5.57 2.33-7.34.14-.15.26-.3.35-.45.01-.02.02-.04.04-.05 2.68-3.9-6.73-5.71-6.55-14.21.09-4.06 3.94-7.06 8.02-10.28-1.28-12.27 4.2-17.43 12.59-17.66.2 0 .38-.02.55-.04.35-.04.69-.12 1-.23.32-.1.62-.24.9-.41.17-.1.33-.2.49-.32.32-.22.62-.49.89-.79.14-.14.27-.29.4-.45.21-.25.42-.53.62-.82.17-.24.33-.48.49-.74 1.13-1.76 2.1-3.83 3.41-5.45.81-.97 1.76-1.81 2.96-2.36 2.38-.97 4.99-1.03 7.35-.67 1.72-1.73 4.31-3.73 7.63-3.99 5.41-.42 7.24 5.3 13.86 5.41 1.29.02 2.47-.1 3.58-.32 6.59-1.32 10.3-6.27 16.55-6.26 4.45.01 8.1 3.19 9.99 7.01.17.54.39 1.03.63 1.49v.02c4.12 7.55 18.2 4.92 25.84 4.95 9.26.04 10.11 9.46 6.56 13.56 2.9 1.34 6.15 5.98 3.97 15.2 10.61 6.84 1.41 14.97-1.53 15.87 1.48 2.33 3.06 4.94 4.07 8.49.94 3.29-3.18 5.35-7.1 10.61-3.92 1.89-7.47 3.98-11.36 5.88.09-6.35-.4-12.66-3.53-15.94-4.37 4.71-13.01 4.59-13.5 10.6" style="fill:none;stroke:#000;strokeLinecap:round;stroke-linejoin:round;strokeWidth:1.07px"/><path d="M209.53 78.52c-.04-.1-.07-.21-.09-.32-1.81-7.63-8.67-3.61-10.49-1.66-3.43 1.92-7.34-2.17-9.22-7.69h-.01c-.84-.23-2.23-.49-3.55.14 0 0-.71.34-1.27.96-.86 1.53-.17 8.05.42 14.85h0c.67 7.61 1.2 15.54-.68 17.25-.16.16-.76.32-2.13.32h-.14c-.39 0-.7-.14-.95-.39-.7-.69-.94-2.25-1.16-4.35-.08-.75-.16-1.56-.26-2.43-.35-3.13-.95-6.93-2.71-10.7-.52-1.11-1.15-2.22-1.9-3.31-2.62-3.77-4.87-4.08-6.58-4.69M239.31 83.57c-1.21-.26-2.47-.78-3.76-1.52-.23-.14-.47-.29-.7-.44-1.26.38-2.62.61-3.98.65-.14.01-.28.01-.42.01a16.09 16.09 0 0 1-7.3-1.78c-.59.81-1.72 2.13-2.69 2.73M250.59 78.6c-.44-.73-.76-1.5-.96-2.31-.39 1.03-.83 1.94-1.31 2.76M283.63 80.18c.34-.58.7-1.12 1.06-1.64.19-.27.38-.55.57-.81M288.29 58.63c-2.7-4.23-5.11-7.51-3.27-13.79M273.9 83.61c-.13 9.32-1.53 18.71 2.22 18.71 1.46 0 2.4-.85 3.07-2.29.74-1.59 1.15-3.9 1.54-6.58l.06-.37c.59-3.94 1.19-8.59 2.84-12.9" style="fill:none;stroke:#000;strokeLinecap:round;stroke-linejoin:round;strokeWidth:1.07px"/><path d="M189.72 68.85c-1.97-5.81-1.72-13.22 3.7-16.87.11-.08.22-.16.34-.23M232.48 69.91c-3.31 6.75 7.39 5.09 3.95-.11 6.08 3 5.88 6.69 3.06 9.28-1.05.96-2.46 1.77-4.04 2.32-.2.08-.4.15-.6.21M223.15 80.49c-7.06-3.64-11.45-12.66-5.06-25.3.6-1.18 1.29-2.4 2.09-3.65.46-.72.95-1.45 1.48-2.19M249.63 76.29c-1.35-5.37 2.26-12.15 10.6-13.46M272.16 55.4c1.55 6.27.43 9.89-1.79 12.27" style="fill:none;stroke:#000;strokeLinecap:round;stroke-linejoin:round;strokeWidth:1.07px"/><path d="M222.46 89.47c.83 12.45-8.4 20.95-16.94 21.33-9.89.45-21.33-9.56-18.15-24.94 3.2-5.93 13.4-8.54 22.16-7.34.19.72.42 1.37.68 1.95.26.59.56 1.1.89 1.55 1.05 1.46 2.4 2.21 3.81 2.45 1.89.34 3.91-.23 5.55-1.25.44.43.84.89 1.19 1.38.44 1.67.71 3.32.81 4.87ZM271.85 84.6c3.97 15.05-6.52 25.77-16.13 26.2-9.1.42-19.51-8.02-18.63-21.35.07-1.16.23-2.36.49-3.59.45-.84 1.02-1.59 1.73-2.29 3.6.79 6.75-.62 9.01-4.52.75-.19 1.5-.34 2.27-.45 1.32 2.2 3.7 3.88 7.17 4.37-.74-1.9-1-3.43-.89-4.7 2.16.09 4.29.4 6.27.95 3.67.99 6.83 2.77 8.71 5.38Z" style="fill:none;stroke:#000;strokeLinecap:round;stroke-linejoin:round;strokeWidth:1.14px"/><path d="M227.89 86.48c1.99-.63 3.92-.41 5.98.84.86.51 1.74 1.21 2.66 2.09M223.01 89.47c1.73-1.47 3.32-2.49 4.88-2.98M286.22 77.28c-.33.15-.65.3-.96.45M273.9 83.61c-.5.26-1 .5-1.51.73M168.81 75.19c.63.35 1.29.71 1.96 1.08.4.23.8.46 1.21.69 4.33 2.5 9.16 5.5 13.34 7.84M186.84 85.64c-.49-.26-.99-.54-1.52-.83" style="fill:none;stroke:#000;strokeLinecap:round;stroke-linejoin:round;strokeWidth:2.14px"/><path d="M231 510.43c7.27 2.66 14.75 4.7 22.37 6.11.75.14 1.5.27 2.25.4" style="fill:none;stroke:#000;stroke-miterlimit:10"/><path d="M206.15 94.31c-2.08 0-3.97.31-5.42.82.63.42 1.12.98 1.47 1.62.4.31.74.67 1.01 1.08.58.03 1.11.13 1.57.31.51-.18 1.08-.29 1.72-.29.57 0 1.1.08 1.57.23.63-.52 1.42-.88 2.39-.99.33-.72.82-1.35 1.48-1.82-1.48-.59-3.53-.95-5.79-.95ZM253.66 92.74c-2.54 0-4.8.45-6.3 1.17.68.64 1.13 1.47 1.36 2.37.73.23 1.36.61 1.84 1.1.08 0 .15-.02.22-.02 1.02 0 1.88.25 2.58.68.37-.08.76-.14 1.18-.14.45 0 .87.05 1.26.15.55-.51 1.22-.9 2.05-1.09.51-1.2 1.47-2.2 2.89-2.61-1.42-.96-4.05-1.6-7.07-1.6Z" style="fill:#007afb"/></g><circle cx="256.83" cy="87.89" r="2.44" style="fill:#fff"/><circle cx="250.45" cy="263.25" r="3.12" style="fill:#fff"/><circle cx="209.49" cy="87.89" r="2.44" style="fill:#fff"/></g></g></g></g></svg>