<svg xmlns="http://www.w3.org/2000/svg" viewBox="0 0 272.27 1206.3"><g data-name="Layer 2" style="isolation:isolate"><g data-name="FINISHED"><g data-name="RAFA"><g data-name="base"><path d="M235.77 393.6c-4.45-13.97-9.54-29.5-14.41-44.48-.79-2.45-1.59-4.89-2.36-7.3-1.51-4.65-2.97-9.21-4.37-13.61 3.98-4.12 9.18-8.27 15.81-11.25 7.01-3.16 13.51-4.93 19.09-5.92 1.48 5.62 2.88 10.94 4.2 15.97 9.01 34.17 14.69 55.03 16.87 60.6.54 1.4 1.22 3.48 1.16 5.36-.06 2.07-3.23 9.55-4.27 12.1-1.15 2.82-13.94 28.41-36.78 70.67-4.27 7.91-8.9 16.49-13.88 25.79-4.51 8.39-9.34 17.45-14.41 27-4.72-1.4-10.57-4.09-15.78-9.3-4.91-4.91-7.49-10.3-8.85-14.25 1.39-2.69 3.06-5.87 4.46-8.55 14.08-27.04 28.15-54.07 42.23-81.12 3.76-7.23 7.53-14.47 11.29-21.7Z" style="fill:#e7f2fe"/><path d="M265.85 309.82c.46.01.86.01 1.22.01A60.574 60.574 0 0 1 253.73 327c-1.32-5.04-2.73-10.36-4.2-15.96 7.32-1.3 13.05-1.24 16.32-1.22Z" style="fill:#82cefa"/><path d="M44.26 499.83c-8.09-.59-14.8-.2-19.33.25 3.96-8.13 9.05-16.19 11.19-25.43 1.77-7.66 3.4-15.31 4.89-22.92 7.28-37.02 11.42-73.28 13.26-107.22-9.53 4.5-18.67 5.55-27.4 3.12-9.25-2.56-18.04-9.04-26.36-19.48 15.98-48.28 25.43-76.3 29.5-92.58.9-3.59 2.43-10.36 9.16-17.3 4.59-4.74 10.35-8.15 26.45-8.14 9.56 0 17.32-1.49 20.16-4.62-.25.33-.51.69-.76 1.08-.46.77-.83 1.61-1.09 2.52-2.18 7.75 4.65 18.8 18.31 23.4h.05c-.03.16-.05.34-.05.51 0 .64.23 1.23.62 1.67.46-.09.93-.14 1.41-.14.09 0 .17 0 .26.01-.26.01-.52.04-.76.09a5.091 5.091 0 0 0 1.01 10.08c2.81 0 5.09-2.28 5.09-5.09 0-2.2-1.38-4.07-3.34-4.77.49-.47.79-1.12.79-1.84 16.27-.86 30.19-11.76 30.3-25.17 2.34-2.15 3.74-4.51 3.65-6.88-.06-1.58-.87-2.88-2.49-3.77 21.66 3.99 34.13.39 43.65.26 8.3-.1 12.08 2.14 15.26 4.07 13.22 8.04 19.28 21.01 22.38 25.43 11.88 16.96 24.68 45.87 45.78 81.39h-.01v1.47c-3.28-.02-9.01-.08-16.33 1.21-5.58.99-12.08 2.76-19.09 5.92-6.63 2.98-11.83 7.13-15.81 11.25-5.03 5.22-8.1 10.4-9.62 13.17 2.45.37 7.52.98 14 .45.77 2.41 1.57 4.85 2.36 7.3.32 22.18 1.4 44.23 3.11 66.18-14.08 27.04-28.15 54.07-42.23 81.12-4.19.51-7.3 1.25-8.78 1.63-11.75 3.03-10.12 6.2-23.4 11.19-25.63 9.66-50.97 5.13-60.03 3.05-18.05-4.13-22.48-10.18-42.73-12.21-1.04-.1-2.06-.19-3.05-.25Z" style="fill:#fff"/><path d="M236.55 517.38c-.55 1.29-3.07 6.77-9.16 9.16-2.89 1.13-6.99.97-8.61.83.76-8.09.51-15.61-1.43-25.61 2 .98 4 2.11 5.97 3.41 6.34 4.17 10.62 8.89 13.23 12.21Z" style="fill:#82cefa"/><path d="M202.42 528.52c5.07-9.55 9.9-18.61 14.41-27l.52.24c1.94 10 2.2 17.52 1.43 25.61-.76 8.01-2.51 16.57-4.62 28.67-20.35 117-25.03 198.84-27.47 226.88-6.1 70.2-7.12 165.84 20.35 326.58-.9 1.06-2.27 2.6-4.17 4.28-3.21 2.83-7.89 6.03-14.14 7.93a36.558 36.558 0 0 1-10.06 1.58c-.41-.87-.76-1.76-1.08-2.64-1.19-3.36-12.31-4.13-18.89-3.9-24.61-88.84-46.72-203.99-48.31-338.93-.89-75.08 4.74-143.1 13.23-202.46-3.05-.68-6.1-1.35-9.16-2.03C101.43 629.1 90.5 696.7 88.01 773.76c-4.18 129.02 16.79 237.02 38.66 314.38-.4.6-1.02 1.5-1.87 2.56a39.103 39.103 0 0 1-5.71 5.79 37.38 37.38 0 0 1-12.77 6.91c-3.87 1.2-7.56 1.65-10.95 1.64-.15-.45-.32-.91-.48-1.35-1.6-4.3-12.75-6.13-19.35-6.98-25.71-74.25-60.44-189.56-64.86-334.13C7.7 664.74 28.37 581.1 40.96 517.46c1.18-5.97 2.29-12.02 3.3-17.62 1 .06 2.01.15 3.05.25 20.25 2.02 24.68 8.08 42.73 12.21 9.05 2.08 34.4 6.6 60.03-3.05 13.28-5 11.65-8.16 23.4-11.19 1.48-.38 4.59-1.12 8.78-1.63-1.39 2.68-3.06 5.86-4.46 8.54 1.36 3.97 3.94 9.35 8.85 14.26 5.21 5.21 11.06 7.89 15.78 9.3Z" style="fill:#0047ab"/><path d="M218.33 1148.89c.26 4.94.11 9.28-.18 12.83-18.26 16.27-35.47 26.25-47.74 32.3-21.25 10.47-33.21 11.82-41.44 11.77-9.33-.05-21.27-.12-28.74-8.72-3.84-4.42-5.46-9.9-5.71-15.46 2.12 3.83 9.52 8.36 18.59 9.93 3.37.58 15.48 3.7 32.75-1.51 31.1-9.37 64.83-36.88 72.47-41.14Z" style="fill:#82cefa"/><path d="M134.55 1145.71c4.54-1.61 11.14-4.83 14.3-10.73 4.04-7.55 2.67-15.78 5.07-17.6.39-.3 2.25-.53 4.77-.62 6.58-.23 17.7.54 18.89 3.9.32.87.67 1.76 1.08 2.64 2.99 6.51 8.2 12.69 11.35 11.46 4.16-1.63 11.85-7.2 12.85-20.96 1.9-1.68 3.28-3.23 4.17-4.28a92.346 92.346 0 0 1 8.75 22.38c1.52 6.16 2.26 11.9 2.53 17-7.64 4.26-41.37 31.77-72.47 41.14-17.27 5.21-29.38 2.09-32.75 1.51-9.06-1.57-16.47-6.1-18.59-9.93-.23-5.06.67-10.16 2.11-14.57.65-2.03 1.41-3.92 2.23-5.59 1.16-2.37 4.22-8.61 9.83-13.18 2.93-2.41 6.56-4.35 10.98-5.05.24-.05.5-.09.75-.12 3.23-.41 6.22-.07 8.84.61 1.99.52 3.78 1.24 5.3 1.99Z" style="fill:#fff"/><path d="M214.63 328.2c1.4 4.41 2.87 8.96 4.37 13.61-6.48.53-11.55-.08-14-.45 1.53-2.77 4.6-7.95 9.62-13.17Z" style="fill:#82cefa"/><path d="M202.87 1113.79c-1 13.76-8.69 19.33-12.85 20.96-3.15 1.23-8.36-4.94-11.35-11.46 3.15-.05 6.53-.51 10.06-1.58 6.25-1.89 10.93-5.1 14.14-7.93Z" style="fill:#e7f2fe"/><path d="M142.2 113.41c1.72-1.62 3.82-4.3 5.53-7.83.66 1.31 3.59 2.47 5.38 1.79 2.38-.9 4.24-4.54 3.05-9.16 1.3.07 7.51 6.02 7.12 14.24-.54 11.71-12.21 11.19-12.21 11.19 1.47 1.37 2.04 3.14 2.04 4.92 0 1.47-.4 2.94-1.03 4.23-.56 1.14-1.34 2.09-2.29 2.78s.01.01.01.01c.7.95 1.61 5.38-.77 9.17-2.07 3.3-5.7 5.03-9.01 4.8v.03c-.67 2.82-3.39 5.31-6.25 5.6-2.97.3-5.91-1.47-7.2-4.19-.45-9.76-.35-18.78.07-27.09 1.15-4.02 1.79-7.34 2.03-9.32 0-.01 0-.03.01-.09.64.78 2.38 2.03 5.09 2.03 2.4 0 4.63-.69 6.1-1.43.4-.2.74-.41 1.02-.6.4-.27.83-.64 1.29-1.08Z" style="fill:#01487b"/><path d="M83.86 120.94s-.02-.01-.03 0c-3.36-.05-7.12.39-11.08 1.69-8.06 2.66-13.04 7.64-15.26 10.17 2.75 4.99 7.19 8.6 12.23 10.29 2.92.98 6.03 1.31 9.14.91 9.8-1.29 17.67-9.81 18.31-20.35-1.85-.75-6.81-2.62-13.31-2.71Zm56.04-7.53v1.68c-1.48.74-3.7 1.43-6.1 1.43-2.71 0-4.45-1.25-5.09-2.03-.01.06-.01.08-.01.09-.24 1.98-.89 5.3-2.03 9.32-3.83 13.31-13.37 34.36-33.56 40.44-2.03.61-4.02 1.03-5.97 1.29h-.01c-7.99 1.08-15.04-.43-19.35-1.78-2.15-.67-3.61-1.3-4.17-1.55-1.38-.61-2.73-1.29-4.03-2.04-9.15-5.29-16.51-14.1-21.54-25.32-3.88-8.61-6.37-18.65-7.25-29.61-.01-.14-.02-.3-.04-.47-.27-3.65-.39-7.42-.28-11.26.06-2.98.24-6.02.54-9.1 2.3-.63 3.88-1.89 4.82-3.82 1.41.36 3.08.43 4.38.22 4.06-.62 13.07-2.99 20.35-7.12 2.25-1.28 4.07-4.07 0-6.1-3.28-1.64-11.08-1.95-15.26 0-3.44 1.61-6.51 3.54-8.14 5.09-.09.08-.17.17-.26.25-.17-2.86-.77-6.26-1.72-10.19 4.37-.09 9-2.57 11.2-8.91.65.37 1.32.61 1.99.69 4.67.58 11.93-.72 14.61-5.99.61-1.2.94-2.39 1.11-3.46.04-.32.48-.35.57-.03.28.97.74 1.93 1.43 2.8 4.01 4.98 13.89 4.29 19.9.43 1.02-.65 1.96-1.42 2.81-2.28l.1.09c.5.71 5.94 9.22 15.4 9.31 3.16.03 5.88-.85 8.14-2.11-1.77 17.23 4.63 27.21 10.53 29.76 1.54.67 3.31.82 5 .34 2.44-.69 4.72-2.72 5.97-6.51 1.18-.68 2.51-1.13 3.94-1.13 1.22 0 2.41.24 3.55.68 5.48 2.12 9.68 8.79 9.68 14.58s-1.44 10.59-3.35 14.49c-1.72 3.53-3.82 6.22-5.53 7.83h-2.31Zm-3.05-2.99c0-1.12-.91-2.03-2.03-2.03s-2.03.92-2.03 2.03.92 2.03 2.03 2.03 2.03-.92 2.03-2.03Zm-40.7-36.63c10.17 0 14.24-2.03 14.24-5.09 0-3.69-8.08-6.31-14.24-6.1-8.04.26-16.28 4.07-16.28 8.14s4.22 3.05 16.28 3.05Zm5.09 10.17c0-3.94-3.18-7.12-7.12-7.12S87 80.02 87 83.96s3.18 7.12 7.12 7.12 7.12-3.18 7.12-7.12Zm-10.11 36.67c.38.13.75-.15.66-.51-1.08-4.12-7.09-6.2-16.88-6.71-.39-.02-.75.17-.93.48-.85 1.57-1.72 3.13-2.57 4.71-.12.22.08.5.36.48 7.56-.32 14.5-.17 19.36 1.56Zm-21.82-1.42c.25-.1.32-.44.11-.6-1.47-1.09-2.92-2.19-4.38-3.28-.3-.21-.7-.24-1.05-.06-8.63 4.56-13.15 8.98-12.33 13.24.07.38.53.48.81.2 3.65-3.63 9.86-6.65 16.84-9.5Zm-8.76-31.17c0-3.94-3.18-7.12-7.12-7.12s-7.12 3.18-7.12 7.12 3.18 7.12 7.12 7.12 7.12-3.18 7.12-7.12Z" style="fill:#e7f2fe"/><path d="M111.63 12.61c.61-.13 5.67-1.25 9.8 1.96 1.65 1.28 2.66 2.82 3.27 4.27h.01c6.78-1.05 13.44 1.73 17.22 7.13 3.13 4.48 3.86 10.21 2.19 15.42.51.54 3.11 3.4 2.9 7.98-.18 3.94-3.45 7.49-4.07 8.14 2.06 2.38 3.57 5.07 4.07 8.14.97 5.94-4.96 10.37-5.61 10.86a9.822 9.822 0 0 0-3.55-.68c-1.42 0-2.76.45-3.94 1.13-1.25 3.79-3.53 5.82-5.97 6.51a7.33 7.33 0 0 1-5-.34c-5.9-2.55-12.3-12.52-10.53-29.76-2.26 1.25-4.98 2.14-8.14 2.11-9.46-.09-14.9-8.6-15.4-9.31l-.1-.09c-.84.85-1.79 1.63-2.81 2.28-6.01 3.87-15.89 4.55-19.9-.43a8.01 8.01 0 0 1-1.43-2.8c-.09-.32-.53-.28-.57.03-.17 1.07-.5 2.26-1.11 3.46-2.68 5.27-9.94 6.57-14.61 5.99-.67-.08-1.34-.33-1.99-.69-2.2 6.34-6.83 8.82-11.2 8.91.95 3.94 1.55 7.34 1.72 10.19.2 3.2-.12 5.76-1.07 7.66-.95 1.92-2.52 3.18-4.82 3.82-.3 3.07-.48 6.11-.54 9.1h-.01c-.79-1.23-1.69-2.51-4.49-2.51-1.52 0-2.78.84-3.81 2.26-7.67-6.4-10.02-12.34-10.44-16.5-.78-7.82-1.02-11.19 3.05-20.35 0-3.05-1.81-9.13-1.02-16.28 1.02-9.16 9.16-16.28 18.31-22.38 1.62-1.08 1.97-3.01 3.91-5.4 1.45-1.8 2.56-2.82 4.23-3.75 4-2.24 8.28-1.54 10.14-1.2.87-.16 8.3-6.51 16.31-6.94 5.13-.27 8.83 1.27 11.54 3.16 6.64 2.46 15.46-4.89 28.14 3.96 1.7 1.19 3.55 2.67 5.31 4.94Z" style="fill:#01487b"/><path d="M141.29 200.97c.09 2.37-1.31 4.73-3.65 6.88.02-1.65-.17-3.33-.6-5.04-.45-1.79-1.35-4.25-3.84-6.91 2.42.1 4.27.56 5.6 1.29 1.62.9 2.43 2.2 2.49 3.77Z" style="fill:#e7f2fe"/><path d="M85.84 205.44c1.44-1.87 2.95-2.94 4.78-4.05.61-.25.82-.32 1.26-.37a61.77 61.77 0 0 0 .19-18.37c-1.01-7.22-3.02-12.81-4.95-17.02 1.95-.26 3.94-.68 5.97-1.29 20.2-6.08 29.74-27.13 33.56-40.44-.42 8.31-.52 17.34-.07 27.09.21 4.93.58 10.06 1.1 15.38 1.05 10.68 2.62 20.55 4.45 29.5.37 0 .72.01 1.07.02 2.48 2.66 3.39 5.12 3.84 6.91.43 1.71.62 3.39.6 5.04-5.8 5.33-17.34 9.4-25.85 9.4-12.43 0-26.69-2.93-26.69-9.76 0-.54.25-1.24.69-1.98.02-.02.03-.04.05-.06Z" style="fill:#e7f2fe"/><circle cx="134.81" cy="110.42" r="2.03" style="fill:#00dbff"/><path d="M48.11 1120.75c4.65-.8 11.64-2.84 15.98-8.04 5.67-6.8 2.32-17.14 8.09-16.43.85.11 2.01.24 3.37.42 6.6.84 17.75 2.68 19.35 6.98.16.45.33.91.48 1.35 2.45 7.22 3.34 14.51 9.27 14.71 2.75.09 17.53-9.01 16.48-18.92-.08-.76-.02-2.1.09-2.18.21-.16 2.38-1.12 4.13-1.26.11-.01.21-.02.32-.02 2 5.94 4.23 14.49 4.85 24.11.41 6.38.11 12.21-.52 17.31-1.91.67-5.73 2.28-10.34 4.45-4.42.69-8.05 2.64-10.98 5.05-15.81 7.09-37.55 15.82-57.25 18.11-17.92 2.08-29.29-3.13-32.51-4.29-8.67-3.14-15.17-8.94-16.55-13.07h-.01c.98-7.32 4.35-14.31 7.83-19.06 2.42-3.31 10.98-14.97 24.45-14.25 5.72.3 10.3 2.72 13.46 5.05Z" style="fill:#fff"/><path d="M124.8 1090.7c.18 2.23.37 4.46.55 6.68-1.75.14-3.92 1.1-4.13 1.26l-2.13-2.16a40.13 40.13 0 0 0 5.71-5.79Z" style="fill:#e7f2fe"/><path d="m119.09 1096.49 2.13 2.16c-.11.08-.17 1.41-.09 2.18 1.05 9.91-13.73 19.02-16.48 18.92-5.93-.2-6.82-7.49-9.27-14.71 3.39.01 7.08-.44 10.95-1.64 5.33-1.65 9.55-4.26 12.77-6.91Z" style="fill:#e7f2fe"/><path d="M111.78 217.25c8.52 0 20.05-4.07 25.85-9.4-.11 13.41-14.03 24.31-30.3 25.17 0-1.4-1.14-2.54-2.54-2.54-1.23 0-2.26.87-2.49 2.03h-.05c-13.66-4.6-20.49-15.65-18.31-23.4.25-.92.63-1.75 1.09-2.52.25-.39.51-.75.76-1.08-.44.74-.69 1.44-.69 1.98 0 6.83 14.25 9.76 26.69 9.76Z" style="fill:#fff"/><path d="M106.54 234.86c1.95.7 3.34 2.57 3.34 4.77 0 2.81-2.27 5.09-5.09 5.09s-5.09-2.28-5.09-5.09c0-2.46 1.75-4.52 4.08-4.99.24-.05.5-.08.76-.09h.09c.65.03 1.27.15 1.86.35l.04-.04Z" style="fill:#00dbff"/><path d="M110.39 68.71c0 3.05-4.07 5.09-14.24 5.09-12.06 0-16.28 1.11-16.28-3.05s8.24-7.87 16.28-8.14c6.17-.2 14.24 2.41 14.24 6.1Z" style="fill:#01487b"/><path d="M108.68 1148.28c-5.61 4.57-8.67 10.8-9.83 13.18a42.26 42.26 0 0 0-2.23 5.59c-8.23 3.4-15.6 5.83-21.74 7.6-22.76 6.55-34.76 5.78-42.85 4.28-9.19-1.7-20.93-3.88-26.76-13.64-3-5.03-3.64-10.73-2.91-16.26h.01c1.38 4.13 7.88 9.93 16.55 13.07 3.21 1.16 14.59 6.37 32.51 4.29 19.7-2.29 41.44-11.02 57.25-18.11Z" style="fill:#82cefa"/><path d="M94.11 76.85c3.94 0 7.12 3.18 7.12 7.12s-3.18 7.12-7.12 7.12-7.12-3.18-7.12-7.12 3.18-7.12 7.12-7.12Zm4.88 4.07c0-.98-.78-1.77-1.76-1.77s-1.77.79-1.77 1.77.79 1.77 1.77 1.77 1.76-.79 1.76-1.77Z" style="fill:#0078da"/><path d="M97.24 79.14c.98 0 1.76.79 1.76 1.77s-.78 1.77-1.76 1.77-1.77-.79-1.77-1.77.79-1.77 1.77-1.77Z" style="fill:#fff"/><path d="M83.86 120.94c6.5.08 11.46 1.95 13.31 2.71-.64 10.54-8.52 19.06-18.31 20.35-3.1.41-6.22.07-9.14-.91-.42-1.6-2.06-6.22 1-12.32 4.16-8.32 11.72-9.76 13.11-9.83.01-.01.02-.01.03 0Z" style="fill:#82cefa"/><path d="M91.78 120.13c.09.36-.28.64-.66.51-4.86-1.73-11.8-1.87-19.36-1.56-.27.02-.48-.25-.36-.48.85-1.58 1.72-3.14 2.57-4.71.17-.31.54-.5.93-.48 9.79.52 15.8 2.59 16.88 6.71Z" style="fill:#01487b"/><path d="M72.75 122.63c3.96-1.3 7.72-1.74 11.08-1.69-1.39.07-8.95 1.51-13.11 9.83-3.05 6.1-1.41 10.72-1 12.32-5.04-1.69-9.48-5.3-12.23-10.29 2.22-2.53 7.2-7.52 15.26-10.17Z" style="fill:#182c4c"/><path d="M69.41 118.61c.2.16.14.5-.11.6-6.98 2.85-13.19 5.87-16.84 9.5-.28.27-.74.17-.81-.2-.82-4.25 3.7-8.68 12.33-13.24.35-.18.75-.15 1.05.06 1.47 1.09 2.92 2.19 4.38 3.28ZM67.76 163.85c-.85 2.89-3.48 4.94-6.21 5.58-1.92.45-3.84-.79-4.5-1.34 1.68-1.79 2.72-4.17 2.46-6.8l.04-1.03c1.3.75 2.65 1.43 4.03 2.04.56.24 2.02.87 4.17 1.55ZM60.54 67.69c4.07 2.03 2.25 4.82 0 6.1-7.27 4.13-16.29 6.5-20.35 7.12-1.3.2-2.97.13-4.38-.22.95-1.9 1.27-4.46 1.07-7.66.09-.08.17-.17.26-.25 1.63-1.55 4.7-3.48 8.14-5.09 4.18-1.95 11.98-1.64 15.26 0Z" style="fill:#01487b"/><path d="M41.68 165.56c-2.86.86-6.05.32-8.61-1.22-4.16-2.49-4.62-7.18-2.03-11.19 1.02 2.03 2.26 3.94 4.07 4.05 3.04.17 5.75-9.23 1.92-21.64.35-.16.68-.37 1-.62 5.03 11.22 12.39 20.03 21.54 25.32l-.04 1.03c.25 2.62-.78 5.01-2.46 6.8-1.76 1.87-4.23 3.12-6.69 3.38-3.28.34-6.9-2.48-8.69-5.9Z" style="fill:#01487b"/><path d="M53.42 80.92c3.94 0 7.12 3.18 7.12 7.12s-3.18 7.12-7.12 7.12-7.12-3.18-7.12-7.12 3.18-7.12 7.12-7.12Zm4.28 3.53c0-.98-.79-1.76-1.77-1.76s-1.77.78-1.77 1.76.79 1.77 1.77 1.77 1.77-.79 1.77-1.77Z" style="fill:#0078da"/><path d="M55.93 82.69c.98 0 1.77.78 1.77 1.76s-.79 1.77-1.77 1.77-1.77-.79-1.77-1.77.79-1.76 1.77-1.76Z" style="fill:#fff"/><path d="M54.27 344.5c-1.84 33.94-5.97 70.2-13.26 107.22-4.71-34.69-9.43-69.4-14.14-104.1 8.73 2.43 17.87 1.37 27.4-3.12Z" style="fill:#e7f2fe"/><path d="M44.26 499.83c-1.01 5.61-2.12 11.65-3.3 17.62-2.17.05-6.23-.3-9.93-3.12-6.7-5.1-6.16-13.61-6.1-14.24 4.53-.46 11.24-.84 19.33-.25Z" style="fill:#82cefa"/><path d="M38.02 134.94c-.32.25-.65.46-1 .62-5.84 2.64-16.62-7.39-18.2-23.11-.35-3.44-.21-7.6.47-11.33l2.58.14c.75-1.73 3.4-2.49 5.09-2.03 2.56.71 3.55 3.84 3.76 5.64 0 .04.01.07.01.11v.02l.03.34c.89 10.96 3.38 21 7.25 29.61Z" style="fill:#e7f2fe"/><path d="M30.44 93.6c-.1 3.85.01 7.61.28 11.26-.21-1.8-1.2-4.92-3.76-5.64-1.69-.46-4.33.31-5.09 2.03l-2.58-.14c.56-3.11 1.5-5.92 2.85-7.77 1.03-1.41 2.29-2.26 3.81-2.26 2.8 0 3.69 1.28 4.49 2.51h.01Z" style="fill:#e7f2fe"/><path d="M94.52 1181.61c.24 5.57 1.87 11.05 5.71 15.46 7.47 8.6 19.41 8.67 28.74 8.72 8.23.05 20.19-1.3 41.44-11.77 12.27-6.05 29.47-16.03 47.74-32.3.3-3.55.45-7.88.18-12.83a91.8 91.8 0 0 0-2.53-17 92.346 92.346 0 0 0-8.75-22.38" style="fill:none;stroke:#000;strokeLinecap:round;stroke-linejoin:round;strokeWidth:1.02px"/><path d="M139.67 1148.92c-.85-.66-2.65-1.97-5.12-3.2-1.52-.75-3.31-1.48-5.3-1.99-2.62-.68-5.62-1.02-8.84-.61-.25.03-.51.07-.75.12-4.42.69-8.05 2.64-10.98 5.05-5.61 4.57-8.67 10.8-9.83 13.18a42.26 42.26 0 0 0-2.23 5.59c-1.43 4.41-2.34 9.51-2.11 14.56M134.55 1145.71c4.54-1.61 11.14-4.83 14.3-10.73 4.04-7.55 2.67-15.78 5.07-17.6.39-.3 2.25-.53 4.77-.62M202.87 1113.79c-1 13.76-8.69 19.33-12.85 20.96-3.15 1.23-8.36-4.94-11.35-11.46" style="fill:none;stroke:#000;strokeLinecap:round;stroke-linejoin:round;strokeWidth:1.02px"/><path d="M218.33 1148.89c-7.64 4.26-41.37 31.77-72.47 41.14-17.27 5.21-29.38 2.09-32.75 1.51-9.06-1.57-16.47-6.1-18.59-9.93h0l-.01-.02M52.58 1124.81c-.72-.79-2.25-2.41-4.48-4.06-3.16-2.33-7.74-4.75-13.46-5.05-13.47-.71-22.03 10.95-24.45 14.25-3.48 4.74-6.86 11.74-7.83 19.06-.73 5.52-.09 11.23 2.91 16.26 5.83 9.77 17.57 11.94 26.76 13.64 8.09 1.5 20.09 2.27 42.85-4.28 6.15-1.77 13.51-4.2 21.74-7.6M125.66 1097.36c2 5.94 4.23 14.49 4.85 24.11.41 6.38.11 12.21-.52 17.31a96.22 96.22 0 0 1-.74 4.93" style="fill:none;stroke:#000;strokeLinecap:round;stroke-linejoin:round;strokeWidth:1.02px"/><path d="M119.66 1143.23c4.61-2.17 8.42-3.77 10.34-4.45h.01M2.37 1149.02c1.38 4.13 7.88 9.93 16.55 13.07 3.21 1.16 14.59 6.37 32.51 4.29 19.7-2.29 41.44-11.02 57.25-18.11M48.11 1120.75c4.65-.8 11.64-2.84 15.98-8.04 5.67-6.8 2.32-17.14 8.09-16.43.85.11 2.01.24 3.37.42M125.66 1097.36c-.1 0-.2.01-.32.02-1.75.14-3.92 1.1-4.13 1.26-.11.08-.17 1.41-.09 2.18 1.05 9.91-13.73 19.02-16.48 18.92-5.93-.2-6.82-7.49-9.27-14.71M111.63 12.61c1.83 2.38 3.55 5.63 4.86 10.32M50.33 7.48s.07.01.11.02c1.7.31 3.06.79 3.99 1.18M124.7 18.84c1.06 2.51.97 4.78.95 5.1M78.18 3.7c3.86 2.7 5.7 6.08 6.78 5.99M144.12 41.4c-.68 2.11-1.75 4.13-3.2 5.94M142.95 57.51a30.28 30.28 0 0 0-3.05-3.05M36.87 73.03c-.17-2.86-.77-6.26-1.72-10.19-.01-.07-.03-.15-.05-.23M35.8 80.69c-.95 1.92-2.52 3.18-4.82 3.82-1.15.33-2.48.48-4.02.48-3.92 0-7.63-2.03-7.12-10.17" style="fill:none;stroke:#000;strokeLinecap:round;stroke-linejoin:round;strokeWidth:1.02px"/><path d="M46.36 53.92c-2.2 6.34-6.83 8.82-11.2 8.91-3.84.1-7.46-1.67-9.04-4.28-3.27-5.4-4.58-12.53.85-18.33" style="fill:none;stroke:#000;strokeLinecap:round;stroke-linejoin:round;strokeWidth:1.02px"/><path d="M41.21 32.08c-3.85 9.1.31 19.1 5.15 21.84.65.37 1.32.61 1.99.69 4.67.58 11.93-.72 14.61-5.99.61-1.2.94-2.39 1.11-3.46.04-.32.48-.35.57-.03.28.97.74 1.93 1.43 2.8 4.01 4.98 13.89 4.29 19.9.43 1.02-.65 1.96-1.42 2.81-2.28 4.3-4.34 6.33-11.07 5.33-18.07M120.56 45.31c-.18.31-2.94 5.18-8.14 8.07-2.26 1.25-4.98 2.14-8.14 2.11-9.46-.09-14.9-8.6-15.4-9.31" style="fill:none;stroke:#000;strokeLinecap:round;stroke-linejoin:round;strokeWidth:1.02px"/><path d="M112.42 53.36h0c-1.77 17.24 4.63 27.22 10.53 29.77 1.54.67 3.31.82 5 .34M147.74 105.58c.66 1.31 3.59 2.47 5.38 1.79 2.38-.9 4.24-4.54 3.05-9.16 1.3.07 7.51 6.02 7.12 14.24-.54 11.71-12.21 11.19-12.21 11.19 1.47 1.37 2.04 3.14 2.04 4.92 0 1.47-.4 2.94-1.03 4.23-.56 1.14-1.34 2.09-2.29 2.78h0c-2.08 1.54-4.92 1.85-7.88.27M126.59 150.99c1.29 2.73 4.23 4.49 7.2 4.19 2.86-.28 5.58-2.78 6.25-5.6" style="fill:none;stroke:#000;strokeLinecap:round;stroke-linejoin:round;strokeWidth:1.02px"/><path d="M132.77 132.8c-3.06 6.98.1 14.49 5.09 16.31.7.25 1.42.4 2.18.45 3.32.22 6.95-1.51 9.01-4.8 2.38-3.78 1.48-8.22.77-9.17M37.03 135.56c3.83 12.41 1.12 21.81-1.92 21.64-1.81-.11-3.05-2.01-4.07-4.05-2.58 4.01-2.13 8.7 2.03 11.19 2.55 1.54 5.75 2.09 8.61 1.22h0c1.74-.53 3.35-1.58 4.62-3.26M59.52 161.29c.25 2.62-.78 5.01-2.46 6.8-1.76 1.87-4.23 3.12-6.69 3.38-3.28.34-6.9-2.48-8.69-5.9" style="fill:none;stroke:#000;strokeLinecap:round;stroke-linejoin:round;strokeWidth:1.02px"/><path d="M67.76 163.85c-.85 2.89-3.48 4.94-6.21 5.58-1.92.45-3.84-.79-4.5-1.34M128.71 114.4s-.01.05-.01.09M128.7 114.49c-.01.06-.01.08-.01.09-.24 1.98-.89 5.3-2.03 9.32" style="fill:none;stroke:#000;strokeLinecap:round;stroke-linejoin:round;strokeWidth:1.02px"/><path d="M127.95 83.47c2.44-.69 4.72-2.72 5.97-6.51 1.18-.68 2.51-1.13 3.94-1.13 1.22 0 2.41.24 3.55.68.64-.49 6.57-4.91 5.61-10.86-.5-3.07-2.01-5.76-4.07-8.14.62-.65 3.89-4.2 4.07-8.14.21-4.58-2.39-7.44-2.9-7.98 1.67-5.21.95-10.95-2.19-15.42-3.78-5.4-10.45-8.18-17.22-7.13h-.01c-.61-1.45-1.62-2.99-3.27-4.27-4.13-3.21-9.19-2.1-9.8-1.96-1.76-2.28-3.61-3.75-5.31-4.94-12.68-8.85-21.5-1.5-28.14-3.96C75.47 1.82 71.77.27 66.64.55c-8.01.43-15.43 6.78-16.31 6.94-1.86-.34-6.15-1.04-10.14 1.2-1.67.94-2.78 1.95-4.23 3.75-1.93 2.39-2.29 4.32-3.91 5.4-9.16 6.1-17.3 13.23-18.31 22.38-.79 7.15 1.02 13.23 1.02 16.28-4.07 9.16-3.84 12.52-3.05 20.35.42 4.16 2.77 10.1 10.44 16.5-1.35 1.85-2.29 4.66-2.85 7.77-.68 3.73-.81 7.89-.47 11.33 1.58 15.72 12.36 25.74 18.2 23.11.35-.16.68-.37 1-.62 5.03 11.22 12.39 20.03 21.54 25.32 1.3.75 2.65 1.43 4.03 2.04.56.24 2.02.87 4.17 1.55 4.31 1.35 11.36 2.86 19.35 1.78h.01c1.95-.26 3.94-.68 5.97-1.29 20.2-6.08 29.74-27.13 33.56-40.44" style="fill:none;stroke:#000;strokeLinecap:round;stroke-linejoin:round;strokeWidth:1.02px"/><path d="M38.02 134.94c-3.88-8.61-6.37-18.65-7.25-29.61l-.03-.34v-.02s-.01-.07-.01-.11c-.27-3.65-.39-7.42-.28-11.26.06-2.98.24-6.02.54-9.1M22.14 93.35c1.03-1.41 2.29-2.26 3.81-2.26 2.8 0 3.69 1.28 4.49 2.51" style="fill:none;stroke:#000;strokeLinecap:round;stroke-linejoin:round;strokeWidth:1.02px"/><path d="M30.77 105.33c-.01-.14-.02-.3-.04-.47-.21-1.8-1.2-4.92-3.76-5.64-1.69-.46-4.33.31-5.09 2.03M128.7 114.49c.64.78 2.38 2.03 5.09 2.03 2.4 0 4.63-.69 6.1-1.43.4-.2.74-.41 1.02-.6.4-.27.83-.64 1.29-1.08 1.72-1.62 3.82-4.3 5.53-7.83 1.9-3.9 3.35-8.82 3.35-14.49s-4.19-12.46-9.68-14.58" style="fill:none;stroke:#000;strokeLinecap:round;stroke-linejoin:round;strokeWidth:1.02px"/><path d="M129.72 96.18c.08-.65.74-5.34 5.09-8.14 4.7-3.02 9.66-1.22 10.17-1.02" style="fill:none;stroke:#000;strokeLinecap:round;stroke-linejoin:round;strokeWidth:1.02px"/><path d="M134.81 88.04c.43.16 2.97 1.22 4.07 4.07.94 2.43.2 4.56 0 5.09M87.12 165.63c1.93 4.21 3.95 9.8 4.95 17.02.99 7.03.62 13.3-.19 18.37-.51 3.2-1.2 5.94-1.84 8.08M126.66 123.9c-.42 8.31-.52 17.34-.07 27.09.21 4.93.58 10.06 1.1 15.38 1.05 10.68 2.62 20.55 4.45 29.5.21 1.03.43 2.04.64 3.05M216.83 501.52c-4.51 8.39-9.34 17.45-14.41 27M253.73 327c-1.32-5.04-2.73-10.36-4.2-15.96M239.35 386.75c-1.19 2.28-2.38 4.57-3.57 6.85M182.25 496.42c-1.39 2.68-3.06 5.86-4.46 8.54M26.87 347.63c4.71 34.7 9.43 69.41 14.14 104.1M125.35 1097.39c-.18-2.23-.37-4.46-.55-6.68" style="fill:none;stroke:#000;strokeLinecap:round;stroke-linejoin:round;strokeWidth:1.02px"/><path d="M176.63 500.85c.23 1.03.59 2.44 1.16 4.11h0c1.36 3.97 3.94 9.35 8.85 14.26 5.21 5.21 11.06 7.89 15.78 9.3a39.71 39.71 0 0 0 8.33 1.53M96.15 73.79c-12.06 0-16.28 1.11-16.28-3.05s8.24-7.87 16.28-8.14c6.17-.2 14.24 2.41 14.24 6.1 0 3.05-4.07 5.09-14.24 5.09ZM36.87 73.03c.09-.08.17-.17.26-.25 1.63-1.55 4.7-3.48 8.14-5.09 4.18-1.95 11.98-1.64 15.26 0 4.07 2.03 2.25 4.82 0 6.1-7.27 4.13-16.29 6.5-20.35 7.12-1.3.2-2.97.13-4.38-.22.95-1.9 1.27-4.46 1.07-7.66ZM60.54 111.44c.25-.42 2.89-4.66 8.14-5.09 5.54-.46 8.92 3.76 9.16 4.07M83.86 120.94c6.5.08 11.46 1.95 13.31 2.71-.64 10.54-8.52 19.06-18.31 20.35-3.1.41-6.22.07-9.14-.91-5.04-1.69-9.48-5.3-12.23-10.29 2.22-2.53 7.2-7.52 15.26-10.17 3.96-1.3 7.72-1.74 11.08-1.69.01-.01.02-.01.03 0Z" style="fill:none;stroke:#000;strokeLinecap:round;stroke-linejoin:round;strokeWidth:1.02px"/><path d="M83.94 120.93s-.05 0-.08.01M69.71 143.09c-.42-1.6-2.06-6.22 1-12.32 4.16-8.32 11.72-9.76 13.11-9.83" style="fill:none;stroke:#000;strokeLinecap:round;stroke-linejoin:round;strokeWidth:1.02px"/><circle cx="94.11" cy="83.97" r="7.12" style="fill:none;stroke:#000;strokeLinecap:round;stroke-linejoin:round;strokeWidth:1.02px"/><circle cx="53.42" cy="88.04" r="7.12" style="fill:none;stroke:#000;strokeLinecap:round;stroke-linejoin:round;strokeWidth:1.02px"/><path d="M85.79 205.51c-.44.74-.69 1.44-.69 1.98 0 6.83 14.25 9.76 26.69 9.76 8.52 0 20.05-4.07 25.85-9.4 2.34-2.15 3.74-4.51 3.65-6.88-.06-1.58-.87-2.88-2.49-3.77-1.32-.73-3.17-1.19-5.6-1.29-.35-.01-.7-.02-1.07-.02M91.88 201.03c-2.23 0-4.81 2.36-6.04 4.42" style="fill:none;stroke:#000;strokeLinecap:round;stroke-linejoin:round;strokeWidth:1.02px"/><path d="M85.84 205.44c.08-.08.15-.17.22-.26M54.43 344.42c-.05.03-.11.05-.16.08-9.53 4.5-18.67 5.55-27.4 3.12-9.25-2.56-18.04-9.04-26.36-19.48 15.98-48.28 25.43-76.3 29.5-92.58.9-3.59 2.43-10.36 9.16-17.3 4.59-4.74 10.35-8.15 26.45-8.14 9.56 0 17.32-1.49 20.16-4.62M219.01 341.82c-6.48.53-11.55-.08-14-.45-10.17-29.5-20.35-59.01-30.52-88.51M138.8 197.19c21.66 3.99 34.13.39 43.65.26 8.3-.1 12.08 2.14 15.26 4.07 13.22 8.04 19.28 21.01 22.38 25.43 11.88 16.96 24.68 45.87 45.78 81.39" style="fill:none;stroke:#000;strokeLinecap:round;stroke-linejoin:round;strokeWidth:1.02px"/><path d="M253.73 327c9.01 34.17 14.69 55.03 16.87 60.6.54 1.4 1.22 3.48 1.16 5.36-.06 2.07-3.23 9.55-4.27 12.1-1.15 2.82-13.94 28.41-36.78 70.67-4.27 7.91-8.9 16.49-13.88 25.79l.52.24c1.94 10 2.2 17.52 1.43 25.61-.76 8.01-2.51 16.57-4.62 28.67-20.35 117-25.03 198.84-27.47 226.88-6.1 70.2-7.12 165.84 20.35 326.58-.9 1.06-2.27 2.6-4.17 4.28-3.21 2.83-7.89 6.03-14.14 7.93a36.558 36.558 0 0 1-10.06 1.58c-.41-.87-.76-1.76-1.08-2.64-1.19-3.36-12.31-4.13-18.89-3.9-24.61-88.84-46.72-203.99-48.31-338.93-.89-75.08 4.74-143.1 13.23-202.46-3.05-.68-6.1-1.35-9.16-2.03C101.43 629.1 90.5 696.7 88.01 773.76c-4.18 129.02 16.79 237.02 38.66 314.38-.4.6-1.02 1.5-1.87 2.56a39.103 39.103 0 0 1-5.71 5.79 37.38 37.38 0 0 1-12.77 6.91c-3.87 1.2-7.56 1.65-10.95 1.64-.15-.45-.32-.91-.48-1.35-1.6-4.3-12.75-6.13-19.35-6.98-25.71-74.25-60.44-189.56-64.86-334.13C7.7 664.74 28.37 581.1 40.96 517.46c-2.17.05-6.23-.3-9.93-3.12-6.7-5.1-6.16-13.61-6.1-14.24 4.53-.46 11.24-.84 19.33-.25 1 .06 2.01.15 3.05.25 20.25 2.02 24.68 8.08 42.73 12.21 9.05 2.08 34.4 6.6 60.03-3.05 13.28-5 11.65-8.16 23.4-11.19 1.48-.38 4.59-1.12 8.78-1.63 14.08-27.04 28.15-54.07 42.23-81.12 3.76-7.23 7.53-14.47 11.29-21.7-4.45-13.97-9.54-29.5-14.41-44.48-.79-2.45-1.59-4.89-2.36-7.3-1.51-4.65-2.97-9.21-4.37-13.61 3.98-4.12 9.18-8.27 15.81-11.25 7.01-3.16 13.51-4.93 19.09-5.92 7.32-1.29 13.05-1.23 16.32-1.21.46.01.86.01 1.22.01a60.574 60.574 0 0 1-13.34 17.17Z" style="fill:none;stroke:#000;strokeLinecap:round;stroke-linejoin:round;strokeWidth:1.02px"/><path d="M205.01 341.37c1.53-2.77 4.6-7.95 9.62-13.17M218.78 527.37c1.62.13 5.72.3 8.61-.83 6.08-2.39 8.61-7.86 9.16-9.16-2.14-13.87-4.1-27.74-5.84-41.65M224.48 415.3c-1.71-21.96-2.8-44-3.11-66.18" style="fill:none;stroke:#000;strokeLinecap:round;stroke-linejoin:round;strokeWidth:1.02px"/><path d="M217.35 501.76c2 .98 4 2.11 5.97 3.41 6.34 4.17 10.62 8.89 13.23 12.21M24.93 500.08c3.96-8.13 9.05-16.19 11.19-25.43 1.77-7.66 3.4-15.31 4.89-22.92 7.28-37.02 11.42-73.28 13.26-107.22 1.93-35.75 1.32-68.94-.85-97.75" style="fill:none;stroke:#000;strokeLinecap:round;stroke-linejoin:round;strokeWidth:1.02px"/><circle cx="134.81" cy="110.42" r="2.03" style="fill:none;stroke:#000;strokeLinecap:round;stroke-linejoin:round;strokeWidth:1.02px"/><path d="M106.54 234.86c1.95.7 3.34 2.57 3.34 4.77 0 2.81-2.27 5.09-5.09 5.09s-5.09-2.28-5.09-5.09c0-2.46 1.75-4.52 4.08-4.99.24-.05.5-.08.76-.09" style="fill:none;stroke:#000;strokeLinecap:round;stroke-linejoin:round;strokeWidth:1.02px"/><path d="M107.34 233.02c0 .72-.31 1.37-.79 1.84l-.04.04c-.59-.19-1.21-.32-1.86-.35h-.09c-.09-.01-.17-.01-.26-.01-.49 0-.96.05-1.41.14a2.51 2.51 0 0 1-.62-1.67 2.534 2.534 0 0 1 2.54-2.54c1.4 0 2.54 1.14 2.54 2.54Z" style="fill:none;stroke:#000;strokeLinecap:round;stroke-linejoin:round;strokeWidth:1.02px"/><path d="M131.95 194.67c.46.42.87.82 1.25 1.23 2.48 2.66 3.39 5.12 3.84 6.91.43 1.71.62 3.39.6 5.04-.11 13.41-14.03 24.31-30.3 25.17M91.88 201.03c-.44.05-.65.11-1.26.37-1.83 1.11-3.34 2.18-4.78 4.05-.02.02-.03.04-.05.06-.25.33-.51.69-.76 1.08-.46.77-.83 1.61-1.09 2.52-2.18 7.75 4.65 18.8 18.31 23.4M135.83 113.41h8.14M139.89 109.34v11.19" style="fill:none;stroke:#000;strokeLinecap:round;stroke-linejoin:round;strokeWidth:1.02px"/><path d="M44.26 499.82h0c-1.01 5.62-2.12 11.66-3.3 17.63" style="fill:none;stroke:#070707;strokeLinecap:round;stroke-linejoin:round;strokeWidth:1.02px"/><path d="M71.4 118.6c.85-1.58 1.72-3.14 2.57-4.71.17-.31.54-.5.93-.48 9.79.52 15.8 2.59 16.88 6.71.09.36-.28.64-.66.51-4.86-1.73-11.8-1.87-19.36-1.56-.27.02-.48-.25-.36-.48ZM69.41 118.61c-1.47-1.09-2.92-2.19-4.38-3.28-.3-.21-.7-.24-1.05-.06-8.63 4.56-13.15 8.98-12.33 13.24.07.38.53.48.81.2 3.65-3.63 9.86-6.65 16.84-9.5.25-.1.32-.44.11-.6Z" style="fill:none;stroke:#000;strokeLinecap:round;stroke-linejoin:round;strokeWidth:1.02px"/></g><g data-name="shadows"><g style="mix-blend-mode:multiply;opacity:.7"><path d="M270.6 387.6c.54 1.4 1.22 3.48 1.16 5.36-.06 2.07-3.22 9.55-4.27 12.1-1.15 2.82-13.94 28.4-36.78 70.67-4.27 7.9-8.9 16.49-13.88 25.79-4.51 8.39-9.34 17.45-14.4 27-1.66-.5-3.45-1.15-5.31-2.01l.4-.88c-3.73-4.09-1.76-10.81.65-15.91 12.24-25.99 28.73-49.73 42.39-75 5.62-10.39 10.84-21.33 11.97-33.08 1.19-12.28-2.17-24.5-5.49-36.38-2.53-9.03-5.05-18.06-7.58-27.09-.83-2.97-1.74-6.09-3.92-8.27-2.07-2.08-5.68-2.93-7.98-1.22l-.29-.44c3.21-2.2 6.68-3.98 10.43-5.13 4.67-1.43 9.59-1.82 14.49-1.98.52 2 1.04 3.96 1.54 5.87 9.02 34.18 14.69 55.03 16.87 60.6Z" style="fill:#e7f2fe"/><path d="M265.87 308.35h-.01v1.47c-3.28-.02-9.01-.08-16.33 1.21-5.57.99-12.08 2.76-19.09 5.92-6.63 2.98-11.83 7.13-15.81 11.25-5.02 5.22-8.09 10.4-9.62 13.17-2.79-8.09-5.57-16.17-8.36-24.25 4.73 1.32 9.48-3.12 11.75-7.65 4.19-8.39 4.65-18.14 3.97-27.49a124.273 124.273 0 0 0-11.9-44.71c-4.86-10.12-11.93-20.24-22.62-23.7-14.03-4.56-29.19 3.73-43.69 5.4 2.19-3.35 3.44-7.13 3.48-11.12 2.34-2.15 3.74-4.51 3.65-6.88-.06-1.58-.88-2.88-2.49-3.78 21.66 3.99 34.13.39 43.64.27 8.31-.1 12.08 2.13 15.26 4.07 13.22 8.04 19.28 21.01 22.39 25.43 11.88 16.96 24.68 45.88 45.78 81.39Z" style="fill:#b7d9ff"/><path d="M249.53 311.04c.92 3.47 1.8 6.84 2.66 10.09-4.9.16-9.82.55-14.49 1.98-3.75 1.15-7.22 2.93-10.43 5.13-3.59 2.45-6.86 5.45-9.84 8.7-.95-2.97-1.89-5.89-2.8-8.74 3.98-4.12 9.18-8.27 15.81-11.25a80.741 80.741 0 0 1 19.09-5.92Z" style="fill:#e7f2fe"/><path d="M236.55 517.38c-2.61-3.32-6.89-8.04-13.23-12.21-1.97-1.3-3.97-2.43-5.97-3.41-.17-.08-.35-.16-.52-.24 4.98-9.3 9.61-17.89 13.88-25.79 1.74 13.9 3.7 27.78 5.84 41.65ZM221.37 349.12c.31 22.18 1.4 44.23 3.11 66.18-12.88 24.74-25.75 49.46-38.62 74.19-1.2 2.31-2.41 4.62-3.61 6.93-4.19.51-7.3 1.25-8.78 1.63-11.75 3.03-10.12 6.19-23.4 11.19-25.63 9.65-50.97 5.13-60.03 3.05-10.7-2.45-16.62-5.57-23.88-8.13.63-.26 1.3-.41 1.98-.44 10.54-4.84 23.66-3.11 36.26-4.18 33.3-2.84 63.64-27.64 73.03-59.72 4.62-15.75 4.49-32.49 3.49-48.88-.96-15.72-2.69-31.41-5.18-46.97-3.62-22.63-8.87-45.42-6.52-68.21.27-2.7.69-5.47 2.14-7.75 1.45-2.29 4.19-3.96 6.83-3.35l.33-.11c6.04 17.52 12.09 35.04 18.13 52.57 2.79 8.08 5.57 16.16 8.36 24.25 1.64.25 4.47.61 8.11.65 1.78.03 3.76-.03 5.89-.2.77 2.41 1.57 4.85 2.36 7.3Z" style="fill:#b7d9ff"/><path d="M202.43 528.52c5.06-9.55 9.89-18.61 14.4-27 .17.08.35.16.52.24.88 4.55 1.41 8.59 1.66 12.4.3 4.56.19 8.8-.23 13.21-.76 8.01-2.51 16.57-4.61 28.67-1.38 7.92-2.68 15.69-3.92 23.28a45.035 45.035 0 0 1-8.83-9.25c-5.18-7.29-8.3-16.1-14.68-22.38-8.16-8.02-20.36-10.18-31.8-10.14-11.6.04-22.81 2.88-34.05 4.19a82.5 82.5 0 0 1-12.09.51c-23.99-.71-48.56-11.27-67.39-27.08 1.01-5.22 1.97-10.45 2.85-15.34 1 .06 2.02.15 3.05.25 8.25.82 13.86 2.31 18.85 4.08 7.26 2.56 13.18 5.68 23.88 8.13 9.06 2.08 34.4 6.6 60.03-3.05 13.28-5 11.65-8.16 23.4-11.19 1.48-.38 4.59-1.12 8.78-1.63-1.39 2.68-3.06 5.86-4.46 8.54 1.37 3.96 3.94 9.35 8.86 14.26 3.38 3.38 7.03 5.7 10.47 7.29 1.86.86 3.65 1.51 5.31 2.01Z" style="fill:#0047ab"/><path d="M218.33 1148.89c.26 4.94.11 9.27-.19 12.83-18.26 16.26-35.46 26.24-47.73 32.3-21.26 10.47-33.21 11.82-41.44 11.77-9.33-.05-21.27-.12-28.74-8.72-3.48-4.01-5.15-8.89-5.6-13.91.23-.13.46-.25.7-.36 2.84 3.53 9.64 7.33 17.78 8.74 3.37.58 15.48 3.7 32.75-1.51 31.1-9.37 64.83-36.88 72.47-41.14Z" style="fill:#82cefa"/><path d="M215.79 1131.89c1.52 6.15 2.26 11.9 2.54 17-7.64 4.26-41.37 31.77-72.47 41.14-17.27 5.21-29.38 2.09-32.75 1.51-8.14-1.41-14.94-5.21-17.78-8.74 2.06-1.02 4.39-1.66 6.65-2.02 11.3-1.81 22.98 1.09 34.25-.86 18.7-3.24 33.68-21.26 33.45-40.24-.04-3.65-.58-7.34.14-10.92s3.11-7.15 6.69-7.86l.96-.52c.05.09.09.18.12.27.32.88.67 1.76 1.08 2.64 2.99 6.51 8.2 12.69 11.35 11.45 4.16-1.62 11.86-7.2 12.85-20.95.75-.66 1.41-1.29 1.99-1.89 1.53.91 3.09 1.75 4.69 2.52a91.29 91.29 0 0 1 6.24 17.47Z" style="fill:#b7d9ff"/><path d="M207.04 1109.5c.82 1.49 1.67 3.13 2.51 4.92-1.6-.77-3.16-1.61-4.69-2.52.92-.93 1.64-1.75 2.18-2.4Z" style="fill:#fff"/><path d="M207.04 1109.5c-.54.65-1.26 1.47-2.18 2.4a63.586 63.586 0 0 1-16.74-14.49c-12.68-15.62-18.59-35.53-23.5-55.03-28.27-112.31-32.93-230.84-10.46-344.45 6.06-30.63 14.1-61.94 8.55-92.67-5.13-28.45-26.05-58.32-53.91-63.01 4.06.12 8.1-.04 12.09-.51 11.24-1.31 22.45-4.15 34.05-4.19 11.44-.04 23.64 2.12 31.8 10.14 6.38 6.28 9.5 15.09 14.68 22.38 2.48 3.49 5.47 6.6 8.83 9.25-17.05 104.56-21.28 177.46-23.55 203.6-6.11 70.2-7.13 165.83 20.34 326.58Z" style="fill:#0047ab"/><path d="M202.87 1113.79c-.99 13.75-8.69 19.33-12.85 20.95-3.15 1.24-8.36-4.94-11.35-11.45 3.15-.05 6.53-.51 10.06-1.58 6.25-1.89 10.93-5.1 14.14-7.92Z" style="fill:#e7f2fe"/><path d="M140.04 149.56v.03c-.67 2.82-3.39 5.31-6.25 5.6-2.97.29-5.91-1.47-7.2-4.2-.45-9.75-.35-18.78.07-27.09 1.1-3.84 1.73-7.03 1.99-9.04.02-.1.03-.19.04-.28 0 0 0-.03.01-.09.65.78 2.39 2.03 5.09 2.03 2.4 0 4.63-.69 6.11-1.43.39-.2.74-.41 1.01-.6.4-.28.84-.64 1.3-1.08h1.76l.41-.03c.1 1.63.92 3.2 2.18 4.25 1.6 1.32 3.82 1.81 5.87 1.43 2.33-.44 4.42-1.98 5.53-4.07 2.19-4.14.4-9.34 1.61-13.84 1.96 2.54 3.95 6.54 3.73 11.3-.54 11.72-12.21 11.2-12.21 11.2 1.46 1.37 2.04 3.14 2.04 4.92 0 1.47-.39 2.94-1.03 4.23a7.449 7.449 0 0 1-2.28 2.78s.01 0 .01 0c.7.95 1.6 5.38-.78 9.17-2.06 3.29-5.69 5.02-9.01 4.8Z" style="fill:#01487b"/><path d="M142.95 86.49c.24-.07.47-.1.7-.09 1.14.07 2.32.57 2.9 1.56.32.54.43 1.17.53 1.78.27 1.8.42 3.64.02 5.41-.69 2.98-2.84 5.38-4.91 7.63-.88.96-1.81 1.95-3.03 2.42-1.31.5-2.78.31-4.17.12-1.6-.22-3.29-.48-4.54-1.5-1.6-1.31-2.08-3.59-1.95-5.65.18-2.92 1.56-5.81 3.69-7.77h.01c.96-.89 2.07-1.59 3.29-2.03h.01c.56-.19 1.15-.33 1.75-.41 3.42-.44 4.73-1.2 5.7-1.46Z" style="fill:#e7f2fe"/><path d="M144.12 41.4c.51.54 3.11 3.4 2.9 7.98-.19 3.93-3.45 7.48-4.07 8.14 2.05 2.38 3.57 5.06 4.07 8.13.96 5.95-4.97 10.37-5.61 10.86a9.822 9.822 0 0 0-3.55-.68c-1.42 0-2.76.45-3.94 1.13-1.25 3.79-3.53 5.82-5.97 6.51-1.69.49-3.46.33-4.99-.34-5.9-2.55-12.3-12.52-10.53-29.76-2.26 1.26-4.98 2.14-8.14 2.11-8.64-.08-13.94-7.19-15.17-8.96 3.39.65 6.99-.52 9.71-2.69 2.83-2.25 4.76-5.46 6.04-8.84 2.3-6.03 2.65-12.78 1-19.02-1.52-5.71-5.36-11.45-11.17-12.53l.02-.2c3.47.28 7.32 1.42 11.6 4.42 1.7 1.19 3.55 2.67 5.31 4.95.61-.13 5.67-1.25 9.8 1.96 1.65 1.28 2.66 2.82 3.27 4.27h.01c6.77-1.04 13.44 1.73 17.22 7.14 3.13 4.47 3.86 10.21 2.19 15.42Z" style="fill:#01487b"/><path d="M134.81 88.04c3.03-1.94 6.16-1.89 8.14-1.55-.97.26-2.28 1.02-5.7 1.46-.6.08-1.19.22-1.75.41h-.01c-.33-.18-.57-.28-.68-.32ZM141.29 200.97c.09 2.37-1.31 4.73-3.65 6.88.02-1.65-.18-3.33-.6-5.04-.45-1.79-1.36-4.25-3.84-6.91 2.42.1 4.27.56 5.6 1.29 1.61.9 2.43 2.2 2.49 3.78Z" style="fill:#e7f2fe"/><path d="M139.45 1148.34c.04.16.06.31.08.47-.9-.69-2.63-1.93-4.98-3.1.56-.2 1.16-.42 1.78-.68 2.2.99 2.89 2.35 3.12 3.31Z" style="fill:#fff"/><path d="M132.13 195.88c.37 0 .73.01 1.07.02 2.48 2.66 3.39 5.12 3.84 6.91.42 1.71.62 3.39.6 5.04-1.68 1.54-3.85 2.99-6.29 4.26-1.91-.73-3.43-2.99-4.23-5.06-3.48-9.02-3.52-18.97-5.65-28.4-.62-2.76-1.61-5.73-4.05-7.17-2.73-1.62-6.29-.68-9 .98-2.71 1.65-5.01 3.96-7.89 5.3-2.84 1.32-6.14 1.53-9.17.72-1.1-5.25-2.69-9.48-4.24-12.85 1.96-.26 3.94-.68 5.98-1.29.39-.12.77-.24 1.15-.37 19.4-6.52 28.65-27.02 32.41-40.07-.42 8.31-.52 17.34-.07 27.09.21 4.94.58 10.07 1.1 15.39 1.05 10.68 2.62 20.55 4.44 29.5Z" style="fill:#e7f2fe"/><path d="M137.64 207.85c-.04 3.99-1.29 7.77-3.48 11.12-4.86.56-11.95-.06-16.59-1.72l2.82-1.11c3.79-.9 7.63-2.3 10.96-4.03 2.44-1.27 4.61-2.72 6.29-4.26Z" style="fill:#b7d9ff"/><path d="M134.81 108.39c1.13 0 2.03.91 2.03 2.03s-.9 2.03-2.03 2.03-2.04-.91-2.04-2.03.92-2.03 2.04-2.03Z" style="fill:#02488a"/><path d="M134.81 88.04c.11.04.35.14.68.32a9.687 9.687 0 0 0-3.29 2.03c.67-.84 1.53-1.65 2.61-2.35Z" style="fill:#e7f2fe"/><path d="M130.52 1121.48c.4 6.38.11 12.21-.52 17.3-1.92.68-5.73 2.28-10.34 4.45-4.42.69-8.05 2.63-10.98 5.05-15.81 7.09-37.55 15.82-57.25 18.11-17.91 2.07-29.29-3.14-32.5-4.3-8.67-3.14-15.17-8.94-16.56-13.07h-.01c.32-2.35.88-4.68 1.62-6.9 3.53.73 6.88 2.2 10.33 3.25 9.36 2.82 19.36 2.44 29.08 1.46 7.59-.77 15.27-1.94 22.14-5.24 6.87-3.29 12.91-9.02 14.96-16.36 1.36-4.87.92-10.13 2.45-14.94 1.53-4.82 6.34-9.36 11.17-7.84h.01c.36.38.62.79.78 1.23.16.45.32.91.47 1.36.57 1.66 1.05 3.32 1.53 4.9 1.6 5.29 3.17 9.65 7.74 9.81 2.47.08 14.69-7.29 16.34-15.99.19-.96.25-1.95.14-2.94-.08-.76-.02-2.09.1-2.17.21-.17 2.38-1.12 4.13-1.26.11-.01.21-.02.31-.02 2.01 5.94 4.23 14.48 4.86 24.11Z" style="fill:#b7d9ff"/><path d="M128.65 114.86c-.26 2.01-.89 5.2-1.99 9.04-3.76 13.05-13.01 33.55-32.41 40.07.17-.19.33-.4.46-.63 7-5.66 11.32-14.73 14.6-23.78 3.29-9.04 5.82-18.47 10.71-26.76 1.06-1.79 2.59-3.73 4.67-3.66 2.57.09 3.91 3.14 3.96 5.72ZM124.89 1091.79c.15 1.87.3 3.73.46 5.6-1.75.14-3.92 1.09-4.13 1.26l-2.13-2.16c2.18-1.79 3.91-3.61 5.19-5.15.2.16.4.31.61.45Z" style="fill:#e7f2fe"/><path d="M126.67 1088.14c-.4.6-1.02 1.49-1.87 2.56-.16.21-.34.42-.52.64-16.09-12.11-27.5-30.44-35.52-49.23-23.33-54.72-23.44-116.07-25.03-175.54-1.95-72.61-6.6-145.77 4.83-217.5 3.57-22.38 8.89-45 20.94-64.2 2.94-4.69 6.66-9.42 11.99-10.93 4.48-1.27 10.09 1.05 11.65 5.11-12.44 54.65-22.72 120.26-25.13 194.71-4.18 129.02 16.79 237.02 38.66 314.38Z" style="fill:#0047ab"/><path d="m124.8 1090.7.09 1.09c-.21-.14-.41-.29-.61-.45.18-.22.36-.43.52-.64ZM119.09 1096.49l2.13 2.16c-.12.08-.18 1.41-.1 2.17.11.99.05 1.98-.14 2.94-7.16 4.44-15.68 6.63-24.08 6.18-.48-1.58-.96-3.24-1.53-4.9 3.39.01 7.09-.44 10.95-1.64a37.38 37.38 0 0 0 12.77-6.91Z" style="fill:#e7f2fe"/><path d="M107.19 233.87c3.42 1.23 5.51 5.59 4.13 9.03-.83 2.1-2.84 3.55-4.11 1.73-.09-.13-.17-.27-.24-.41.77-.35 1.43-.9 1.92-1.58.62-.84.99-1.89.99-3.01 0-1.22-.42-2.34-1.13-3.21a5 5 0 0 0-2.2-1.56c.28-.28.5-.61.64-.99Z" style="fill:#fff"/><path d="M109.88 239.63c0 1.12-.37 2.17-.99 3.01-.29-1.38-.37-3.39-.14-6.22.71.87 1.13 1.99 1.13 3.21Z" style="fill:#00dbff"/><path d="M108.75 236.42c-.23 2.83-.15 4.84.14 6.22-.49.68-1.15 1.23-1.92 1.58-.43-.9-.39-1.97.02-2.89.32-.73.54-1.49.54-2.34 0-1.41-.48-2.7-1.29-3.7.01-.15.02-.3.04-.45.08.01.15.04.22.06.02 0 .04-.03.05-.04a5 5 0 0 1 2.2 1.56Z" style="fill:#00dbff"/><path d="M107.67 72.52c.27 1.63-.79 3.2-2.04 4.27-1.69 1.44-3.72 2.29-5.89 2.81a7.123 7.123 0 0 0-5.63-2.75c-2.63 0-4.92 1.42-6.15 3.54-1.49-.1-2.98-.31-4.44-.66-1.03-.25-2.07-.58-2.86-1.28-.78-.7-1.26-1.85-.89-2.84.26-.7.88-1.21 1.49-1.64.21-.15.42-.3.63-.43 2.31.68 6.78.25 14.26.25 5.48 0 9.19-.59 11.44-1.62.04.11.06.23.08.35Z" style="fill:#e7f2fe"/><path d="M106.41 233.64c.27.06.53.13.78.23-.14.38-.36.71-.64.99-.01 0-.03.03-.05.04-.07-.02-.14-.05-.22-.06.03-.39.08-.79.13-1.2Z" style="fill:#fff"/><path d="M101.59 69.24c3.96.67 5.58 1.5 6 2.93-2.25 1.03-5.96 1.62-11.44 1.62-7.48 0-11.95.43-14.26-.25 5.7-3.86 12.9-5.44 19.7-4.3Z" style="fill:#01487b"/><path d="M108.68 1148.28c-5.6 4.56-8.67 10.8-9.83 13.17-.81 1.67-1.57 3.55-2.22 5.59-8.23 3.39-15.6 5.83-21.75 7.6-22.75 6.55-34.76 5.78-42.85 4.28-9.19-1.7-20.93-3.88-26.76-13.64-3-5.03-3.64-10.74-2.91-16.26h.01c1.39 4.13 7.89 9.93 16.56 13.07 3.21 1.16 14.59 6.37 32.5 4.3 19.7-2.29 41.44-11.02 57.25-18.11Z" style="fill:#82cefa"/><path d="M99.74 79.6c-.37.09-.74.17-1.12.24-.31-.42-.81-.69-1.38-.69-.74 0-1.38.45-1.63 1.1-.45.04-.91.07-1.36.1-2.09.13-4.2.19-6.29.04a7.093 7.093 0 0 1 6.15-3.54c2.29 0 4.33 1.08 5.63 2.75Z" style="fill:#0078da"/><path d="M98.62 79.84c.24.3.38.67.38 1.08 0 .97-.79 1.77-1.76 1.77s-1.77-.8-1.77-1.77c0-.24.05-.46.14-.67 1.01-.1 2.02-.22 3.01-.41Z" style="fill:#fff"/><path d="M97.24 79.15c.57 0 1.07.27 1.38.69-.99.19-2 .31-3.01.41.25-.65.89-1.1 1.63-1.1Z" style="fill:#fff"/><path d="M95.33 1182.8c-.24.11-.47.23-.7.36-.05-.51-.09-1.03-.11-1.55.22.39.49.79.81 1.19Z" style="fill:#82cefa"/><path d="M83.86 120.94h-.03c-2.11-.03-4.37.13-6.74.58l-2.52-.21c-.7-.05-1.5-.18-1.84-.78-.18-.33-.18-.73-.17-1.11 0-.12.01-.24.01-.37 7.25-.28 13.86-.08 18.55 1.58.38.14.75-.15.66-.5-.26-.98-.8-1.85-1.6-2.61 1.68.69 3.18 2.09 3.43 3.88.01.1.02.21-.02.31-.08.17-.3.23-.49.26-.24.04-.48.07-.73.1a36.19 36.19 0 0 0-8.51-1.13Z" style="fill:#e7f2fe"/><path d="M92.37 122.07c2.23.56 3.89 1.21 4.8 1.58-.65 10.54-8.52 19.05-18.32 20.34-3.1.41-6.21.08-9.13-.9-.42-1.6-2.06-6.22.99-12.32 2.68-5.35 6.76-7.86 9.7-8.98.49.04 1.21-.35 1.85-.58.31-.08.58-.14.82-.18h.01c3.27.27 5.99.36 9.28 1.04Z" style="fill:#82cefa"/><path d="M91.78 120.13c.09.35-.28.64-.66.5-4.69-1.66-11.3-1.86-18.55-1.58.05-.86.23-1.78.97-2.18 3.15-.93 14.5-.92 16.32.52.11.04.21.08.32.13.8.76 1.34 1.63 1.6 2.61Z" style="fill:#01487b"/><path d="M91.88 201.03c-.07.45-.14.89-.23 1.32-.5 0-1.15-.13-1.83-.45.26-.17.53-.33.8-.5.61-.26.83-.32 1.26-.37Z" style="fill:#e7f2fe"/><path d="M83.81 7.03c.13.67.21 1.37.05 2.03-1.15-1.09-2.89-3.41-5.68-5.35 1.47.55 3.05.61 4.76.46.39.91.68 1.87.87 2.86Z" style="fill:#01487b"/><path d="M82.26 121.21c.31-.12.59-.2.82-.18-.24.04-.51.1-.82.18Z" style="fill:#82cefa"/><path d="M67.01 106.64c-.04-.72-.01-1.45.09-2.16.41-3.03 1.73-5.85 2.55-8.8 1.78-6.39 1.18-13.18.38-19.77-.15-1.25-.31-2.54.05-3.75.35-1.21 1.35-2.33 2.6-2.4 1.19-.07 2.27.81 2.8 1.88.53 1.06.62 2.28.69 3.47.59 9.68.6 19.75 4.8 28.49.73 1.51 1.59 3 1.95 4.64.35 1.65.11 3.54-1.12 4.7-.48.45-1.07.75-1.71.94-1.58-.21-3.32-.37-5.19-.47-.38-.02-.75.17-.92.48-.01.02-.02.03-.03.05-1.91-.29-3.45-.77-4.04-1.19-1.91-1.36-2.79-3.72-2.9-6.11Z" style="fill:#e7f2fe"/><path d="m77.09 121.52 3.32.27c-2.94 1.12-7.02 3.63-9.7 8.98-3.05 6.1-1.41 10.72-.99 12.32-5.04-1.69-9.49-5.3-12.23-10.29 2.21-2.53 7.2-7.52 15.26-10.17 1.48-.48 2.93-.85 4.34-1.11Z" style="fill:#182c4c"/><path d="M68.69 120.22c.13.51-.13 1.04-.43 1.48-.91 1.33-2.19 2.37-3.46 3.36a127.4 127.4 0 0 1-8.77 6.21c-.82.53-1.74 1.07-2.71.94-.27-.04-.55-.15-.73-.36-.33-.41-.17-1.01.03-1.5.45-1.11.99-2.19 1.62-3.21 3.51-2.78 8.51-5.21 14.07-7.52.18.16.32.36.38.6Z" style="fill:#e7f2fe"/><path d="M67.14 119.05c.41.12.85.29 1.17.57-5.56 2.31-10.56 4.74-14.07 7.52 2.12-3.47 5.21-6.34 8.84-8.16 1.38-.7 2.77-.32 4.06.07ZM67.76 163.85c-.85 2.89-3.48 4.95-6.2 5.58-1.93.45-3.84-.79-4.5-1.34 1.68-1.79 2.72-4.18 2.46-6.8l.04-1.03c1.3.76 2.65 1.44 4.03 2.05.56.24 2.03.87 4.17 1.54Z" style="fill:#01487b"/><path d="M62.7 76.59c.33.97.01 2.05-.49 2.93-.85 1.51-2.2 2.65-3.64 3.61a7.078 7.078 0 0 0-5.15-2.21 7.11 7.11 0 0 0-7.12 7.12v.05c-1.16.23-2.32.4-3.5.5-1.75.16-3.7.11-4.98-1.09-.71-.67-1.12-1.63-1.2-2.6-.13-1.39.37-2.76 1.19-3.9.84.06 1.66.03 2.38-.08 3.88-.6 12.28-2.79 19.37-6.6.07.02.15.03.22.05 1.25.3 2.52 1.01 2.92 2.22Z" style="fill:#e7f2fe"/><path d="M44.63 164.01c1.27-1.31 2.37-2.77 3.27-4.34.71-1.26 1.34-2.62 2.46-3.53.64-.52 1.51-.83 2.32-.81a44.19 44.19 0 0 0 6.88 4.93l-.04 1.03c.26 2.62-.78 5.01-2.46 6.8-1.76 1.87-4.23 3.12-6.69 3.37-3.28.34-6.9-2.48-8.69-5.9 1.05-.32 2.04-.82 2.95-1.55Z" style="fill:#01487b"/><path d="M58.57 83.13c-.27.18-.54.35-.81.52-.07.04-.13.08-.2.12-.26-.64-.89-1.08-1.63-1.08-.98 0-1.77.78-1.77 1.76 0 .36.11.7.29.98a33.965 33.965 0 0 1-8.15 2.66v-.05a7.11 7.11 0 0 1 7.12-7.12c2.03 0 3.86.85 5.15 2.21Z" style="fill:#0078da"/><path d="M57.44 74.08c-.2-.03.95 0 2.12.24-7.09 3.81-15.49 6-19.37 6.6-.72.11-1.54.14-2.38.08.28-.39.59-.75.93-1.08 1.33-1.3 3.03-2.16 4.72-2.94 4.39-2.04 9.22-3.76 13.98-2.9Z" style="fill:#01487b"/><path d="M57.56 83.77c.09.21.14.44.14.68a1.773 1.773 0 0 1-3.25.98c1.06-.5 2.1-1.05 3.11-1.66Z" style="fill:#fff"/><path d="M55.93 82.69c.74 0 1.37.44 1.63 1.08-1.01.61-2.05 1.16-3.11 1.66-.18-.28-.29-.62-.29-.98 0-.98.79-1.76 1.77-1.76Z" style="fill:#fff"/><path d="M53.42 246.75c2.17 28.81 2.78 62 .85 97.75-9.53 4.5-18.67 5.56-27.4 3.13-9.24-2.57-18.04-9.05-26.36-19.49.83-2.52 1.65-4.99 2.45-7.4 3.36 4.65 6.97 9.22 11.82 12.23 5.47 3.4 12.99 4.36 18.21.57 4.91-3.55 6.48-10.08 7.35-16.09 2.32-15.97 2.21-32.19 2.11-48.33-.03-4.54-.05-9.17 1.35-13.49 1.22-3.79 3.72-7.36 7.22-9.1l2.4.22Z" style="fill:#b7d9ff"/><path d="M52.68 155.33c-.81-.02-1.68.29-2.32.81-1.12.91-1.75 2.27-2.46 3.53-.9 1.57-2 3.03-3.27 4.34-.91.73-1.9 1.23-2.95 1.54-2.86.88-6.06.33-8.61-1.21-3.82-2.28-4.52-6.42-2.61-10.18-.41 2.99 1.74 6.03 4.47 7.46 1.68.88 3.82 1.28 5.43.28.84-.52 1.43-1.36 1.94-2.21 1.59-2.69 2.57-5.74 2.85-8.85.11-1.31.11-2.65-.18-3.92 1.71 2.34 3.58 4.5 5.57 6.44.7.69 1.41 1.34 2.14 1.97Z" style="fill:#01487b"/><path d="M54.27 344.5c-1.29 23.84-3.71 48.82-7.57 74.41l-.11-.02a242.23 242.23 0 0 0-3.97-42.74c-.79-4.26-1.74-8.65-4.27-12.18-2.28-3.17-6.15-5.48-9.95-5.1l-1.53-11.24c8.73 2.43 17.87 1.37 27.4-3.13ZM44.6 145.73c.15.39.28.78.37 1.19-1.49-2-2.86-4.13-4.12-6.39.63.59 1.19 1.26 1.72 1.94.8 1.01 1.56 2.07 2.03 3.26Z" style="fill:#e7f2fe"/><path d="M40.85 140.53c-.45-.41-.93-.78-1.47-1.07-.45-.24-.94-.43-1.45-.53-.25-1.09-.55-2.22-.9-3.37.34-.16.68-.37.99-.62.87 1.94 1.81 3.8 2.83 5.59ZM30.98 84.51c-.29 3.07-.47 6.11-.54 9.09h-.01c-.79-1.23-1.68-2.51-4.48-2.51-1.52 0-2.78.84-3.81 2.26-.47-.39-.92-.78-1.35-1.16.42-.52.72-1.14.89-1.78.39-1.52.14-3.13-.25-4.65-.45-1.69-1.06-3.33-1.68-4.97l.64-.24c1.16 3.43 3.82 4.44 6.57 4.44 1.54 0 2.87-.16 4.02-.48Z" style="fill:#01487b"/><path d="m19.82 101.15-.53-.03c.05-.3.11-.59.18-.88.14.29.26.6.35.91Z" style="fill:#e7f2fe"/><path d="M92.37 122.07a36.19 36.19 0 0 0-8.51-1.13h-.03c-2.11-.03-4.37.13-6.74.58M92.37 122.07c2.23.56 3.89 1.21 4.8 1.58-.65 10.54-8.52 19.05-18.32 20.34-3.1.41-6.21.08-9.13-.9" style="fill:none;stroke:#000;strokeLinecap:round;stroke-linejoin:round;strokeWidth:1.02px"/><path d="M69.72 143.09c-5.04-1.69-9.49-5.3-12.23-10.29 2.21-2.53 7.2-7.52 15.26-10.17 1.48-.48 2.93-.85 4.34-1.11M94.52 1181.61c.02.52.06 1.04.11 1.55.45 5.02 2.12 9.9 5.6 13.91 7.47 8.6 19.41 8.67 28.74 8.72 8.23.05 20.18-1.3 41.44-11.77 12.27-6.06 29.47-16.04 47.73-32.3.3-3.56.45-7.89.19-12.83-.28-5.1-1.02-10.85-2.54-17a91.29 91.29 0 0 0-6.24-17.47c-.84-1.79-1.69-3.43-2.51-4.92M129.39 1143.76s-.09-.03-.14-.04c-2.62-.68-5.61-1.02-8.84-.61-.25.03-.51.07-.75.12-4.42.69-8.05 2.63-10.98 5.05-5.6 4.56-8.67 10.8-9.83 13.17-.81 1.67-1.57 3.55-2.22 5.59-1.44 4.4-2.34 9.51-2.11 14.56M139.67 1148.92l-.14-.11c-.9-.69-2.63-1.93-4.98-3.1a27.91 27.91 0 0 0-5.13-1.95M134.55 1145.71c.56-.2 1.16-.42 1.78-.68 4.35-1.77 9.76-4.88 12.53-10.05 4.04-7.55 2.66-15.78 5.07-17.6.38-.3 2.24-.53 4.77-.62" style="fill:none;stroke:#000;strokeLinecap:round;stroke-linejoin:round;strokeWidth:1.02px"/><path d="M202.87 1113.79c-.99 13.75-8.69 19.33-12.85 20.95-3.15 1.24-8.36-4.94-11.35-11.45M218.33 1148.89c-7.64 4.26-41.37 31.77-72.47 41.14-17.27 5.21-29.38 2.09-32.75 1.51-8.14-1.41-14.94-5.21-17.78-8.74-.32-.4-.59-.8-.81-1.19h0v-.02M52.58 1124.81c-.72-.79-2.25-2.41-4.47-4.05-2.31-1.69-5.36-3.44-9.05-4.38-1.38-.36-2.86-.59-4.41-.67-13.47-.71-22.03 10.95-24.45 14.25-.57.77-1.13 1.6-1.68 2.49a44.75 44.75 0 0 0-4.54 9.67 38.26 38.26 0 0 0-1.62 6.9c-.73 5.52-.09 11.23 2.91 16.26 5.83 9.76 17.57 11.94 26.76 13.64 8.09 1.5 20.1 2.27 42.85-4.28 6.15-1.77 13.52-4.21 21.75-7.6M125.66 1097.37c2.01 5.94 4.23 14.48 4.86 24.11.4 6.38.11 12.21-.52 17.3-.22 1.73-.47 3.38-.75 4.94" style="fill:none;stroke:#000;strokeLinecap:round;stroke-linejoin:round;strokeWidth:1.02px"/><path d="M119.66 1143.23c4.61-2.17 8.42-3.77 10.34-4.45h.01M2.37 1149.02c1.39 4.13 7.89 9.93 16.56 13.07 3.21 1.16 14.59 6.37 32.5 4.3 19.7-2.29 41.44-11.02 57.25-18.11M48.11 1120.76c4.65-.81 11.64-2.84 15.98-8.04 3.77-4.52 3.55-10.61 4.67-13.97.58-1.7 1.48-2.7 3.42-2.46.85.11 2.01.24 3.37.41M125.66 1097.37c-.1 0-.2.01-.31.02-1.75.14-3.92 1.09-4.13 1.26-.12.08-.18 1.41-.1 2.17.11.99.05 1.98-.14 2.94-1.65 8.7-13.87 16.07-16.34 15.99-4.57-.16-6.14-4.52-7.74-9.81-.48-1.58-.96-3.24-1.53-4.9M111.63 12.61c1.83 2.38 3.55 5.62 4.87 10.31M50.33 7.48s.08 0 .12.02c1.7.31 3.06.79 3.98 1.18M124.71 18.84c1.05 2.52.96 4.79.94 5.1M78.18 3.71c2.79 1.94 4.53 4.26 5.68 5.35.45.42.8.66 1.1.64M144.12 41.4c-.68 2.11-1.75 4.13-3.21 5.94M142.95 57.52c-.93-1.08-1.96-2.09-3.05-3.06M36.87 73.03c-.17-2.86-.77-6.26-1.72-10.19-.01-.07-.03-.16-.05-.24M35.81 80.69c-.95 1.92-2.53 3.19-4.83 3.82-1.15.32-2.48.48-4.02.48-2.75 0-5.41-1.01-6.57-4.44-.48-1.45-.7-3.33-.55-5.74" style="fill:none;stroke:#000;strokeLinecap:round;stroke-linejoin:round;strokeWidth:1.02px"/><path d="M46.36 53.92c-2.2 6.34-6.83 8.82-11.21 8.92-3.83.1-7.45-1.67-9.04-4.29-1.57-2.6-2.69-5.6-2.83-8.66-.14-3.29.86-6.66 3.68-9.67" style="fill:none;stroke:#000;strokeLinecap:round;stroke-linejoin:round;strokeWidth:1.02px"/><path d="M41.21 32.08c-3.85 9.1.3 19.1 5.15 21.84.65.37 1.32.61 1.99.7 4.67.58 11.93-.73 14.61-6 .61-1.2.94-2.39 1.11-3.46.04-.31.48-.34.57-.03.28.97.74 1.94 1.43 2.8 4.01 4.98 13.89 4.29 19.9.43 1.02-.65 1.97-1.43 2.81-2.28 4.31-4.34 6.33-11.07 5.33-18.07M120.57 45.31c-.19.3-2.94 5.18-8.14 8.06-2.26 1.26-4.98 2.14-8.14 2.11-8.64-.08-13.94-7.19-15.17-8.96-.12-.17-.2-.29-.24-.35" style="fill:none;stroke:#000;strokeLinecap:round;stroke-linejoin:round;strokeWidth:1.02px"/><path d="M112.43 53.36h0c-1.77 17.25 4.63 27.22 10.53 29.77 1.53.67 3.3.83 4.99.34M147.74 105.58c.66 1.31 3.59 2.47 5.38 1.79 2.38-.9 4.24-4.54 3.05-9.16.55.03 1.97 1.1 3.4 2.94 1.96 2.54 3.95 6.54 3.73 11.3-.54 11.72-12.21 11.2-12.21 11.2 1.46 1.37 2.04 3.14 2.04 4.92 0 1.47-.39 2.94-1.03 4.23a7.449 7.449 0 0 1-2.28 2.78h0c-2.08 1.54-4.93 1.85-7.89.27M126.59 150.99c1.29 2.73 4.23 4.49 7.2 4.2 2.86-.29 5.58-2.78 6.25-5.6" style="fill:none;stroke:#000;strokeLinecap:round;stroke-linejoin:round;strokeWidth:1.02px"/><path d="M132.77 132.8c-3.06 6.98.11 14.49 5.09 16.31.7.26 1.43.4 2.18.45 3.32.22 6.95-1.51 9.01-4.8 2.38-3.79 1.48-8.22.78-9.17M37.03 135.56c.35 1.15.65 2.28.9 3.37 2.42 10.7-.06 18.42-2.83 18.27-1.81-.11-3.05-2.01-4.07-4.05-.21.33-.41.67-.57 1.01-1.91 3.76-1.21 7.9 2.61 10.18 2.55 1.54 5.75 2.09 8.61 1.22h0c1.05-.32 2.04-.82 2.95-1.55.6-.46 1.16-1.03 1.67-1.7M59.52 161.29c.26 2.62-.78 5.01-2.46 6.8-1.76 1.87-4.23 3.12-6.69 3.37-3.28.34-6.9-2.48-8.69-5.9M67.76 163.85c-.85 2.89-3.48 4.95-6.2 5.58-1.93.45-3.84-.79-4.5-1.34M128.71 114.4s-.01.05-.01.09M128.7 114.49c-.01.06-.01.08-.01.09-.01.09-.02.18-.04.28-.26 2.01-.89 5.2-1.99 9.04" style="fill:none;stroke:#000;strokeLinecap:round;stroke-linejoin:round;strokeWidth:1.02px"/><path d="M127.95 83.47c2.44-.69 4.72-2.72 5.97-6.51 1.18-.68 2.52-1.13 3.94-1.13 1.22 0 2.41.24 3.55.68.64-.49 6.57-4.91 5.61-10.86-.5-3.07-2.02-5.75-4.07-8.13.62-.66 3.88-4.21 4.07-8.14.21-4.58-2.39-7.44-2.9-7.98 1.67-5.21.94-10.95-2.19-15.42-3.78-5.41-10.45-8.18-17.22-7.14h-.01c-.61-1.45-1.62-2.99-3.27-4.27-4.13-3.21-9.19-2.09-9.8-1.96-1.76-2.28-3.61-3.76-5.31-4.95-4.28-3-8.13-4.14-11.6-4.42-4.52-.38-8.4.67-11.78.93-1.71.15-3.29.09-4.76-.46C75.47 1.81 71.77.27 66.64.54c-8 .43-15.43 6.78-16.31 6.94-1.86-.34-6.14-1.04-10.14 1.2-1.67.94-2.78 1.95-4.23 3.75-1.93 2.4-2.29 4.33-3.91 5.41-9.15 6.1-17.29 13.22-18.31 22.38-.79 7.15 1.02 13.23 1.02 16.28-4.07 9.15-3.84 12.52-3.06 20.35.39 3.91 2.49 9.38 9.09 15.34.43.38.88.77 1.35 1.16-1.22 1.67-2.11 4.13-2.67 6.89-.07.29-.13.58-.18.88-.68 3.73-.81 7.9-.46 11.33.8 7.98 3.97 14.5 7.68 18.63 3.57 4 7.65 5.77 10.52 4.48.34-.16.68-.37.99-.62.87 1.94 1.81 3.8 2.83 5.59 1.26 2.26 2.63 4.39 4.12 6.39 1.71 2.34 3.58 4.5 5.57 6.44.7.69 1.41 1.34 2.14 1.97a44.19 44.19 0 0 0 6.88 4.93c1.3.76 2.65 1.44 4.03 2.05.56.24 2.03.87 4.17 1.54 4.32 1.36 11.37 2.86 19.35 1.78h.01c1.96-.26 3.94-.68 5.98-1.29.39-.12.77-.24 1.15-.37 19.4-6.52 28.65-27.02 32.41-40.07" style="fill:none;stroke:#000;strokeLinecap:round;stroke-linejoin:round;strokeWidth:1.02px"/><path d="M30.73 104.87c-.2-2.68-.32-5.4-.33-8.18 0-1.02.01-2.05.04-3.09.07-2.98.25-6.02.54-9.09M38.02 134.94c-1.55-3.43-2.86-7.09-3.95-10.94-1.65-5.81-2.76-12.08-3.3-18.67M22.14 93.35c1.03-1.42 2.29-2.26 3.81-2.26 2.8 0 3.69 1.28 4.48 2.51" style="fill:none;stroke:#000;strokeLinecap:round;stroke-linejoin:round;strokeWidth:1.02px"/><path d="M30.77 105.33c0-.14-.02-.29-.04-.46-.21-1.81-1.2-4.93-3.77-5.64-1.07-.29-2.54-.09-3.66.55-.63.36-1.15.85-1.42 1.48M128.7 114.49c.65.78 2.39 2.03 5.09 2.03 2.4 0 4.63-.69 6.11-1.43.39-.2.74-.41 1.01-.6.4-.28.84-.64 1.3-1.08 1.71-1.62 3.81-4.3 5.53-7.83 1.9-3.9 3.35-8.82 3.35-14.49s-4.19-12.46-9.68-14.58" style="fill:none;stroke:#000;strokeLinecap:round;stroke-linejoin:round;strokeWidth:1.02px"/><path d="M132.2 90.39c.67-.84 1.53-1.65 2.61-2.35 3.03-1.94 6.16-1.89 8.14-1.55 1.1.19 1.84.46 2.03.53M129.72 96.18c.06-.49.45-3.25 2.47-5.78" style="fill:none;stroke:#000;strokeLinecap:round;stroke-linejoin:round;strokeWidth:1.02px"/><path d="M135.5 88.36c.95.5 2.56 1.63 3.38 3.75.93 2.43.2 4.55 0 5.08M134.81 88.04c.11.04.35.14.68.32M87.12 165.63A59.742 59.742 0 0 1 92 182.12c.03.18.05.36.08.54.99 7.03.62 13.29-.2 18.37-.07.45-.14.89-.23 1.32-.47 2.64-1.06 4.92-1.61 6.76M126.66 123.9c-.42 8.31-.52 17.34-.07 27.09.21 4.94.58 10.07 1.1 15.39 1.05 10.68 2.62 20.55 4.44 29.5.22 1.03.43 2.05.64 3.05M216.83 501.52c-4.51 8.39-9.34 17.45-14.4 27M253.73 327c-.5-1.91-1.02-3.87-1.54-5.87-.86-3.25-1.74-6.62-2.66-10.09M239.35 386.75c-1.19 2.28-2.38 4.57-3.57 6.85M182.25 496.42c-1.39 2.68-3.06 5.86-4.46 8.54M26.87 347.63l1.53 11.24c.47 3.5.95 7.01 1.43 10.51 2.89 21.31 5.79 42.62 8.69 63.93.83 6.14 1.66 12.28 2.5 18.42M125.35 1097.39c-.16-1.87-.31-3.73-.46-5.6l-.09-1.09" style="fill:none;stroke:#000;strokeLinecap:round;stroke-linejoin:round;strokeWidth:1.02px"/><path d="M176.63 500.85c.24 1.02.59 2.44 1.16 4.11h0c1.37 3.96 3.94 9.35 8.86 14.26 3.38 3.38 7.03 5.7 10.47 7.29 1.86.86 3.65 1.51 5.31 2.01 3.83 1.14 6.92 1.42 8.33 1.53M107.59 72.17c-2.25 1.03-5.96 1.62-11.44 1.62-7.48 0-11.95.43-14.26-.25-1.41-.4-2.02-1.22-2.02-2.8 0-4.07 8.24-7.87 16.28-8.14 6.16-.2 14.24 2.41 14.24 6.11 0 1.4-.87 2.6-2.8 3.46ZM36.87 73.03c.1-.08.18-.17.27-.25 1.63-1.55 4.7-3.48 8.14-5.09 4.18-1.95 11.98-1.64 15.26 0 4.07 2.03 2.25 4.82 0 6.1-.32.18-.65.36-.98.53-7.09 3.81-15.49 6-19.37 6.6-.72.11-1.54.14-2.38.08-.68-.04-1.37-.15-2-.31.94-1.9 1.27-4.45 1.06-7.66ZM60.54 111.44c.22-.37 2.33-3.75 6.47-4.8.52-.14 1.08-.24 1.67-.29 5.54-.46 8.92 3.76 9.15 4.07M83.94 120.93h-.08M83.09 121.03c.32-.06.57-.08.74-.09M69.72 143.09c-.42-1.6-2.06-6.22.99-12.32 2.68-5.35 6.76-7.86 9.7-8.98.69-.27 1.32-.45 1.85-.58.31-.08.58-.14.82-.18M99.74 79.6a7.079 7.079 0 0 1 1.49 4.37c0 3.94-3.18 7.12-7.12 7.12s-7.12-3.18-7.12-7.12c0-1.31.35-2.53.97-3.58a7.093 7.093 0 0 1 6.15-3.54c2.29 0 4.33 1.08 5.63 2.75ZM46.3 88.09v-.05a7.11 7.11 0 0 1 7.12-7.12c2.03 0 3.86.85 5.15 2.21a7.098 7.098 0 0 1 1.97 4.91c0 3.93-3.19 7.12-7.12 7.12S46.33 92 46.3 88.09ZM85.79 205.51c-.44.74-.69 1.44-.69 1.98 0 6.83 14.25 9.76 26.69 9.76 2.66 0 5.61-.4 8.6-1.11 3.79-.9 7.63-2.3 10.96-4.03 2.44-1.27 4.61-2.72 6.29-4.26 2.34-2.15 3.74-4.51 3.65-6.88-.06-1.58-.88-2.88-2.49-3.78-1.33-.73-3.18-1.19-5.6-1.29-.34 0-.7-.02-1.07-.02M91.88 201.03c-.76 0-1.56.28-2.34.73-1.49.85-2.89 2.33-3.7 3.68" style="fill:none;stroke:#000;strokeLinecap:round;stroke-linejoin:round;strokeWidth:1.02px"/><path d="M85.84 205.44c.08-.08.15-.17.23-.26M54.43 344.42s-.11.05-.16.08c-9.53 4.5-18.67 5.56-27.4 3.13-9.24-2.57-18.04-9.05-26.36-19.49.83-2.52 1.65-4.99 2.45-7.4 1.67-5.03 3.26-9.83 4.78-14.4 11.67-35.2 18.87-57.13 22.28-70.78.89-3.59 2.43-10.36 9.15-17.3 4.59-4.74 10.35-8.15 26.46-8.14h.91c9.14-.09 16.49-1.57 19.25-4.6M219.01 341.82c-2.13.17-4.11.23-5.89.2-3.64-.04-6.47-.4-8.11-.65-2.79-8.09-5.57-16.17-8.36-24.25-6.04-17.53-12.09-35.05-18.13-52.57-1.34-3.9-2.69-7.79-4.03-11.69M138.8 197.19c21.66 3.99 34.13.39 43.64.27 8.31-.1 12.08 2.13 15.26 4.07 13.22 8.04 19.28 21.01 22.39 25.43 11.88 16.96 24.68 45.88 45.78 81.39" style="fill:none;stroke:#000;strokeLinecap:round;stroke-linejoin:round;strokeWidth:1.02px"/><path d="M253.73 327c9.02 34.18 14.69 55.03 16.87 60.6.54 1.4 1.22 3.48 1.16 5.36-.06 2.07-3.22 9.55-4.27 12.1-1.15 2.82-13.94 28.4-36.78 70.67-4.27 7.9-8.9 16.49-13.88 25.79.17.08.35.16.52.24.88 4.55 1.41 8.59 1.66 12.4.3 4.56.19 8.8-.23 13.21-.76 8.01-2.51 16.57-4.61 28.67-1.38 7.92-2.68 15.69-3.92 23.28-17.05 104.56-21.28 177.46-23.55 203.6-6.11 70.2-7.13 165.83 20.34 326.58-.54.65-1.26 1.47-2.18 2.4-.58.6-1.24 1.23-1.99 1.89-3.21 2.82-7.89 6.03-14.14 7.92a36.558 36.558 0 0 1-10.06 1.58c-.41-.88-.76-1.76-1.08-2.64-.03-.09-.07-.18-.12-.27-1.69-3.12-12.37-3.85-18.77-3.62-1.94-7.02-3.87-14.21-5.78-21.56-22.2-85.61-41.07-193.1-42.53-317.37-.74-63.56 3.17-122.05 9.54-174.52 1.15-9.51 2.39-18.83 3.69-27.94-3.05-.68-6.11-1.35-9.16-2.03-.44 1.89-.88 3.79-1.32 5.71-12.44 54.65-22.72 120.26-25.13 194.71-4.18 129.02 16.79 237.02 38.66 314.38-.4.6-1.02 1.49-1.87 2.56-.16.21-.34.42-.52.64a38.852 38.852 0 0 1-5.19 5.15 37.38 37.38 0 0 1-12.77 6.91c-3.86 1.2-7.56 1.65-10.95 1.64-.15-.45-.31-.91-.47-1.36-.16-.44-.42-.85-.78-1.24-3.04-3.42-12.64-4.98-18.57-5.74-1.79-5.17-3.62-10.54-5.49-16.1-24.91-74.35-55.27-183.52-59.37-318.03-2.45-80.46 11.09-151.31 22.98-209.34 2.56-12.54 5.06-24.47 7.29-35.78-2.16.05-6.22-.3-9.93-3.12-6.7-5.1-6.15-13.62-6.1-14.25.52-.05 1.08-.1 1.66-.16 4.44-.37 10.52-.61 17.67-.09 1 .06 2.02.15 3.05.25 8.25.82 13.86 2.31 18.85 4.08 7.26 2.56 13.18 5.68 23.88 8.13 9.06 2.08 34.4 6.6 60.03-3.05 13.28-5 11.65-8.16 23.4-11.19 1.48-.38 4.59-1.12 8.78-1.63 1.2-2.31 2.41-4.62 3.61-6.93 12.87-24.73 25.74-49.45 38.62-74.19 1.91-3.66 3.82-7.33 5.73-11 1.85-3.56 3.71-7.13 5.57-10.7-.72-2.26-1.45-4.55-2.2-6.88-3-9.32-6.21-19.17-9.39-28.94-.95-2.9-1.89-5.79-2.82-8.66-.79-2.45-1.59-4.89-2.36-7.3-.53-1.64-1.06-3.27-1.58-4.88-.95-2.97-1.89-5.89-2.8-8.74 3.98-4.12 9.18-8.27 15.81-11.25a80.741 80.741 0 0 1 19.09-5.92c7.32-1.29 13.05-1.23 16.32-1.21h1.22a61.07 61.07 0 0 1-7.52 11.19 57.743 57.743 0 0 1-5.82 5.98Z" style="fill:none;stroke:#000;strokeLinecap:round;stroke-linejoin:round;strokeWidth:1.02px"/><path d="M205.01 341.37c1.53-2.77 4.6-7.95 9.62-13.17M218.78 527.37c1.62.13 5.72.29 8.61-.84 2.97-1.17 5.09-3.06 6.55-4.85 1.53-1.88 2.33-3.64 2.61-4.3-2.14-13.87-4.1-27.75-5.84-41.65M224.48 415.3c-1.71-21.95-2.8-44-3.11-66.18" style="fill:none;stroke:#000;strokeLinecap:round;stroke-linejoin:round;strokeWidth:1.02px"/><path d="M217.35 501.76c2 .98 4 2.11 5.97 3.41 6.34 4.17 10.62 8.89 13.23 12.21M24.93 500.08c3.96-8.13 9.05-16.18 11.19-25.43 1.77-7.66 3.4-15.31 4.9-22.92 2.17-11.03 4.05-21.98 5.68-32.82 3.86-25.59 6.28-50.57 7.57-74.41 1.93-35.75 1.32-68.94-.85-97.75M134.81 108.39c1.13 0 2.03.91 2.03 2.03s-.9 2.03-2.03 2.03-2.04-.91-2.04-2.03.92-2.03 2.04-2.03ZM106.55 234.86a5 5 0 0 1 2.2 1.56c.71.87 1.13 1.99 1.13 3.21 0 1.12-.37 2.17-.99 3.01-.49.68-1.15 1.23-1.92 1.58-.66.32-1.39.5-2.17.5a5.091 5.091 0 0 1-1.01-10.08c.24-.05.5-.08.76-.09" style="fill:none;stroke:#000;strokeLinecap:round;stroke-linejoin:round;strokeWidth:1.02px"/><path d="M107.34 233.02c0 .3-.05.58-.15.85-.14.38-.36.71-.64.99-.01 0-.03.03-.05.04-.07-.02-.14-.05-.22-.06-.52-.16-1.07-.26-1.64-.29h-.09c-.09-.01-.17-.01-.26-.01-.49 0-.96.05-1.42.14-.38-.43-.62-1.02-.62-1.66a2.554 2.554 0 0 1 2.55-2.55c1.4 0 2.54 1.14 2.54 2.55ZM131.95 194.67c.46.42.87.82 1.25 1.23 2.48 2.66 3.39 5.12 3.84 6.91.42 1.71.62 3.39.6 5.04-.04 3.99-1.29 7.77-3.48 11.12-5.14 7.89-15.4 13.44-26.82 14.05M91.88 201.03c-.43.05-.65.11-1.26.37-.27.17-.54.33-.8.5-1.48.94-2.75 1.95-3.98 3.54-.02.03-.03.05-.05.07-.25.32-.51.69-.76 1.07-.46.78-.84 1.61-1.09 2.53-2.18 7.75 4.65 18.8 18.31 23.4M135.83 113.41h8.14M139.9 109.34v11.19" style="fill:none;stroke:#000;strokeLinecap:round;stroke-linejoin:round;strokeWidth:1.02px"/><path d="M44.26 499.82h0c-.88 4.9-1.84 10.13-2.85 15.35l-.45 2.28" style="fill:none;stroke:#070707;strokeLinecap:round;stroke-linejoin:round;strokeWidth:1.02px"/><path d="m72.57 119.05-.81.03c-.27.02-.48-.26-.36-.48.85-1.56 1.7-3.11 2.55-4.66.01-.02.02-.03.03-.05.17-.31.54-.5.92-.48 1.87.1 3.61.26 5.19.47 4.73.65 8.17 1.83 10.09 3.64.8.76 1.34 1.63 1.6 2.61.09.35-.28.64-.66.5-4.69-1.66-11.3-1.86-18.55-1.58ZM68.31 119.62c.33-.14.66-.27.99-.41.25-.1.31-.44.11-.6-1.46-1.09-2.92-2.19-4.38-3.28-.3-.21-.71-.24-1.05-.06-8.63 4.56-13.16 8.99-12.33 13.24.07.38.53.48.81.2.54-.54 1.13-1.06 1.78-1.57 3.51-2.78 8.51-5.21 14.07-7.52Z" style="fill:none;stroke:#000;strokeLinecap:round;stroke-linejoin:round;strokeWidth:1.02px"/></g><path d="M134.79 111.94c-1.27-.07-1.82-1.39-1.33-2.27.31-.55.94-.88 1.37-.39.23.26.24.61.08.9-.11.2-.18.41-.18.64 0 .38.09.96.07 1.12Z" style="fill:#00dbff"/></g><g style="mix-blend-mode:color-dodge;opacity:.75" data-name="highlights"><path d="M254.26 321.08c1.77-.04 3.53-.06 5.29-.06a57.743 57.743 0 0 1-5.82 5.98c-.5-1.91-1.02-3.87-1.54-5.87.69-.02 1.38-.04 2.07-.05Z" style="fill:#82cefa"/><path d="M230.21 404.3c1.29.67 2.58 1.33 3.88 2-7.87 29.39-21.44 57.24-39.72 81.56-1.03 1.37-2.15 2.79-3.75 3.41-1.59.62-3.77.07-4.31-1.55l-.45-.23c12.87-24.73 25.74-49.45 38.62-74.19 1.91-3.66 3.82-7.33 5.73-11ZM231.56 360.26a85.628 85.628 0 0 1 2.02 26.46c-3-9.32-6.21-19.17-9.39-28.94-.15-1.56-.2-3.13-.15-4.69.03-1.13.46-2.6 1.59-2.59.43 0 .82.26 1.17.52 2.78 2.18 3.95 5.8 4.76 9.24Z" style="fill:#e7f2fe"/><path d="M233.94 521.68c-1.46 1.79-3.58 3.68-6.55 4.85-2.89 1.13-6.99.97-8.61.84.42-4.41.53-8.65.23-13.21 5.42 1.45 10.51 4.05 14.93 7.52ZM217.43 336.94c.52 1.61 1.05 3.24 1.58 4.88-2.13.17-4.11.23-5.89.2 1.36-1.74 2.8-3.44 4.31-5.08Z" style="fill:#82cefa"/><path d="M139.53 1148.81c-.02-.16-.04-.31-.08-.47-.23-.96-.92-2.32-3.12-3.31 4.35-1.77 9.76-4.88 12.53-10.05 4.04-7.55 2.66-15.78 5.07-17.6.38-.3 2.24-.53 4.77-.62 6.4-.23 17.08.5 18.77 3.62l-.96.52c-3.58.71-5.97 4.28-6.69 7.86s-.18 7.27-.14 10.92c.23 18.98-14.75 37-33.45 40.24-11.27 1.95-22.95-.95-34.25.86-2.26.36-4.59 1-6.65 2.02-.32-.4-.59-.8-.81-1.19-.23-5.06.67-10.17 2.11-14.57.65-2.04 1.41-3.92 2.22-5.59 1.16-2.37 4.23-8.61 9.83-13.17 2.93-2.42 6.56-4.36 10.98-5.05.24-.05.5-.09.75-.12 3.23-.41 6.22-.07 8.84.61.05.01.09.02.14.04-2.91-.09-6.65.17-11.48.93-8.24 1.31-15.31 8.1-16.95 16.27-.56 2.77-.43 5.94 1.48 8.03 1.76 1.91 4.59 2.43 7.19 2.31 3.88-.17 7.63-1.49 11.17-3.11 6.64-3.05 12.92-7.38 16.91-13.51 1.14-1.76 2.11-3.82 1.82-5.87Z" style="fill:#fff"/><path d="M155.61 1086.75c.05 2.7-.03 5.67-1.8 7.71-.25.29-.56.55-.89.74-22.2-85.61-41.07-193.1-42.53-317.37-.74-63.56 3.17-122.05 9.54-174.52 3.38-.27 6.63 2.52 7.8 5.8 1.29 3.56.77 7.49.26 11.25a1227.738 1227.738 0 0 0-10.4 216.71c1.01 24.96 2.79 49.93 6.66 74.61 9.2 58.66 30.21 115.7 31.36 175.07Z" style="fill:#0047ab"/><path d="M139.53 1148.81c.29 2.05-.68 4.11-1.82 5.87-3.99 6.13-10.27 10.46-16.91 13.51-3.54 1.62-7.29 2.94-11.17 3.11-2.6.12-5.43-.4-7.19-2.31-1.91-2.09-2.04-5.26-1.48-8.03 1.64-8.17 8.71-14.96 16.95-16.27 4.83-.76 8.57-1.02 11.48-.93h.03c1.93.52 3.66 1.22 5.13 1.95a30.89 30.89 0 0 1 4.98 3.1Z" style="fill:#fff"/><path d="M139.45 1148.34c.04.16.06.31.08.47-.9-.69-2.63-1.93-4.98-3.1.56-.2 1.16-.42 1.78-.68 2.2.99 2.89 2.35 3.12 3.31Z" style="fill:#fff"/><path d="M134.81 108.39c1.13 0 2.03.91 2.03 2.03s-.9 2.03-2.03 2.03-2.04-.91-2.04-2.03.92-2.03 2.04-2.03Z" style="fill:#00dbff"/><path d="M134.81 88.04c.11.04.35.14.68.32a9.687 9.687 0 0 0-3.29 2.03c.67-.84 1.53-1.65 2.61-2.35Z" style="fill:#e7f2fe"/><path d="M119.87 217.69c4.64 1.66 9.43 1.84 14.29 1.28-5.14 7.89-15.4 13.44-26.82 14.05 0-1.41-1.14-2.55-2.54-2.55-1.24 0-2.26.88-2.5 2.04h-.05c-13.66-4.6-20.49-15.65-18.31-23.4.25-.92.63-1.75 1.09-2.53.25-.38.51-.75.76-1.07-.44.74-.69 1.44-.69 1.98 0 6.83 14.25 9.76 26.69 9.76 2.66 0 5.61-.4 8.6-1.11l-.52 1.55Z" style="fill:#fff"/><path d="m124.8 1090.7.09 1.09c-.21-.14-.41-.29-.61-.45.18-.22.36-.43.52-.64Z" style="fill:#e7f2fe"/><path d="M110.39 68.71c0 1.4-.87 2.6-2.8 3.46-.42-1.43-2.04-2.26-6-2.93-6.8-1.14-14 .44-19.7 4.3-1.41-.4-2.02-1.22-2.02-2.8 0-4.07 8.24-7.87 16.28-8.14 6.16-.2 14.24 2.41 14.24 6.11Z" style="fill:#01487b"/><path d="M107.28 244.06c.04.34.08.69.12 1.06-6.93 1.39-12.68-1.57-11.22-5.79.76-2.2 3.4-4.44 5.94-4.03a5.091 5.091 0 0 0 2.68 9.42c.9 0 1.75-.24 2.48-.66Z" style="fill:#fff"/><path d="M107.21 243.51c.02.18.05.36.07.55-.73.42-1.58.66-2.48.66a5.091 5.091 0 0 1-2.68-9.42c.23.04.47.11.7.19 1.17.44 1.63 1.8 1.18 2.97-.3.82-.36 1.62-.12 2.37.41 1.29 1.63 2.21 3.33 2.68Z" style="fill:#fff"/><path d="M107.01 541.99c-1.67-.08-3.34-.2-5.01-.37 1.69.03 3.36.15 5.01.37Z" style="fill:#0047ab"/><path d="m100.42 87.29.15.06c-.21.19-.39.39-.55.61.14-.22.28-.44.4-.67Z" style="fill:#0078da"/><path d="M100.42 87.29c-.12.23-.26.45-.4.67-.04.05-.08.11-.12.16-.24.34-.51.65-.81.94-1.22.22-2.15.85-2.78 1.68-.5.17-1.03.27-1.57.32-.52-.2-1.11-.3-1.77-.3-.27 0-.53.02-.78.06-.55-.45-1.22-.78-2.03-.93a6.987 6.987 0 0 1-2.17-2.29c1.5-.81 3.86-1.33 6.54-1.33 2.31 0 4.4.39 5.89 1.02Z" style="fill:#0078da"/><path d="M99.9 88.12c-.2.27-.36.57-.5.89-.11.01-.21.03-.31.05.3-.29.57-.6.81-.94Z" style="fill:#0078da"/><path d="M98.62 79.84c.24.3.38.67.38 1.08 0 .97-.79 1.77-1.76 1.77s-1.77-.8-1.77-1.77c0-.24.05-.46.14-.67 1.01-.1 2.02-.22 3.01-.41Z" style="fill:#fff"/><path d="M97.24 79.15c.57 0 1.07.27 1.38.69-.99.19-2 .31-3.01.41.25-.65.89-1.1 1.63-1.1Z" style="fill:#fff"/><path d="M99.09 89.06c-.77.76-1.72 1.34-2.78 1.68.63-.83 1.56-1.46 2.78-1.68ZM96.31 90.74s-.03.03-.04.05c-.36.13-.7.29-1 .49a3.11 3.11 0 0 0-.53-.22c.54-.05 1.07-.15 1.57-.32Z" style="fill:#0078da"/><path d="M95.87 184.52c1.12 4.5.9 9.32-.63 13.7-.56 1.6-1.39 3.25-2.91 4-.15.08-.39.13-.68.13.09-.43.16-.87.23-1.32.82-5.08 1.19-11.34.2-18.37-.03-.18-.05-.36-.08-.54.87-.39 1.91-.43 2.67.14.69.53.99 1.42 1.2 2.26Z" style="fill:#e7f2fe"/><path d="M95.33 1182.8c-.24.11-.47.23-.7.36-.05-.51-.09-1.03-.11-1.55.22.39.49.79.81 1.19Z" style="fill:#82cefa"/><path d="M94.74 91.06a6.75 6.75 0 0 1-2.55-.24c.25-.04.51-.06.78-.06.66 0 1.25.1 1.77.3Z" style="fill:#0078da"/><path d="M92.37 122.07c2.23.56 3.89 1.21 4.8 1.58-.65 10.54-8.52 19.05-18.32 20.34-3.1.41-6.21.08-9.13-.9-.42-1.6-2.06-6.22.99-12.32 2.68-5.35 6.76-7.86 9.7-8.98.72.06 1.37-.49 2.09-.43 3.58-.69 6.31.15 9.87.71Z" style="fill:#82cefa"/><path d="M91.88 201.03c-.07.45-.14.89-.23 1.32-.5 0-1.15-.13-1.83-.45.26-.17.53-.33.8-.5.61-.26.83-.32 1.26-.37Z" style="fill:#e7f2fe"/><path d="M90.16 89.89c.81.15 1.48.48 2.03.93-.73-.2-1.42-.51-2.03-.93ZM90.16 89.89c-.07-.02-.14-.03-.21-.04-.32-.24-.69-.44-1.1-.59-.22-.59-.54-1.14-.97-1.6.04-.02.07-.04.11-.06.54.92 1.28 1.7 2.17 2.29Z" style="fill:#0078da"/><path d="M50.33 7.48c.88-.16 8.31-6.51 16.31-6.94 5.13-.27 8.83 1.27 11.54 3.17 2.79 1.94 4.53 4.26 5.68 5.35 0 .03 0 .05-.02.08-.57 2.05-3.28 2.71-5.34 2.15-2.05-.55-3.83-1.89-5.88-2.47-2.04-.57-4.31-.33-6.18.68-2.43 1.3-4.17 3.77-6.77 4.66-2.78.95-5.87-.12-8.74.51-6.02 1.33-8.2 9.12-13.6 12.1-2.68 1.49-5.96 1.65-8.61 3.19-4.9 2.87-6.11 9.39-6 15.07.03 1.61.12 3.24.17 4.87.15 4.14.06 8.26-1.8 11.88-.9 1.76-2.18 3.31-2.92 5.14-1.23 3.02-.83 6.46.09 9.59.43 1.45.96 2.86 1.49 4.28.62 1.64 1.23 3.28 1.68 4.97.39 1.52.64 3.13.25 4.65-.17.64-.47 1.26-.89 1.78-6.6-5.96-8.7-11.43-9.09-15.34-.78-7.83-1.01-11.2 3.06-20.35 0-3.05-1.81-9.13-1.02-16.28 1.02-9.16 9.16-16.28 18.31-22.38 1.62-1.08 1.98-3.01 3.91-5.41 1.45-1.8 2.56-2.81 4.23-3.75 4-2.24 8.28-1.54 10.14-1.2Z" style="fill:#01487b"/><path d="M77.09 121.52c2.37-.45 4.63-.61 6.74-.58-.5.02-1.78.22-3.42.85l-3.32-.27Z" style="fill:#182c4c"/><path d="m77.09 121.52 3.32.27c-2.94 1.12-7.02 3.63-9.7 8.98-3.05 6.1-1.41 10.72-.99 12.32-5.04-1.69-9.49-5.3-12.23-10.29 2.21-2.53 7.2-7.52 15.26-10.17 1.48-.48 2.93-.85 4.34-1.11Z" style="fill:#182c4c"/><path d="M80.09 113.88c-.84.27-1.78.34-2.67.34-1.2 0-2.4-.11-3.47-.28.01-.02.02-.03.03-.05.17-.31.54-.5.92-.48 1.87.1 3.61.26 5.19.47Z" style="fill:#01487b"/><path d="M69.17 1053.63c.94 8.86 1.56 18.05.89 26.97-24.91-74.35-55.27-183.52-59.37-318.03-2.45-80.46 11.09-151.31 22.98-209.34 4.3-1.36 9.77 1.08 12.36 5.1 3.18 4.92 3.24 11.16 3.09 17.02-2.05 79.76-23.81 158.49-20.64 238.21 3.23 81.19 32.16 159.27 40.69 240.07Z" style="fill:#0047ab"/><path d="M65.63 210.12h.91c-1.14 3.15-3.79 5.71-6.65 7.6-3.44 2.26-7.31 3.83-10.63 6.26-5.99 4.38-9.74 11.24-12 18.3-2.26 7.06-3.22 14.47-4.78 21.72-2.38 11.08-6.17 21.83-10.79 32.17-1.61 3.62-3.51 7.4-6.9 9.46-2.07 1.26-4.84 1.52-7.05.72 11.67-35.2 18.87-57.13 22.28-70.78.89-3.59 2.43-10.36 9.15-17.3 4.59-4.74 10.35-8.15 26.46-8.14Z" style="fill:#fff"/><path d="M60.54 67.69c4.07 2.03 2.25 4.82 0 6.1-.32.18-.65.36-.98.53-1.17-.25-2.32-.27-2.12-.24-4.76-.86-9.59.86-13.98 2.9-1.69.78-3.39 1.64-4.72 2.94-.34.33-.65.69-.93 1.08-.68-.04-1.37-.15-2-.31.94-1.9 1.27-4.45 1.06-7.66.1-.08.18-.17.27-.25 1.63-1.55 4.7-3.48 8.14-5.09 4.18-1.95 11.98-1.64 15.26 0Z" style="fill:#01487b"/><path d="M60.4 89.39c.1 0 .19.02.28.03-.16.19-.3.39-.43.6.07-.21.12-.42.15-.63Z" style="fill:#0078da"/><path d="M60.4 89.39a3.6 3.6 0 0 1-.15.63c-.25.44-.44.91-.56 1.4 0 0-.01 0-.01.02a7.156 7.156 0 0 1-3.42 3.12c-.08-.01-.17-.01-.26-.01-.95 0-1.76.23-2.43.6-.05.01-.1.01-.15.01-.19 0-.38-.01-.57-.03-.43-.15-.9-.24-1.42-.26-.64-.18-1.23-.45-1.78-.79-.08-.04-.15-.09-.23-.15-.28-.19-.55-.4-.8-.65 1.22-1.16 3.23-2.3 5.65-3.08 2.3-.74 4.49-1 6.13-.81Z" style="fill:#0078da"/><path d="M60.25 90.03c-.13.49-.33.95-.56 1.39.12-.49.31-.96.56-1.39ZM59.68 91.44c-.05.24-.09.48-.12.73-.43.36-.78.8-1.05 1.28-.73.25-1.34.65-1.81 1.16-.14-.02-.29-.04-.44-.05a7.156 7.156 0 0 0 3.42-3.12Z" style="fill:#0078da"/><path d="M57.56 83.77c.09.21.14.44.14.68a1.773 1.773 0 0 1-3.25.98c1.06-.5 2.1-1.05 3.11-1.66Z" style="fill:#fff"/><path d="M56 94.55c.09 0 .18 0 .26.01-.83.37-1.74.58-2.69.59.67-.37 1.48-.6 2.43-.6Z" style="fill:#0078da"/><path d="M55.93 82.69c.74 0 1.37.44 1.63 1.08-1.01.61-2.05 1.16-3.11 1.66-.18-.28-.29-.62-.29-.98 0-.98.79-1.76 1.77-1.76Z" style="fill:#fff"/><path d="M53.57 95.15c-.09.05-.18.1-.26.16-.15-.07-.3-.13-.46-.18.19.02.38.03.57.03.05 0 .1 0 .15-.01ZM51.43 94.87c.52.02.99.11 1.42.26a6.04 6.04 0 0 1-1.42-.26ZM51.43 94.87h-.25c-.21 0-.4 0-.59.03-.27-.31-.58-.59-.94-.81.55.34 1.14.61 1.78.79Z" style="fill:#0078da"/><path d="m50.84 153.06-.3.3c-1.99-1.94-3.86-4.1-5.57-6.44-.09-.41-.22-.8-.37-1.19-.47-1.19-1.23-2.25-2.03-3.26-.53-.68-1.09-1.35-1.72-1.94a64.95 64.95 0 0 1-2.83-5.59c-1.55-3.43-2.86-7.09-3.95-10.94-1.65-5.81-2.76-12.08-3.3-18.67 0-.14-.02-.29-.04-.46-.2-2.68-.32-5.4-.33-8.18h.05c.72-.64.96-1.64 1.42-2.48.47-.84 1.46-1.59 2.32-1.18.43.2.7.64.92 1.06 1.23 2.42 1.66 5.16 1.95 7.85 1.34 12.13.51 25.08 6.48 35.72 2.82 5.02 7.18 9.65 7.3 15.4Z" style="fill:#e7f2fe"/><path d="M48.62 93.28c.25.25.52.46.8.65a4.28 4.28 0 0 0-1.03-.42c.07-.08.15-.16.23-.23Z" style="fill:#0078da"/><path d="M44.97 146.92c.29 1.27.29 2.61.18 3.92-.28 3.11-1.26 6.16-2.85 8.85-.51.85-1.1 1.69-1.94 2.21-1.61 1-3.75.6-5.43-.28-2.73-1.43-4.88-4.47-4.47-7.46.16-.34.36-.68.57-1.01 1.02 2.04 2.26 3.94 4.07 4.05 2.77.15 5.25-7.57 2.83-18.27.51.1 1 .29 1.45.53.54.29 1.02.66 1.47 1.07 1.26 2.26 2.63 4.39 4.12 6.39Z" style="fill:#01487b"/><path d="M44.6 145.73c.15.39.28.78.37 1.19-1.49-2-2.86-4.13-4.12-6.39.63.59 1.19 1.26 1.72 1.94.8 1.01 1.56 2.07 2.03 3.26Z" style="fill:#e7f2fe"/><path d="M39.06 1116.38c1.87 1.76 3.13 4.01 2.86 6.5-.27 2.5-2.03 4.58-3.91 6.26-5.33 4.79-12.3 7.72-19.46 8.2-3.49.23-7.55-.42-9.38-3.4-.29-.47-.5-.97-.65-1.49.55-.89 1.11-1.72 1.68-2.49 2.42-3.3 10.98-14.96 24.45-14.25 1.55.08 3.03.31 4.41.67Z" style="fill:#fff"/><path d="M41.33 515.56c-.12.63-.25 1.26-.37 1.89-2.16.05-6.22-.3-9.93-3.12-6.7-5.1-6.15-13.62-6.1-14.25 1.11-.11 2.36-.22 3.72-.31l.17 2.89c3.78 4.67 7.98 8.98 12.51 12.9Z" style="fill:#82cefa"/><path d="M40.85 140.53c-.45-.41-.93-.78-1.47-1.07-.45-.24-.94-.43-1.45-.53-.25-1.09-.55-2.22-.9-3.37.34-.16.68-.37.99-.62.87 1.94 1.81 3.8 2.83 5.59Z" style="fill:#01487b"/><path d="M34.15 372.78c5.11 19 6.71 38.94 4.7 58.52-.07.67-.15 1.37-.33 2.01-2.9-21.31-5.8-42.62-8.69-63.93l1.42-1.66c1.7 1.04 2.38 3.13 2.9 5.06ZM26.26 129.65c.1.46.19.94.25 1.43-3.71-4.13-6.88-10.65-7.68-18.63-.35-3.43-.22-7.6.46-11.33l.53.03c.07.23.14.46.19.69.4 1.65.41 3.48.52 5.18.49 7.78 4 15.03 5.73 22.63ZM19.82 101.15l-.53-.03c.05-.3.11-.59.18-.88.14.29.26.6.35.91Z" style="fill:#e7f2fe"/><path d="M102.12 235.3c.23.04.47.11.7.19 1.17.44 1.63 1.8 1.18 2.97-.3.82-.36 1.62-.12 2.37.41 1.29 1.63 2.21 3.33 2.68.02.18.05.36.07.55M80.41 121.79c.72.06 1.37-.49 2.09-.43 3.58-.69 6.31.15 9.87.71 2.23.56 3.89 1.21 4.8 1.58-.65 10.54-8.52 19.05-18.32 20.34-3.1.41-6.21.08-9.13-.9M77.09 121.52c2.37-.45 4.63-.61 6.74-.58" style="fill:none;stroke:#000;strokeLinecap:round;stroke-linejoin:round;strokeWidth:1.02px"/><path d="M69.72 143.09c-5.04-1.69-9.49-5.3-12.23-10.29 2.21-2.53 7.2-7.52 15.26-10.17 1.48-.48 2.93-.85 4.34-1.11M94.52 1181.61c.02.52.06 1.04.11 1.55.45 5.02 2.12 9.9 5.6 13.91 7.47 8.6 19.41 8.67 28.74 8.72 8.23.05 20.18-1.3 41.44-11.77 12.27-6.06 29.47-16.04 47.73-32.3.3-3.56.45-7.89.19-12.83-.28-5.1-1.02-10.85-2.54-17a91.29 91.29 0 0 0-6.24-17.47c-.84-1.79-1.69-3.43-2.51-4.92M129.39 1143.76s-.09-.03-.14-.04c-2.62-.68-5.61-1.02-8.84-.61-.25.03-.51.07-.75.12-4.42.69-8.05 2.63-10.98 5.05-5.6 4.56-8.67 10.8-9.83 13.17-.81 1.67-1.57 3.55-2.22 5.59-1.44 4.4-2.34 9.51-2.11 14.56M139.67 1148.92l-.14-.11c-.9-.69-2.63-1.93-4.98-3.1a27.91 27.91 0 0 0-5.13-1.95M134.55 1145.71c.56-.2 1.16-.42 1.78-.68 4.35-1.77 9.76-4.88 12.53-10.05 4.04-7.55 2.66-15.78 5.07-17.6.38-.3 2.24-.53 4.77-.62" style="fill:none;stroke:#000;strokeLinecap:round;stroke-linejoin:round;strokeWidth:1.02px"/><path d="M202.87 1113.79c-.99 13.75-8.69 19.33-12.85 20.95-3.15 1.24-8.36-4.94-11.35-11.45M218.33 1148.89c-7.64 4.26-41.37 31.77-72.47 41.14-17.27 5.21-29.38 2.09-32.75 1.51-8.14-1.41-14.94-5.21-17.78-8.74-.32-.4-.59-.8-.81-1.19h0v-.02M52.58 1124.81c-.72-.79-2.25-2.41-4.47-4.05-2.31-1.69-5.36-3.44-9.05-4.38-1.38-.36-2.86-.59-4.41-.67-13.47-.71-22.03 10.95-24.45 14.25-.57.77-1.13 1.6-1.68 2.49a44.75 44.75 0 0 0-4.54 9.67 38.26 38.26 0 0 0-1.62 6.9c-.73 5.52-.09 11.23 2.91 16.26 5.83 9.76 17.57 11.94 26.76 13.64 8.09 1.5 20.1 2.27 42.85-4.28 6.15-1.77 13.52-4.21 21.75-7.6M125.66 1097.37c2.01 5.94 4.23 14.48 4.86 24.11.4 6.38.11 12.21-.52 17.3-.22 1.73-.47 3.38-.75 4.94" style="fill:none;stroke:#000;strokeLinecap:round;stroke-linejoin:round;strokeWidth:1.02px"/><path d="M119.66 1143.23c4.61-2.17 8.42-3.77 10.34-4.45h.01M2.37 1149.02c1.39 4.13 7.89 9.93 16.56 13.07 3.21 1.16 14.59 6.37 32.5 4.3 19.7-2.29 41.44-11.02 57.25-18.11M48.11 1120.76c4.65-.81 11.64-2.84 15.98-8.04 3.77-4.52 3.55-10.61 4.67-13.97.58-1.7 1.48-2.7 3.42-2.46.85.11 2.01.24 3.37.41M125.66 1097.37c-.1 0-.2.01-.31.02-1.75.14-3.92 1.09-4.13 1.26-.12.08-.18 1.41-.1 2.17.11.99.05 1.98-.14 2.94-1.65 8.7-13.87 16.07-16.34 15.99-4.57-.16-6.14-4.52-7.74-9.81-.48-1.58-.96-3.24-1.53-4.9M111.63 12.61c1.83 2.38 3.55 5.62 4.87 10.31M50.33 7.48s.08 0 .12.02c1.7.31 3.06.79 3.98 1.18M124.71 18.84c1.05 2.52.96 4.79.94 5.1M78.18 3.71c2.79 1.94 4.53 4.26 5.68 5.35.45.42.8.66 1.1.64M144.12 41.4c-.68 2.11-1.75 4.13-3.21 5.94M142.95 57.52c-.93-1.08-1.96-2.09-3.05-3.06M36.87 73.03c-.17-2.86-.77-6.26-1.72-10.19-.01-.07-.03-.16-.05-.24M35.81 80.69c-.95 1.92-2.53 3.19-4.83 3.82-1.15.32-2.48.48-4.02.48-2.75 0-5.41-1.01-6.57-4.44-.48-1.45-.7-3.33-.55-5.74" style="fill:none;stroke:#000;strokeLinecap:round;stroke-linejoin:round;strokeWidth:1.02px"/><path d="M46.36 53.92c-2.2 6.34-6.83 8.82-11.21 8.92-3.83.1-7.45-1.67-9.04-4.29-1.57-2.6-2.69-5.6-2.83-8.66-.14-3.29.86-6.66 3.68-9.67" style="fill:none;stroke:#000;strokeLinecap:round;stroke-linejoin:round;strokeWidth:1.02px"/><path d="M41.21 32.08c-3.85 9.1.3 19.1 5.15 21.84.65.37 1.32.61 1.99.7 4.67.58 11.93-.73 14.61-6 .61-1.2.94-2.39 1.11-3.46.04-.31.48-.34.57-.03.28.97.74 1.94 1.43 2.8 4.01 4.98 13.89 4.29 19.9.43 1.02-.65 1.97-1.43 2.81-2.28 4.31-4.34 6.33-11.07 5.33-18.07M120.57 45.31c-.19.3-2.94 5.18-8.14 8.06-2.26 1.26-4.98 2.14-8.14 2.11-8.64-.08-13.94-7.19-15.17-8.96-.12-.17-.2-.29-.24-.35" style="fill:none;stroke:#000;strokeLinecap:round;stroke-linejoin:round;strokeWidth:1.02px"/><path d="M112.43 53.36h0c-1.77 17.25 4.63 27.22 10.53 29.77 1.53.67 3.3.83 4.99.34M147.74 105.58c.66 1.31 3.59 2.47 5.38 1.79 2.38-.9 4.24-4.54 3.05-9.16.55.03 1.97 1.1 3.4 2.94 1.96 2.54 3.95 6.54 3.73 11.3-.54 11.72-12.21 11.2-12.21 11.2 1.46 1.37 2.04 3.14 2.04 4.92 0 1.47-.39 2.94-1.03 4.23a7.449 7.449 0 0 1-2.28 2.78h0c-2.08 1.54-4.93 1.85-7.89.27M126.59 150.99c1.29 2.73 4.23 4.49 7.2 4.2 2.86-.29 5.58-2.78 6.25-5.6" style="fill:none;stroke:#000;strokeLinecap:round;stroke-linejoin:round;strokeWidth:1.02px"/><path d="M132.77 132.8c-3.06 6.98.11 14.49 5.09 16.31.7.26 1.43.4 2.18.45 3.32.22 6.95-1.51 9.01-4.8 2.38-3.79 1.48-8.22.78-9.17M37.03 135.56c.35 1.15.65 2.28.9 3.37 2.42 10.7-.06 18.42-2.83 18.27-1.81-.11-3.05-2.01-4.07-4.05-.21.33-.41.67-.57 1.01-1.91 3.76-1.21 7.9 2.61 10.18 2.55 1.54 5.75 2.09 8.61 1.22h0c1.05-.32 2.04-.82 2.95-1.55.6-.46 1.16-1.03 1.67-1.7M59.52 161.29c.26 2.62-.78 5.01-2.46 6.8-1.76 1.87-4.23 3.12-6.69 3.37-3.28.34-6.9-2.48-8.69-5.9M67.76 163.85c-.85 2.89-3.48 4.95-6.2 5.58-1.93.45-3.84-.79-4.5-1.34M128.71 114.4s-.01.05-.01.09M128.7 114.49c-.01.06-.01.08-.01.09-.01.09-.02.18-.04.28-.26 2.01-.89 5.2-1.99 9.04" style="fill:none;stroke:#000;strokeLinecap:round;stroke-linejoin:round;strokeWidth:1.02px"/><path d="M127.95 83.47c2.44-.69 4.72-2.72 5.97-6.51 1.18-.68 2.52-1.13 3.94-1.13 1.22 0 2.41.24 3.55.68.64-.49 6.57-4.91 5.61-10.86-.5-3.07-2.02-5.75-4.07-8.13.62-.66 3.88-4.21 4.07-8.14.21-4.58-2.39-7.44-2.9-7.98 1.67-5.21.94-10.95-2.19-15.42-3.78-5.41-10.45-8.18-17.22-7.14h-.01c-.61-1.45-1.62-2.99-3.27-4.27-4.13-3.21-9.19-2.09-9.8-1.96-1.76-2.28-3.61-3.76-5.31-4.95-4.28-3-8.13-4.14-11.6-4.42-4.52-.38-8.4.67-11.78.93-1.71.15-3.29.09-4.76-.46C75.47 1.81 71.77.27 66.64.54c-8 .43-15.43 6.78-16.31 6.94-1.86-.34-6.14-1.04-10.14 1.2-1.67.94-2.78 1.95-4.23 3.75-1.93 2.4-2.29 4.33-3.91 5.41-9.15 6.1-17.29 13.22-18.31 22.38-.79 7.15 1.02 13.23 1.02 16.28-4.07 9.15-3.84 12.52-3.06 20.35.39 3.91 2.49 9.38 9.09 15.34.43.38.88.77 1.35 1.16-1.22 1.67-2.11 4.13-2.67 6.89-.07.29-.13.58-.18.88-.68 3.73-.81 7.9-.46 11.33.8 7.98 3.97 14.5 7.68 18.63 3.57 4 7.65 5.77 10.52 4.48.34-.16.68-.37.99-.62.87 1.94 1.81 3.8 2.83 5.59 1.26 2.26 2.63 4.39 4.12 6.39 1.71 2.34 3.58 4.5 5.57 6.44.7.69 1.41 1.34 2.14 1.97a44.19 44.19 0 0 0 6.88 4.93c1.3.76 2.65 1.44 4.03 2.05.56.24 2.03.87 4.17 1.54 4.32 1.36 11.37 2.86 19.35 1.78h.01c1.96-.26 3.94-.68 5.98-1.29.39-.12.77-.24 1.15-.37 19.4-6.52 28.65-27.02 32.41-40.07" style="fill:none;stroke:#000;strokeLinecap:round;stroke-linejoin:round;strokeWidth:1.02px"/><path d="M30.73 104.87c-.2-2.68-.32-5.4-.33-8.18 0-1.02.01-2.05.04-3.09.07-2.98.25-6.02.54-9.09M38.02 134.94c-1.55-3.43-2.86-7.09-3.95-10.94-1.65-5.81-2.76-12.08-3.3-18.67M22.14 93.35c1.03-1.42 2.29-2.26 3.81-2.26 2.8 0 3.69 1.28 4.48 2.51" style="fill:none;stroke:#000;strokeLinecap:round;stroke-linejoin:round;strokeWidth:1.02px"/><path d="M30.77 105.33c0-.14-.02-.29-.04-.46-.21-1.81-1.2-4.93-3.77-5.64-1.07-.29-2.54-.09-3.66.55-.63.36-1.15.85-1.42 1.48M128.7 114.49c.65.78 2.39 2.03 5.09 2.03 2.4 0 4.63-.69 6.11-1.43.39-.2.74-.41 1.01-.6.4-.28.84-.64 1.3-1.08 1.71-1.62 3.81-4.3 5.53-7.83 1.9-3.9 3.35-8.82 3.35-14.49s-4.19-12.46-9.68-14.58" style="fill:none;stroke:#000;strokeLinecap:round;stroke-linejoin:round;strokeWidth:1.02px"/><path d="M132.2 90.39c.67-.84 1.53-1.65 2.61-2.35 3.03-1.94 6.16-1.89 8.14-1.55 1.1.19 1.84.46 2.03.53M129.72 96.18c.06-.49.45-3.25 2.47-5.78" style="fill:none;stroke:#000;strokeLinecap:round;stroke-linejoin:round;strokeWidth:1.02px"/><path d="M135.5 88.36c.95.5 2.56 1.63 3.38 3.75.93 2.43.2 4.55 0 5.08M134.81 88.04c.11.04.35.14.68.32M87.12 165.63A59.742 59.742 0 0 1 92 182.12c.03.18.05.36.08.54.99 7.03.62 13.29-.2 18.37-.07.45-.14.89-.23 1.32-.47 2.64-1.06 4.92-1.61 6.76M126.66 123.9c-.42 8.31-.52 17.34-.07 27.09.21 4.94.58 10.07 1.1 15.39 1.05 10.68 2.62 20.55 4.44 29.5.22 1.03.43 2.05.64 3.05M216.83 501.52c-4.51 8.39-9.34 17.45-14.4 27M253.73 327c-.5-1.91-1.02-3.87-1.54-5.87-.86-3.25-1.74-6.62-2.66-10.09M239.35 386.75c-1.19 2.28-2.38 4.57-3.57 6.85M182.25 496.42c-1.39 2.68-3.06 5.86-4.46 8.54M26.87 347.63l1.53 11.24c.47 3.5.95 7.01 1.43 10.51 2.89 21.31 5.79 42.62 8.69 63.93.83 6.14 1.66 12.28 2.5 18.42M125.35 1097.39c-.16-1.87-.31-3.73-.46-5.6l-.09-1.09" style="fill:none;stroke:#000;strokeLinecap:round;stroke-linejoin:round;strokeWidth:1.02px"/><path d="M176.63 500.85c.24 1.02.59 2.44 1.16 4.11h0c1.37 3.96 3.94 9.35 8.86 14.26 3.38 3.38 7.03 5.7 10.47 7.29 1.86.86 3.65 1.51 5.31 2.01 3.83 1.14 6.92 1.42 8.33 1.53M107.59 72.17c-2.25 1.03-5.96 1.62-11.44 1.62-7.48 0-11.95.43-14.26-.25-1.41-.4-2.02-1.22-2.02-2.8 0-4.07 8.24-7.87 16.28-8.14 6.16-.2 14.24 2.41 14.24 6.11 0 1.4-.87 2.6-2.8 3.46ZM36.87 73.03c.1-.08.18-.17.27-.25 1.63-1.55 4.7-3.48 8.14-5.09 4.18-1.95 11.98-1.64 15.26 0 4.07 2.03 2.25 4.82 0 6.1-.32.18-.65.36-.98.53-7.09 3.81-15.49 6-19.37 6.6-.72.11-1.54.14-2.38.08-.68-.04-1.37-.15-2-.31.94-1.9 1.27-4.45 1.06-7.66ZM60.54 111.44c.22-.37 2.33-3.75 6.47-4.8.52-.14 1.08-.24 1.67-.29 5.54-.46 8.92 3.76 9.15 4.07M83.94 120.93h-.08M69.72 143.09c-.42-1.6-2.06-6.22.99-12.32 2.68-5.35 6.76-7.86 9.7-8.98 1.64-.63 2.92-.83 3.42-.85M87.99 87.6c-.64-1.06-1-2.3-1-3.63s.35-2.53.97-3.58a7.093 7.093 0 0 1 6.15-3.54c2.29 0 4.33 1.08 5.63 2.75a7.079 7.079 0 0 1 1.49 4.37c0 1.2-.29 2.33-.81 3.32M94.74 91.06a6.75 6.75 0 0 1-2.55-.24c-.73-.2-1.42-.51-2.03-.93M99.09 89.06c-.77.76-1.72 1.34-2.78 1.68M48.62 93.28a7.029 7.029 0 0 1-2.32-5.19v-.05a7.11 7.11 0 0 1 7.12-7.12c2.03 0 3.86.85 5.15 2.21a7.098 7.098 0 0 1 1.97 4.91c0 .46-.04.91-.14 1.35M52.85 95.13a6.04 6.04 0 0 1-1.42-.26M56.26 94.56c-.83.37-1.74.58-2.69.59M60.25 90.03c-.13.49-.33.95-.56 1.39M85.79 205.51c-.44.74-.69 1.44-.69 1.98 0 6.83 14.25 9.76 26.69 9.76 2.66 0 5.61-.4 8.6-1.11 3.79-.9 7.63-2.3 10.96-4.03 2.44-1.27 4.61-2.72 6.29-4.26 2.34-2.15 3.74-4.51 3.65-6.88-.06-1.58-.88-2.88-2.49-3.78-1.33-.73-3.18-1.19-5.6-1.29-.34 0-.7-.02-1.07-.02M91.88 201.03c-.76 0-1.56.28-2.34.73-1.49.85-2.89 2.33-3.7 3.68" style="fill:none;stroke:#000;strokeLinecap:round;stroke-linejoin:round;strokeWidth:1.02px"/><path d="M85.84 205.44c.08-.08.15-.17.23-.26M54.43 344.42s-.11.05-.16.08c-9.53 4.5-18.67 5.56-27.4 3.13-9.24-2.57-18.04-9.05-26.36-19.49.83-2.52 1.65-4.99 2.45-7.4 1.67-5.03 3.26-9.83 4.78-14.4 11.67-35.2 18.87-57.13 22.28-70.78.89-3.59 2.43-10.36 9.15-17.3 4.59-4.74 10.35-8.15 26.46-8.14h.91c9.14-.09 16.49-1.57 19.25-4.6M219.01 341.82c-2.13.17-4.11.23-5.89.2-3.64-.04-6.47-.4-8.11-.65-2.79-8.09-5.57-16.17-8.36-24.25-6.04-17.53-12.09-35.05-18.13-52.57-1.34-3.9-2.69-7.79-4.03-11.69M138.8 197.19c21.66 3.99 34.13.39 43.64.27 8.31-.1 12.08 2.13 15.26 4.07 13.22 8.04 19.28 21.01 22.39 25.43 11.88 16.96 24.68 45.88 45.78 81.39" style="fill:none;stroke:#000;strokeLinecap:round;stroke-linejoin:round;strokeWidth:1.02px"/><path d="M253.73 327c9.02 34.18 14.69 55.03 16.87 60.6.54 1.4 1.22 3.48 1.16 5.36-.06 2.07-3.22 9.55-4.27 12.1-1.15 2.82-13.94 28.4-36.78 70.67-4.27 7.9-8.9 16.49-13.88 25.79.17.08.35.16.52.24.88 4.55 1.41 8.59 1.66 12.4.3 4.56.19 8.8-.23 13.21-.76 8.01-2.51 16.57-4.61 28.67-1.38 7.92-2.68 15.69-3.92 23.28-17.05 104.56-21.28 177.46-23.55 203.6-6.11 70.2-7.13 165.83 20.34 326.58-.54.65-1.26 1.47-2.18 2.4-.58.6-1.24 1.23-1.99 1.89-3.21 2.82-7.89 6.03-14.14 7.92a36.558 36.558 0 0 1-10.06 1.58c-.41-.88-.76-1.76-1.08-2.64-.03-.09-.07-.18-.12-.27-1.69-3.12-12.37-3.85-18.77-3.62-1.94-7.02-3.87-14.21-5.78-21.56-22.2-85.61-41.07-193.1-42.53-317.37-.74-63.56 3.17-122.05 9.54-174.52 1.15-9.51 2.39-18.83 3.69-27.94-3.05-.68-6.11-1.35-9.16-2.03-.44 1.89-.88 3.79-1.32 5.71-12.44 54.65-22.72 120.26-25.13 194.71-4.18 129.02 16.79 237.02 38.66 314.38-.4.6-1.02 1.49-1.87 2.56-.16.21-.34.42-.52.64a38.852 38.852 0 0 1-5.19 5.15 37.38 37.38 0 0 1-12.77 6.91c-3.86 1.2-7.56 1.65-10.95 1.64-.15-.45-.31-.91-.47-1.36-.16-.44-.42-.85-.78-1.24-3.04-3.42-12.64-4.98-18.57-5.74-1.79-5.17-3.62-10.54-5.49-16.1-24.91-74.35-55.27-183.52-59.37-318.03-2.45-80.46 11.09-151.31 22.98-209.34 2.56-12.54 5.06-24.47 7.29-35.78-2.16.05-6.22-.3-9.93-3.12-6.7-5.1-6.15-13.62-6.1-14.25a111.587 111.587 0 0 1 19.33-.25c1 .06 2.02.15 3.05.25 8.25.82 13.86 2.31 18.85 4.08 7.26 2.56 13.18 5.68 23.88 8.13 9.06 2.08 34.4 6.6 60.03-3.05 13.28-5 11.65-8.16 23.4-11.19 1.48-.38 4.59-1.12 8.78-1.63 1.2-2.31 2.41-4.62 3.61-6.93 12.87-24.73 25.74-49.45 38.62-74.19 1.91-3.66 3.82-7.33 5.73-11 1.85-3.56 3.71-7.13 5.57-10.7-.72-2.26-1.45-4.55-2.2-6.88-3-9.32-6.21-19.17-9.39-28.94-.95-2.9-1.89-5.79-2.82-8.66-.79-2.45-1.59-4.89-2.36-7.3-.53-1.64-1.06-3.27-1.58-4.88-.95-2.97-1.89-5.89-2.8-8.74 3.98-4.12 9.18-8.27 15.81-11.25a80.741 80.741 0 0 1 19.09-5.92c7.32-1.29 13.05-1.23 16.32-1.21h1.21a61.07 61.07 0 0 1-7.52 11.19 57.743 57.743 0 0 1-5.82 5.98Z" style="fill:none;stroke:#000;strokeLinecap:round;stroke-linejoin:round;strokeWidth:1.02px"/><path d="M205.01 341.37c1.53-2.77 4.6-7.95 9.62-13.17M218.78 527.37c1.62.13 5.72.29 8.61-.84 2.97-1.17 5.09-3.06 6.55-4.85 1.53-1.88 2.33-3.64 2.61-4.3-2.14-13.87-4.1-27.75-5.84-41.65M224.48 415.3c-1.71-21.95-2.8-44-3.11-66.18" style="fill:none;stroke:#000;strokeLinecap:round;stroke-linejoin:round;strokeWidth:1.02px"/><path d="M217.35 501.76c2 .98 4 2.11 5.97 3.41 6.34 4.17 10.62 8.89 13.23 12.21M24.93 500.08c3.96-8.13 9.05-16.18 11.19-25.43 1.77-7.66 3.4-15.31 4.9-22.92 2.17-11.03 4.05-21.98 5.68-32.82 3.86-25.59 6.28-50.57 7.57-74.41 1.93-35.75 1.32-68.94-.85-97.75M134.81 108.39c1.13 0 2.03.91 2.03 2.03s-.9 2.03-2.03 2.03-2.04-.91-2.04-2.03.92-2.03 2.04-2.03ZM106.55 234.86a5 5 0 0 1 2.2 1.56c.71.87 1.13 1.99 1.13 3.21a5.073 5.073 0 0 1-2.6 4.43c-.73.42-1.58.66-2.48.66a5.091 5.091 0 0 1-1.01-10.08c.24-.05.5-.08.76-.09" style="fill:none;stroke:#000;strokeLinecap:round;stroke-linejoin:round;strokeWidth:1.02px"/><path d="M107.34 233.02c0 .72-.31 1.37-.79 1.84-.01 0-.03.03-.05.04-.59-.19-1.21-.32-1.86-.35h-.09c-.09-.01-.17-.01-.26-.01-.49 0-.96.05-1.42.14-.38-.43-.62-1.02-.62-1.66a2.554 2.554 0 0 1 2.55-2.55c1.4 0 2.54 1.14 2.54 2.55ZM131.95 194.67c.46.42.87.82 1.25 1.23 2.48 2.66 3.39 5.12 3.84 6.91.42 1.71.62 3.39.6 5.04-.04 3.99-1.29 7.77-3.48 11.12-5.14 7.89-15.4 13.44-26.82 14.05M91.88 201.03c-.43.05-.65.11-1.26.37-.27.17-.54.33-.8.5-1.48.94-2.75 1.95-3.98 3.54-.02.03-.03.05-.05.07-.25.32-.51.69-.76 1.07-.46.78-.84 1.61-1.09 2.53-2.18 7.75 4.65 18.8 18.31 23.4M135.83 113.41h8.14M139.9 109.34v11.19" style="fill:none;stroke:#000;strokeLinecap:round;stroke-linejoin:round;strokeWidth:1.02px"/><path d="M44.26 499.82h0c-.9 5.02-1.89 10.39-2.93 15.74-.12.63-.25 1.26-.37 1.89" style="fill:none;stroke:#070707;strokeLinecap:round;stroke-linejoin:round;strokeWidth:1.02px"/><path d="M80.09 113.88c4.73.65 8.17 1.83 10.09 3.64.8.76 1.34 1.63 1.6 2.61.09.35-.28.64-.66.5-4.69-1.66-11.3-1.86-18.55-1.58l-.81.03c-.27.02-.48-.26-.36-.48.85-1.56 1.7-3.11 2.55-4.66.01-.02.02-.03.03-.05.17-.31.54-.5.92-.48 1.87.1 3.61.26 5.19.47ZM68.31 119.62c.33-.14.66-.27.99-.41.25-.1.31-.44.11-.6-1.46-1.09-2.92-2.19-4.38-3.28-.3-.21-.71-.24-1.05-.06-8.63 4.56-13.16 8.99-12.33 13.24.07.38.53.48.81.2.54-.54 1.13-1.06 1.78-1.57 3.51-2.78 8.51-5.21 14.07-7.52Z" style="fill:none;stroke:#000;strokeLinecap:round;stroke-linejoin:round;strokeWidth:1.02px"/><path d="M73.95 113.94c-1.91-.29-3.45-.77-4.04-1.19-1.91-1.36-2.79-3.72-2.9-6.11-.04-.72-.01-1.45.09-2.16.41-3.03 1.73-5.85 2.55-8.8 1.78-6.39 1.18-13.18.38-19.77-.15-1.25-.31-2.54.05-3.75.35-1.21 1.35-2.33 2.6-2.4 1.19-.07 2.27.81 2.8 1.88.53 1.06.62 2.28.69 3.47.59 9.68.6 19.75 4.8 28.49.73 1.51 1.59 3 1.95 4.64.35 1.65.11 3.54-1.12 4.7-.48.45-1.07.75-1.71.94-.84.27-1.78.34-2.67.34-1.2 0-2.4-.11-3.47-.28Z" style="fill:none;stroke:#000;stroke-miterlimit:10"/></g></g></g></g></svg>