<svg width="429" height="181" viewBox="0 0 429 181" fill="none" xmlns="http://www.w3.org/2000/svg">
<path d="M33.1198 91.76C14.5098 91.76 0.799805 77.8 0.799805 58.96C0.799805 41.19 14.7598 26.99 32.8898 26.99C53.5198 26.99 64.4998 44.05 64.4998 61.58H15.7198C16.9098 71.48 23.7098 77.44 33.1298 77.44C39.6898 77.44 46.0098 74.1 48.5198 68.49H63.6698C60.4398 82.82 47.7898 91.76 33.1198 91.76ZM16.6598 52.04H48.1498C46.2398 45 40.8698 40.71 32.9998 40.71C25.1298 40.71 18.9298 45 16.6598 52.04Z" fill="#0047ab"/>
<path d="M75.5796 18.05V0.52002H92.6396V18.05H75.5796ZM75.5796 89.97V28.66H92.6396V89.97H75.5796Z" fill="#0047ab"/>
<path d="M123.34 49.42V89.97H106.28V28.66H123.34V39.04C128.11 31.76 136.34 26.99 144.93 26.99C158.53 26.99 166.76 36.17 166.76 50.25V89.97H149.7V54.9C149.7 47.62 146 42.26 137.77 42.26C131.33 42.26 126.21 45.96 123.34 49.42Z" fill="#0047ab"/>
<path d="M178.26 179.45V166.21H184.58C187.8 166.21 186.59 163.54 186.59 159.96V42.7601H175.97V29.2801H186.59V19.0201C186.59 8.05013 193.15 1.13013 207.11 1.13013H214.98V14.3701H208.78C205.56 14.3701 203.65 16.0401 203.65 19.6201V29.2801H214.98V42.7601H203.65V160.55C203.65 171.52 200.09 179.44 186.13 179.44H178.26V179.45Z" fill="#0047ab"/>
<path d="M265.12 79.71C260.47 87.34 253.07 91.76 244.6 91.76C228.74 91.76 216.21 77.92 216.21 59.2C216.21 40.83 228.73 27 244.6 27C253.07 27 260.46 31.41 265.12 38.93V28.67H281.7V92.98H265.12V79.71ZM248.66 76.37C256.05 76.37 262.26 71.72 265.12 66.23V52.4C262.14 46.91 256.05 42.26 248.66 42.26C239.95 42.26 232.91 49.3 232.91 59.2C232.91 69.34 239.95 76.37 248.66 76.37Z" fill="#0047ab"/>
<path d="M326.19 91.76C306.51 91.76 292.55 77.69 292.55 59.2C292.55 41.07 306.51 27 326.19 27C341.94 27 354.58 36.42 357.56 51.57H341.58C339.08 46.08 333.35 42.15 326.19 42.15C315.93 42.15 308.66 49.66 308.66 59.21C308.66 69.11 315.94 76.62 326.19 76.62C333.35 76.62 338.83 72.92 341.46 67.56H357.56C354.7 82.58 341.81 91.76 326.19 91.76Z" fill="#0047ab"/>
<path d="M384.99 49.06V89.97H367.93V0.51001H384.99V38.44C389.52 31.4 397.28 26.99 405.86 26.99C420.05 26.99 428.4 36.65 428.4 51.32V89.97H411.34V55.74C411.34 47.87 407.76 42.26 398.93 42.26C392.63 42.26 387.62 45.6 384.99 49.06Z" fill="#0047ab"/>
<path d="M33.1198 178.76C14.5098 178.76 0.799805 164.8 0.799805 145.96C0.799805 128.19 14.7598 113.99 32.8898 113.99C53.5198 113.99 64.4998 131.05 64.4998 148.58H15.7198C16.9098 158.48 23.7098 164.44 33.1298 164.44C39.6898 164.44 46.0098 161.1 48.5198 155.49H63.6698C60.4398 169.82 47.7898 178.76 33.1198 178.76ZM16.6598 139.04H48.1498C46.2398 132 40.8698 127.71 32.9998 127.71C25.1298 127.71 18.9298 132 16.6598 139.04Z" fill="#0047ab"/>
<path d="M75.5796 105.05V87.52H92.6396V105.05H75.5796ZM75.5796 178.97V115.66H92.6396V178.97H75.5796Z" fill="#0047ab"/>
<path d="M123.34 138.42V178.97H106.28V117.66H123.34V128.04C128.11 120.76 136.34 115.99 144.93 115.99C158.53 115.99 166.76 125.17 166.76 139.25V178.97H149.7V143.9C149.7 136.62 146 131.26 137.77 131.26C131.33 131.26 126.21 134.96 123.34 138.42Z" fill="#0047ab"/>
<path d="M265.12 168.71C260.47 176.34 253.07 180.76 244.6 180.76C228.74 180.76 216.21 166.92 216.21 148.2C216.21 129.83 228.73 115.99 244.6 115.99C253.07 115.99 260.46 120.4 265.12 127.92V117.66H281.7V178.97H265.12V168.71ZM248.66 165.37C256.05 165.37 262.26 160.72 265.12 155.23V141.4C262.14 135.91 256.05 131.26 248.66 131.26C239.95 131.26 232.91 138.3 232.91 148.2C232.91 158.34 239.95 165.37 248.66 165.37Z" fill="#0047ab"/>
<path d="M326.19 180.76C306.51 180.76 292.55 166.69 292.55 148.2C292.55 130.07 306.51 115.99 326.19 115.99C341.94 115.99 354.58 125.41 357.56 140.56H341.58C339.08 135.07 333.35 131.14 326.19 131.14C315.93 131.14 308.66 138.65 308.66 148.2C308.66 158.1 315.94 165.61 326.19 165.61C333.35 165.61 338.83 161.91 341.46 156.55H357.56C354.7 171.58 341.81 180.76 326.19 180.76Z" fill="#0047ab"/>
<path d="M384.99 138.06V178.97H367.93V89.51H384.99V127.44C389.52 120.4 397.28 115.99 405.86 115.99C420.05 115.99 428.4 125.65 428.4 140.32V178.97H411.34V144.74C411.34 136.87 407.76 131.26 398.93 131.26C392.63 131.26 387.62 134.6 384.99 138.06Z" fill="#0047ab"/>
</svg>
