<svg width="461.29" height="180.38" viewBox="0 0 461.29 180.38" fill="none" xmlns="http://www.w3.org/2000/svg" >
    <path d="M104.02,24.69c-2.3-1.82-4.62-3.64-6.96-5.44C84.4,9.48,69.7,1.22,53.72,.54,29.39-.5,5.98,18.53,1.36,42.45c-4.77,24.69,10.74,52.65,34.77,60.82,10.02,3.41,20.8,3.78,31.38,3.79,83.47,.06,165.61-20.61,248.93-25.54,19.01-1.12,38.03-1.3,57.03-1.24,23.49,.08,48.1-1.95,68.4,12.34,9.72,6.84,17.23,17.37,18.66,29.17,1.76,14.52-5.84,28.94-16.59,38.87-13.31,12.3-31.45,18.93-49.56,19.22-22.05,.35-40.31-9-58.91-19.64-21.04-12.04-39.72-27.96-59.35-42.07-15.53-11.17-31.72-21.8-49.56-28.93-19.32-7.73-39.26-9.51-58.17-19.04-24.06-12.13-43.62-29.05-64.39-45.49Z" stroke="#0047ab" stroke-width="3" stroke-linecap="round"/>
</svg>