<?xml version="1.0" encoding="utf-8"?>
<!-- Generator: Adobe Illustrator 26.5.0, SVG Export Plug-In . SVG Version: 6.00 Build 0)  -->
<svg version="1.1" id="Layer_1" xmlns="http://www.w3.org/2000/svg" xmlns:xlink="http://www.w3.org/1999/xlink" x="0px" y="0px"
	 viewBox="0 0 392 582" style="enable-background:new 0 0 392 582;" xml:space="preserve">
<style type="text/css">
	.st0{fill:none;stroke:#0047ab;strokeWidth:3;}
</style>
<path class="st0" d="M109.3-0.9C103.7,4.8,98.2,10.6,99,17.6c0.6,4.8,2.3,9,8.3,12c24.8,12.2,56.6,20.1,85.8,26.1
	C226.8,62.7,261.9,66,296,71.9c17.9,3.1,35.5,6.8,50.7,14c19.1,9.1,28.4,20.6,35.8,35c12.1,23.5,2.7,47.6-24.3,65.3
	c-21,13.7-49.3,19.1-77.6,22.4c-42,4.9-85,5.8-127.5,6.9c-35.4,0.9-71.5,0.9-106.5,5.3c-13.5,1.7-27.3,4.4-37.4,10.9
	c-9.9,6.4-10.9,15.8-7.6,24.3c8.7,22.1,60.3,27.8,86.9,32.3c49.5,8.5,99.5,15.3,148.5,25.2c25.7,5.2,55.5,10.6,77.1,21.9
	c15.9,8.3,15.8,21.2,12.9,33.5c-4.1,17.7-15.7,32.8-34.2,45.8c-31.8,22.2-77.5,29.1-116.7,43.8c-53.2,19.9-98.8,49.9-130.8,84.3
	C38,550.6,16,577.4,43,581.5c17.9,2.7,38.1-6.9,52.1-12.9c4.9-2.1,9.7-4.3,14.4-6.6"/>
</svg>
